<svg width="220" height="71" viewBox="0 0 220 71" fill="none" xmlns="http://www.w3.org/2000/svg">
<path d="M68.7721 60.0447C69.2837 59.9597 69.9519 59.8864 70.8035 59.8864C71.85 59.8864 72.6166 60.1296 73.1032 60.5679C73.5531 60.9579 73.8214 61.5528 73.8214 62.2827C73.8214 63.0242 73.6031 63.6091 73.1882 64.0341C72.6282 64.6307 71.7167 64.934 70.6818 64.934C70.3652 64.934 70.0736 64.9223 69.8303 64.8606V68.1451H68.7721V60.0447ZM69.8303 63.9974C70.0619 64.0591 70.3536 64.0824 70.7068 64.0824C71.985 64.0824 72.7632 63.4625 72.7632 62.331C72.7632 61.2478 71.9967 60.7262 70.8285 60.7262C70.3669 60.7262 70.0136 60.7629 69.8303 60.8112V63.9974Z" fill="#102D6F"/>
<path d="M75.0128 64.0939C75.0128 63.4007 75.0012 62.8041 74.9645 62.2575H75.901L75.9377 63.4124H75.986C76.2543 62.6208 76.8976 62.1226 77.6158 62.1226C77.7375 62.1226 77.8224 62.1342 77.9191 62.1592V63.1691C77.8091 63.1441 77.7008 63.1324 77.5541 63.1324C76.7993 63.1324 76.2643 63.704 76.1194 64.5072C76.0944 64.6538 76.071 64.8238 76.071 65.0055V68.1433H75.0128V64.0939Z" fill="#102D6F"/>
<path d="M79.4655 65.3954C79.4905 66.8435 80.4137 67.4384 81.4852 67.4384C82.2518 67.4384 82.7134 67.3051 83.115 67.1335L83.2983 67.9C82.9217 68.07 82.2768 68.265 81.3403 68.265C79.5272 68.265 78.4457 67.0735 78.4457 65.2971C78.4457 63.5207 79.4922 62.1226 81.207 62.1226C83.1283 62.1226 83.6399 63.814 83.6399 64.8955C83.6399 65.1138 83.6149 65.2854 83.6033 65.3937H79.4655V65.3954ZM82.6034 64.6288C82.6151 63.9473 82.3235 62.8891 81.1186 62.8891C80.0355 62.8891 79.5622 63.8873 79.4772 64.6288H82.6034Z" fill="#102D6F"/>
<path d="M84.963 64.179C84.963 63.4242 84.9381 62.8159 84.9147 62.2577H85.8763L85.9246 63.2675H85.9496C86.3878 62.5493 87.0811 62.1243 88.0426 62.1243C89.4657 62.1243 90.5356 63.3292 90.5356 65.1172C90.5356 67.2336 89.2458 68.2801 87.8593 68.2801C87.0811 68.2801 86.3995 67.9401 86.0462 67.3552H86.0212V70.5548H84.963V64.179ZM86.0212 65.7488C86.0212 65.9071 86.0462 66.0538 86.0696 66.1871C86.2645 66.9286 86.9094 67.4402 87.676 67.4402C88.8075 67.4402 89.4641 66.5154 89.4641 65.1656C89.4641 63.9857 88.8441 62.9759 87.7126 62.9759C86.9827 62.9759 86.3012 63.4991 86.0946 64.3024C86.0579 64.4357 86.0212 64.594 86.0212 64.7406V65.7488Z" fill="#102D6F"/>
<path d="M95.1449 68.1451L95.0599 67.4036H95.0233C94.695 67.8652 94.0617 68.2801 93.2235 68.2801C92.032 68.2801 91.4238 67.4402 91.4238 66.5887C91.4238 65.1656 92.6886 64.3873 94.9633 64.399V64.2774C94.9633 63.7908 94.83 62.9142 93.6251 62.9142C93.0769 62.9142 92.5053 63.0842 92.092 63.3525L91.8487 62.6476C92.3353 62.331 93.0402 62.1243 93.7834 62.1243C95.5832 62.1243 96.0215 63.3525 96.0215 64.5323V66.7337C96.0215 67.2453 96.0464 67.7435 96.1181 68.1451H95.1449ZM94.9866 65.1406C93.8184 65.1156 92.4936 65.3222 92.4936 66.467C92.4936 67.1603 92.9552 67.4886 93.5035 67.4886C94.27 67.4886 94.7566 67.002 94.9266 66.5037C94.9633 66.3937 94.9883 66.2721 94.9883 66.1638V65.1406H94.9866Z" fill="#102D6F"/>
<path d="M98.941 60.6028C98.9527 60.9678 98.6861 61.2594 98.2595 61.2594C97.8829 61.2594 97.6146 60.9678 97.6146 60.6028C97.6146 60.2262 97.8945 59.9346 98.2845 59.9346C98.6844 59.9346 98.941 60.2262 98.941 60.6028ZM97.7479 68.145V62.2576H98.8177V68.145H97.7479Z" fill="#102D6F"/>
<path d="M105.68 59.508V66.6236C105.68 67.1469 105.692 67.7435 105.728 68.1451H104.767L104.718 67.1236H104.693C104.365 67.7801 103.647 68.2784 102.687 68.2784C101.264 68.2784 100.169 67.0736 100.169 65.2855C100.157 63.3275 101.374 62.1226 102.809 62.1226C103.709 62.1226 104.317 62.5476 104.585 63.0225H104.61V59.5063H105.68V59.508ZM104.608 64.6539C104.608 64.5206 104.597 64.3373 104.56 64.204C104.402 63.5224 103.819 62.9625 103.015 62.9625C101.909 62.9625 101.252 63.9357 101.252 65.2372C101.252 66.4287 101.836 67.4152 102.992 67.4152C103.71 67.4152 104.367 66.9403 104.562 66.1371C104.598 65.9904 104.61 65.8454 104.61 65.6755V64.6539H104.608Z" fill="#102D6F"/>
<path d="M115.8 67.8768C115.41 68.0717 114.632 68.2667 113.636 68.2667C111.324 68.2667 109.584 66.8069 109.584 64.119C109.584 61.5527 111.324 59.8129 113.867 59.8129C114.889 59.8129 115.534 60.0312 115.814 60.1779L115.559 61.0411C115.157 60.8461 114.585 60.7011 113.904 60.7011C111.982 60.7011 110.704 61.9293 110.704 64.0823C110.704 66.0887 111.859 67.3785 113.856 67.3785C114.5 67.3785 115.157 67.2452 115.584 67.0386L115.8 67.8768Z" fill="#102D6F"/>
<path d="M120.265 68.1451L120.18 67.4036H120.143C119.815 67.8652 119.181 68.2801 118.343 68.2801C117.152 68.2801 116.543 67.4402 116.543 66.5887C116.543 65.1656 117.808 64.3873 120.083 64.399V64.2774C120.083 63.7908 119.95 62.9142 118.745 62.9142C118.198 62.9142 117.625 63.0842 117.212 63.3525L116.968 62.6476C117.455 62.331 118.16 62.1243 118.903 62.1243C120.703 62.1243 121.141 63.3525 121.141 64.5323V66.7337C121.141 67.2453 121.166 67.7435 121.238 68.1451H120.265ZM120.106 65.1406C118.938 65.1156 117.613 65.3222 117.613 66.467C117.613 67.1603 118.075 67.4886 118.623 67.4886C119.39 67.4886 119.876 67.002 120.046 66.5037C120.083 66.3937 120.106 66.2721 120.106 66.1638V65.1406Z" fill="#102D6F"/>
<path d="M122.869 64.0939C122.869 63.4007 122.858 62.8041 122.821 62.2575H123.757L123.794 63.4124H123.842C124.111 62.6208 124.754 62.1226 125.472 62.1226C125.594 62.1226 125.679 62.1342 125.777 62.1592V63.1691C125.667 63.1441 125.559 63.1324 125.412 63.1324C124.657 63.1324 124.122 63.704 123.977 64.5072C123.952 64.6538 123.929 64.8238 123.929 65.0055V68.1433H122.871V64.0939H122.869Z" fill="#102D6F"/>
<path d="M131.81 59.508V66.6236C131.81 67.1469 131.821 67.7435 131.858 68.1451H130.896L130.848 67.1236H130.823C130.495 67.7801 129.777 68.2784 128.817 68.2784C127.394 68.2784 126.299 67.0736 126.299 65.2855C126.287 63.3275 127.504 62.1226 128.938 62.1226C129.838 62.1226 130.446 62.5476 130.715 63.0225H130.74V59.5063H131.81V59.508ZM130.74 64.6539C130.74 64.5206 130.728 64.3373 130.691 64.204C130.533 63.5224 129.95 62.9625 129.147 62.9625C128.04 62.9625 127.384 63.9357 127.384 65.2372C127.384 66.4287 127.967 67.4152 129.123 67.4152C129.841 67.4152 130.498 66.9403 130.693 66.1371C130.73 65.9904 130.741 65.8454 130.741 65.6755V64.6539H130.74Z" fill="#102D6F"/>
<path d="M136.056 66.8552C136.531 67.1469 137.224 67.3902 137.954 67.3902C139.037 67.3902 139.668 66.8186 139.668 65.992C139.668 65.2255 139.23 64.7872 138.124 64.3623C136.785 63.8873 135.959 63.1941 135.959 62.0393C135.959 60.7628 137.017 59.8129 138.61 59.8129C139.45 59.8129 140.058 60.0079 140.423 60.2145L140.132 61.0778C139.863 60.9311 139.317 60.6878 138.575 60.6878C137.455 60.6878 137.03 61.356 137.03 61.916C137.03 62.6825 137.529 63.0591 138.66 63.4974C140.047 64.0323 140.753 64.7022 140.753 65.9054C140.753 67.1702 139.817 68.265 137.882 68.265C137.092 68.265 136.227 68.0334 135.791 67.7418L136.056 66.8552Z" fill="#102D6F"/>
<path d="M147.562 65.1521C147.562 67.3301 146.054 68.2783 144.631 68.2783C143.038 68.2783 141.808 67.1101 141.808 65.2487C141.808 63.2774 143.098 62.1226 144.728 62.1226C146.419 62.1242 147.562 63.3524 147.562 65.1521ZM142.891 65.2138C142.891 66.5036 143.633 67.4768 144.679 67.4768C145.701 67.4768 146.467 66.5152 146.467 65.1904C146.467 64.1922 145.969 62.9274 144.704 62.9274C143.44 62.9274 142.891 64.0939 142.891 65.2138Z" fill="#102D6F"/>
<path d="M148.914 59.5081H149.984V68.1451H148.914V59.5081Z" fill="#102D6F"/>
<path d="M156.711 66.5403C156.711 67.1485 156.723 67.6834 156.759 68.1467H155.811L155.749 67.1852H155.724C155.444 67.6601 154.825 68.28 153.778 68.28C152.853 68.28 151.747 67.7684 151.747 65.7004V62.2576H152.816V65.5171C152.816 66.6369 153.156 67.3902 154.13 67.3902C154.848 67.3902 155.346 66.8919 155.541 66.417C155.603 66.2586 155.638 66.0637 155.638 65.8704V62.2576H156.708V66.5403H156.711Z" fill="#102D6F"/>
<path d="M159.777 60.5662V62.2576H161.31V63.0725H159.777V66.2471C159.777 66.977 159.984 67.3902 160.58 67.3902C160.86 67.3902 161.067 67.3536 161.2 67.3169L161.249 68.1201C161.042 68.2051 160.714 68.2668 160.3 68.2668C159.802 68.2668 159.401 68.1085 159.146 67.8168C158.841 67.5002 158.732 66.977 158.732 66.2837V63.0725H157.821V62.2576H158.732V60.8462L159.777 60.5662Z" fill="#102D6F"/>
<path d="M163.705 60.6028C163.717 60.9678 163.45 61.2594 163.023 61.2594C162.647 61.2594 162.378 60.9678 162.378 60.6028C162.378 60.2262 162.658 59.9346 163.048 59.9346C163.45 59.9346 163.705 60.2262 163.705 60.6028ZM162.513 68.145V62.2576H163.583V68.145H162.513Z" fill="#102D6F"/>
<path d="M170.689 65.1521C170.689 67.3301 169.181 68.2783 167.758 68.2783C166.164 68.2783 164.935 67.1101 164.935 65.2487C164.935 63.2774 166.224 62.1226 167.854 62.1226C169.544 62.1242 170.689 63.3524 170.689 65.1521ZM166.016 65.2138C166.016 66.5036 166.758 67.4768 167.804 67.4768C168.826 67.4768 169.592 66.5152 169.592 65.1904C169.592 64.1922 169.094 62.9274 167.829 62.9274C166.564 62.9274 166.016 64.0939 166.016 65.2138Z" fill="#102D6F"/>
<path d="M172.039 63.8508C172.039 63.2425 172.027 62.7442 171.99 62.2577H172.939L173 63.2308H173.025C173.317 62.6709 173.998 62.1243 174.972 62.1243C175.786 62.1243 177.051 62.6109 177.051 64.6306V68.1468H175.98V64.7523C175.98 63.8041 175.627 63.0125 174.617 63.0125C173.912 63.0125 173.364 63.5108 173.182 64.1074C173.134 64.2407 173.109 64.424 173.109 64.6056V68.1451H172.039V63.8508Z" fill="#102D6F"/>
<path d="M56.1506 49.7112L55.0424 46.7983H45.6055L44.4973 49.7745C44.064 50.936 43.6958 51.7192 43.3891 52.1258C43.0825 52.5324 42.5809 52.7357 41.8844 52.7357C41.2928 52.7357 40.7712 52.5191 40.3163 52.0858C39.8613 51.6542 39.6347 51.1626 39.6347 50.6144C39.6347 50.2978 39.688 49.9695 39.793 49.6329C39.898 49.2946 40.073 48.8247 40.3163 48.2231L46.2537 33.1486C46.422 32.7153 46.6253 32.1954 46.8636 31.5888C47.1019 30.9823 47.3552 30.4773 47.6235 30.0757C47.8935 29.6741 48.2468 29.3508 48.685 29.1025C49.1233 28.8542 49.6649 28.7292 50.3081 28.7292C50.963 28.7292 51.5096 28.8542 51.9462 29.1025C52.3845 29.3508 52.7378 29.6708 53.0077 30.0607C53.2777 30.4507 53.5043 30.8706 53.6893 31.3189C53.8743 31.7671 54.1092 32.3671 54.3942 33.1153L60.4583 48.0948C60.9332 49.2346 61.1716 50.0628 61.1716 50.5811C61.1716 51.1193 60.9466 51.6126 60.4983 52.0609C60.05 52.5091 59.5085 52.7341 58.8752 52.7341C58.5053 52.7341 58.1886 52.6674 57.9253 52.5358C57.662 52.4041 57.4387 52.2242 57.2604 51.9975C57.0805 51.7709 56.8888 51.4226 56.6822 50.9527C56.4756 50.4844 56.2989 50.0711 56.1506 49.7112ZM46.8403 43.2671H53.776L50.2765 33.6869L46.8403 43.2671Z" fill="#F69320"/>
<path d="M67.7572 49.8694V42.5072L62.0881 33.7201C61.5915 32.9286 61.2415 32.3103 61.0349 31.867C60.8283 31.4238 60.7266 31.0388 60.7266 30.7105C60.7266 30.1723 60.9349 29.7074 61.3515 29.3174C61.7681 28.9275 62.283 28.7308 62.8946 28.7308C63.5379 28.7308 64.0261 28.9125 64.3594 29.2774C64.6927 29.6424 65.191 30.3673 65.8559 31.4554L70.1935 38.5011L74.5796 31.4554C74.8429 31.0222 75.0645 30.6589 75.2445 30.3623C75.4245 30.0673 75.6211 29.7907 75.8377 29.5307C76.0544 29.2724 76.2943 29.0741 76.5576 28.9375C76.8209 28.8008 77.1426 28.7308 77.5225 28.7308C78.1141 28.7308 78.6073 28.9241 79.0023 29.3091C79.3989 29.694 79.5955 30.1406 79.5955 30.6472C79.5955 31.0588 79.4955 31.4704 79.2939 31.882C79.0939 32.2937 78.7506 32.8636 78.264 33.5918L72.4532 42.5055V49.8678C72.4532 50.8293 72.2316 51.5459 71.7883 52.0208C71.3451 52.4957 70.7801 52.734 70.0936 52.734C69.397 52.734 68.8321 52.499 68.3988 52.0291C67.9722 51.5608 67.7572 50.841 67.7572 49.8694Z" fill="#F69320"/>
<path d="M82.2284 46.9248L94.1517 32.6585H83.9065C83.1883 32.6585 82.6467 32.5002 82.2834 32.1836C81.9185 31.867 81.7368 31.4504 81.7368 30.9338C81.7368 30.3955 81.9185 29.9606 82.2834 29.6273C82.6467 29.294 83.1883 29.129 83.9065 29.129H97.1112C98.821 29.129 99.6759 29.9256 99.6759 31.5203C99.6759 32.2802 99.5342 32.8868 99.2476 33.3417C98.9627 33.795 98.3877 34.5299 97.5212 35.5431L86.3745 48.8112H98.661C99.3893 48.8112 99.9325 48.9611 100.292 49.2628C100.651 49.5644 100.831 49.9827 100.831 50.5209C100.831 51.0808 100.651 51.5241 100.292 51.8507C99.9342 52.1773 99.3909 52.3423 98.661 52.3423H83.5866C82.5617 52.3423 81.7918 52.1123 81.2752 51.6541C80.7586 51.1958 80.4987 50.5792 80.4987 49.8093C80.4987 49.5461 80.5403 49.3028 80.6253 49.0811C80.7103 48.8595 80.8236 48.6512 80.9653 48.4562C81.1069 48.2612 81.3052 48.0129 81.5585 47.7113C81.8168 47.408 82.0385 47.1464 82.2284 46.9248Z" fill="#F69320"/>
<path d="M114.007 28.7308C116.414 28.7308 118.48 29.2191 120.206 30.1956C121.933 31.1722 123.239 32.5603 124.126 34.36C125.012 36.1598 125.456 38.2744 125.456 40.7008C125.456 42.4955 125.212 44.1253 124.727 45.5934C124.242 47.0615 123.512 48.333 122.543 49.4095C121.571 50.486 120.378 51.3092 118.965 51.8808C117.55 52.4507 115.93 52.7357 114.104 52.7357C112.287 52.7357 110.663 52.4424 109.228 51.8558C107.791 51.2709 106.593 50.4443 105.633 49.3778C104.672 48.3113 103.947 47.0298 103.455 45.53C102.964 44.0303 102.719 42.4105 102.719 40.6691C102.719 38.8844 102.974 37.2496 103.487 35.7615C103.999 34.2734 104.74 33.0069 105.712 31.962C106.683 30.9172 107.865 30.1173 109.26 29.564C110.651 29.0091 112.234 28.7308 114.007 28.7308ZM120.69 40.6708C120.69 38.971 120.415 37.4979 119.866 36.2531C119.318 35.0083 118.533 34.0651 117.515 33.4268C116.497 32.7886 115.327 32.4686 114.007 32.4686C113.067 32.4686 112.199 32.6453 111.403 32.9985C110.606 33.3518 109.919 33.8668 109.345 34.5417C108.77 35.2166 108.315 36.0798 107.983 37.1313C107.65 38.1811 107.485 39.361 107.485 40.6708C107.485 41.9906 107.651 43.1837 107.983 44.2486C108.315 45.3151 108.785 46.1999 109.393 46.9015C109.999 47.6031 110.696 48.128 111.483 48.4763C112.269 48.8246 113.132 48.9996 114.072 48.9996C115.275 48.9996 116.382 48.6979 117.388 48.0963C118.397 47.4948 119.2 46.5666 119.795 45.3101C120.391 44.0536 120.69 42.5072 120.69 40.6708Z" fill="#F69320"/>
<path d="M149.254 45.0085C149.254 45.7484 149.072 46.5466 148.707 47.4081C148.342 48.2697 147.771 49.1129 146.989 49.9411C146.207 50.7693 145.211 51.4425 143.996 51.9591C142.781 52.4757 141.368 52.7357 139.752 52.7357C138.527 52.7357 137.414 52.619 136.411 52.3874C135.407 52.1558 134.497 51.7942 133.679 51.3026C132.861 50.811 132.108 50.1644 131.423 49.3628C130.811 48.6346 130.288 47.8197 129.855 46.9165C129.422 46.0133 129.098 45.0501 128.882 44.027C128.665 43.0038 128.557 41.9156 128.557 40.7658C128.557 38.8977 128.828 37.2246 129.372 35.7465C129.915 34.2684 130.693 33.0052 131.706 31.9554C132.719 30.9055 133.908 30.1057 135.269 29.5574C136.63 29.0092 138.082 28.7342 139.623 28.7342C141.501 28.7342 143.175 29.1091 144.643 29.859C146.109 30.6089 147.234 31.5354 148.015 32.6386C148.797 33.7418 149.187 34.7833 149.187 35.7665C149.187 36.3048 148.997 36.7797 148.617 37.1913C148.237 37.6029 147.777 37.8095 147.239 37.8095C146.637 37.8095 146.186 37.6679 145.886 37.3813C145.584 37.0963 145.249 36.6064 144.879 35.9081C144.268 34.7583 143.546 33.8968 142.718 33.3269C141.89 32.7569 140.868 32.472 139.653 32.472C137.722 32.472 136.182 33.2052 135.037 34.6733C133.893 36.1414 133.319 38.2261 133.319 40.9274C133.319 42.7321 133.573 44.2336 134.079 45.4318C134.586 46.6299 135.304 47.5248 136.232 48.1164C137.16 48.7079 138.249 49.0029 139.493 49.0029C140.845 49.0029 141.988 48.668 142.923 47.9981C143.856 47.3282 144.561 46.3433 145.036 45.0451C145.236 44.4336 145.484 43.9336 145.779 43.5487C146.074 43.1637 146.549 42.9704 147.204 42.9704C147.764 42.9704 148.244 43.1654 148.645 43.557C149.054 43.942 149.254 44.4286 149.254 45.0085Z" fill="#102D6F"/>
<path d="M168.333 49.7112L167.224 46.7983H157.787L156.679 49.7745C156.246 50.936 155.876 51.7192 155.571 52.1258C155.264 52.5324 154.763 52.7357 154.066 52.7357C153.475 52.7357 152.951 52.5191 152.498 52.0858C152.045 51.6542 151.818 51.1626 151.818 50.6144C151.818 50.2978 151.87 49.9695 151.977 49.6329C152.082 49.2946 152.255 48.8247 152.498 48.2231L158.436 33.1486C158.604 32.7153 158.807 32.1954 159.046 31.5888C159.284 30.9823 159.537 30.4773 159.805 30.0757C160.075 29.6741 160.429 29.3508 160.865 29.1025C161.304 28.8542 161.843 28.7292 162.488 28.7292C163.143 28.7292 163.688 28.8542 164.126 29.1025C164.565 29.3508 164.918 29.6708 165.188 30.0607C165.456 30.4507 165.685 30.8706 165.87 31.3189C166.055 31.7671 166.29 32.3671 166.574 33.1153L172.639 48.0948C173.113 49.2346 173.352 50.0628 173.352 50.5811C173.352 51.1193 173.127 51.6126 172.679 52.0609C172.23 52.5091 171.689 52.7341 171.055 52.7341C170.686 52.7341 170.369 52.6674 170.106 52.5358C169.842 52.4041 169.619 52.2242 169.441 51.9975C169.261 51.7709 169.069 51.4226 168.862 50.9527C168.657 50.4844 168.481 50.0711 168.333 49.7112ZM159.022 43.2671H165.958L162.458 33.6869L159.022 43.2671Z" fill="#102D6F"/>
<path d="M183.122 42.4121H181.476V49.8694C181.476 50.8509 181.259 51.5741 180.826 52.0391C180.392 52.504 179.829 52.7356 179.131 52.7356C178.381 52.7356 177.801 52.4923 177.39 52.0074C176.978 51.5225 176.771 50.8092 176.771 49.8694V32.0086C176.771 30.9955 176.998 30.2622 177.453 29.8073C177.906 29.354 178.641 29.1257 179.654 29.1257H187.303C188.358 29.1257 189.261 29.1707 190.011 29.2607C190.761 29.3507 191.436 29.5323 192.037 29.8073C192.766 30.1139 193.409 30.5522 193.969 31.1221C194.527 31.692 194.952 32.3553 195.244 33.1085C195.534 33.8634 195.679 34.6633 195.679 35.5065C195.679 37.2379 195.19 38.621 194.214 39.6559C193.237 40.6907 191.756 41.4239 189.773 41.8572C190.606 42.3005 191.404 42.9554 192.164 43.8203C192.924 44.6851 193.602 45.6067 194.199 46.5832C194.795 47.5597 195.259 48.4413 195.592 49.2278C195.923 50.0144 196.09 50.5559 196.09 50.8509C196.09 51.1575 195.992 51.4608 195.797 51.7608C195.602 52.0624 195.335 52.299 194.997 52.474C194.659 52.649 194.269 52.7356 193.825 52.7356C193.297 52.7356 192.854 52.6106 192.496 52.364C192.137 52.1157 191.827 51.8024 191.569 51.4208C191.311 51.0409 190.959 50.481 190.516 49.7427L188.631 46.6065C187.956 45.4567 187.351 44.5801 186.818 43.9786C186.285 43.377 185.743 42.9654 185.195 42.7437C184.647 42.5221 183.955 42.4121 183.122 42.4121ZM185.813 32.6586H181.474V39.0393H185.687C186.816 39.0393 187.766 38.941 188.536 38.746C189.308 38.551 189.896 38.2177 190.301 37.7478C190.708 37.2779 190.911 36.6313 190.911 35.8081C190.911 35.1649 190.746 34.5966 190.419 34.105C190.093 33.6134 189.638 33.2468 189.058 33.0052C188.511 32.7752 187.428 32.6586 185.813 32.6586Z" fill="#102D6F"/>
<path d="M203.041 29.1274H209.168C210.761 29.1274 212.13 29.2758 213.269 29.5707C214.409 29.8673 215.444 30.4206 216.374 31.2338C218.79 33.3035 220 36.448 220 40.6708C220 42.0639 219.878 43.337 219.637 44.4869C219.393 45.6367 219.019 46.6749 218.512 47.5981C218.005 48.5213 217.355 49.3478 216.564 50.0761C215.941 50.636 215.261 51.0842 214.521 51.4225C213.783 51.7608 212.988 51.9974 212.138 52.1357C211.288 52.2741 210.33 52.3424 209.265 52.3424H203.137C202.283 52.3424 201.639 52.2141 201.206 51.9541C200.773 51.6958 200.491 51.3309 200.36 50.8609C200.228 50.391 200.161 49.7811 200.161 49.0329V32.0087C200.161 30.9955 200.388 30.2623 200.841 29.8073C201.294 29.3541 202.028 29.1274 203.041 29.1274ZM204.862 32.8486V48.6029H208.425C209.205 48.6029 209.818 48.5813 210.261 48.5396C210.705 48.498 211.165 48.3913 211.64 48.223C212.115 48.0547 212.526 47.8164 212.874 47.5098C214.448 46.1799 215.234 43.8886 215.234 40.6374C215.234 38.3478 214.887 36.6313 214.198 35.4915C213.506 34.3517 212.654 33.6251 211.64 33.3135C210.626 33.0019 209.402 32.8469 207.967 32.8469H204.862V32.8486Z" fill="#102D6F"/>
<path fill-rule="evenodd" clip-rule="evenodd" d="M36.4034 23.7548C36.5001 22.9199 36.5151 22.0834 36.4051 21.2485C36.3901 20.9636 36.4784 20.6636 36.2901 20.402C36.1051 20.1587 36.2818 19.7887 36.0018 19.5771C35.9668 18.9972 35.7152 18.5006 35.3969 18.0307C35.1919 17.6357 35.0136 17.2241 34.7753 16.8492C34.3854 16.2343 34.0004 15.6077 33.4172 15.1444C32.7456 14.3112 31.9924 13.5696 31.0392 13.0581C30.6559 12.7981 30.2977 12.4848 29.8844 12.2832C25.1384 9.98515 20.4991 10.1335 16.0114 12.9747C15.0016 13.613 14.13 14.4295 13.3885 15.376C13.5051 15.3494 13.6001 15.2927 13.6934 15.2344C15.8948 13.8613 18.2577 13.6196 20.7324 14.2562C22.2072 14.6362 23.4087 15.4944 24.4968 16.5259C25.0851 17.2424 25.6783 17.9557 26.0649 18.8122C26.4016 19.5371 26.5932 20.307 26.7715 21.0819C26.8765 22.0334 26.8182 22.9849 26.7648 23.9348C26.5482 24.743 26.3582 25.5579 25.9766 26.3144C25.4134 27.4359 24.5935 28.3475 23.697 29.2007C22.3871 30.2272 20.9207 30.8704 19.2543 31.0504C18.651 31.1154 18.0378 30.9988 17.4445 31.1787C15.3132 31.3387 13.6734 33.0735 13.4634 35.3898C13.2152 38.1194 14.8699 40.3557 17.4729 40.654C19.2343 40.8557 20.9907 40.6524 22.7121 40.2091C24.5668 39.8475 26.2732 39.1259 27.8597 38.1044C28.6262 37.6861 29.3278 37.1795 29.9577 36.5746C30.5276 36.2497 30.8576 35.6731 31.3325 35.2515C31.7574 34.9815 32.0357 34.5732 32.3357 34.1833C32.6606 33.8933 32.9073 33.5434 33.1156 33.1635C33.4622 32.8252 33.6988 32.4119 33.9105 31.9836C34.1688 31.702 34.3204 31.3537 34.4854 31.0188C35.1586 29.6506 35.7485 28.2492 35.9885 26.7277C36.0868 26.1311 36.3318 25.5612 36.2951 24.943C36.4118 24.5547 36.4118 24.1548 36.4034 23.7548Z" fill="#102D6F"/>
<path fill-rule="evenodd" clip-rule="evenodd" d="M34.4887 14.0414C32.2707 9.99194 29.1012 7.01238 24.7152 5.41594C24.4719 5.32096 24.2319 5.21097 23.9819 5.13265C22.9571 4.8077 21.9056 4.62106 20.8324 4.52108C19.7775 4.42442 18.7294 4.23445 17.6629 4.34277C16.3164 4.30444 15.0032 4.53274 13.7034 4.85436C12.0737 5.21764 10.5322 5.79921 9.12576 6.71075C8.13257 7.18734 7.27603 7.85891 6.45781 8.58547C4.92804 9.83696 3.66156 11.3201 2.62504 12.9965C1.95847 14.0747 1.37856 15.1995 1.03528 16.4293C0.62367 17.4842 0.378705 18.579 0.253723 19.7022C0.137074 20.2171 0.0787511 20.7354 0.120412 21.262C0.0204262 21.4636 0.0504247 21.6819 0.0504247 21.8935C0.043759 23.8216 0.0370921 25.748 0.0387585 27.676C0.0404249 28.8775 0.0554166 30.079 0.0637488 31.2805C0.0554166 31.4271 0.0404266 31.5755 0.0404266 31.7238C0.0387601 35.0399 0.0387585 38.3561 0.0387585 41.674C0.0387585 42.4089 0.040418 43.1421 0.0420844 43.877C0.0420844 44.3003 0.0437541 44.7219 0.0454205 45.1435C-0.0179035 46.4716 -0.0112411 47.7997 0.0420844 49.1279C0.0420844 53.5422 0.0404266 57.9549 0.0404266 62.3693C0.0404266 62.9675 0.0420869 62.9675 0.648665 62.8092C1.51187 62.7709 2.33675 62.5343 3.16163 62.306C4.75973 61.866 6.23785 61.1645 7.48434 60.063C8.48919 59.1747 9.20575 58.0716 9.54403 56.7518C9.71068 56.3602 9.60903 55.9519 9.61069 55.5503C9.60403 55.552 9.5957 55.552 9.58903 55.5536C9.5957 55.552 9.60403 55.552 9.61069 55.5503C9.61736 55.3703 9.63236 55.1887 9.63236 55.0087C9.63236 49.4578 9.63069 43.907 9.62736 38.3561C9.62736 37.9445 9.61236 37.5346 9.60569 37.123C9.58736 37.128 9.56737 37.1346 9.54904 37.138L9.5357 37.1263C9.5357 37.1213 9.5357 37.1146 9.5357 37.1096C9.55903 37.113 9.58236 37.1163 9.60569 37.1213C9.61402 35.6699 9.62736 34.2184 9.62902 32.7669C9.63069 29.0708 9.62735 25.3747 9.62569 21.6786C9.77567 20.7354 10.0373 19.8222 10.3506 18.9223C10.8605 17.4642 11.5921 16.1427 12.5686 14.9395C13.5801 13.6931 14.7949 12.6932 16.0914 11.7733C16.2381 11.6767 16.3797 11.57 16.533 11.4867C17.7778 10.8218 19.096 10.3502 20.4574 9.99527C21.3106 9.89695 22.1639 9.8003 23.0171 9.70198C23.3504 9.60199 23.6853 9.62033 24.0203 9.63366C24.1219 9.62533 24.2252 9.63532 24.3269 9.64032C24.4152 9.64032 24.5019 9.63699 24.5902 9.62866C24.5019 9.64532 24.4152 9.64532 24.3269 9.64032C24.2252 9.64032 24.1219 9.63699 24.0203 9.63366C23.9419 9.64033 23.8636 9.65699 23.7853 9.69532C24.2186 9.7853 24.6568 9.7803 25.0951 9.7753C25.2401 9.8053 25.3834 9.8453 25.53 9.86363C28.5196 10.2402 31.0592 11.5317 33.2139 13.6164C34.0538 14.4296 34.762 15.3512 35.4186 16.3177C35.207 15.5145 34.8837 14.7596 34.4887 14.0414ZM0.0637488 31.2805C0.080413 31.2838 0.0987433 31.2872 0.115407 31.2872C0.115407 31.2905 0.115407 31.2938 0.115407 31.2972C0.10041 31.2888 0.0837458 31.2838 0.0637488 31.2805ZM0.135414 39.9176C0.135414 39.9159 0.135414 39.9126 0.135414 39.9109C0.135414 39.9126 0.135414 39.9142 0.135414 39.9176ZM3.45992 45.3434C3.43992 45.3301 3.41993 45.3151 3.4016 45.3018C3.47659 45.2951 3.54491 45.2968 3.60157 45.3118C3.54325 45.3118 3.49825 45.3234 3.45992 45.3434ZM3.88487 45.7251C3.88487 45.7217 3.88487 45.7184 3.88487 45.715C3.88487 45.71 3.88487 45.7051 3.88487 45.7001C3.88653 45.7084 3.88653 45.7201 3.88819 45.7284C3.88819 45.7267 3.88653 45.7267 3.88487 45.7251ZM9.49071 27.8877C9.48904 27.9077 9.48738 27.9293 9.48571 27.9493C9.48571 27.836 9.48571 27.7227 9.48405 27.6077C9.48405 27.5927 9.47238 27.586 9.45405 27.5877C9.38739 27.5944 9.49905 27.5377 9.49738 27.6027C9.49571 27.6994 9.49237 27.7927 9.49071 27.8877Z" fill="#F69320"/>
<path d="M17.1946 46.0417C17.1946 46.0417 17.4746 45.9984 18.0012 45.915C18.1328 45.8934 18.2811 45.8767 18.4394 45.8467C18.5977 45.815 18.771 45.7817 18.9593 45.7451C19.146 45.7084 19.346 45.6717 19.5576 45.6267C19.7692 45.5767 19.9942 45.5217 20.2325 45.4668C20.3508 45.4384 20.4725 45.4101 20.5974 45.3801C20.7208 45.3451 20.8474 45.3101 20.9757 45.2718C21.234 45.1968 21.504 45.1251 21.7823 45.0402C22.0572 44.9485 22.3455 44.8518 22.6422 44.7519C22.9388 44.6519 23.2387 44.5269 23.5503 44.4086C24.7902 43.9153 26.14 43.2604 27.5064 42.4005C27.6797 42.2989 27.8447 42.1739 28.0164 42.0639C28.1863 41.9489 28.3613 41.8373 28.533 41.719C28.7013 41.594 28.8712 41.469 29.0429 41.344C29.2145 41.219 29.3878 41.0924 29.5528 40.9524C29.7211 40.8158 29.8894 40.6808 30.0594 40.5425C30.231 40.4075 30.391 40.2542 30.5593 40.1092C30.8993 39.8226 31.2176 39.5043 31.5459 39.1877C31.7142 39.0344 31.8625 38.8577 32.0224 38.6927C32.1791 38.5244 32.3474 38.3661 32.4974 38.1862C32.6507 38.0112 32.804 37.8345 32.959 37.6562C33.1173 37.4829 33.2539 37.2879 33.4039 37.1046C33.7055 36.738 33.9755 36.3398 34.2638 35.9515C34.4038 35.7548 34.5321 35.5482 34.6671 35.3449L34.8687 35.0399L35.057 34.7233C35.1803 34.5117 35.3103 34.3017 35.4303 34.0868C35.5453 33.8685 35.6602 33.6485 35.7802 33.4302C35.9035 33.2152 36.0019 32.9852 36.1135 32.7603C36.2202 32.5336 36.3352 32.312 36.4285 32.077C36.5268 31.8454 36.6234 31.6138 36.7218 31.3805C36.8084 31.1438 36.8951 30.9055 36.9834 30.6672C37.0251 30.5473 37.075 30.4306 37.1117 30.309L37.2284 29.9457L37.345 29.5824L37.4033 29.4008L37.4533 29.2158C37.7433 28.2343 37.9233 27.2194 38.0849 26.2012C38.2299 25.1781 38.2882 24.1415 38.2965 23.105L38.2782 22.3068L38.2749 22.0952C38.2732 22.0235 38.2715 21.9535 38.2665 21.8952L38.2382 21.5253L38.2115 21.1553C38.2049 21.032 38.1949 20.9087 38.1765 20.7787L38.0832 20.0088C37.9216 18.9906 37.7383 17.9758 37.45 16.9942L37.4 16.8093L37.3417 16.6276L37.225 16.2644C37.1484 16.0227 37.0734 15.7794 36.9784 15.5445C36.8917 15.3062 36.8051 15.0695 36.7168 14.8312C36.6184 14.5979 36.5218 14.3663 36.4235 14.1347C36.0152 13.2165 35.5653 12.3266 35.0537 11.4901L34.867 11.1734L34.6654 10.8685C34.5304 10.6668 34.4021 10.4602 34.2621 10.2619C33.9738 9.87361 33.7039 9.47701 33.4022 9.1104C33.2523 8.92709 33.1156 8.73212 32.9573 8.55881C32.8023 8.3805 32.649 8.20386 32.4974 8.02889C32.3474 7.84891 32.1791 7.69061 32.0224 7.5223C31.8608 7.35899 31.7125 7.18235 31.5442 7.02903C31.2176 6.71241 30.8976 6.39412 30.5593 6.1075C30.391 5.96252 30.231 5.80921 30.0594 5.67423C29.8894 5.53592 29.7194 5.39927 29.5511 5.26429C29.3862 5.12431 29.2145 4.99766 29.0412 4.87268C28.8696 4.74603 28.6996 4.62105 28.5313 4.49607C28.1847 4.26277 27.8431 4.03281 27.5048 3.81451C26.1383 2.95463 24.7885 2.29972 23.5503 1.80646C23.2387 1.68981 22.9388 1.56316 22.6422 1.46318C22.3455 1.36652 22.0589 1.26987 21.7823 1.17489C21.504 1.08823 21.234 1.01657 20.9757 0.941584C20.8474 0.904923 20.7208 0.869936 20.5974 0.834941C20.4725 0.804945 20.3508 0.776613 20.2342 0.748284C19.9959 0.691625 19.7709 0.638294 19.5593 0.586635C19.346 0.541642 19.146 0.504987 18.9577 0.468326C18.7694 0.431664 18.5961 0.398338 18.4378 0.366676C18.2778 0.335014 18.1328 0.318343 18.0012 0.296679C17.4762 0.213358 17.1963 0.170029 17.1963 0.170029C17.1963 0.170029 17.4796 0.140041 18.0095 0.0833822C18.1428 0.0717172 18.2911 0.0517218 18.4561 0.0433897C18.6194 0.036724 18.7994 0.0300575 18.9927 0.0217254C19.1876 0.0150597 19.396 0.00339388 19.6209 6.10352e-05C19.8442 0.00506031 20.0825 0.0100539 20.3325 0.0150532C20.4591 0.018386 20.5874 0.021727 20.7208 0.0233934C20.8524 0.0300591 20.9874 0.0433893 21.1274 0.0533878C21.404 0.0767177 21.6973 0.0967067 22.0006 0.128369C22.3022 0.166696 22.6188 0.210027 22.9454 0.256687C23.272 0.305013 23.607 0.380003 23.957 0.444993C25.3467 0.734951 26.8965 1.20655 28.513 1.93644C30.1277 2.66467 31.7875 3.67619 33.3889 4.96267C34.1838 5.61257 34.9654 6.32914 35.7002 7.12569C35.8836 7.32399 36.0769 7.5173 36.2518 7.7306C36.4285 7.94057 36.6051 8.15221 36.7834 8.36384C36.9584 8.57881 37.1217 8.80377 37.2917 9.02707C37.3767 9.13872 37.4617 9.25038 37.5466 9.36203C37.6266 9.47868 37.7066 9.59365 37.7866 9.7103C38.4482 10.6302 39.0131 11.6367 39.5397 12.6782C40.0729 13.7197 40.4979 14.8296 40.8645 15.9661C40.9495 16.2527 41.0361 16.5393 41.1211 16.8276C41.2028 17.1159 41.2678 17.4092 41.3411 17.7025L41.4477 18.1424L41.5327 18.5873C41.5844 18.8856 41.6477 19.1806 41.6894 19.4805C41.7294 19.7805 41.7677 20.0805 41.8077 20.3821C41.8293 20.5304 41.8427 20.687 41.8543 20.8437L41.8927 21.3136L41.9293 21.7852C41.936 21.8669 41.9393 21.9369 41.941 22.0068L41.9477 22.2168L41.9727 23.1067C41.9527 24.3215 41.871 25.5347 41.6894 26.7328C41.6477 27.0328 41.5861 27.3294 41.5327 27.626L41.4461 28.0693L41.3394 28.5092C41.2661 28.8009 41.2011 29.0941 41.1194 29.3841C41.0345 29.6724 40.9478 29.959 40.8628 30.2456C40.4945 31.3821 40.0679 32.4903 39.5363 33.5318C39.0114 34.575 38.4432 35.5799 37.7816 36.4997C37.7016 36.6164 37.6216 36.7314 37.5416 36.848C37.4567 36.9597 37.3717 37.0713 37.2867 37.183C37.1167 37.4046 36.9517 37.6296 36.7784 37.8462C36.4235 38.2711 36.0752 38.6961 35.6952 39.0827C34.9603 39.8776 34.1805 40.5958 33.3839 41.244C31.7841 42.5305 30.1244 43.542 28.5096 44.2703C26.8949 45.0002 25.3434 45.4718 23.9553 45.7634C23.6053 45.8284 23.2721 45.9017 22.9438 45.9517C22.6172 46 22.3005 46.0417 21.9989 46.08C21.6956 46.1117 21.4023 46.1317 21.1257 46.155C20.9874 46.1667 20.8524 46.1783 20.7191 46.185C20.5858 46.1883 20.4575 46.1916 20.3308 46.1933C20.0792 46.1983 19.8426 46.2033 19.6193 46.2083C19.3943 46.2067 19.1843 46.195 18.9893 46.1883C18.7944 46.18 18.6161 46.1733 18.4511 46.1667C18.2878 46.1583 18.1411 46.1383 18.0078 46.1267C17.4779 46.0717 17.1946 46.0417 17.1946 46.0417Z" fill="#F7941E"/>
</svg>
