<?xml version="1.0" encoding="utf-8"?>
<!-- Generator: Adobe Illustrator 15.1.0, SVG Export Plug-In . SVG Version: 6.00 Build 0)  -->
<!DOCTYPE svg PUBLIC "-//W3C//DTD SVG 1.1//EN" "http://www.w3.org/Graphics/SVG/1.1/DTD/svg11.dtd">
<svg version="1.1" id="Layer_1" xmlns="http://www.w3.org/2000/svg" xmlns:xlink="http://www.w3.org/1999/xlink" x="0px" y="0px"
	 width="70px" height="70px" viewBox="0 0 70 70" enable-background="new 0 0 70 70" xml:space="preserve">
<g>
	<g>
		<path fill="none" stroke="#0D6A8D" stroke-miterlimit="10" d="M28.829,47.053l14.442,0.381c2.679,0.378,4.833-2.013,4.833-2.013
			c0.521-1.352,0.402-2.367,0.024-3.126h-0.024c-0.853-1.658-3.057-2.084-3.057-2.084c-6.345,0.898-16.098-2.037-16.098-2.037
			c-0.759-0.309-1.589-0.497-2.442-0.569c-4.687-0.426-9.99,2.228-9.99,2.228l-5.919,3.859l-0.31,0.189"/>
		<path fill="none" stroke="#0D6A8D" stroke-miterlimit="10" d="M48.104,42.295h0.024l6.867-5.423l7.055-5.541
			c0,0,3.435-1.396,5.211,0.899c0,0,2.154,2.012-1.019,5.563c0,0-13.071,12.313-16.127,13.949l-8.62,5.21
			c0,0-6.724,0.26-9.115-0.121l-10.419-1.536l-3.883,1.75L18.03,57.07l-0.377-0.664l-0.071-0.14l-6.984-12.575l-0.167-0.309"/>
		<polygon fill="none" stroke="#0D6A8D" stroke-miterlimit="10" points="18.955,58.445 11.852,62.588 2.023,46.391 8.725,42.317 
			17.582,56.267 17.653,56.406 18.079,57.046 		"/>
		<path fill="none" stroke="#0D6A8D" stroke-miterlimit="10" d="M26.508,37.604c0.878-4.094,3.362-12.526,9.33-13.141h4.687H44.6
			c0,0,3.859,0.474,5.776,2.865c0,0,3.505,5.328,4.62,9.543"/>
		<path fill="none" stroke="#0D6A8D" stroke-miterlimit="10" d="M48.329,14.733c0,4.04-3.276,7.321-7.318,7.321
			c-4.045,0-7.321-3.282-7.321-7.321c0-4.042,3.276-7.321,7.321-7.321C45.053,7.412,48.329,10.69,48.329,14.733z"/>
	</g>
</g>
</svg>
