<?xml version="1.0" encoding="utf-8"?>
<!-- Generator: Adobe Illustrator 15.1.0, SVG Export Plug-In . SVG Version: 6.00 Build 0)  -->
<!DOCTYPE svg PUBLIC "-//W3C//DTD SVG 1.1//EN" "http://www.w3.org/Graphics/SVG/1.1/DTD/svg11.dtd">
<svg version="1.1" id="Layer_1" xmlns="http://www.w3.org/2000/svg" xmlns:xlink="http://www.w3.org/1999/xlink" x="0px" y="0px"
	 width="70px" height="70px" viewBox="0 0 70 70" enable-background="new 0 0 70 70" xml:space="preserve">
<g>
	<g>
		<g>
			<path fill="none" stroke="#0D6A8D" stroke-miterlimit="10" d="M2.608,29.894c0,0,6.686-9.385,12.551-13.14
				c0,0,3.522-2.228,6.104,0.354c0,0,2.111,2.58,0.115,5.982c0,0-4.692,6.571-4.808,10.325v27.337c0,0,0,3.402-4.226,4.575
				c0,0-4.458,0.234-5.516-4.575V38.109C6.829,38.109-1.146,36.111,2.608,29.894z"/>
			<circle fill="none" stroke="#0D6A8D" stroke-miterlimit="10" cx="26.893" cy="10.186" r="5.516"/>
		</g>
	</g>
	<g>
		<g>
			<path fill="none" stroke="#0D6A8D" stroke-miterlimit="10" d="M67.394,29.894c0,0-6.688-9.385-12.556-13.14
				c0,0-3.518-2.228-6.102,0.354c0,0-2.111,2.58-0.118,5.982c0,0,4.695,6.571,4.813,10.325v27.337c0,0,0,3.402,4.224,4.575
				c0,0,4.457,0.234,5.513-4.575V38.109C63.168,38.109,71.145,36.111,67.394,29.894z"/>
			<circle fill="none" stroke="#0D6A8D" stroke-miterlimit="10" cx="43.105" cy="10.186" r="5.513"/>
		</g>
	</g>
</g>
</svg>
