<?xml version="1.0" encoding="utf-8"?>
<!-- Generator: Adobe Illustrator 15.1.0, SVG Export Plug-In . SVG Version: 6.00 Build 0)  -->
<!DOCTYPE svg PUBLIC "-//W3C//DTD SVG 1.1//EN" "http://www.w3.org/Graphics/SVG/1.1/DTD/svg11.dtd">
<svg version="1.1" id="Layer_1" xmlns="http://www.w3.org/2000/svg" xmlns:xlink="http://www.w3.org/1999/xlink" x="0px" y="0px"
	 width="70px" height="70px" viewBox="0 0 70 70" enable-background="new 0 0 70 70" xml:space="preserve">
<g>
	<path fill="#0D6A8D" d="M14.411,41.73l-1.3,0.757c1.999,7.23,7.485,13.006,14.54,15.412l1.726-0.987
		C22.049,54.913,16.293,49.1,14.411,41.73z M55.586,41.652c-1.861,7.37-7.581,13.203-14.889,15.219l1.726,0.989
		c7.036-2.442,12.503-8.237,14.461-15.47L55.586,41.652z M41.377,14.632l-1.783,1.026c7.539,1.669,13.588,7.367,15.779,14.714
		l1.277-0.735C54.402,22.425,48.646,16.764,41.377,14.632z M13.344,29.557l1.28,0.737c2.21-7.347,8.296-13.027,15.876-14.672
		l-1.802-1.029C21.412,16.686,15.631,22.347,13.344,29.557z"/>
</g>
<g>
	<g>
		<line fill="none" stroke="#0D6A8D" stroke-miterlimit="10" x1="35" y1="2.22" x2="35" y2="11.051"/>
		<polyline fill="none" stroke="#0D6A8D" stroke-miterlimit="10" points="40.051,6.525 35,11.808 29.946,6.525 		"/>
	</g>
	<g>
		<line fill="none" stroke="#0D6A8D" stroke-miterlimit="10" x1="34.997" y1="67.779" x2="34.997" y2="58.947"/>
		<polyline fill="none" stroke="#0D6A8D" stroke-miterlimit="10" points="29.946,63.473 34.997,58.188 40.051,63.473 		"/>
	</g>
</g>
<rect x="27.017" y="29.75" fill="none" stroke="#0D6A8D" stroke-miterlimit="10" width="15.966" height="20.006"/>
<rect x="26.042" y="26.064" fill="none" stroke="#0D6A8D" stroke-miterlimit="10" width="17.913" height="3.512"/>
<rect x="30.902" y="23.774" fill="none" stroke="#0D6A8D" stroke-miterlimit="10" width="8.191" height="2.231"/>
<g>
	
		<rect x="31.589" y="41.673" fill="none" stroke="#0D6A8D" stroke-width="0.75" stroke-miterlimit="10" width="3.422" height="7.957"/>
	
		<rect x="34.986" y="41.673" fill="none" stroke="#0D6A8D" stroke-width="0.75" stroke-miterlimit="10" width="3.422" height="7.957"/>
</g>
<polygon fill="#0D6A8D" points="37.793,34.228 37.793,35.877 35.845,35.877 35.845,37.757 34.143,37.757 34.143,35.877 
	32.204,35.877 32.204,34.228 34.143,34.228 34.143,32.348 35.845,32.348 35.845,34.228 "/>
<g>
	<g>
		<line fill="none" stroke="#0D6A8D" stroke-miterlimit="10" x1="67.779" y1="36.235" x2="58.947" y2="36.235"/>
		<polyline fill="none" stroke="#0D6A8D" stroke-miterlimit="10" points="63.472,41.287 58.189,36.235 63.472,31.182 		"/>
	</g>
	<g>
		<line fill="none" stroke="#0D6A8D" stroke-miterlimit="10" x1="2.22" y1="36.233" x2="11.051" y2="36.233"/>
		<polyline fill="none" stroke="#0D6A8D" stroke-miterlimit="10" points="6.525,31.182 11.807,36.233 6.525,41.287 		"/>
	</g>
</g>
</svg>
