<?xml version="1.0" encoding="utf-8"?>
<!-- Generator: Adobe Illustrator 15.1.0, SVG Export Plug-In . SVG Version: 6.00 Build 0)  -->
<!DOCTYPE svg PUBLIC "-//W3C//DTD SVG 1.1//EN" "http://www.w3.org/Graphics/SVG/1.1/DTD/svg11.dtd">
<svg version="1.1" id="Layer_1" xmlns="http://www.w3.org/2000/svg" xmlns:xlink="http://www.w3.org/1999/xlink" x="0px" y="0px"
	 width="70px" height="70px" viewBox="0 0 70 70" enable-background="new 0 0 70 70" xml:space="preserve">
<g>
	<path fill-rule="evenodd" clip-rule="evenodd" fill="none" stroke="#0D6A8D" stroke-miterlimit="10" d="M34.033,5.837
		c8.271-1.09,10.49,10.584,3.606,13.279c-5.021,1.968-9.816-1.954-9.673-6.721C28.076,8.738,30.443,6.31,34.033,5.837z"/>
	<path fill-rule="evenodd" clip-rule="evenodd" fill="none" stroke="#0D6A8D" stroke-miterlimit="10" d="M13.038,10.304
		c8.233-1.593,8.241,11.755-0.159,10.086C7.922,19.404,7.733,11.333,13.038,10.304z"/>
	<path fill-rule="evenodd" clip-rule="evenodd" fill="none" stroke="#0D6A8D" stroke-miterlimit="10" d="M54.385,10.304
		c8.23-1.593,8.241,11.755-0.157,10.086C49.267,19.404,49.079,11.333,54.385,10.304z"/>
	<path fill-rule="evenodd" clip-rule="evenodd" fill="none" stroke="#0D6A8D" stroke-miterlimit="10" d="M41.081,21.348
		c4.602,2.124,7.828,6.494,7.872,12.625c-9.348,0-18.691,0-28.035,0c0.119-6.656,3.348-10.205,7.705-12.625
		c1.328,0.604,2.707,2.012,4.588,2.295C36.484,24.141,39.323,22.848,41.081,21.348z"/>
	<path fill-rule="evenodd" clip-rule="evenodd" fill="none" stroke="#0D6A8D" stroke-miterlimit="10" d="M19.387,22.824
		c0.482,0.447,1.104,0.757,1.64,1.149c-2.064,2.47-3.309,5.763-3.608,10c-4.754,0-9.508,0-14.262,0
		c-0.453-5.536,2.306-9.128,5.9-11.149C11.128,25.433,17.277,25.292,19.387,22.824z"/>
	<path fill-rule="evenodd" clip-rule="evenodd" fill="none" stroke="#0D6A8D" stroke-miterlimit="10" d="M61.12,22.824
		c3.333,2.297,6.112,5.146,5.737,11.149c-4.755,0-9.509,0-14.263,0c-0.298-4.128-1.493-7.36-3.441-9.834
		c0.129-0.698,1.308-1.201,1.639-1.151C53.07,25.422,58.967,25.222,61.12,22.824z"/>
	<path fill-rule="evenodd" clip-rule="evenodd" fill="none" stroke="#0D6A8D" stroke-miterlimit="10" d="M56.484,42.402
		c-1.095,1.785-1.875,3.905-3.259,5.401c1.315,2.165,2.521,4.464,3.592,6.874c-1.159,1.742-2.855,2.947-4.597,4.107
		c-2.479-1.16-4.286-3.037-6.386-4.598c-1.827,0.849-3.771,1.607-5.892,2.143c-0.579,2.591-0.958,5.381-1.807,7.699
		c-1.652,0.203-4.263,0.336-5.915,0c-1.227-1.918-1.517-4.797-1.964-7.544c-1.964-0.758-4.286-1.16-5.892-2.298
		c-2.121,1.607-4.084,3.37-6.408,4.754c-1.829-1.094-3.549-2.32-4.752-4.084c1.138-2.3,2.074-4.821,3.614-6.718
		c-1.361-1.698-2.342-3.795-3.435-5.737c-2.524,0.401-5.581,0-7.88-0.336c-0.133-1.36-0.558-2.411-0.737-3.728h16.629
		c1.918,5.313,5.938,9.264,12.297,9.801c7.612,0.623,12.655-3.906,14.823-9.801h16.583c-0.157,1.273-0.515,2.344-0.737,3.573
		C61.932,42.246,59.342,42.445,56.484,42.402z"/>
</g>
</svg>
