<?xml version="1.0" encoding="utf-8"?>
<!-- Generator: Adobe Illustrator 15.1.0, SVG Export Plug-In . SVG Version: 6.00 Build 0)  -->
<!DOCTYPE svg PUBLIC "-//W3C//DTD SVG 1.1//EN" "http://www.w3.org/Graphics/SVG/1.1/DTD/svg11.dtd">
<svg version="1.1" id="Layer_1" xmlns="http://www.w3.org/2000/svg" xmlns:xlink="http://www.w3.org/1999/xlink" x="0px" y="0px"
	 width="70px" height="70px" viewBox="0 0 70 70" enable-background="new 0 0 70 70" xml:space="preserve">
<g>
	<path fill-rule="evenodd" clip-rule="evenodd" fill="none" stroke="#0D6A8D" stroke-miterlimit="10" d="M50.174,8.685
		c0.883,2.671-0.285,3.259,0.615,5.528c0.977,2.46,4.646,2.738,4.913,4.605c0.224,1.562-2.167,3.947-2.15,5.525
		c0.022,1.894,2.331,3.569,2.15,5.223c-0.259,2.366-4.347,2.353-5.22,5.22c-0.672,2.21,0.928,2.849-0.615,5.22
		c-2.253,1.486-2.672-0.008-4.913,0.613c-2.743,0.764-3.291,4.898-5.22,5.223c-1.538,0.258-3.491-2.072-5.218-2.15
		c-2.342-0.111-4.02,2.279-5.838,1.846c-2.13-0.518-2.361-4.141-4.913-4.918c-2.212-0.672-2.933,0.916-5.222-0.613
		c-1.442-2.299-0.065-2.881-0.614-4.912c-0.788-2.922-4.848-3.219-5.219-5.22c-0.316-1.7,2.057-3.529,2.15-5.223
		c0.104-1.883-2.281-3.863-2.15-5.525c0.181-2.293,3.862-2.271,4.913-4.605c1.248-2.776-0.771-3.553,0.92-6.143
		c1.746-0.739,3.324,0.03,4.608-0.31c3.27-0.86,2.673-4.608,5.221-5.217c1.964-0.47,3.165,2.147,5.835,2.147
		c1.346,0,3.164-2.35,5.217-2.147c2.461,0.237,2.629,4.381,5.528,5.217C47.261,8.736,47.758,7.145,50.174,8.685z M19.773,22.503
		c-2.059,20.155,26.916,21.052,28.865,3.686c1.233-10.956-7.432-17.851-17.5-15.968C25.289,11.313,20.491,15.481,19.773,22.503z"/>
	<path fill-rule="evenodd" clip-rule="evenodd" fill="none" stroke="#0D6A8D" stroke-miterlimit="10" d="M21.003,43.486
		c3.041,1.484,3.058,5.691,7.37,5.217c1.789-0.191,1.864-1.514,3.99-1.84c-3.237,6.996-5.64,14.832-9.825,20.881
		c-1.006-2.268-1.844-4.705-2.764-7.059c-3.032,0.336-4.749,2-7.675,2.457c2.192-7.125,5.665-12.965,8.29-19.656
		C20.595,43.486,20.8,43.486,21.003,43.486z"/>
	<path fill-rule="evenodd" clip-rule="evenodd" fill="none" stroke="#0D6A8D" stroke-miterlimit="10" d="M46.428,43.463
		c2.174,2.746,3.428,6.193,4.912,9.518c1.438,3.221,3.037,6.596,3.992,10.135c-2.805-0.475-4.6-1.953-7.37-2.457
		c-1.468,1.912-1.886,4.869-3.069,7.063c-4.166-6.072-6.602-13.877-9.829-20.883c2.021,0.217,2.188,1.609,3.686,1.842
		C43.35,49.395,43.328,44.949,46.428,43.463z"/>
	<polygon fill-rule="evenodd" clip-rule="evenodd" fill="#0D6A8D" points="25.458,24.669 31.209,33.979 43.076,16.522 31.08,28.738 
			"/>
</g>
</svg>
