<?xml version="1.0" encoding="utf-8"?>
<!-- Generator: Adobe Illustrator 15.1.0, SVG Export Plug-In . SVG Version: 6.00 Build 0)  -->
<!DOCTYPE svg PUBLIC "-//W3C//DTD SVG 1.1//EN" "http://www.w3.org/Graphics/SVG/1.1/DTD/svg11.dtd">
<svg version="1.1" id="Layer_1" xmlns="http://www.w3.org/2000/svg" xmlns:xlink="http://www.w3.org/1999/xlink" x="0px" y="0px"
	 width="70px" height="70px" viewBox="0 0 70 70" enable-background="new 0 0 70 70" xml:space="preserve">
<g>
	<g>
		<path fill-rule="evenodd" clip-rule="evenodd" fill="none" stroke="#0D6A8D" stroke-miterlimit="10" d="M33.812,1.823
			c0.856,0,1.712,0,2.567,0c7.966,1.5,7.375,13.694-0.855,14.116C26.547,16.404,25.058,3.459,33.812,1.823z"/>
		<path fill-rule="evenodd" clip-rule="evenodd" fill="none" stroke="#0D6A8D" stroke-miterlimit="10" d="M42.848,17.673
			c2.327,2.156,3.602,2.663,4.104,4.771c3.697,15.642-28.992,14.605-23.59-0.633c0.595-1.683,2.642-3.231,4.443-4.456
			C31.073,21.203,39.199,21.22,42.848,17.673z"/>
	</g>
	<g>
		<path fill-rule="evenodd" clip-rule="evenodd" fill="none" stroke="#0D6A8D" stroke-miterlimit="10" d="M28.678,67.984
			c-0.831,0.223-1.723,0.236-2.702,0.119c-5.776-0.722-7.095-5.135-9.233-10.258C13.348,49.714,5.955,44.616,5.118,35.621
			c-0.361-3.873-0.363-11.98,2.607-12.613c4.674-0.997,3.247,5.039,3.754,9.351c0.643,5.472,2.867,10.806,9.069,12.46
			c2.758-1.654-6.919-7.968-5.857-11.59c1.839-6.271,8.381,3.807,10.257,6.155c2.046,2.56,6.089,5.692,7.181,8.89
			c0.897,2.632,0.799,5.567,0.726,8.31c-0.039,1.455-0.118,2.913-0.141,4.368c-0.017,0.923-0.022,2.106-0.186,3.108
			c-0.193,1.196-0.743,1.902-1.599,2.673C30.22,67.377,29.477,67.773,28.678,67.984z"/>
		<path fill-rule="evenodd" clip-rule="evenodd" fill="none" stroke="#0D6A8D" stroke-miterlimit="10" d="M41.324,67.984
			c0.831,0.223,1.723,0.236,2.702,0.119c5.772-0.722,7.094-5.135,9.23-10.258c3.395-8.132,10.789-13.229,11.625-22.225
			c0.362-3.873,0.366-11.98-2.607-12.613c-4.672-0.997-3.245,5.039-3.754,9.351c-0.643,5.472-2.865,10.806-9.069,12.46
			c-2.759-1.654,6.922-7.968,5.86-11.59c-1.842-6.271-8.384,3.807-10.257,6.155c-2.047,2.56-6.09,5.692-7.182,8.89
			c-0.897,2.632-0.8,5.567-0.726,8.31c0.036,1.455,0.114,2.913,0.137,4.368c0.018,0.923,0.022,2.106,0.187,3.108
			c0.197,1.196,0.743,1.902,1.599,2.673C39.779,67.377,40.522,67.773,41.324,67.984z"/>
	</g>
</g>
</svg>
