<?xml version="1.0" encoding="utf-8"?>
<!-- Generator: Adobe Illustrator 15.1.0, SVG Export Plug-In . SVG Version: 6.00 Build 0)  -->
<!DOCTYPE svg PUBLIC "-//W3C//DTD SVG 1.1//EN" "http://www.w3.org/Graphics/SVG/1.1/DTD/svg11.dtd">
<svg version="1.1" id="Layer_1" xmlns="http://www.w3.org/2000/svg" xmlns:xlink="http://www.w3.org/1999/xlink" x="0px" y="0px"
	 width="70px" height="70px" viewBox="0 0 70 70" enable-background="new 0 0 70 70" xml:space="preserve">
<g>
	<polygon fill="none" stroke="#0D6A8D" stroke-miterlimit="10" points="20.53,60.232 5.907,34.907 20.53,9.577 49.776,9.577 
		64.4,34.907 49.776,60.232 	"/>
	<path fill="#FFFFFF" stroke="#0D6A8D" stroke-miterlimit="10" d="M24.283,10.057c0,2.18-1.766,3.946-3.947,3.946
		s-3.948-1.767-3.948-3.946c0-2.183,1.767-3.949,3.948-3.949S24.283,7.875,24.283,10.057z"/>
	<path fill="#FFFFFF" stroke="#0D6A8D" stroke-miterlimit="10" d="M53.612,10.057c0,2.18-1.767,3.946-3.947,3.946
		s-3.949-1.767-3.949-3.946c0-2.183,1.769-3.949,3.949-3.949S53.612,7.875,53.612,10.057z"/>
	<circle fill="#FFFFFF" stroke="#0D6A8D" stroke-miterlimit="10" cx="20.335" cy="59.943" r="3.948"/>
	<circle fill="#FFFFFF" stroke="#0D6A8D" stroke-miterlimit="10" cx="5.815" cy="34.783" r="3.948"/>
	<circle fill="#FFFFFF" stroke="#0D6A8D" stroke-miterlimit="10" cx="64.186" cy="34.783" r="3.947"/>
	<circle fill="#FFFFFF" stroke="#0D6A8D" stroke-miterlimit="10" cx="49.664" cy="59.943" r="3.948"/>
	<path fill="none" stroke="#0D6A8D" stroke-miterlimit="10" d="M50.45,34.546c0,8.468-6.862,15.325-15.328,15.325
		c-8.465,0-15.328-6.857-15.328-15.325c0-8.469,6.863-15.331,15.328-15.331C43.588,19.215,50.45,26.077,50.45,34.546z"/>
	<polyline fill="none" stroke="#0D6A8D" stroke-miterlimit="10" points="27.383,30.453 35.021,40.242 50.538,22.821 	"/>
</g>
</svg>
