<?xml version="1.0" encoding="utf-8"?>
<!-- Generator: Adobe Illustrator 15.1.0, SVG Export Plug-In . SVG Version: 6.00 Build 0)  -->
<!DOCTYPE svg PUBLIC "-//W3C//DTD SVG 1.1//EN" "http://www.w3.org/Graphics/SVG/1.1/DTD/svg11.dtd">
<svg version="1.1" id="Layer_1" xmlns="http://www.w3.org/2000/svg" xmlns:xlink="http://www.w3.org/1999/xlink" x="0px" y="0px"
	 width="70px" height="70px" viewBox="0 0 70 70" enable-background="new 0 0 70 70" xml:space="preserve">
<g>
	
		<circle fill-rule="evenodd" clip-rule="evenodd" fill="none" stroke="#0D6A8D" stroke-miterlimit="10" cx="34.608" cy="15.621" r="13.953"/>
	<path fill-rule="evenodd" clip-rule="evenodd" fill="none" stroke="#0D6A8D" stroke-miterlimit="10" d="M23.957,24.638
		l-15.431,14.6c0.031,0.072,0.073,0.135,0.115,0.197c0.072,0.135,0.156,0.26,0.249,0.385C8.9,39.84,8.91,39.851,8.92,39.871
		c1.903,2.651,5.449,2.143,5.449,2.143l0.717-0.718l14.278-12.867"/>
	<path fill-rule="evenodd" clip-rule="evenodd" fill="none" stroke="#0D6A8D" stroke-miterlimit="10" d="M36.727,50.776l8.62,8.473
		c0,0,4.528,1.023,4.528-4.236l-7.598-8.182"/>
	<path fill-rule="evenodd" clip-rule="evenodd" fill="none" stroke="#0D6A8D" stroke-miterlimit="10" d="M49.879,55.012
		c8.62-2.776,2.184-8.184,2.184-8.184l-0.76-0.677L39.938,36.023c-1.455,0.437-6.281,6.572-6.281,6.572
		c-6.426,3.649-6.426-3.358-6.426-3.358c-0.144-2.341,6.343-7.321,8.391-9.702"/>
	<path fill-rule="evenodd" clip-rule="evenodd" fill="none" stroke="#0D6A8D" stroke-miterlimit="10" d="M68.138,33.685
		c-2.641,1.165-5.407,4.97-5.407,4.97c-0.27,0.365-0.54,0.687-0.8,0.979c-2.361,2.6-4.522,2.432-6.237,1.714
		c-2.185-0.905-3.987-2.757-3.987-2.757L41.041,28.007"/>
	
		<line fill-rule="evenodd" clip-rule="evenodd" fill="none" stroke="#0D6A8D" stroke-miterlimit="10" x1="61.931" y1="39.633" x2="45.782" y2="23.983"/>
	<path fill-rule="evenodd" clip-rule="evenodd" fill="none" stroke="#0D6A8D" stroke-miterlimit="10" d="M15.633,53.508
		c-1.247,1.227-3.251,1.21-4.478-0.036l0,0c-1.226-1.246-1.21-3.251,0.036-4.479l2.969-2.921c1.246-1.227,3.251-1.21,4.479,0.036
		l0,0c1.225,1.245,1.209,3.251-0.037,4.479L15.633,53.508z"/>
	<path fill-rule="evenodd" clip-rule="evenodd" fill="none" stroke="#0D6A8D" stroke-miterlimit="10" d="M29.888,67.413
		c-1.173,1.155-3.061,1.141-4.215-0.033l0,0c-1.154-1.173-1.139-3.061,0.034-4.217l2.795-2.748c1.173-1.156,3.061-1.141,4.216,0.033
		l0,0c1.153,1.173,1.138,3.061-0.035,4.216L29.888,67.413z"/>
	<path fill-rule="evenodd" clip-rule="evenodd" fill="none" stroke="#0D6A8D" stroke-miterlimit="10" d="M20.356,58.492
		c-1.32,1.299-3.442,1.281-4.741-0.037l0,0c-1.298-1.319-1.282-3.442,0.038-4.742l3.144-3.092c1.32-1.299,3.442-1.282,4.742,0.037
		l0,0c1.297,1.319,1.281,3.442-0.039,4.742L20.356,58.492z"/>
	<path fill-rule="evenodd" clip-rule="evenodd" fill="none" stroke="#0D6A8D" stroke-miterlimit="10" d="M25.339,62.871
		c-1.248,1.229-3.255,1.212-4.482-0.036l0,0c-1.228-1.246-1.212-3.254,0.036-4.483l2.973-2.924c1.248-1.229,3.255-1.213,4.484,0.035
		l0,0c1.227,1.247,1.211,3.255-0.037,4.484L25.339,62.871z"/>
	<path fill-rule="evenodd" clip-rule="evenodd" fill="none" stroke="#0D6A8D" stroke-miterlimit="10" d="M32.285,55.137l7.768,7.767
		c0.114,0.26,0.197,0.51,0.25,0.748c0.644,2.6-1.644,4.232-1.644,4.232c-2.402,1.602-5.116-1.497-6.229-2.974"/>
	<path fill-rule="evenodd" clip-rule="evenodd" fill="none" stroke="#0D6A8D" stroke-miterlimit="10" d="M39.842,62.712
		c4.756,3.091,5.556-1.524,5.648-3.428"/>
	<path fill-rule="evenodd" clip-rule="evenodd" fill="none" stroke="#0D6A8D" stroke-miterlimit="10" d="M51.303,46.151
		c2.258-0.935,3.682-3.223,4.348-4.554"/>
	<path fill-rule="evenodd" clip-rule="evenodd" fill="none" stroke="#0D6A8D" stroke-miterlimit="10" d="M1.862,32.237
		c0,0,5.979,5.59,7.149,7.799"/>
	<path fill-rule="evenodd" clip-rule="evenodd" fill="none" stroke="#0D6A8D" stroke-miterlimit="10" d="M14.758,41.704
		c-0.476,1.98-0.152,2.704,0.547,3.647"/>
	<path fill-rule="evenodd" clip-rule="evenodd" fill="none" stroke="#0D6A8D" stroke-miterlimit="10" d="M34.761,25.688h-0.027
		c-10.363-5.496-7.795-16.451-7.795-16.451c2.726,0.358,6.175-1.529,7.795-2.534h0.027c1.619,1.004,5.068,2.892,7.795,2.534
		C42.556,9.237,45.123,20.192,34.761,25.688z"/>
</g>
</svg>
