<?xml version="1.0" encoding="utf-8"?>
<!-- Generator: Adobe Illustrator 15.1.0, SVG Export Plug-In . SVG Version: 6.00 Build 0)  -->
<!DOCTYPE svg PUBLIC "-//W3C//DTD SVG 1.1//EN" "http://www.w3.org/Graphics/SVG/1.1/DTD/svg11.dtd">
<svg version="1.1" id="Layer_1" xmlns="http://www.w3.org/2000/svg" xmlns:xlink="http://www.w3.org/1999/xlink" x="0px" y="0px"
	 width="70px" height="70px" viewBox="0 0 70 70" enable-background="new 0 0 70 70" xml:space="preserve">
<g>
	<path fill="none" stroke="#0D6A8D" stroke-miterlimit="10" d="M49.02,4.904c0,0-9.171-5.535-25.61-1.899
		c0,0-10.437,3.001-13.913,11.856c0,0-1.74,7.589-3.32,10.276l2.845,3.478L1.908,40.949l4.425,2.843l-0.947,4.586l1.58,1.421
		l-0.633,2.689l2.057,0.947c0,0,0.791,1.582,0.316,3.164c0,0-0.952,6.481,4.741,4.425l18.812-6.481c0,0,1.738-1.422,1.898-3.479"/>
	<path fill="none" stroke="#0D6A8D" stroke-miterlimit="10" d="M42.219,11.858c0,0-7.745-7.27-16.438,0.319
		c0,0-6.01,6.324-1.266,14.227l19.759,19.76c0,0,3.636,2.689,3.797-2.21L33.524,29.249"/>
	<path fill="none" stroke="#0D6A8D" stroke-miterlimit="10" d="M59.161,19.333c0,0-5.286,5.397-10.569-0.563l-9.781,8.883
		c-3.485,0-2.586-3.375-2.586-3.375L48.143,12.25c0,0,7.081-7.76,15.401-1.688c0,0,7.195,4.5,3.486,14.055
		c0,0-3.148,4.609-7.983,8.883c0,0-0.675,3.595-3.148,3.373c0,0-1.012,4.383-4.161,3.598c0,0,0.081,3.703-3.667,3.483"/>
	<path fill="none" stroke="#0D6A8D" stroke-miterlimit="10" d="M22.299,57.982c2.272,2.113,6.324,6.401,6.635,10.25h25.18
		c0,0-4.082-10.098-3.021-21.512"/>
	<line fill="none" stroke="#0D6A8D" stroke-miterlimit="10" x1="38.811" y1="27.653" x2="51.737" y2="40.47"/>
	<line fill="none" stroke="#0D6A8D" stroke-miterlimit="10" x1="42.266" y1="24.541" x2="55.491" y2="37.html"/>
	<line fill="none" stroke="#0D6A8D" stroke-miterlimit="10" x1="45.611" y1="21.112" x2="58.522" y2="33.595"/>
</g>
</svg>
