<?xml version="1.0" encoding="utf-8"?>
<!-- Generator: Adobe Illustrator 15.1.0, SVG Export Plug-In . SVG Version: 6.00 Build 0)  -->
<!DOCTYPE svg PUBLIC "-//W3C//DTD SVG 1.1//EN" "http://www.w3.org/Graphics/SVG/1.1/DTD/svg11.dtd">
<svg version="1.1" id="Layer_1" xmlns="http://www.w3.org/2000/svg" xmlns:xlink="http://www.w3.org/1999/xlink" x="0px" y="0px"
	 width="290px" height="320px" viewBox="0 0 290 320" enable-background="new 0 0 290 320" xml:space="preserve">
<g>
	<polygon fill-rule="evenodd" clip-rule="evenodd" fill="#FDDB00" points="95.404,93.301 94.593,169.586 49.185,131.461 
		46.993,128.876 83.399,95.681 	"/>
	<polygon fill-rule="evenodd" clip-rule="evenodd" fill="#6F7072" points="195.25,92.023 196.034,168.316 241.444,130.178 
		242.984,128.723 207.229,94.404 	"/>
	<polygon fill-rule="evenodd" clip-rule="evenodd" fill="#FDDB00" points="143.92,70.812 242.984,128.723 194.937,42.961 	"/>
	<polygon fill-rule="evenodd" clip-rule="evenodd" fill="#6F7072" points="194.885,42.989 46.996,128.876 95.828,42.989 	"/>
	<polygon fill-rule="evenodd" clip-rule="evenodd" fill="#6F7072" points="46.993,128.876 151.176,187.647 97.074,214.16 	"/>
	<polygon fill-rule="evenodd" clip-rule="evenodd" fill="#FDDB00" points="96.969,214.11 243.006,128.723 196.361,214.11 	"/>
	<path fill="#6F7072" stroke="#6F7072" stroke-width="2.0141" stroke-miterlimit="10" d="M114.477,112.799
		c0-0.389,0.162-0.651,0.45-0.832c0.312-0.158,0.649-0.235,1.041-0.235c0.363,0,0.708,0.077,1.018,0.235
		c0.311,0.181,0.47,0.443,0.47,0.832v30.587c0,0.399-0.159,0.682-0.47,0.889c-0.31,0.183-0.654,0.287-1.018,0.287
		c-0.392,0-0.729-0.104-1.041-0.287c-0.289-0.208-0.45-0.49-0.45-0.889V112.799z M140.889,132.245
		c-0.31,0.617-0.733,0.938-1.201,0.938c-0.442,0-0.832-0.321-1.176-0.938l-7.406-14.22v25.362c0,0.399-0.158,0.682-0.473,0.889
		c-0.312,0.183-0.652,0.287-1.016,0.287c-0.392,0-0.728-0.104-1.019-0.287c-0.312-0.208-0.47-0.49-0.47-0.889V113.17
		c0-0.548,0.158-0.917,0.47-1.127c0.291-0.202,0.627-0.31,1.019-0.31c0.547,0,0.992,0.211,1.382,0.601
		c0.364,0.389,0.706,0.888,0.993,1.46l7.725,14.896l7.748-14.896c0.288-0.572,0.632-1.071,0.993-1.46
		c0.394-0.39,0.836-0.601,1.386-0.601c0.417,0,0.756,0.107,1.044,0.31c0.288,0.21,0.438,0.58,0.438,1.127v30.216
		c0,0.399-0.15,0.682-0.47,0.889c-0.283,0.183-0.62,0.287-1.013,0.287c-0.371,0-0.706-0.104-1.023-0.287
		c-0.309-0.208-0.468-0.49-0.468-0.889v-25.232L140.889,132.245z M177.375,119.901c-0.026-0.469-0.132-1.046-0.263-1.673
		c-0.154-0.628-0.469-1.2-0.909-1.774c-0.445-0.547-1.073-1.019-1.882-1.412c-0.806-0.386-1.879-0.569-3.236-0.569
		c-2.089,0-3.707,0.546-4.801,1.643c-1.124,1.128-1.669,2.847-1.669,5.165v13.939c0,2.372,0.573,4.095,1.693,5.218
		c1.121,1.1,2.766,1.648,4.96,1.648c1.332,0,2.401-0.183,3.183-0.548c0.785-0.39,1.382-0.844,1.773-1.414
		c0.419-0.549,0.684-1.146,0.835-1.798c0.158-0.636,0.264-1.227,0.315-1.752c0.077-0.777,0.571-1.175,1.487-1.175
		c0.497,0,0.885,0.108,1.121,0.374c0.237,0.224,0.362,0.73,0.362,1.458c0,1.018-0.229,1.981-0.652,2.894
		c-0.417,0.91-1.015,1.718-1.824,2.428c-0.81,0.704-1.803,1.253-2.973,1.67c-1.149,0.392-2.484,0.602-3.944,0.602
		c-1.25,0-2.452-0.159-3.6-0.521c-1.121-0.339-2.112-0.884-2.951-1.646c-0.862-0.788-1.512-1.752-2.004-2.978
		c-0.498-1.198-0.735-2.684-0.735-4.46V121.28c0-1.718,0.237-3.21,0.759-4.403c0.493-1.226,1.177-2.201,2.031-2.979
		c0.863-0.754,1.856-1.301,3.006-1.645c1.12-0.368,2.346-0.52,3.627-0.52c1.461,0,2.764,0.211,3.937,0.601
		c1.152,0.389,2.12,0.939,2.902,1.641c0.755,0.68,1.353,1.485,1.77,2.374c0.423,0.895,0.652,1.851,0.652,2.866
		c0,0.763-0.125,1.257-0.362,1.468c-0.236,0.233-0.624,0.336-1.121,0.336c-0.52,0-0.887-0.103-1.097-0.312
		C177.534,120.501,177.398,120.238,177.375,119.901L177.375,119.901z"/>
</g>
<g>
	<path fill="#6E6F71" d="M24.248,254.814c0-0.349,0.125-0.653,0.375-0.915c0.25-0.261,0.582-0.392,0.996-0.392h6.466
		c1.066,0,2.068,0.114,3.004,0.343c0.936,0.229,1.758,0.604,2.465,1.127c0.707,0.522,1.262,1.219,1.666,2.09
		c0.402,0.871,0.604,1.959,0.604,3.266c0,1.872-0.408,3.336-1.225,4.392s-1.834,1.769-3.053,2.139l4.278,7.935
		c0.065,0.088,0.109,0.18,0.131,0.278c0.021,0.098,0.032,0.18,0.032,0.244c0,0.262-0.082,0.528-0.245,0.801
		c-0.164,0.272-0.371,0.512-0.621,0.718c-0.25,0.207-0.534,0.376-0.849,0.507c-0.315,0.13-0.626,0.195-0.931,0.195
		s-0.583-0.087-0.833-0.261c-0.25-0.174-0.463-0.425-0.637-0.751l-4.637-9.013h-2.743v8.522c0,0.436-0.218,0.768-0.653,0.996
		c-0.436,0.229-0.926,0.343-1.47,0.343c-0.522,0-1.007-0.114-1.453-0.343s-0.669-0.561-0.669-0.996V254.814z M28.493,257.23v6.955
		h3.592c1.066,0,1.915-0.256,2.547-0.768c0.631-0.511,0.947-1.409,0.947-2.693s-0.316-2.188-0.947-2.711
		c-0.632-0.522-1.481-0.783-2.547-0.783H28.493z"/>
	<path fill="#6E6F71" d="M47.105,263.761h4.963c0.436,0,0.768,0.174,0.996,0.522c0.229,0.348,0.343,0.74,0.343,1.175
		c0,0.371-0.109,0.735-0.327,1.094c-0.218,0.359-0.555,0.539-1.012,0.539h-4.963v6.563h9.241c0.435,0,0.768,0.191,0.996,0.571
		c0.229,0.382,0.343,0.822,0.343,1.322c0,0.437-0.109,0.85-0.327,1.241c-0.218,0.392-0.555,0.588-1.012,0.588H44.721
		c-0.479,0-0.909-0.114-1.29-0.343c-0.381-0.229-0.571-0.561-0.571-0.996v-21.192c0-0.436,0.19-0.768,0.571-0.996
		c0.38-0.229,0.811-0.343,1.29-0.343h11.625c0.457,0,0.794,0.196,1.012,0.588c0.217,0.392,0.327,0.806,0.327,1.241
		c0,0.501-0.114,0.941-0.343,1.322s-0.561,0.571-0.996,0.571h-9.241V263.761z"/>
	<path fill="#6E6F71" d="M71.759,266.667h-7.347v9.372c0,0.436-0.223,0.768-0.669,0.996s-0.931,0.343-1.453,0.343
		c-0.544,0-1.034-0.114-1.469-0.343c-0.436-0.229-0.653-0.561-0.653-0.996v-21.225c0-0.458,0.217-0.789,0.653-0.996
		c0.435-0.207,0.925-0.311,1.469-0.311c0.522,0,1.007,0.104,1.453,0.311s0.669,0.538,0.669,0.996v8.522h7.347v-8.522
		c0-0.458,0.217-0.789,0.653-0.996c0.435-0.207,0.925-0.311,1.469-0.311c0.522,0,1.007,0.104,1.453,0.311
		c0.446,0.207,0.669,0.538,0.669,0.996v21.225c0,0.436-0.224,0.768-0.669,0.996c-0.446,0.229-0.931,0.343-1.453,0.343
		c-0.544,0-1.034-0.114-1.469-0.343c-0.436-0.229-0.653-0.561-0.653-0.996V266.667z"/>
	<path fill="#6E6F71" d="M112.576,254.846c0-0.436,0.19-0.768,0.571-0.996c0.38-0.229,0.811-0.343,1.29-0.343h6.302
		c0.849,0,1.67,0.082,2.465,0.245c0.794,0.163,1.491,0.457,2.09,0.882c0.599,0.424,1.083,1.012,1.453,1.763s0.555,1.704,0.555,2.857
		c0,1.351-0.245,2.46-0.734,3.331c-0.49,0.871-1.17,1.491-2.041,1.861c0.5,0.195,0.958,0.43,1.372,0.702
		c0.413,0.272,0.767,0.615,1.061,1.028c0.294,0.414,0.522,0.914,0.686,1.502c0.164,0.588,0.245,1.285,0.245,2.09v0.686
		c0,1.285-0.169,2.362-0.506,3.233c-0.337,0.87-0.8,1.583-1.388,2.139c-0.588,0.555-1.279,0.952-2.073,1.191
		c-0.795,0.24-1.649,0.359-2.563,0.359h-6.923c-0.566,0-1.018-0.131-1.355-0.392c-0.338-0.262-0.506-0.566-0.506-0.915V254.846z
		 M116.788,262.781h3.657c0.893,0,1.551-0.261,1.976-0.783c0.425-0.522,0.637-1.197,0.637-2.024c0-0.85-0.234-1.519-0.702-2.009
		c-0.469-0.489-1.116-0.734-1.943-0.734h-3.625V262.781z M120.478,273.655c1.001,0,1.78-0.282,2.335-0.849s0.833-1.47,0.833-2.711
		v-0.522c0-1.284-0.277-2.182-0.833-2.693s-1.334-0.768-2.335-0.768h-3.69v7.543H120.478z"/>
	<path fill="#6E6F71" d="M143.695,273.851c0.979,0,1.833-0.229,2.563-0.686c0.729-0.458,1.094-1.176,1.094-2.155
		c0-0.806-0.262-1.464-0.784-1.976c-0.522-0.512-1.17-0.969-1.942-1.372c-0.773-0.402-1.611-0.788-2.515-1.159
		c-0.903-0.37-1.742-0.832-2.514-1.388c-0.773-0.555-1.42-1.246-1.943-2.073s-0.784-1.883-0.784-3.168
		c0-1.219,0.239-2.241,0.718-3.069c0.479-0.827,1.094-1.496,1.845-2.008c0.751-0.512,1.6-0.882,2.547-1.11
		c0.947-0.229,1.888-0.343,2.824-0.343c0.479,0,1.072,0.032,1.78,0.098c0.707,0.065,1.388,0.196,2.041,0.392
		c0.653,0.196,1.213,0.463,1.682,0.801c0.468,0.338,0.702,0.778,0.702,1.322c0,0.196-0.033,0.419-0.098,0.669
		c-0.065,0.251-0.169,0.496-0.311,0.735s-0.321,0.44-0.539,0.604c-0.218,0.164-0.468,0.245-0.751,0.245
		c-0.261,0-0.512-0.065-0.751-0.196c-0.24-0.13-0.522-0.271-0.849-0.424c-0.327-0.152-0.725-0.294-1.192-0.425
		c-0.468-0.131-1.04-0.196-1.714-0.196c-1.175,0-2.084,0.224-2.727,0.67s-0.963,1.062-0.963,1.845c0,0.675,0.261,1.225,0.784,1.649
		c0.522,0.424,1.17,0.811,1.943,1.159c0.772,0.349,1.61,0.713,2.514,1.094c0.903,0.381,1.741,0.871,2.515,1.47
		c0.772,0.599,1.42,1.35,1.942,2.253s0.784,2.063,0.784,3.478c0,1.176-0.196,2.204-0.588,3.086s-0.931,1.616-1.616,2.204
		s-1.502,1.034-2.449,1.339s-1.987,0.457-3.119,0.457c-1.067,0-2.063-0.12-2.988-0.359s-1.726-0.555-2.4-0.947
		c-0.675-0.392-1.203-0.826-1.584-1.306c-0.381-0.479-0.571-0.958-0.571-1.437c0-0.218,0.049-0.463,0.147-0.735
		c0.098-0.271,0.234-0.522,0.408-0.751c0.174-0.229,0.37-0.419,0.588-0.571c0.217-0.152,0.457-0.229,0.718-0.229
		c0.327,0,0.647,0.131,0.963,0.392c0.315,0.262,0.674,0.551,1.078,0.865c0.402,0.316,0.881,0.604,1.437,0.865
		C142.176,273.72,142.867,273.851,143.695,273.851z"/>
	<path fill="#6E6F71" d="M158.748,263.761h4.964c0.435,0,0.767,0.174,0.996,0.522c0.229,0.348,0.343,0.74,0.343,1.175
		c0,0.371-0.109,0.735-0.327,1.094c-0.218,0.359-0.555,0.539-1.012,0.539h-4.964v6.563h9.241c0.436,0,0.768,0.191,0.996,0.571
		c0.229,0.382,0.343,0.822,0.343,1.322c0,0.437-0.109,0.85-0.326,1.241c-0.219,0.392-0.556,0.588-1.013,0.588h-11.625
		c-0.479,0-0.909-0.114-1.29-0.343s-0.571-0.561-0.571-0.996v-21.192c0-0.436,0.19-0.768,0.571-0.996s0.812-0.343,1.29-0.343h11.625
		c0.457,0,0.794,0.196,1.013,0.588c0.217,0.392,0.326,0.806,0.326,1.241c0,0.501-0.114,0.941-0.343,1.322s-0.561,0.571-0.996,0.571
		h-9.241V263.761z"/>
	<path fill="#6E6F71" d="M171.809,254.814c0-0.349,0.125-0.653,0.376-0.915c0.25-0.261,0.582-0.392,0.996-0.392h6.465
		c1.066,0,2.068,0.114,3.005,0.343c0.936,0.229,1.757,0.604,2.465,1.127c0.707,0.522,1.263,1.219,1.665,2.09
		c0.403,0.871,0.604,1.959,0.604,3.266c0,1.872-0.408,3.336-1.225,4.392s-1.834,1.769-3.053,2.139l4.277,7.935
		c0.065,0.088,0.108,0.18,0.131,0.278c0.021,0.098,0.032,0.18,0.032,0.244c0,0.262-0.081,0.528-0.245,0.801
		c-0.163,0.272-0.37,0.512-0.62,0.718c-0.25,0.207-0.533,0.376-0.849,0.507c-0.316,0.13-0.626,0.195-0.931,0.195
		c-0.306,0-0.583-0.087-0.833-0.261s-0.463-0.425-0.637-0.751l-4.637-9.013h-2.743v8.522c0,0.436-0.218,0.768-0.653,0.996
		s-0.925,0.343-1.469,0.343c-0.522,0-1.008-0.114-1.453-0.343c-0.446-0.229-0.67-0.561-0.67-0.996V254.814z M176.054,257.23v6.955
		h3.592c1.066,0,1.916-0.256,2.547-0.768c0.632-0.511,0.947-1.409,0.947-2.693s-0.315-2.188-0.947-2.711
		c-0.631-0.522-1.48-0.783-2.547-0.783H176.054z"/>
	<path fill="#6E6F71" d="M188.822,255.597c-0.044-0.174-0.065-0.282-0.065-0.326c0-0.262,0.087-0.501,0.261-0.719
		c0.175-0.217,0.393-0.402,0.653-0.555c0.262-0.152,0.55-0.272,0.865-0.359s0.615-0.131,0.898-0.131c0.37,0,0.68,0.065,0.931,0.196
		c0.25,0.13,0.419,0.349,0.506,0.652l4.996,17.699l4.964-17.699c0.086-0.304,0.255-0.522,0.506-0.652
		c0.25-0.131,0.561-0.196,0.931-0.196c0.282,0,0.582,0.044,0.897,0.131s0.604,0.212,0.865,0.375
		c0.262,0.164,0.479,0.349,0.653,0.556s0.262,0.44,0.262,0.702c0,0.044-0.022,0.152-0.065,0.326l-6.27,20.539
		c-0.152,0.501-0.49,0.865-1.013,1.095c-0.522,0.229-1.1,0.343-1.73,0.343c-0.632,0-1.203-0.114-1.714-0.343
		c-0.512-0.229-0.855-0.594-1.029-1.095L188.822,255.597z"/>
	<path fill="#6E6F71" d="M209.198,254.814c0-0.458,0.218-0.789,0.653-0.996s0.925-0.311,1.47-0.311c0.522,0,1.007,0.104,1.453,0.311
		c0.445,0.207,0.669,0.538,0.669,0.996v21.225c0,0.436-0.224,0.768-0.669,0.996c-0.446,0.229-0.931,0.343-1.453,0.343
		c-0.545,0-1.034-0.114-1.47-0.343s-0.653-0.561-0.653-0.996V254.814z"/>
	<path fill="#6E6F71" d="M228.203,260.462c-0.022-0.261-0.065-0.571-0.131-0.931c-0.065-0.358-0.213-0.713-0.441-1.061
		c-0.229-0.349-0.561-0.643-0.995-0.882c-0.437-0.239-1.045-0.359-1.829-0.359c-1.11,0-1.959,0.305-2.547,0.914
		c-0.588,0.61-0.882,1.557-0.882,2.841v9.11c0,1.285,0.299,2.232,0.898,2.841c0.598,0.61,1.464,0.915,2.596,0.915
		c0.739,0,1.327-0.12,1.764-0.359c0.435-0.239,0.762-0.533,0.979-0.882c0.217-0.348,0.364-0.724,0.44-1.126
		c0.076-0.403,0.125-0.778,0.147-1.127c0.043-0.501,0.261-0.849,0.652-1.045c0.393-0.196,0.871-0.294,1.438-0.294
		c0.739,0,1.284,0.142,1.632,0.425c0.349,0.283,0.522,0.838,0.522,1.665c0,0.979-0.19,1.872-0.571,2.678s-0.92,1.485-1.616,2.041
		c-0.697,0.555-1.523,0.985-2.481,1.289c-0.958,0.305-2.003,0.458-3.135,0.458c-1.023,0-1.992-0.137-2.906-0.408
		c-0.914-0.272-1.715-0.702-2.4-1.29s-1.225-1.355-1.616-2.302c-0.392-0.947-0.588-2.106-0.588-3.479v-9.11
		c0-1.371,0.201-2.53,0.604-3.478c0.402-0.946,0.946-1.714,1.633-2.302c0.686-0.588,1.485-1.018,2.399-1.29
		c0.915-0.271,1.883-0.408,2.906-0.408c1.132,0,2.177,0.147,3.135,0.441c0.958,0.293,1.78,0.707,2.466,1.24
		c0.686,0.534,1.219,1.187,1.6,1.959c0.381,0.773,0.571,1.628,0.571,2.563c0,0.85-0.174,1.41-0.522,1.682
		c-0.348,0.272-0.881,0.408-1.6,0.408c-0.609,0-1.11-0.098-1.502-0.294C228.431,261.312,228.223,260.963,228.203,260.462z"/>
	<path fill="#6E6F71" d="M239.565,263.761h4.964c0.435,0,0.767,0.174,0.996,0.522c0.229,0.348,0.343,0.74,0.343,1.175
		c0,0.371-0.109,0.735-0.327,1.094c-0.218,0.359-0.555,0.539-1.012,0.539h-4.964v6.563h9.241c0.436,0,0.768,0.191,0.996,0.571
		c0.229,0.382,0.343,0.822,0.343,1.322c0,0.437-0.109,0.85-0.326,1.241c-0.219,0.392-0.556,0.588-1.013,0.588h-11.625
		c-0.479,0-0.909-0.114-1.29-0.343s-0.571-0.561-0.571-0.996v-21.192c0-0.436,0.19-0.768,0.571-0.996s0.812-0.343,1.29-0.343h11.625
		c0.457,0,0.794,0.196,1.013,0.588c0.217,0.392,0.326,0.806,0.326,1.241c0,0.501-0.114,0.941-0.343,1.322s-0.561,0.571-0.996,0.571
		h-9.241V263.761z"/>
	<path fill="#6E6F71" d="M258.864,273.851c0.979,0,1.834-0.229,2.563-0.686c0.729-0.458,1.094-1.176,1.094-2.155
		c0-0.806-0.262-1.464-0.784-1.976s-1.17-0.969-1.942-1.372c-0.773-0.402-1.611-0.788-2.515-1.159
		c-0.903-0.37-1.742-0.832-2.515-1.388c-0.772-0.555-1.42-1.246-1.942-2.073s-0.784-1.883-0.784-3.168
		c0-1.219,0.239-2.241,0.719-3.069c0.479-0.827,1.094-1.496,1.845-2.008s1.601-0.882,2.547-1.11
		c0.947-0.229,1.889-0.343,2.825-0.343c0.479,0,1.071,0.032,1.779,0.098c0.707,0.065,1.388,0.196,2.041,0.392
		c0.653,0.196,1.213,0.463,1.682,0.801c0.468,0.338,0.702,0.778,0.702,1.322c0,0.196-0.033,0.419-0.098,0.669
		c-0.065,0.251-0.169,0.496-0.311,0.735s-0.321,0.44-0.539,0.604c-0.218,0.164-0.468,0.245-0.751,0.245
		c-0.261,0-0.512-0.065-0.751-0.196c-0.24-0.13-0.522-0.271-0.849-0.424c-0.327-0.152-0.725-0.294-1.192-0.425
		s-1.04-0.196-1.714-0.196c-1.176,0-2.085,0.224-2.727,0.67c-0.643,0.446-0.964,1.062-0.964,1.845c0,0.675,0.262,1.225,0.784,1.649
		c0.522,0.424,1.17,0.811,1.942,1.159s1.611,0.713,2.515,1.094s1.741,0.871,2.515,1.47c0.772,0.599,1.42,1.35,1.942,2.253
		s0.784,2.063,0.784,3.478c0,1.176-0.196,2.204-0.588,3.086s-0.931,1.616-1.616,2.204s-1.502,1.034-2.449,1.339
		s-1.987,0.457-3.118,0.457c-1.067,0-2.063-0.12-2.988-0.359c-0.926-0.239-1.726-0.555-2.4-0.947
		c-0.675-0.392-1.203-0.826-1.583-1.306c-0.382-0.479-0.571-0.958-0.571-1.437c0-0.218,0.049-0.463,0.146-0.735
		c0.098-0.271,0.233-0.522,0.408-0.751c0.174-0.229,0.37-0.419,0.588-0.571c0.217-0.152,0.457-0.229,0.718-0.229
		c0.327,0,0.647,0.131,0.964,0.392c0.315,0.262,0.675,0.551,1.077,0.865c0.403,0.316,0.882,0.604,1.438,0.865
		C257.345,273.72,258.036,273.851,258.864,273.851z"/>
</g>
<path fill="#FDDB00" d="M78.864,233.915c0,0-0.688-1.723,0.46-2.068c0,0,0.787-0.283,2.027,1.668c0,0,6.104,9.935,10.929,11.514
	c0,0,5.565,1.762,9.833-5.011l1.299-2.134c0,0,0.278-1.204,2.041-0.739c0,0,1.391,0.834,0,3.154l-10.491,15.954l13.459,24.492
	c0,0,1.021,1.392,0,2.409c0,0-1.485,0-2.319-1.947c0,0-5.744-12.339-12.335-12.71c0,0-5.94-0.743-10.3,9.556
	c0,0-0.835,2.042-2.227,1.484c0,0-1.297-0.464,0.094-3.433L92,256.44L78.864,233.915z"/>
<path fill="#FDDB00" d="M99.33,238.443c0,2.046-2.306,3.709-5.149,3.709c-2.844,0-5.148-1.663-5.148-3.709
	c0-2.052,2.304-3.712,5.148-3.712C97.023,234.731,99.33,236.391,99.33,238.443z"/>
</svg>
