<?xml version="1.0" encoding="utf-8"?>
<!-- Generator: Adobe Illustrator 15.1.0, SVG Export Plug-In . SVG Version: 6.00 Build 0)  -->
<!DOCTYPE svg PUBLIC "-//W3C//DTD SVG 1.1//EN" "http://www.w3.org/Graphics/SVG/1.1/DTD/svg11.dtd">
<svg version="1.1" id="Layer_1" xmlns="http://www.w3.org/2000/svg" xmlns:xlink="http://www.w3.org/1999/xlink" x="0px" y="0px"
	 width="7px" height="7px" viewBox="0 0 7 7" enable-background="new 0 0 7 7" xml:space="preserve">
<g>
	<g>
		<g>
			<path fill-rule="evenodd" clip-rule="evenodd" fill="#818385" d="M5.22,0.61H1.81l-1.65,2.9l1.69,2.88h3.41L6.84,3.5L5.22,0.61z
				 M2.42,5.37L1.66,4.06L1.5,3.77L1.33,3.49l0.14-0.25l0.19-0.31l0.76-1.32h2.16L5.3,2.85l0.22,0.38l0.15,0.26L5.5,3.78L5.36,4.03
				L4.58,5.37H2.42z"/>
		</g>
	</g>
	<line fill="none" x1="5.15" y1="0.607" x2="5.148" y2="0.607"/>
</g>
<g>
	<line fill="none" x1="4.979" y1="0.909" x2="4.977" y2="0.909"/>
</g>
<g>
	<line fill="none" x1="4.724" y1="1.354" x2="4.722" y2="1.354"/>
</g>
<g>
	<g>
		<g>
			<path fill-rule="evenodd" clip-rule="evenodd" fill="#818385" d="M4.808,1.302H2.215L0.961,3.507l1.285,2.189h2.591L6.039,3.5
				L4.808,1.302z M2.679,4.921L2.102,3.925L1.98,3.705L1.851,3.492l0.106-0.19l0.145-0.235l0.578-1.003h1.642l0.547,0.942
				l0.167,0.289l0.114,0.198l-0.129,0.22l-0.106,0.19L4.321,4.921H2.679z"/>
		</g>
	</g>
	<line fill="none" x1="4.754" y1="1.301" x2="4.753" y2="1.301"/>
</g>
<g>
	<line fill="none" x1="4.724" y1="1.354" x2="4.722" y2="1.354"/>
</g>
</svg>
