<?xml version="1.0" encoding="utf-8"?>
<!-- Generator: Adobe Illustrator 24.3.0, SVG Export Plug-In . SVG Version: 6.00 Build 0)  -->
<svg version="1.1" id="Layer_1" xmlns="http://www.w3.org/2000/svg" xmlns:xlink="http://www.w3.org/1999/xlink" x="0px" y="0px"
	 viewBox="0 0 320 56" style="enable-background:new 0 0 320 56;" xml:space="preserve">
<style type="text/css">
	.st0{fill:#0D6A8D;}
	.st1{fill:#FFDD00;}
	.st2{fill:none;stroke:#FFFFFF;stroke-width:1.1788;stroke-linecap:round;stroke-miterlimit:10;}
	.st3{fill:none;stroke:#FFFFFF;stroke-width:1.1788;stroke-miterlimit:10;}
	.st4{fill:#FFFFFF;}
	.st5{fill:none;}
</style>
<g>
	<path class="st0" d="M9.33,0.5C4.17,0.5,0,4.82,0,10.12v35.77c0,5.3,4.17,9.62,9.33,9.62h55.33l25.62-55H9.33z"/>
	<path class="st1" d="M310.67,0.5H90.28l-25.62,55h246.01c5.14,0,9.33-4.32,9.33-9.62V10.12C320,4.82,315.81,0.5,310.67,0.5z"/>
</g>
<g>
	<path d="M97.42,23.33c-0.01-0.04-0.02-0.1-0.02-0.17c0-0.13,0.04-0.24,0.11-0.34c0.08-0.1,0.18-0.19,0.3-0.27
		c0.13-0.08,0.26-0.13,0.41-0.17c0.15-0.04,0.29-0.06,0.43-0.06c0.18,0,0.33,0.03,0.45,0.1c0.12,0.06,0.21,0.17,0.26,0.32
		l3.13,10.83l3.12-10.83c0.05-0.15,0.14-0.26,0.26-0.32c0.12-0.06,0.26-0.1,0.43-0.1c0.14,0,0.28,0.02,0.44,0.07
		c0.15,0.04,0.29,0.1,0.41,0.18c0.12,0.08,0.22,0.17,0.3,0.27c0.08,0.1,0.12,0.21,0.12,0.32c0,0.04-0.01,0.1-0.04,0.17l-3.76,12.31
		c-0.06,0.23-0.22,0.4-0.47,0.51c-0.25,0.11-0.52,0.17-0.81,0.17s-0.56-0.06-0.8-0.17c-0.24-0.11-0.4-0.28-0.48-0.51L97.42,23.33z"
		/>
	<path d="M110.85,27.09c0.7,0,1.29,0.1,1.78,0.31c0.49,0.21,0.88,0.48,1.19,0.83c0.3,0.34,0.53,0.73,0.67,1.18
		c0.14,0.44,0.21,0.9,0.21,1.37v4.77c0,0.18-0.09,0.33-0.28,0.46c-0.18,0.13-0.42,0.2-0.69,0.2c-0.25,0-0.47-0.07-0.65-0.2
		c-0.18-0.13-0.27-0.29-0.27-0.46v-0.67c-0.33,0.39-0.73,0.74-1.2,1.04c-0.47,0.3-1.03,0.45-1.67,0.45c-0.34,0-0.67-0.05-0.98-0.15
		c-0.31-0.1-0.58-0.26-0.81-0.47s-0.41-0.47-0.54-0.78c-0.13-0.31-0.2-0.68-0.2-1.11c0-0.53,0.11-0.97,0.32-1.33
		c0.22-0.35,0.52-0.63,0.91-0.84c0.39-0.2,0.86-0.34,1.41-0.43c0.54-0.08,1.15-0.12,1.8-0.12h0.84V30.8c0-0.24-0.03-0.48-0.09-0.73
		c-0.06-0.25-0.17-0.47-0.32-0.67c-0.15-0.2-0.35-0.35-0.59-0.48c-0.24-0.12-0.53-0.18-0.87-0.18s-0.63,0.03-0.85,0.09
		c-0.23,0.06-0.42,0.12-0.57,0.2c-0.15,0.08-0.28,0.14-0.39,0.2c-0.11,0.06-0.21,0.08-0.29,0.08c-0.24,0-0.42-0.11-0.54-0.33
		c-0.12-0.22-0.18-0.45-0.18-0.67c0-0.16,0.09-0.32,0.27-0.48c0.18-0.15,0.41-0.28,0.68-0.39c0.28-0.11,0.59-0.19,0.92-0.26
		C110.19,27.13,110.52,27.09,110.85,27.09z M112.69,32.24h-0.47c-0.37,0-0.72,0.02-1.05,0.05c-0.34,0.03-0.63,0.09-0.88,0.19
		c-0.25,0.09-0.46,0.23-0.62,0.41c-0.16,0.18-0.24,0.42-0.24,0.72c0,0.43,0.12,0.74,0.35,0.94c0.23,0.2,0.53,0.29,0.88,0.29
		c0.24,0,0.48-0.06,0.72-0.17s0.46-0.26,0.66-0.44c0.2-0.18,0.35-0.38,0.48-0.61c0.12-0.23,0.18-0.46,0.18-0.68V32.24z"/>
	<path d="M120.37,36.37c-0.68,0-1.28-0.09-1.78-0.28c-0.5-0.19-0.91-0.45-1.23-0.79c-0.32-0.33-0.56-0.73-0.71-1.2
		c-0.15-0.46-0.23-0.97-0.23-1.51v-1.71c0-0.53,0.08-1.03,0.23-1.49c0.15-0.46,0.39-0.86,0.71-1.2c0.32-0.34,0.73-0.6,1.23-0.8
		c0.49-0.2,1.08-0.29,1.77-0.29c0.43,0,0.82,0.04,1.18,0.12c0.35,0.08,0.66,0.19,0.92,0.32c0.26,0.13,0.46,0.28,0.6,0.45
		c0.14,0.17,0.21,0.33,0.21,0.49c0,0.19-0.07,0.4-0.22,0.63c-0.15,0.23-0.34,0.34-0.58,0.34c-0.1,0-0.2-0.03-0.3-0.09
		c-0.1-0.06-0.23-0.13-0.37-0.2s-0.32-0.14-0.52-0.2c-0.2-0.06-0.46-0.1-0.76-0.1c-0.72,0-1.25,0.18-1.59,0.53
		c-0.34,0.35-0.5,0.85-0.5,1.48v1.71c0,0.63,0.17,1.13,0.5,1.48c0.34,0.36,0.87,0.53,1.61,0.53c0.32,0,0.58-0.03,0.78-0.09
		s0.38-0.14,0.52-0.22s0.27-0.16,0.37-0.22c0.1-0.06,0.21-0.09,0.32-0.09c0.27,0,0.48,0.11,0.63,0.32c0.15,0.21,0.23,0.42,0.23,0.63
		c0,0.16-0.08,0.33-0.23,0.5c-0.15,0.17-0.36,0.33-0.63,0.47c-0.27,0.14-0.58,0.25-0.95,0.34C121.2,36.32,120.8,36.37,120.37,36.37z
		"/>
	<path d="M128.37,36.37c-0.68,0-1.28-0.09-1.78-0.28c-0.5-0.19-0.91-0.45-1.23-0.79c-0.32-0.33-0.56-0.73-0.71-1.2
		c-0.15-0.46-0.23-0.97-0.23-1.51v-1.71c0-0.53,0.08-1.03,0.23-1.49c0.15-0.46,0.39-0.86,0.71-1.2c0.32-0.34,0.73-0.6,1.23-0.8
		c0.49-0.2,1.08-0.29,1.77-0.29c0.43,0,0.82,0.04,1.18,0.12c0.35,0.08,0.66,0.19,0.92,0.32c0.26,0.13,0.46,0.28,0.6,0.45
		c0.14,0.17,0.21,0.33,0.21,0.49c0,0.19-0.07,0.4-0.22,0.63c-0.15,0.23-0.34,0.34-0.58,0.34c-0.1,0-0.2-0.03-0.3-0.09
		c-0.1-0.06-0.23-0.13-0.37-0.2s-0.32-0.14-0.52-0.2c-0.2-0.06-0.46-0.1-0.76-0.1c-0.72,0-1.25,0.18-1.59,0.53
		c-0.34,0.35-0.5,0.85-0.5,1.48v1.71c0,0.63,0.17,1.13,0.5,1.48c0.34,0.36,0.87,0.53,1.61,0.53c0.32,0,0.58-0.03,0.78-0.09
		s0.38-0.14,0.52-0.22s0.27-0.16,0.37-0.22c0.1-0.06,0.21-0.09,0.32-0.09c0.27,0,0.48,0.11,0.63,0.32c0.15,0.21,0.23,0.42,0.23,0.63
		c0,0.16-0.08,0.33-0.23,0.5c-0.15,0.17-0.36,0.33-0.63,0.47c-0.27,0.14-0.58,0.25-0.95,0.34C129.2,36.32,128.8,36.37,128.37,36.37z
		"/>
	<path d="M133.8,22.86c0.33,0,0.6,0.1,0.83,0.3c0.22,0.2,0.33,0.45,0.33,0.74c0,0.28-0.11,0.52-0.33,0.73
		c-0.22,0.21-0.5,0.31-0.83,0.31c-0.33,0-0.61-0.1-0.83-0.31c-0.22-0.21-0.33-0.45-0.33-0.73c0-0.29,0.11-0.54,0.33-0.74
		C133.2,22.96,133.47,22.86,133.8,22.86z M133.8,27.21c0.29,0,0.53,0.06,0.72,0.18c0.19,0.12,0.29,0.28,0.29,0.47v7.7
		c0,0.17-0.09,0.32-0.29,0.46c-0.19,0.14-0.43,0.21-0.72,0.21c-0.29,0-0.53-0.07-0.71-0.21s-0.28-0.29-0.28-0.46v-7.7
		c0-0.19,0.09-0.35,0.28-0.47C133.27,27.27,133.51,27.21,133.8,27.21z"/>
	<path d="M138.89,35.55c0,0.17-0.1,0.32-0.3,0.46c-0.2,0.14-0.44,0.21-0.7,0.21c-0.29,0-0.53-0.07-0.71-0.21s-0.28-0.29-0.28-0.46
		v-7.7c0-0.19,0.09-0.35,0.28-0.47c0.18-0.12,0.42-0.18,0.71-0.18c0.25,0,0.46,0.06,0.64,0.18c0.17,0.12,0.26,0.28,0.26,0.47v0.68
		c0.19-0.37,0.5-0.7,0.93-1c0.43-0.3,0.97-0.45,1.61-0.45c0.44,0,0.87,0.1,1.26,0.29c0.4,0.2,0.75,0.47,1.05,0.81
		c0.3,0.34,0.54,0.74,0.72,1.2s0.27,0.94,0.27,1.44v4.71c0,0.21-0.1,0.38-0.31,0.49c-0.21,0.11-0.44,0.17-0.69,0.17
		c-0.23,0-0.45-0.06-0.67-0.17c-0.22-0.11-0.32-0.28-0.32-0.49v-4.71c0-0.24-0.05-0.48-0.15-0.72c-0.1-0.24-0.24-0.45-0.41-0.64
		s-0.37-0.33-0.61-0.45c-0.23-0.11-0.48-0.17-0.75-0.17c-0.23,0-0.45,0.04-0.67,0.13c-0.22,0.09-0.42,0.22-0.59,0.39
		s-0.31,0.38-0.41,0.63c-0.1,0.25-0.15,0.52-0.15,0.83V35.55z"/>
	<path d="M149.51,27.09c0.7,0,1.29,0.1,1.78,0.31s0.88,0.48,1.19,0.83s0.53,0.73,0.67,1.18c0.14,0.44,0.21,0.9,0.21,1.37v4.77
		c0,0.18-0.09,0.33-0.28,0.46c-0.18,0.13-0.42,0.2-0.69,0.2c-0.25,0-0.47-0.07-0.65-0.2c-0.18-0.13-0.27-0.29-0.27-0.46v-0.67
		c-0.33,0.39-0.73,0.74-1.2,1.04c-0.47,0.3-1.03,0.45-1.67,0.45c-0.34,0-0.67-0.05-0.98-0.15c-0.31-0.1-0.58-0.26-0.81-0.47
		c-0.23-0.21-0.41-0.47-0.54-0.78c-0.13-0.31-0.2-0.68-0.2-1.11c0-0.53,0.11-0.97,0.32-1.33c0.22-0.35,0.52-0.63,0.91-0.84
		c0.39-0.2,0.86-0.34,1.41-0.43c0.54-0.08,1.15-0.12,1.8-0.12h0.84V30.8c0-0.24-0.03-0.48-0.09-0.73s-0.17-0.47-0.32-0.67
		s-0.35-0.35-0.59-0.48c-0.24-0.12-0.53-0.18-0.87-0.18s-0.63,0.03-0.85,0.09c-0.23,0.06-0.42,0.12-0.57,0.2
		c-0.15,0.08-0.28,0.14-0.39,0.2c-0.11,0.06-0.21,0.08-0.29,0.08c-0.24,0-0.42-0.11-0.54-0.33c-0.12-0.22-0.18-0.45-0.18-0.67
		c0-0.16,0.09-0.32,0.27-0.48c0.18-0.15,0.41-0.28,0.68-0.39c0.28-0.11,0.59-0.19,0.92-0.26C148.85,27.13,149.18,27.09,149.51,27.09
		z M151.36,32.24h-0.47c-0.37,0-0.72,0.02-1.05,0.05c-0.34,0.03-0.63,0.09-0.88,0.19c-0.25,0.09-0.46,0.23-0.62,0.41
		s-0.24,0.42-0.24,0.72c0,0.43,0.12,0.74,0.35,0.94c0.23,0.2,0.53,0.29,0.88,0.29c0.24,0,0.48-0.06,0.72-0.17
		c0.24-0.11,0.46-0.26,0.66-0.44c0.2-0.18,0.35-0.38,0.47-0.61c0.12-0.23,0.18-0.46,0.18-0.68V32.24z"/>
	<path d="M157.36,33.25c0,0.46,0.1,0.78,0.29,0.97c0.2,0.19,0.54,0.29,1.04,0.29h0.67c0.29,0,0.51,0.09,0.65,0.27
		c0.14,0.18,0.21,0.37,0.21,0.59c0,0.22-0.07,0.41-0.21,0.59c-0.14,0.18-0.35,0.27-0.65,0.27h-0.67c-1.09,0-1.92-0.23-2.48-0.7
		s-0.84-1.22-0.84-2.26v-9.52c0-0.19,0.1-0.35,0.31-0.47c0.21-0.12,0.43-0.18,0.67-0.18c0.25,0,0.48,0.06,0.69,0.18
		c0.21,0.12,0.31,0.28,0.31,0.47v3.48h2.32c0.18,0,0.31,0.08,0.41,0.23c0.1,0.15,0.14,0.32,0.14,0.51s-0.05,0.36-0.14,0.51
		c-0.09,0.15-0.23,0.23-0.41,0.23h-2.32V33.25z"/>
	<path d="M162.62,22.86c0.33,0,0.6,0.1,0.83,0.3c0.22,0.2,0.33,0.45,0.33,0.74c0,0.28-0.11,0.52-0.33,0.73s-0.5,0.31-0.83,0.31
		c-0.33,0-0.61-0.1-0.83-0.31s-0.33-0.45-0.33-0.73c0-0.29,0.11-0.54,0.33-0.74C162.02,22.96,162.29,22.86,162.62,22.86z
		 M162.62,27.21c0.29,0,0.53,0.06,0.72,0.18c0.19,0.12,0.29,0.28,0.29,0.47v7.7c0,0.17-0.09,0.32-0.29,0.46
		c-0.19,0.14-0.43,0.21-0.72,0.21c-0.29,0-0.53-0.07-0.71-0.21s-0.28-0.29-0.28-0.46v-7.7c0-0.19,0.09-0.35,0.28-0.47
		C162.09,27.27,162.33,27.21,162.62,27.21z"/>
	<path d="M169.29,27.09c0.52,0,1.02,0.1,1.49,0.29c0.48,0.2,0.89,0.47,1.25,0.81c0.36,0.34,0.65,0.74,0.86,1.2
		c0.22,0.46,0.32,0.94,0.32,1.44v1.75c0,0.49-0.11,0.97-0.32,1.42c-0.21,0.46-0.5,0.86-0.86,1.21c-0.36,0.35-0.78,0.63-1.25,0.84
		c-0.47,0.21-0.97,0.31-1.49,0.31c-0.53,0-1.04-0.1-1.51-0.31s-0.89-0.49-1.25-0.84c-0.36-0.35-0.65-0.75-0.86-1.21
		s-0.31-0.93-0.31-1.42v-1.75c0-0.49,0.1-0.97,0.31-1.42c0.21-0.46,0.49-0.86,0.85-1.2s0.77-0.61,1.25-0.82
		C168.24,27.2,168.75,27.09,169.29,27.09z M171.23,30.84c0-0.24-0.05-0.48-0.15-0.72c-0.1-0.24-0.24-0.45-0.42-0.64
		c-0.18-0.18-0.38-0.33-0.62-0.45c-0.23-0.11-0.48-0.17-0.75-0.17c-0.27,0-0.52,0.06-0.76,0.17c-0.24,0.11-0.45,0.26-0.62,0.45
		s-0.31,0.4-0.41,0.64c-0.1,0.24-0.15,0.48-0.15,0.72v1.75c0,0.25,0.05,0.5,0.15,0.74c0.1,0.24,0.24,0.46,0.41,0.65
		s0.38,0.34,0.62,0.46c0.24,0.11,0.49,0.17,0.76,0.17c0.27,0,0.52-0.06,0.75-0.17s0.44-0.27,0.62-0.46
		c0.18-0.19,0.32-0.41,0.42-0.65c0.1-0.24,0.15-0.49,0.15-0.74V30.84z"/>
	<path d="M176.97,35.55c0,0.17-0.1,0.32-0.3,0.46c-0.2,0.14-0.44,0.21-0.7,0.21c-0.29,0-0.53-0.07-0.71-0.21s-0.28-0.29-0.28-0.46
		v-7.7c0-0.19,0.09-0.35,0.28-0.47c0.18-0.12,0.42-0.18,0.71-0.18c0.25,0,0.46,0.06,0.64,0.18c0.17,0.12,0.26,0.28,0.26,0.47v0.68
		c0.19-0.37,0.5-0.7,0.93-1c0.43-0.3,0.97-0.45,1.61-0.45c0.44,0,0.87,0.1,1.26,0.29c0.4,0.2,0.75,0.47,1.05,0.81
		c0.3,0.34,0.54,0.74,0.72,1.2s0.27,0.94,0.27,1.44v4.71c0,0.21-0.1,0.38-0.31,0.49c-0.21,0.11-0.44,0.17-0.69,0.17
		c-0.23,0-0.45-0.06-0.67-0.17c-0.22-0.11-0.32-0.28-0.32-0.49v-4.71c0-0.24-0.05-0.48-0.15-0.72c-0.1-0.24-0.24-0.45-0.41-0.64
		s-0.37-0.33-0.61-0.45c-0.23-0.11-0.48-0.17-0.75-0.17c-0.23,0-0.45,0.04-0.67,0.13c-0.22,0.09-0.42,0.22-0.59,0.39
		s-0.31,0.38-0.41,0.63c-0.1,0.25-0.15,0.52-0.15,0.83V35.55z"/>
	<path d="M192.15,34.54c0.68,0,1.25-0.17,1.71-0.49s0.68-0.84,0.68-1.52c0-0.56-0.15-1-0.46-1.34c-0.3-0.34-0.68-0.62-1.14-0.86
		s-0.95-0.46-1.49-0.67s-1.04-0.46-1.49-0.76c-0.46-0.3-0.84-0.68-1.14-1.15c-0.3-0.47-0.46-1.08-0.46-1.84
		c0-0.7,0.13-1.28,0.4-1.75s0.61-0.85,1.04-1.13c0.42-0.29,0.9-0.48,1.42-0.6c0.52-0.11,1.03-0.17,1.54-0.17
		c0.3,0,0.66,0.02,1.05,0.07c0.4,0.04,0.78,0.12,1.13,0.23s0.66,0.25,0.9,0.42s0.37,0.39,0.37,0.66c0,0.1-0.02,0.21-0.05,0.33
		c-0.03,0.12-0.08,0.24-0.15,0.35c-0.07,0.11-0.16,0.21-0.27,0.29c-0.11,0.08-0.23,0.11-0.37,0.11c-0.13,0-0.26-0.04-0.4-0.11
		c-0.14-0.08-0.31-0.16-0.5-0.25c-0.2-0.09-0.43-0.17-0.7-0.25c-0.27-0.08-0.61-0.11-1.02-0.11c-0.7,0-1.27,0.14-1.71,0.41
		c-0.44,0.27-0.67,0.71-0.67,1.32c0,0.47,0.15,0.84,0.46,1.11c0.3,0.27,0.68,0.51,1.14,0.72s0.95,0.42,1.49,0.62
		c0.54,0.2,1.04,0.47,1.49,0.81c0.46,0.34,0.84,0.77,1.14,1.29s0.46,1.21,0.46,2.04c0,0.68-0.11,1.28-0.32,1.79
		c-0.21,0.51-0.52,0.93-0.9,1.26s-0.85,0.59-1.38,0.75c-0.53,0.17-1.11,0.25-1.73,0.25c-0.62,0-1.19-0.07-1.7-0.22
		c-0.51-0.15-0.96-0.33-1.33-0.55c-0.37-0.22-0.66-0.46-0.86-0.72c-0.2-0.26-0.3-0.51-0.3-0.75c0-0.11,0.02-0.23,0.07-0.36
		c0.04-0.13,0.11-0.24,0.19-0.35c0.08-0.11,0.18-0.2,0.29-0.27c0.11-0.07,0.22-0.1,0.33-0.1c0.17,0,0.33,0.08,0.49,0.24
		c0.16,0.16,0.36,0.33,0.6,0.51s0.52,0.35,0.85,0.51C191.18,34.46,191.62,34.54,192.15,34.54z"/>
	<path d="M201.86,27.09c0.51,0,0.99,0.09,1.44,0.26c0.46,0.17,0.86,0.41,1.21,0.72c0.35,0.31,0.62,0.68,0.83,1.11s0.3,0.91,0.3,1.42
		c0,0.39-0.05,0.7-0.15,0.92c-0.1,0.22-0.23,0.38-0.39,0.48s-0.34,0.17-0.55,0.19s-0.42,0.04-0.64,0.04h-4.01v0.44
		c0,0.65,0.23,1.15,0.68,1.52c0.46,0.37,1.05,0.55,1.79,0.55c0.34,0,0.63-0.04,0.86-0.11s0.44-0.16,0.61-0.25s0.32-0.17,0.46-0.25
		s0.26-0.11,0.39-0.11c0.24,0,0.43,0.1,0.57,0.31s0.21,0.4,0.21,0.58c0,0.14-0.07,0.29-0.22,0.46c-0.15,0.17-0.36,0.33-0.64,0.48
		c-0.28,0.15-0.61,0.27-1,0.36c-0.39,0.1-0.82,0.14-1.3,0.14c-0.65,0-1.24-0.09-1.78-0.28c-0.54-0.18-1-0.44-1.4-0.77
		c-0.39-0.33-0.7-0.72-0.91-1.19c-0.22-0.46-0.32-0.98-0.32-1.55v-1.81c0-0.49,0.1-0.97,0.31-1.42c0.21-0.45,0.49-0.84,0.85-1.18
		c0.35-0.34,0.77-0.6,1.25-0.8C200.8,27.19,201.31,27.09,201.86,27.09z M203.05,31.01c0.28,0,0.47-0.04,0.56-0.11
		c0.1-0.08,0.14-0.23,0.14-0.46c0-0.51-0.18-0.94-0.55-1.29s-0.82-0.53-1.37-0.53c-0.27,0-0.52,0.04-0.75,0.13
		c-0.23,0.09-0.44,0.21-0.62,0.37c-0.18,0.16-0.32,0.34-0.42,0.56s-0.15,0.46-0.15,0.72v0.61H203.05z"/>
	<path d="M211.55,28.86c-0.29,0-0.57,0.06-0.85,0.19s-0.52,0.31-0.73,0.55c-0.21,0.24-0.39,0.54-0.52,0.88s-0.2,0.74-0.2,1.17v3.9
		c0,0.17-0.1,0.32-0.29,0.46s-0.44,0.21-0.73,0.21c-0.29,0-0.53-0.07-0.7-0.21c-0.18-0.14-0.27-0.29-0.27-0.46v-7.7
		c0-0.19,0.09-0.35,0.27-0.47c0.18-0.12,0.41-0.18,0.7-0.18c0.25,0,0.47,0.06,0.65,0.18c0.18,0.12,0.27,0.28,0.27,0.47v0.84
		c0.1-0.2,0.23-0.4,0.39-0.59c0.16-0.19,0.34-0.36,0.55-0.51s0.44-0.27,0.68-0.36c0.25-0.09,0.51-0.13,0.79-0.13h0.61
		c0.2,0,0.38,0.09,0.53,0.26c0.15,0.17,0.23,0.38,0.23,0.62c0,0.25-0.08,0.47-0.23,0.64c-0.15,0.17-0.33,0.26-0.53,0.26H211.55z"/>
	<path d="M213.31,28.31c-0.03-0.04-0.05-0.09-0.07-0.15c-0.02-0.06-0.03-0.12-0.03-0.17c0-0.11,0.04-0.22,0.13-0.33
		c0.09-0.11,0.2-0.2,0.32-0.28s0.27-0.14,0.42-0.18c0.15-0.04,0.3-0.07,0.44-0.07c0.14,0,0.26,0.03,0.37,0.08s0.19,0.15,0.24,0.28
		l2.26,6l2.26-5.97c0.09-0.27,0.29-0.4,0.61-0.4c0.1,0,0.23,0.02,0.38,0.07c0.15,0.04,0.3,0.1,0.44,0.18
		c0.14,0.08,0.26,0.17,0.35,0.28c0.09,0.11,0.14,0.22,0.14,0.33c0,0.09-0.03,0.2-0.08,0.32l-3.19,7.7c-0.06,0.14-0.18,0.24-0.35,0.3
		s-0.36,0.09-0.56,0.09c-0.21,0-0.41-0.03-0.57-0.09c-0.17-0.06-0.28-0.16-0.34-0.3L213.31,28.31z"/>
	<path d="M223.8,22.86c0.33,0,0.6,0.1,0.83,0.3c0.22,0.2,0.33,0.45,0.33,0.74c0,0.28-0.11,0.52-0.33,0.73s-0.5,0.31-0.83,0.31
		c-0.33,0-0.61-0.1-0.83-0.31s-0.33-0.45-0.33-0.73c0-0.29,0.11-0.54,0.33-0.74C223.2,22.96,223.47,22.86,223.8,22.86z M223.8,27.21
		c0.29,0,0.53,0.06,0.72,0.18c0.19,0.12,0.29,0.28,0.29,0.47v7.7c0,0.17-0.09,0.32-0.29,0.46c-0.19,0.14-0.43,0.21-0.72,0.21
		c-0.29,0-0.53-0.07-0.71-0.21s-0.28-0.29-0.28-0.46v-7.7c0-0.19,0.09-0.35,0.28-0.47C223.27,27.27,223.51,27.21,223.8,27.21z"/>
	<path d="M230.55,36.37c-0.68,0-1.28-0.09-1.78-0.28c-0.5-0.19-0.91-0.45-1.23-0.79c-0.32-0.33-0.56-0.73-0.71-1.2
		c-0.15-0.46-0.23-0.97-0.23-1.51v-1.71c0-0.53,0.08-1.03,0.23-1.49c0.15-0.46,0.39-0.86,0.71-1.2s0.73-0.6,1.23-0.8
		c0.49-0.2,1.08-0.29,1.77-0.29c0.43,0,0.82,0.04,1.18,0.12c0.35,0.08,0.66,0.19,0.92,0.32c0.26,0.13,0.46,0.28,0.6,0.45
		c0.14,0.17,0.21,0.33,0.21,0.49c0,0.19-0.07,0.4-0.22,0.63c-0.15,0.23-0.34,0.34-0.58,0.34c-0.1,0-0.2-0.03-0.3-0.09
		c-0.1-0.06-0.22-0.13-0.37-0.2s-0.32-0.14-0.52-0.2c-0.2-0.06-0.46-0.1-0.76-0.1c-0.72,0-1.25,0.18-1.59,0.53s-0.5,0.85-0.5,1.48
		v1.71c0,0.63,0.17,1.13,0.5,1.48c0.34,0.36,0.87,0.53,1.61,0.53c0.32,0,0.58-0.03,0.78-0.09c0.2-0.06,0.38-0.14,0.52-0.22
		s0.27-0.16,0.37-0.22s0.21-0.09,0.32-0.09c0.27,0,0.48,0.11,0.63,0.32c0.15,0.21,0.23,0.42,0.23,0.63c0,0.16-0.08,0.33-0.23,0.5
		c-0.15,0.17-0.36,0.33-0.63,0.47c-0.27,0.14-0.58,0.25-0.95,0.34C231.38,36.32,230.98,36.37,230.55,36.37z"/>
	<path d="M238.51,27.09c0.51,0,0.99,0.09,1.44,0.26c0.46,0.17,0.86,0.41,1.21,0.72c0.35,0.31,0.62,0.68,0.83,1.11s0.3,0.91,0.3,1.42
		c0,0.39-0.05,0.7-0.15,0.92c-0.1,0.22-0.23,0.38-0.39,0.48s-0.34,0.17-0.55,0.19s-0.42,0.04-0.64,0.04h-4.01v0.44
		c0,0.65,0.23,1.15,0.68,1.52c0.46,0.37,1.05,0.55,1.79,0.55c0.34,0,0.63-0.04,0.86-0.11s0.44-0.16,0.61-0.25s0.32-0.17,0.46-0.25
		s0.26-0.11,0.39-0.11c0.24,0,0.43,0.1,0.57,0.31s0.21,0.4,0.21,0.58c0,0.14-0.07,0.29-0.22,0.46c-0.15,0.17-0.36,0.33-0.64,0.48
		c-0.28,0.15-0.61,0.27-1,0.36c-0.39,0.1-0.82,0.14-1.3,0.14c-0.65,0-1.24-0.09-1.78-0.28c-0.54-0.18-1-0.44-1.4-0.77
		c-0.39-0.33-0.7-0.72-0.91-1.19c-0.22-0.46-0.32-0.98-0.32-1.55v-1.81c0-0.49,0.1-0.97,0.31-1.42c0.21-0.45,0.49-0.84,0.85-1.18
		c0.35-0.34,0.77-0.6,1.25-0.8C237.45,27.19,237.96,27.09,238.51,27.09z M239.7,31.01c0.28,0,0.47-0.04,0.56-0.11
		c0.1-0.08,0.14-0.23,0.14-0.46c0-0.51-0.18-0.94-0.55-1.29s-0.82-0.53-1.37-0.53c-0.27,0-0.52,0.04-0.75,0.13
		c-0.23,0.09-0.44,0.21-0.62,0.37c-0.18,0.16-0.32,0.34-0.42,0.56s-0.15,0.46-0.15,0.72v0.61H239.7z"/>
	<path d="M246.58,34.83c0.32,0,0.58-0.03,0.78-0.08c0.2-0.06,0.37-0.13,0.49-0.23c0.13-0.09,0.21-0.21,0.27-0.33
		s0.08-0.25,0.08-0.38c0-0.33-0.11-0.59-0.34-0.77c-0.23-0.18-0.51-0.33-0.85-0.45c-0.34-0.11-0.7-0.22-1.1-0.33
		c-0.4-0.11-0.77-0.25-1.1-0.44s-0.62-0.43-0.85-0.73c-0.23-0.3-0.34-0.72-0.34-1.25c0-0.33,0.06-0.66,0.17-0.98
		c0.11-0.32,0.3-0.61,0.55-0.87c0.25-0.26,0.59-0.47,1.01-0.64c0.42-0.16,0.92-0.25,1.52-0.25c0.35,0,0.7,0.03,1.04,0.09
		c0.34,0.06,0.65,0.14,0.91,0.25c0.27,0.11,0.48,0.23,0.65,0.36c0.16,0.13,0.25,0.28,0.25,0.43c0,0.08-0.02,0.17-0.05,0.28
		c-0.03,0.11-0.08,0.21-0.15,0.31c-0.07,0.1-0.15,0.19-0.25,0.27c-0.09,0.08-0.2,0.11-0.31,0.11c-0.1,0-0.21-0.03-0.34-0.09
		c-0.13-0.06-0.27-0.12-0.44-0.19c-0.17-0.07-0.35-0.13-0.56-0.19s-0.45-0.09-0.71-0.09c-0.56,0-0.95,0.12-1.19,0.37
		s-0.35,0.49-0.35,0.73c0,0.28,0.11,0.49,0.34,0.64c0.23,0.15,0.51,0.27,0.86,0.38c0.34,0.11,0.71,0.22,1.11,0.32
		c0.4,0.11,0.77,0.26,1.11,0.47c0.34,0.2,0.63,0.47,0.86,0.82c0.23,0.34,0.34,0.8,0.34,1.37c0,0.81-0.29,1.45-0.86,1.93
		c-0.58,0.47-1.4,0.71-2.48,0.71c-0.47,0-0.9-0.04-1.3-0.13c-0.4-0.09-0.74-0.21-1.04-0.35c-0.29-0.15-0.52-0.31-0.68-0.49
		c-0.16-0.18-0.25-0.36-0.25-0.54s0.06-0.37,0.19-0.58c0.13-0.21,0.29-0.31,0.49-0.31c0.13,0,0.25,0.04,0.38,0.13
		c0.13,0.09,0.28,0.19,0.46,0.3c0.18,0.11,0.4,0.22,0.67,0.3C245.84,34.78,246.18,34.83,246.58,34.83z"/>
</g>
<g>
	<line class="st2" x1="24.85" y1="8.73" x2="16.69" y2="16.82"/>
	<polyline class="st2" points="20.73,12.66 28.38,20.36 30.32,22.32 32.38,24.4 	"/>
	<line class="st2" x1="34.88" y1="15.62" x2="23.37" y2="26.92"/>
	<path class="st3" d="M25.36,24.97L40.9,40.5c7.36-1.27,7.42-7.56,7.42-7.56L32.89,17.57"/>
	<polygon class="st4" points="33.64,20.74 28.59,25.65 30.93,27.93 35.81,23.04 	"/>
	<polygon class="st4" points="37,24 46.78,33.73 46.18,34.98 36.05,24.85 	"/>
	<path class="st4" d="M31.94,29.01l9.73,9.73c0,0,2.81-0.89,4.01-2.99l-0.58-0.59l-2.05,2.03c-0.08,0.08-0.18,0.11-0.28,0.11
		c-0.1,0-0.2-0.04-0.28-0.12c-0.15-0.15-0.15-0.4,0-0.56l2.05-2.03l-1.17-1.18l-0.93,0.92c-0.04,0.04-0.09,0.06-0.14,0.06
		c-0.05,0-0.1-0.02-0.14-0.06c-0.08-0.08-0.08-0.2,0-0.28l0.93-0.92l-1.16-1.17l-1.86,1.84c-0.08,0.08-0.18,0.11-0.28,0.11
		c-0.1,0-0.2-0.04-0.28-0.12c-0.15-0.15-0.15-0.4,0-0.56l1.86-1.84l-1.07-1.08l-0.94,0.93c-0.04,0.04-0.09,0.06-0.14,0.06
		c-0.05,0-0.1-0.02-0.14-0.06c-0.08-0.08-0.08-0.2,0-0.28l0.94-0.93l-1.15-1.16l-1.69,1.67c-0.08,0.08-0.18,0.11-0.28,0.11
		c-0.1,0-0.2-0.04-0.28-0.12c-0.15-0.16-0.15-0.4,0-0.56l1.69-1.67l-1.15-1.16l-1.49,1.48c-0.04,0.04-0.09,0.06-0.14,0.06
		c-0.05,0-0.1-0.02-0.14-0.06c-0.08-0.08-0.07-0.2,0-0.28l1.49-1.48l-1.45-1.46L31.94,29.01z"/>
	<g>
		<g>
			<line class="st5" x1="43.37" y1="33.43" x2="43.09" y2="33.15"/>
		</g>
	</g>
	<path class="st4" d="M48.45,37.76c0,0-2.04,2.44-2.71,2.71l1.71,1.74l0.97-0.77l7.26,7.19l-0.67-2.57l-5.65-5.55l0.8-1.04
		L48.45,37.76z"/>
</g>
</svg>
