<?xml version="1.0" encoding="utf-8"?>
<!-- Generator: Adobe Illustrator 15.1.0, SVG Export Plug-In . SVG Version: 6.00 Build 0)  -->
<!DOCTYPE svg PUBLIC "-//W3C//DTD SVG 1.1//EN" "http://www.w3.org/Graphics/SVG/1.1/DTD/svg11.dtd">
<svg version="1.1" id="Layer_1" xmlns="http://www.w3.org/2000/svg" xmlns:xlink="http://www.w3.org/1999/xlink" x="0px" y="0px"
	 width="324px" height="75px" viewBox="0 0 324 75" enable-background="new 0 0 324 75" xml:space="preserve">
<polygon fill-rule="evenodd" clip-rule="evenodd" fill="#FEDC00" points="19.247,23.72 18.929,53.535 1.182,38.634 0.326,37.623 
	14.554,24.649 "/>
<polygon fill-rule="evenodd" clip-rule="evenodd" fill="#6F7072" points="58.269,23.221 58.577,53.037 76.325,38.132 76.925,37.564 
	62.952,24.15 "/>
<polygon fill-rule="evenodd" clip-rule="evenodd" fill="#FEDC00" points="38.208,14.93 76.925,37.564 58.148,4.045 "/>
<polygon fill-rule="evenodd" clip-rule="evenodd" fill="#6F7072" points="58.127,4.056 0.327,37.623 19.412,4.056 "/>
<polygon fill-rule="evenodd" clip-rule="evenodd" fill="#6F7072" points="0.326,37.623 41.043,60.594 19.899,70.955 "/>
<polygon fill-rule="evenodd" clip-rule="evenodd" fill="#FEDC00" points="19.858,70.936 76.935,37.564 58.705,70.936 "/>
<path fill="#6F7072" stroke="#6F7072" stroke-width="0.5" stroke-miterlimit="10" d="M26.701,31.341
	c0-0.153,0.063-0.255,0.176-0.326c0.121-0.061,0.254-0.091,0.407-0.091c0.142,0,0.275,0.03,0.397,0.091
	c0.122,0.071,0.184,0.173,0.184,0.326v11.954c0,0.154-0.062,0.266-0.184,0.348c-0.122,0.07-0.256,0.111-0.397,0.111
	c-0.153,0-0.286-0.041-0.407-0.111c-0.112-0.082-0.176-0.193-0.176-0.348V31.341z M37.024,38.939
	c-0.122,0.242-0.286,0.367-0.47,0.367c-0.173,0-0.325-0.125-0.459-0.367L33.2,33.382v9.913c0,0.154-0.062,0.266-0.185,0.348
	c-0.121,0.07-0.255,0.111-0.397,0.111c-0.152,0-0.284-0.041-0.397-0.111c-0.122-0.082-0.184-0.193-0.184-0.348V31.484
	c0-0.215,0.062-0.357,0.184-0.439c0.113-0.08,0.245-0.121,0.397-0.121c0.214,0,0.388,0.081,0.541,0.234
	c0.142,0.152,0.275,0.346,0.388,0.57l3.019,5.822l3.029-5.822c0.112-0.225,0.246-0.418,0.388-0.57
	c0.153-0.153,0.326-0.234,0.541-0.234c0.163,0,0.296,0.041,0.408,0.121c0.112,0.082,0.172,0.225,0.172,0.439v11.811
	c0,0.154-0.06,0.266-0.183,0.348c-0.111,0.07-0.244,0.111-0.397,0.111c-0.144,0-0.275-0.041-0.399-0.111
	c-0.121-0.082-0.183-0.193-0.183-0.348v-9.862L37.024,38.939z M51.285,34.115c-0.012-0.184-0.052-0.408-0.104-0.652
	c-0.061-0.247-0.184-0.471-0.355-0.695c-0.174-0.214-0.419-0.397-0.735-0.551c-0.315-0.152-0.734-0.224-1.265-0.224
	c-0.816,0-1.449,0.214-1.877,0.643c-0.438,0.44-0.652,1.112-0.652,2.019v5.447c0,0.928,0.225,1.602,0.662,2.041
	c0.439,0.43,1.082,0.645,1.938,0.645c0.521,0,0.938-0.072,1.243-0.215c0.308-0.152,0.541-0.33,0.694-0.553
	c0.163-0.215,0.266-0.449,0.326-0.703c0.062-0.248,0.103-0.479,0.124-0.686c0.029-0.303,0.223-0.459,0.58-0.459
	c0.194,0,0.347,0.043,0.438,0.146c0.093,0.088,0.143,0.285,0.143,0.57c0,0.396-0.091,0.773-0.255,1.131
	c-0.164,0.355-0.397,0.672-0.714,0.949c-0.316,0.273-0.704,0.49-1.163,0.652c-0.448,0.154-0.969,0.234-1.54,0.234
	c-0.489,0-0.958-0.061-1.407-0.203c-0.438-0.133-0.825-0.346-1.153-0.643c-0.337-0.309-0.592-0.686-0.784-1.164
	c-0.194-0.469-0.286-1.049-0.286-1.744v-5.447c0-0.672,0.092-1.255,0.296-1.721c0.193-0.479,0.46-0.859,0.795-1.164
	c0.337-0.296,0.725-0.51,1.174-0.643c0.438-0.145,0.917-0.203,1.418-0.203c0.571,0,1.08,0.081,1.539,0.234
	c0.449,0.152,0.828,0.366,1.133,0.642c0.296,0.265,0.529,0.58,0.693,0.927c0.164,0.35,0.255,0.724,0.255,1.121
	c0,0.298-0.05,0.491-0.143,0.573c-0.092,0.091-0.244,0.132-0.438,0.132c-0.203,0-0.347-0.041-0.429-0.122
	C51.345,34.349,51.293,34.247,51.285,34.115L51.285,34.115z"/>
<g>
	<g>
		<path fill="#6F7072" d="M141.549,62.34c0-0.101,0.043-0.174,0.13-0.221c0.087-0.046,0.184-0.069,0.29-0.069
			s0.204,0.023,0.29,0.069c0.086,0.047,0.13,0.12,0.13,0.221v6.72c0,0.1-0.043,0.175-0.13,0.225s-0.184,0.075-0.29,0.075
			s-0.203-0.025-0.29-0.075c-0.086-0.05-0.13-0.125-0.13-0.225V62.34z"/>
		<path fill="#6F7072" d="M144.469,69.06c0,0.073-0.042,0.142-0.125,0.205s-0.182,0.095-0.295,0.095
			c-0.12,0-0.218-0.031-0.295-0.095s-0.115-0.132-0.115-0.205v-4.15c0-0.086,0.039-0.156,0.115-0.21
			c0.077-0.053,0.175-0.08,0.295-0.08c0.1,0,0.188,0.027,0.265,0.08c0.077,0.054,0.115,0.124,0.115,0.21v0.41
			c0.1-0.193,0.263-0.368,0.49-0.525c0.227-0.156,0.51-0.234,0.85-0.234c0.24,0,0.466,0.05,0.68,0.149
			c0.213,0.101,0.4,0.239,0.56,0.415c0.16,0.177,0.287,0.382,0.38,0.615s0.14,0.48,0.14,0.74v2.58c0,0.1-0.043,0.175-0.13,0.225
			c-0.087,0.05-0.184,0.075-0.29,0.075c-0.1,0-0.193-0.025-0.28-0.075c-0.086-0.05-0.13-0.125-0.13-0.225v-2.58
			c0-0.146-0.03-0.29-0.09-0.43c-0.06-0.141-0.142-0.266-0.245-0.375c-0.104-0.11-0.225-0.198-0.365-0.266
			c-0.14-0.066-0.287-0.1-0.44-0.1c-0.133,0-0.265,0.026-0.395,0.08c-0.13,0.053-0.247,0.13-0.35,0.229
			c-0.104,0.101-0.187,0.224-0.25,0.37c-0.063,0.146-0.095,0.311-0.095,0.49V69.06z"/>
		<path fill="#6F7072" d="M152.499,69.439c-0.347,0-0.645-0.05-0.895-0.15c-0.25-0.1-0.457-0.236-0.62-0.41
			c-0.163-0.173-0.285-0.378-0.365-0.614c-0.08-0.237-0.12-0.492-0.12-0.766v-1c0-0.267,0.04-0.518,0.12-0.755
			c0.08-0.236,0.202-0.443,0.365-0.62c0.164-0.176,0.37-0.314,0.62-0.415c0.25-0.1,0.545-0.149,0.885-0.149
			c0.22,0,0.42,0.021,0.6,0.064c0.18,0.044,0.335,0.099,0.465,0.165c0.13,0.067,0.23,0.142,0.3,0.226
			c0.07,0.083,0.105,0.161,0.105,0.234c0,0.087-0.033,0.177-0.1,0.271c-0.066,0.094-0.15,0.14-0.25,0.14
			c-0.053,0-0.105-0.019-0.155-0.055c-0.05-0.037-0.113-0.077-0.19-0.12s-0.172-0.083-0.285-0.12
			c-0.113-0.036-0.257-0.055-0.43-0.055c-0.414,0-0.72,0.104-0.92,0.314c-0.2,0.21-0.3,0.502-0.3,0.875v1
			c0,0.374,0.1,0.665,0.3,0.875c0.2,0.21,0.51,0.315,0.93,0.315c0.18,0,0.328-0.019,0.445-0.055c0.117-0.037,0.213-0.079,0.29-0.125
			c0.077-0.047,0.142-0.089,0.195-0.125c0.053-0.037,0.106-0.056,0.16-0.056c0.113,0,0.204,0.045,0.27,0.136
			c0.067,0.09,0.1,0.178,0.1,0.265c0,0.08-0.037,0.161-0.11,0.245c-0.074,0.083-0.177,0.16-0.31,0.229
			c-0.133,0.07-0.293,0.127-0.48,0.17C152.933,69.418,152.726,69.439,152.499,69.439z"/>
		<path fill="#6F7072" d="M156.579,64.56c0.267,0,0.52,0.05,0.76,0.149c0.24,0.101,0.45,0.239,0.63,0.415
			c0.18,0.177,0.323,0.382,0.43,0.615c0.106,0.233,0.16,0.48,0.16,0.74v1.02c0,0.254-0.053,0.497-0.16,0.73
			c-0.107,0.233-0.25,0.439-0.43,0.62c-0.18,0.18-0.39,0.323-0.63,0.43c-0.24,0.106-0.494,0.16-0.76,0.16s-0.519-0.054-0.755-0.16
			c-0.237-0.106-0.445-0.25-0.625-0.43c-0.18-0.181-0.323-0.387-0.43-0.62c-0.106-0.233-0.16-0.477-0.16-0.73v-1.02
			c0-0.253,0.051-0.497,0.155-0.73s0.245-0.438,0.425-0.614c0.18-0.177,0.388-0.317,0.625-0.42
			C156.051,64.611,156.306,64.56,156.579,64.56z M157.729,66.479c0-0.146-0.03-0.29-0.09-0.43c-0.06-0.141-0.142-0.266-0.245-0.375
			c-0.103-0.11-0.225-0.198-0.365-0.266c-0.14-0.066-0.29-0.1-0.45-0.1c-0.16,0-0.31,0.033-0.45,0.1
			c-0.14,0.067-0.26,0.155-0.36,0.266c-0.1,0.109-0.18,0.234-0.24,0.375c-0.06,0.14-0.09,0.283-0.09,0.43v1.02
			c0,0.153,0.03,0.302,0.09,0.445s0.142,0.271,0.245,0.38c0.103,0.11,0.223,0.198,0.36,0.266c0.137,0.066,0.285,0.1,0.445,0.1
			c0.16,0,0.309-0.033,0.445-0.1c0.136-0.067,0.258-0.155,0.365-0.266c0.106-0.109,0.19-0.236,0.25-0.38s0.09-0.292,0.09-0.445
			V66.479z"/>
		<path fill="#6F7072" d="M160.059,61.76c0.113,0,0.212,0.026,0.295,0.08c0.083,0.053,0.125,0.123,0.125,0.21v7.01
			c0,0.073-0.042,0.142-0.125,0.205c-0.083,0.063-0.182,0.095-0.295,0.095c-0.12,0-0.218-0.031-0.295-0.095
			s-0.115-0.132-0.115-0.205v-7.01c0-0.087,0.038-0.157,0.115-0.21C159.841,61.786,159.939,61.76,160.059,61.76z"/>
		<path fill="#6F7072" d="M162.249,61.76c0.113,0,0.212,0.026,0.295,0.08c0.083,0.053,0.125,0.123,0.125,0.21v7.01
			c0,0.073-0.042,0.142-0.125,0.205c-0.083,0.063-0.182,0.095-0.295,0.095c-0.12,0-0.218-0.031-0.295-0.095
			s-0.115-0.132-0.115-0.205v-7.01c0-0.087,0.038-0.157,0.115-0.21C162.031,61.786,162.129,61.76,162.249,61.76z"/>
		<path fill="#6F7072" d="M165.37,64.56c0.346,0,0.641,0.055,0.885,0.165c0.243,0.109,0.441,0.255,0.595,0.435
			c0.153,0.181,0.263,0.387,0.33,0.62c0.066,0.233,0.101,0.474,0.101,0.72v2.561c0,0.087-0.039,0.158-0.115,0.215
			c-0.077,0.057-0.176,0.085-0.295,0.085c-0.113,0-0.205-0.028-0.275-0.085s-0.105-0.128-0.105-0.215v-0.4
			c-0.173,0.2-0.383,0.38-0.63,0.54s-0.54,0.24-0.88,0.24c-0.187,0-0.361-0.026-0.525-0.08c-0.163-0.054-0.307-0.135-0.43-0.245
			s-0.22-0.248-0.29-0.415c-0.069-0.166-0.104-0.363-0.104-0.59c0-0.28,0.057-0.508,0.17-0.685s0.273-0.318,0.48-0.426
			c0.206-0.106,0.453-0.18,0.739-0.22s0.604-0.06,0.95-0.06h0.48v-0.21c0-0.146-0.021-0.294-0.061-0.44s-0.104-0.28-0.189-0.4
			c-0.088-0.119-0.201-0.216-0.341-0.29c-0.14-0.073-0.31-0.109-0.51-0.109c-0.173,0-0.319,0.015-0.44,0.045
			c-0.119,0.03-0.22,0.063-0.3,0.1c-0.079,0.037-0.146,0.07-0.2,0.101c-0.053,0.029-0.104,0.045-0.149,0.045
			c-0.101,0-0.177-0.047-0.229-0.141c-0.055-0.093-0.08-0.187-0.08-0.279c0-0.08,0.043-0.155,0.129-0.226
			c0.087-0.069,0.199-0.131,0.336-0.185s0.288-0.095,0.455-0.125C165.036,64.574,165.203,64.56,165.37,64.56z M166.45,67.229h-0.351
			c-0.214,0-0.419,0.009-0.615,0.024c-0.196,0.018-0.37,0.052-0.52,0.105c-0.15,0.054-0.271,0.132-0.36,0.235
			s-0.135,0.245-0.135,0.425c0,0.26,0.073,0.45,0.22,0.57c0.146,0.119,0.33,0.18,0.55,0.18c0.141,0,0.283-0.031,0.43-0.095
			c0.147-0.063,0.277-0.146,0.391-0.245c0.113-0.101,0.207-0.21,0.28-0.33s0.11-0.236,0.11-0.351V67.229z"/>
		<path fill="#6F7072" d="M168.838,61.76c0.113,0,0.213,0.026,0.296,0.08c0.083,0.053,0.125,0.123,0.125,0.21v3.27
			c0.113-0.193,0.28-0.368,0.5-0.525c0.22-0.156,0.489-0.234,0.81-0.234c0.246,0,0.479,0.05,0.695,0.149
			c0.217,0.101,0.406,0.239,0.57,0.415c0.163,0.177,0.291,0.382,0.385,0.615s0.14,0.48,0.14,0.74v1.02
			c0,0.254-0.048,0.497-0.146,0.73c-0.096,0.233-0.225,0.439-0.385,0.62c-0.16,0.18-0.346,0.323-0.56,0.43s-0.437,0.16-0.67,0.16
			c-0.319,0-0.604-0.078-0.851-0.235c-0.246-0.156-0.423-0.338-0.529-0.545v0.4c0,0.073-0.037,0.142-0.11,0.205
			s-0.163,0.095-0.271,0.095c-0.119,0-0.218-0.031-0.295-0.095c-0.076-0.063-0.114-0.132-0.114-0.205v-7.01
			c0-0.087,0.038-0.157,0.114-0.21C168.621,61.786,168.719,61.76,168.838,61.76z M171.53,66.479c0-0.146-0.031-0.29-0.091-0.43
			c-0.06-0.141-0.142-0.266-0.245-0.375c-0.104-0.11-0.223-0.198-0.359-0.266c-0.137-0.066-0.285-0.1-0.445-0.1
			c-0.141,0-0.278,0.026-0.415,0.08c-0.137,0.053-0.257,0.13-0.36,0.229c-0.104,0.101-0.188,0.224-0.255,0.37
			c-0.066,0.146-0.1,0.311-0.1,0.49v1.29c0,0.066,0.028,0.151,0.085,0.255s0.137,0.205,0.24,0.305
			c0.104,0.101,0.225,0.186,0.365,0.255c0.139,0.07,0.289,0.105,0.449,0.105c0.153,0,0.299-0.033,0.436-0.1
			c0.137-0.067,0.256-0.157,0.359-0.271s0.186-0.24,0.245-0.38s0.091-0.287,0.091-0.44V66.479z"/>
		<path fill="#6F7072" d="M175.149,64.56c0.267,0,0.52,0.05,0.76,0.149c0.24,0.101,0.45,0.239,0.631,0.415
			c0.18,0.177,0.322,0.382,0.43,0.615c0.106,0.233,0.16,0.48,0.16,0.74v1.02c0,0.254-0.054,0.497-0.16,0.73
			c-0.107,0.233-0.25,0.439-0.43,0.62c-0.181,0.18-0.391,0.323-0.631,0.43s-0.493,0.16-0.76,0.16s-0.519-0.054-0.755-0.16
			c-0.237-0.106-0.444-0.25-0.625-0.43c-0.181-0.181-0.323-0.387-0.431-0.62c-0.105-0.233-0.159-0.477-0.159-0.73v-1.02
			c0-0.253,0.052-0.497,0.155-0.73s0.244-0.438,0.425-0.614c0.18-0.177,0.388-0.317,0.625-0.42
			C174.621,64.611,174.875,64.56,175.149,64.56z M176.299,66.479c0-0.146-0.03-0.29-0.09-0.43c-0.061-0.141-0.143-0.266-0.246-0.375
			c-0.103-0.11-0.225-0.198-0.364-0.266c-0.14-0.066-0.29-0.1-0.45-0.1s-0.311,0.033-0.449,0.1
			c-0.141,0.067-0.261,0.155-0.361,0.266c-0.1,0.109-0.18,0.234-0.239,0.375c-0.06,0.14-0.09,0.283-0.09,0.43v1.02
			c0,0.153,0.03,0.302,0.09,0.445s0.142,0.271,0.245,0.38c0.104,0.11,0.223,0.198,0.359,0.266c0.137,0.066,0.285,0.1,0.445,0.1
			s0.309-0.033,0.445-0.1c0.137-0.067,0.258-0.155,0.365-0.266c0.105-0.109,0.189-0.236,0.25-0.38c0.06-0.144,0.09-0.292,0.09-0.445
			V66.479z"/>
		<path fill="#6F7072" d="M180.229,65.31c-0.16,0-0.316,0.033-0.47,0.1c-0.153,0.067-0.288,0.164-0.405,0.29
			c-0.117,0.127-0.211,0.282-0.285,0.465c-0.073,0.184-0.109,0.389-0.109,0.615v2.28c0,0.073-0.042,0.142-0.125,0.205
			c-0.084,0.063-0.182,0.095-0.295,0.095c-0.121,0-0.219-0.031-0.295-0.095c-0.077-0.063-0.115-0.132-0.115-0.205v-4.15
			c0-0.086,0.038-0.156,0.115-0.21c0.076-0.053,0.174-0.08,0.295-0.08c0.105,0,0.196,0.027,0.27,0.08
			c0.073,0.054,0.109,0.124,0.109,0.21v0.47c0.113-0.206,0.282-0.395,0.506-0.564c0.223-0.17,0.491-0.255,0.805-0.255h0.34
			c0.087,0,0.162,0.038,0.225,0.115c0.064,0.076,0.096,0.165,0.096,0.265s-0.031,0.187-0.096,0.26
			c-0.063,0.073-0.138,0.11-0.225,0.11H180.229z"/>
		<path fill="#6F7072" d="M182.999,64.56c0.348,0,0.643,0.055,0.885,0.165c0.244,0.109,0.442,0.255,0.596,0.435
			c0.153,0.181,0.264,0.387,0.33,0.62s0.1,0.474,0.1,0.72v2.561c0,0.087-0.038,0.158-0.115,0.215
			c-0.076,0.057-0.174,0.085-0.295,0.085c-0.113,0-0.205-0.028-0.274-0.085c-0.07-0.057-0.104-0.128-0.104-0.215v-0.4
			c-0.174,0.2-0.385,0.38-0.631,0.54s-0.539,0.24-0.88,0.24c-0.187,0-0.362-0.026-0.524-0.08c-0.164-0.054-0.307-0.135-0.431-0.245
			c-0.123-0.11-0.22-0.248-0.29-0.415c-0.07-0.166-0.105-0.363-0.105-0.59c0-0.28,0.057-0.508,0.171-0.685
			c0.113-0.177,0.272-0.318,0.479-0.426c0.207-0.106,0.453-0.18,0.74-0.22s0.604-0.06,0.95-0.06h0.479v-0.21
			c0-0.146-0.02-0.294-0.06-0.44s-0.104-0.28-0.19-0.4c-0.086-0.119-0.199-0.216-0.34-0.29c-0.14-0.073-0.31-0.109-0.51-0.109
			c-0.174,0-0.32,0.015-0.439,0.045c-0.121,0.03-0.221,0.063-0.301,0.1c-0.08,0.037-0.146,0.07-0.199,0.101
			c-0.055,0.029-0.104,0.045-0.15,0.045c-0.1,0-0.177-0.047-0.23-0.141c-0.053-0.093-0.08-0.187-0.08-0.279
			c0-0.08,0.043-0.155,0.131-0.226c0.086-0.069,0.197-0.131,0.334-0.185s0.289-0.095,0.455-0.125
			C182.666,64.574,182.833,64.56,182.999,64.56z M184.079,67.229h-0.35c-0.213,0-0.418,0.009-0.615,0.024
			c-0.196,0.018-0.369,0.052-0.52,0.105s-0.27,0.132-0.36,0.235c-0.09,0.104-0.135,0.245-0.135,0.425c0,0.26,0.073,0.45,0.22,0.57
			c0.146,0.119,0.33,0.18,0.551,0.18c0.139,0,0.283-0.031,0.43-0.095s0.276-0.146,0.39-0.245c0.113-0.101,0.206-0.21,0.28-0.33
			c0.073-0.12,0.109-0.236,0.109-0.351V67.229z"/>
		<path fill="#6F7072" d="M186.859,67.85c0,0.286,0.06,0.488,0.181,0.604c0.119,0.117,0.336,0.175,0.649,0.175h0.31
			c0.113,0,0.202,0.037,0.266,0.11c0.063,0.073,0.095,0.157,0.095,0.25c0,0.094-0.032,0.179-0.095,0.255
			c-0.063,0.077-0.152,0.115-0.266,0.115h-0.31c-0.54,0-0.952-0.12-1.235-0.36c-0.283-0.239-0.425-0.623-0.425-1.149v-5.15
			c0-0.086,0.046-0.156,0.136-0.21c0.09-0.053,0.182-0.08,0.274-0.08c0.106,0,0.203,0.027,0.29,0.08
			c0.086,0.054,0.13,0.124,0.13,0.21v1.92h1.261c0.072,0,0.133,0.033,0.18,0.101c0.047,0.066,0.07,0.144,0.07,0.229
			c0,0.087-0.023,0.162-0.07,0.226s-0.107,0.095-0.18,0.095h-1.261V67.85z"/>
		<path fill="#6F7072" d="M189.559,62.369c0.14,0,0.26,0.047,0.359,0.141c0.1,0.093,0.15,0.203,0.15,0.33
			c0,0.126-0.051,0.238-0.15,0.335s-0.22,0.145-0.359,0.145c-0.146,0-0.271-0.048-0.371-0.145c-0.1-0.097-0.149-0.209-0.149-0.335
			c0-0.127,0.05-0.237,0.149-0.33C189.289,62.416,189.413,62.369,189.559,62.369z M189.559,64.619c0.113,0,0.211,0.027,0.295,0.08
			c0.083,0.054,0.125,0.124,0.125,0.21v4.15c0,0.073-0.042,0.142-0.125,0.205c-0.084,0.063-0.182,0.095-0.295,0.095
			s-0.211-0.031-0.291-0.095s-0.119-0.132-0.119-0.205v-4.15c0-0.086,0.039-0.156,0.119-0.21
			C189.348,64.646,189.446,64.619,189.559,64.619z"/>
		<path fill="#6F7072" d="M192.949,64.56c0.267,0,0.521,0.05,0.761,0.149c0.239,0.101,0.449,0.239,0.629,0.415
			c0.181,0.177,0.324,0.382,0.431,0.615s0.159,0.48,0.159,0.74v1.02c0,0.254-0.053,0.497-0.159,0.73s-0.25,0.439-0.431,0.62
			c-0.18,0.18-0.39,0.323-0.629,0.43c-0.24,0.106-0.494,0.16-0.761,0.16s-0.519-0.054-0.755-0.16s-0.445-0.25-0.625-0.43
			c-0.18-0.181-0.323-0.387-0.43-0.62c-0.107-0.233-0.16-0.477-0.16-0.73v-1.02c0-0.253,0.051-0.497,0.154-0.73
			s0.246-0.438,0.426-0.614s0.389-0.317,0.625-0.42C192.42,64.611,192.675,64.56,192.949,64.56z M194.098,66.479
			c0-0.146-0.029-0.29-0.09-0.43c-0.06-0.141-0.141-0.266-0.244-0.375c-0.104-0.11-0.225-0.198-0.365-0.266
			c-0.141-0.066-0.29-0.1-0.45-0.1c-0.159,0-0.31,0.033-0.45,0.1c-0.14,0.067-0.26,0.155-0.359,0.266
			c-0.1,0.109-0.18,0.234-0.24,0.375c-0.061,0.14-0.09,0.283-0.09,0.43v1.02c0,0.153,0.029,0.302,0.09,0.445s0.142,0.271,0.245,0.38
			c0.103,0.11,0.224,0.198,0.36,0.266c0.137,0.066,0.285,0.1,0.444,0.1c0.16,0,0.309-0.033,0.445-0.1
			c0.136-0.067,0.259-0.155,0.364-0.266c0.107-0.109,0.19-0.236,0.25-0.38c0.061-0.144,0.09-0.292,0.09-0.445V66.479z"/>
		<path fill="#6F7072" d="M196.758,69.06c0,0.073-0.041,0.142-0.125,0.205s-0.182,0.095-0.295,0.095
			c-0.12,0-0.219-0.031-0.295-0.095s-0.115-0.132-0.115-0.205v-4.15c0-0.086,0.039-0.156,0.115-0.21
			c0.076-0.053,0.175-0.08,0.295-0.08c0.1,0,0.188,0.027,0.266,0.08c0.076,0.054,0.114,0.124,0.114,0.21v0.41
			c0.101-0.193,0.263-0.368,0.49-0.525c0.227-0.156,0.51-0.234,0.851-0.234c0.239,0,0.466,0.05,0.68,0.149
			c0.213,0.101,0.399,0.239,0.56,0.415c0.16,0.177,0.286,0.382,0.38,0.615s0.141,0.48,0.141,0.74v2.58
			c0,0.1-0.044,0.175-0.131,0.225c-0.086,0.05-0.184,0.075-0.289,0.075c-0.101,0-0.193-0.025-0.281-0.075
			c-0.086-0.05-0.129-0.125-0.129-0.225v-2.58c0-0.146-0.03-0.29-0.09-0.43c-0.061-0.141-0.143-0.266-0.246-0.375
			c-0.104-0.11-0.225-0.198-0.364-0.266c-0.14-0.066-0.287-0.1-0.44-0.1c-0.133,0-0.265,0.026-0.395,0.08
			c-0.131,0.053-0.247,0.13-0.35,0.229c-0.104,0.101-0.188,0.224-0.25,0.37c-0.064,0.146-0.096,0.311-0.096,0.49V69.06z"/>
		<path fill="#6F7072" d="M207.389,69.27c-0.027,0.066-0.07,0.113-0.131,0.14c-0.06,0.026-0.127,0.04-0.199,0.04
			c-0.181,0-0.294-0.06-0.34-0.18l-0.971-2.94l-0.949,2.91c-0.055,0.14-0.174,0.21-0.361,0.21c-0.079,0-0.148-0.015-0.204-0.045
			c-0.058-0.03-0.103-0.085-0.136-0.165l-1.549-4.12c-0.014-0.033-0.023-0.063-0.031-0.09c-0.006-0.026-0.01-0.05-0.01-0.07
			c0-0.106,0.057-0.193,0.17-0.26s0.227-0.1,0.34-0.1c0.061,0,0.115,0.014,0.166,0.04c0.05,0.026,0.084,0.066,0.104,0.12l1.21,3.359
			l0.939-3.029c0.027-0.074,0.067-0.125,0.121-0.155c0.053-0.03,0.116-0.045,0.189-0.045c0.166,0,0.273,0.066,0.32,0.2l0.92,3.06
			l1.22-3.39c0.014-0.054,0.045-0.094,0.095-0.12c0.051-0.026,0.105-0.04,0.166-0.04c0.105,0,0.219,0.031,0.34,0.095
			c0.119,0.063,0.18,0.151,0.18,0.265c0,0.054-0.014,0.107-0.04,0.16L207.389,69.27z"/>
		<path fill="#6F7072" d="M210.118,62.369c0.141,0,0.26,0.047,0.36,0.141c0.101,0.093,0.149,0.203,0.149,0.33
			c0,0.126-0.049,0.238-0.149,0.335s-0.22,0.145-0.36,0.145c-0.146,0-0.27-0.048-0.369-0.145c-0.101-0.097-0.15-0.209-0.15-0.335
			c0-0.127,0.05-0.237,0.15-0.33C209.848,62.416,209.971,62.369,210.118,62.369z M210.118,64.619c0.113,0,0.212,0.027,0.295,0.08
			c0.084,0.054,0.125,0.124,0.125,0.21v4.15c0,0.073-0.041,0.142-0.125,0.205c-0.083,0.063-0.182,0.095-0.295,0.095
			s-0.209-0.031-0.289-0.095s-0.121-0.132-0.121-0.205v-4.15c0-0.086,0.041-0.156,0.121-0.21
			C209.909,64.646,210.004,64.619,210.118,64.619z"/>
		<path fill="#6F7072" d="M212.528,67.85c0,0.286,0.061,0.488,0.181,0.604c0.12,0.117,0.337,0.175,0.649,0.175h0.311
			c0.113,0,0.201,0.037,0.266,0.11c0.063,0.073,0.094,0.157,0.094,0.25c0,0.094-0.031,0.179-0.094,0.255
			c-0.064,0.077-0.152,0.115-0.266,0.115h-0.311c-0.539,0-0.951-0.12-1.234-0.36c-0.283-0.239-0.426-0.623-0.426-1.149v-5.15
			c0-0.086,0.046-0.156,0.136-0.21c0.09-0.053,0.182-0.08,0.274-0.08c0.107,0,0.203,0.027,0.291,0.08
			c0.086,0.054,0.129,0.124,0.129,0.21v1.92h1.261c0.073,0,0.134,0.033,0.18,0.101c0.047,0.066,0.07,0.144,0.07,0.229
			c0,0.087-0.023,0.162-0.07,0.226c-0.046,0.063-0.106,0.095-0.18,0.095h-1.261V67.85z"/>
		<path fill="#6F7072" d="M215.659,69.06c0,0.073-0.043,0.142-0.125,0.205c-0.084,0.063-0.183,0.095-0.296,0.095
			c-0.12,0-0.218-0.031-0.295-0.095s-0.114-0.132-0.114-0.205v-7.01c0-0.087,0.037-0.157,0.114-0.21
			c0.077-0.054,0.175-0.08,0.295-0.08c0.113,0,0.212,0.026,0.296,0.08c0.082,0.053,0.125,0.123,0.125,0.21v3.27
			c0.1-0.193,0.26-0.368,0.479-0.525c0.22-0.156,0.493-0.234,0.819-0.234c0.24,0,0.467,0.05,0.681,0.149
			c0.213,0.101,0.399,0.239,0.56,0.415c0.16,0.177,0.287,0.382,0.381,0.615c0.093,0.233,0.14,0.48,0.14,0.74v2.58
			c0,0.1-0.044,0.175-0.13,0.225c-0.087,0.05-0.184,0.075-0.291,0.075c-0.093,0-0.185-0.025-0.274-0.075s-0.135-0.125-0.135-0.225
			v-2.58c0-0.146-0.03-0.29-0.091-0.43c-0.06-0.141-0.141-0.266-0.244-0.375c-0.104-0.11-0.225-0.198-0.365-0.266
			c-0.141-0.066-0.287-0.1-0.439-0.1c-0.134,0-0.266,0.026-0.396,0.08c-0.13,0.053-0.247,0.13-0.351,0.229
			c-0.104,0.101-0.186,0.224-0.25,0.37c-0.063,0.146-0.094,0.311-0.094,0.49V69.06z"/>
		<path fill="#6F7072" d="M224.128,62.05c0.3,0,0.581,0.038,0.845,0.114c0.264,0.077,0.493,0.202,0.689,0.375
			c0.197,0.174,0.351,0.398,0.461,0.676c0.109,0.276,0.164,0.614,0.164,1.015v2.95c0,0.399-0.055,0.738-0.164,1.015
			c-0.11,0.276-0.264,0.502-0.461,0.675c-0.196,0.174-0.426,0.299-0.689,0.375c-0.264,0.077-0.545,0.115-0.845,0.115h-1.771
			c-0.113,0-0.205-0.03-0.275-0.09c-0.069-0.061-0.104-0.127-0.104-0.2V62.34c0-0.074,0.035-0.141,0.104-0.2
			c0.07-0.061,0.162-0.09,0.275-0.09H224.128z M222.818,62.81v5.79h1.311c0.413,0,0.736-0.115,0.97-0.346
			c0.233-0.229,0.35-0.588,0.35-1.074v-2.95c0-0.486-0.116-0.845-0.35-1.075c-0.233-0.229-0.557-0.345-0.97-0.345H222.818z"/>
		<path fill="#6F7072" d="M231.188,65.919h-2.71v3.141c0,0.1-0.043,0.175-0.13,0.225s-0.184,0.075-0.29,0.075
			s-0.203-0.025-0.29-0.075s-0.13-0.125-0.13-0.225v-6.72c0-0.101,0.043-0.174,0.13-0.221c0.087-0.046,0.184-0.069,0.29-0.069
			s0.203,0.023,0.29,0.069c0.087,0.047,0.13,0.12,0.13,0.221v2.88h2.71v-2.88c0-0.101,0.044-0.174,0.13-0.221
			c0.087-0.046,0.184-0.069,0.29-0.069s0.203,0.023,0.29,0.069c0.087,0.047,0.13,0.12,0.13,0.221v6.72c0,0.1-0.043,0.175-0.13,0.225
			s-0.184,0.075-0.29,0.075s-0.203-0.025-0.29-0.075c-0.086-0.05-0.13-0.125-0.13-0.225V65.919z"/>
		<path fill="#6F7072" d="M233.417,69.359c-0.113,0-0.227-0.031-0.34-0.095s-0.17-0.148-0.17-0.255c0-0.014,0.007-0.04,0.021-0.08
			l2.04-6.65c0.033-0.1,0.1-0.173,0.199-0.22c0.101-0.047,0.207-0.07,0.32-0.07s0.22,0.025,0.32,0.075
			c0.1,0.05,0.166,0.122,0.199,0.215l2.04,6.65c0,0.013,0.002,0.024,0.006,0.035c0.003,0.01,0.005,0.021,0.005,0.034
			c0,0.101-0.057,0.186-0.17,0.255c-0.114,0.07-0.23,0.105-0.351,0.105c-0.073,0-0.137-0.015-0.189-0.045
			c-0.054-0.03-0.091-0.078-0.11-0.146l-0.44-1.489h-2.63l-0.439,1.489C233.688,69.296,233.584,69.359,233.417,69.359z
			 M236.598,66.989l-1.11-3.76l-1.13,3.76H236.598z"/>
		<path fill="#6F7072" d="M241.328,69.359c-0.094,0-0.18-0.025-0.26-0.075s-0.12-0.125-0.12-0.225v-6.72
			c0-0.101,0.043-0.174,0.13-0.221c0.087-0.046,0.184-0.069,0.29-0.069s0.203,0.023,0.29,0.069c0.087,0.047,0.13,0.12,0.13,0.221
			v6.26h2.73c0.093,0,0.161,0.04,0.205,0.12c0.043,0.08,0.064,0.166,0.064,0.26s-0.021,0.18-0.064,0.26
			c-0.044,0.08-0.112,0.12-0.205,0.12H241.328z"/>
		<path fill="#6F7072" d="M246.937,64.56c0.347,0,0.642,0.055,0.886,0.165c0.243,0.109,0.441,0.255,0.595,0.435
			c0.153,0.181,0.264,0.387,0.33,0.62s0.1,0.474,0.1,0.72v2.561c0,0.087-0.038,0.158-0.114,0.215
			c-0.077,0.057-0.176,0.085-0.296,0.085c-0.113,0-0.204-0.028-0.274-0.085s-0.105-0.128-0.105-0.215v-0.4
			c-0.173,0.2-0.383,0.38-0.63,0.54c-0.246,0.16-0.54,0.24-0.88,0.24c-0.187,0-0.361-0.026-0.524-0.08
			c-0.164-0.054-0.308-0.135-0.431-0.245s-0.22-0.248-0.29-0.415c-0.069-0.166-0.104-0.363-0.104-0.59
			c0-0.28,0.057-0.508,0.17-0.685s0.273-0.318,0.479-0.426c0.207-0.106,0.453-0.18,0.74-0.22s0.604-0.06,0.95-0.06h0.479v-0.21
			c0-0.146-0.02-0.294-0.06-0.44s-0.104-0.28-0.19-0.4c-0.086-0.119-0.199-0.216-0.34-0.29c-0.14-0.073-0.31-0.109-0.51-0.109
			c-0.174,0-0.32,0.015-0.44,0.045c-0.119,0.03-0.22,0.063-0.3,0.1c-0.08,0.037-0.146,0.07-0.2,0.101
			c-0.053,0.029-0.103,0.045-0.149,0.045c-0.101,0-0.177-0.047-0.23-0.141c-0.053-0.093-0.08-0.187-0.08-0.279
			c0-0.08,0.044-0.155,0.131-0.226c0.086-0.069,0.198-0.131,0.335-0.185c0.136-0.054,0.288-0.095,0.454-0.125
			C246.604,64.574,246.771,64.56,246.937,64.56z M248.017,67.229h-0.35c-0.214,0-0.418,0.009-0.615,0.024
			c-0.196,0.018-0.37,0.052-0.52,0.105c-0.15,0.054-0.271,0.132-0.36,0.235s-0.135,0.245-0.135,0.425c0,0.26,0.073,0.45,0.22,0.57
			c0.146,0.119,0.33,0.18,0.55,0.18c0.141,0,0.283-0.031,0.431-0.095c0.146-0.063,0.276-0.146,0.39-0.245
			c0.113-0.101,0.207-0.21,0.28-0.33s0.109-0.236,0.109-0.351V67.229z"/>
		<path fill="#6F7072" d="M250.828,69.06c0,0.073-0.041,0.142-0.125,0.205c-0.083,0.063-0.182,0.095-0.295,0.095
			c-0.12,0-0.218-0.031-0.295-0.095c-0.076-0.063-0.115-0.132-0.115-0.205v-7.01c0-0.087,0.039-0.157,0.115-0.21
			c0.077-0.054,0.175-0.08,0.295-0.08c0.113,0,0.212,0.026,0.295,0.08c0.084,0.053,0.125,0.123,0.125,0.21v3.27
			c0.101-0.193,0.261-0.368,0.48-0.525c0.22-0.156,0.493-0.234,0.82-0.234c0.239,0,0.466,0.05,0.68,0.149
			c0.213,0.101,0.399,0.239,0.56,0.415c0.16,0.177,0.287,0.382,0.38,0.615c0.094,0.233,0.141,0.48,0.141,0.74v2.58
			c0,0.1-0.044,0.175-0.13,0.225c-0.087,0.05-0.184,0.075-0.29,0.075c-0.094,0-0.186-0.025-0.275-0.075s-0.135-0.125-0.135-0.225
			v-2.58c0-0.146-0.03-0.29-0.09-0.43c-0.061-0.141-0.142-0.266-0.245-0.375c-0.104-0.11-0.226-0.198-0.365-0.266
			c-0.14-0.066-0.287-0.1-0.44-0.1c-0.133,0-0.265,0.026-0.395,0.08c-0.13,0.053-0.247,0.13-0.35,0.229
			c-0.104,0.101-0.188,0.224-0.25,0.37c-0.063,0.146-0.096,0.311-0.096,0.49V69.06z"/>
		<path fill="#6F7072" d="M256.818,64.56c0.267,0,0.521,0.05,0.76,0.149c0.24,0.101,0.45,0.239,0.63,0.415
			c0.181,0.177,0.324,0.382,0.431,0.615s0.16,0.48,0.16,0.74v1.02c0,0.254-0.054,0.497-0.16,0.73s-0.25,0.439-0.431,0.62
			c-0.18,0.18-0.39,0.323-0.63,0.43c-0.239,0.106-0.493,0.16-0.76,0.16s-0.519-0.054-0.755-0.16s-0.445-0.25-0.625-0.43
			c-0.18-0.181-0.323-0.387-0.43-0.62c-0.107-0.233-0.16-0.477-0.16-0.73v-1.02c0-0.253,0.052-0.497,0.155-0.73
			c0.103-0.233,0.244-0.438,0.425-0.614c0.18-0.177,0.388-0.317,0.625-0.42C256.29,64.611,256.544,64.56,256.818,64.56z
			 M257.968,66.479c0-0.146-0.03-0.29-0.09-0.43c-0.061-0.141-0.143-0.266-0.245-0.375c-0.104-0.11-0.226-0.198-0.365-0.266
			c-0.14-0.066-0.29-0.1-0.45-0.1s-0.31,0.033-0.45,0.1c-0.14,0.067-0.26,0.155-0.359,0.266c-0.101,0.109-0.181,0.234-0.24,0.375
			c-0.061,0.14-0.09,0.283-0.09,0.43v1.02c0,0.153,0.029,0.302,0.09,0.445c0.06,0.144,0.142,0.271,0.245,0.38
			c0.104,0.11,0.223,0.198,0.359,0.266c0.137,0.066,0.285,0.1,0.445,0.1s0.309-0.033,0.445-0.1c0.137-0.067,0.258-0.155,0.365-0.266
			c0.106-0.109,0.189-0.236,0.25-0.38c0.06-0.144,0.09-0.292,0.09-0.445V66.479z"/>
		<path fill="#6F7072" d="M261.898,65.31c-0.16,0-0.317,0.033-0.471,0.1c-0.153,0.067-0.288,0.164-0.404,0.29
			c-0.117,0.127-0.212,0.282-0.285,0.465c-0.073,0.184-0.11,0.389-0.11,0.615v2.28c0,0.073-0.042,0.142-0.125,0.205
			s-0.182,0.095-0.295,0.095c-0.12,0-0.219-0.031-0.295-0.095c-0.077-0.063-0.115-0.132-0.115-0.205v-4.15
			c0-0.086,0.038-0.156,0.115-0.21c0.076-0.053,0.175-0.08,0.295-0.08c0.106,0,0.196,0.027,0.27,0.08
			c0.074,0.054,0.11,0.124,0.11,0.21v0.47c0.113-0.206,0.281-0.395,0.505-0.564s0.492-0.255,0.806-0.255h0.34
			c0.086,0,0.161,0.038,0.225,0.115c0.063,0.076,0.095,0.165,0.095,0.265s-0.031,0.187-0.095,0.26s-0.139,0.11-0.225,0.11H261.898z"
			/>
		<path fill="#6F7072" d="M264.898,64.56c0.253,0,0.496,0.045,0.729,0.135s0.438,0.217,0.615,0.38
			c0.177,0.164,0.316,0.358,0.42,0.585s0.155,0.474,0.155,0.74c0,0.2-0.025,0.354-0.075,0.465s-0.117,0.193-0.2,0.25
			s-0.179,0.09-0.285,0.101c-0.106,0.01-0.217,0.015-0.33,0.015h-2.189v0.3c0,0.373,0.131,0.669,0.395,0.885
			c0.264,0.217,0.605,0.325,1.025,0.325c0.187,0,0.343-0.02,0.47-0.06s0.235-0.085,0.325-0.136c0.09-0.05,0.166-0.095,0.229-0.135
			s0.125-0.06,0.186-0.06c0.1,0,0.182,0.045,0.245,0.135s0.095,0.172,0.095,0.245c0,0.066-0.037,0.14-0.11,0.22
			s-0.178,0.157-0.314,0.23s-0.304,0.135-0.5,0.185c-0.197,0.05-0.415,0.075-0.655,0.075c-0.326,0-0.625-0.047-0.895-0.14
			c-0.271-0.094-0.504-0.226-0.7-0.396c-0.197-0.17-0.351-0.373-0.46-0.61c-0.11-0.236-0.165-0.501-0.165-0.795v-1.05
			c0-0.253,0.052-0.495,0.155-0.725c0.103-0.23,0.244-0.432,0.425-0.605c0.18-0.173,0.392-0.31,0.635-0.41
			C264.366,64.609,264.625,64.56,264.898,64.56z M265.587,66.669c0.174,0,0.29-0.02,0.351-0.06c0.06-0.04,0.09-0.127,0.09-0.26
			c0-0.146-0.028-0.288-0.085-0.425s-0.136-0.257-0.235-0.36s-0.22-0.187-0.36-0.25c-0.14-0.063-0.293-0.095-0.46-0.095
			c-0.159,0-0.308,0.028-0.444,0.085s-0.259,0.133-0.365,0.229s-0.19,0.212-0.25,0.345c-0.061,0.134-0.09,0.277-0.09,0.431v0.359
			H265.587z"/>
	</g>
</g>
<g>
	<path fill="#6F7072" d="M86.181,7.577c0-0.264,0.114-0.457,0.342-0.58c0.228-0.123,0.483-0.185,0.764-0.185
		s0.536,0.062,0.764,0.185c0.228,0.123,0.342,0.316,0.342,0.58v17.7c0,0.263-0.114,0.461-0.342,0.592
		c-0.229,0.132-0.483,0.198-0.764,0.198S86.751,26,86.523,25.869c-0.229-0.131-0.342-0.329-0.342-0.592V7.577z"/>
	<path fill="#6F7072" d="M93.873,25.276c0,0.193-0.11,0.373-0.33,0.54s-0.479,0.25-0.777,0.25c-0.316,0-0.575-0.083-0.777-0.25
		c-0.202-0.167-0.303-0.347-0.303-0.54V14.346c0-0.228,0.101-0.413,0.303-0.553c0.202-0.14,0.461-0.21,0.777-0.21
		c0.264,0,0.496,0.07,0.698,0.21c0.202,0.141,0.303,0.325,0.303,0.553v1.08c0.263-0.509,0.693-0.97,1.291-1.382
		c0.597-0.413,1.343-0.619,2.239-0.619c0.632,0,1.229,0.132,1.791,0.395s1.054,0.628,1.475,1.093s0.755,1.005,1.001,1.62
		c0.246,0.615,0.369,1.264,0.369,1.949v6.795c0,0.263-0.114,0.461-0.342,0.592c-0.229,0.132-0.483,0.198-0.764,0.198
		c-0.263,0-0.509-0.066-0.737-0.198c-0.229-0.131-0.342-0.329-0.342-0.592v-6.795c0-0.386-0.079-0.764-0.237-1.133
		c-0.158-0.369-0.373-0.698-0.645-0.988c-0.272-0.29-0.593-0.522-0.961-0.698c-0.369-0.175-0.755-0.263-1.159-0.263
		c-0.351,0-0.698,0.07-1.04,0.21c-0.343,0.141-0.65,0.342-0.922,0.606c-0.272,0.263-0.492,0.588-0.659,0.975s-0.25,0.816-0.25,1.291
		V25.276z"/>
	<path fill="#6F7072" d="M107.068,22.089c0,0.755,0.158,1.286,0.474,1.593c0.316,0.308,0.886,0.461,1.712,0.461h0.816
		c0.298,0,0.531,0.097,0.698,0.29c0.167,0.193,0.25,0.413,0.25,0.658c0,0.246-0.083,0.47-0.25,0.672
		c-0.167,0.202-0.4,0.303-0.698,0.303h-0.816c-1.422,0-2.507-0.316-3.253-0.948c-0.747-0.632-1.119-1.642-1.119-3.029V8.525
		c0-0.228,0.118-0.413,0.355-0.553c0.237-0.141,0.478-0.211,0.724-0.211c0.281,0,0.536,0.07,0.764,0.211
		c0.228,0.141,0.342,0.325,0.342,0.553v5.057h3.319c0.193,0,0.351,0.088,0.474,0.263c0.123,0.176,0.184,0.378,0.184,0.606
		s-0.062,0.426-0.184,0.592c-0.123,0.167-0.281,0.25-0.474,0.25h-3.319V22.089z"/>
	<path fill="#6F7072" d="M117.656,13.424c0.667,0,1.308,0.119,1.923,0.355c0.614,0.237,1.154,0.571,1.62,1.001
		s0.834,0.944,1.106,1.541c0.272,0.597,0.408,1.247,0.408,1.949c0,0.527-0.066,0.935-0.198,1.225
		c-0.131,0.29-0.307,0.51-0.526,0.659c-0.22,0.149-0.47,0.237-0.751,0.263c-0.281,0.026-0.571,0.04-0.869,0.04h-5.768v0.791
		c0,0.983,0.346,1.76,1.041,2.331c0.693,0.571,1.593,0.856,2.7,0.856c0.491,0,0.904-0.053,1.238-0.158
		c0.333-0.105,0.619-0.224,0.856-0.355c0.237-0.132,0.438-0.25,0.606-0.355c0.167-0.105,0.329-0.158,0.487-0.158
		c0.263,0,0.478,0.119,0.645,0.355c0.167,0.237,0.25,0.452,0.25,0.646c0,0.176-0.097,0.369-0.29,0.579
		c-0.193,0.211-0.47,0.413-0.83,0.606c-0.36,0.193-0.799,0.355-1.317,0.487c-0.518,0.132-1.093,0.198-1.725,0.198
		c-0.861,0-1.646-0.123-2.357-0.369c-0.711-0.246-1.326-0.592-1.844-1.04c-0.518-0.448-0.922-0.983-1.211-1.607
		c-0.29-0.623-0.435-1.321-0.435-2.094v-2.766c0-0.667,0.136-1.304,0.408-1.91c0.272-0.606,0.645-1.137,1.119-1.593
		s1.031-0.817,1.673-1.08C116.255,13.556,116.936,13.424,117.656,13.424z M119.473,18.981c0.457,0,0.764-0.053,0.922-0.158
		s0.237-0.333,0.237-0.685c0-0.386-0.075-0.759-0.224-1.119c-0.149-0.36-0.355-0.676-0.619-0.948
		c-0.263-0.272-0.579-0.491-0.948-0.659c-0.369-0.167-0.772-0.25-1.211-0.25c-0.421,0-0.813,0.075-1.172,0.224
		c-0.36,0.149-0.681,0.351-0.961,0.605c-0.281,0.255-0.5,0.558-0.659,0.909c-0.158,0.352-0.237,0.729-0.237,1.133v0.948H119.473z"/>
	<path fill="#6F7072" d="M129.456,23.011c-0.72,0-1.37-0.132-1.949-0.395c-0.176,0.105-0.329,0.224-0.461,0.355
		c-0.131,0.132-0.197,0.312-0.197,0.54c0,0.369,0.202,0.628,0.605,0.777c0.404,0.149,0.904,0.263,1.501,0.342
		c0.597,0.079,1.247,0.163,1.949,0.25c0.702,0.088,1.352,0.246,1.949,0.474c0.597,0.228,1.097,0.566,1.501,1.014
		s0.606,1.076,0.606,1.883c0,0.649-0.136,1.216-0.408,1.699c-0.272,0.483-0.65,0.882-1.133,1.199
		c-0.483,0.316-1.049,0.553-1.699,0.711c-0.65,0.158-1.353,0.237-2.107,0.237c-0.773,0-1.493-0.083-2.16-0.25
		s-1.242-0.399-1.725-0.698c-0.483-0.299-0.865-0.667-1.146-1.106c-0.281-0.439-0.421-0.939-0.421-1.501
		c0-0.738,0.215-1.339,0.645-1.804c0.43-0.466,0.926-0.821,1.488-1.067c-0.404-0.141-0.729-0.342-0.975-0.606
		c-0.246-0.263-0.369-0.649-0.369-1.159c0-0.492,0.119-0.882,0.355-1.172c0.237-0.29,0.557-0.548,0.961-0.777
		c-0.474-0.386-0.843-0.865-1.106-1.436c-0.264-0.57-0.396-1.198-0.396-1.883V17.77c0-0.632,0.114-1.215,0.343-1.751
		c0.228-0.535,0.544-0.996,0.948-1.383c0.403-0.386,0.896-0.685,1.475-0.896c0.58-0.21,1.22-0.316,1.923-0.316
		c0.614,0,1.181,0.092,1.699,0.276c0.518,0.185,0.979,0.435,1.383,0.751c0.264-0.58,0.553-1.01,0.869-1.291
		c0.316-0.28,0.623-0.421,0.922-0.421c0.298,0,0.531,0.088,0.698,0.264c0.167,0.176,0.25,0.36,0.25,0.553
		c0,0.141-0.044,0.263-0.131,0.369c-0.088,0.105-0.194,0.184-0.316,0.237c-0.193,0.053-0.421,0.158-0.685,0.316
		c-0.264,0.158-0.51,0.421-0.738,0.79c0.281,0.333,0.487,0.716,0.619,1.146c0.132,0.431,0.198,0.882,0.198,1.356v0.869
		c0,0.632-0.119,1.212-0.356,1.739c-0.237,0.526-0.566,0.987-0.987,1.382c-0.422,0.396-0.922,0.703-1.501,0.922
		C130.799,22.902,130.158,23.011,129.456,23.011z M132.827,28.305c0-0.492-0.158-0.874-0.474-1.146
		c-0.316-0.272-0.703-0.474-1.159-0.606s-0.944-0.22-1.462-0.263c-0.518-0.044-0.987-0.092-1.409-0.145
		c-0.563,0.193-1.05,0.461-1.462,0.803c-0.413,0.342-0.619,0.794-0.619,1.356c0,0.685,0.303,1.233,0.909,1.646
		s1.418,0.619,2.437,0.619c1.001,0,1.791-0.207,2.371-0.619C132.537,29.539,132.827,28.99,132.827,28.305z M132.089,17.77
		c0-0.79-0.229-1.461-0.685-2.015c-0.457-0.553-1.098-0.83-1.923-0.83c-0.843,0-1.484,0.276-1.923,0.83s-0.658,1.225-0.658,2.015
		v0.843c0,0.826,0.224,1.515,0.671,2.068s1.093,0.83,1.936,0.83c0.79,0,1.418-0.268,1.883-0.803
		c0.465-0.536,0.698-1.225,0.698-2.068V17.77z"/>
	<path fill="#6F7072" d="M142.704,15.399c-0.421,0-0.834,0.088-1.238,0.263c-0.404,0.176-0.76,0.431-1.067,0.764
		c-0.307,0.334-0.558,0.742-0.75,1.225c-0.193,0.483-0.29,1.023-0.29,1.62v6.005c0,0.193-0.11,0.373-0.33,0.54
		s-0.479,0.25-0.777,0.25c-0.316,0-0.575-0.083-0.777-0.25c-0.202-0.167-0.303-0.347-0.303-0.54V14.346
		c0-0.228,0.101-0.413,0.303-0.553c0.202-0.14,0.461-0.21,0.777-0.21c0.281,0,0.518,0.07,0.711,0.21
		c0.193,0.141,0.29,0.325,0.29,0.553v1.238c0.298-0.544,0.742-1.041,1.33-1.488c0.588-0.448,1.295-0.671,2.12-0.671h0.896
		c0.228,0,0.426,0.101,0.593,0.303c0.167,0.202,0.25,0.435,0.25,0.698c0,0.263-0.084,0.492-0.25,0.685
		c-0.167,0.193-0.365,0.29-0.593,0.29H142.704z"/>
	<path fill="#6F7072" d="M150,13.424c0.913,0,1.69,0.145,2.331,0.435c0.641,0.29,1.163,0.671,1.567,1.146
		c0.404,0.474,0.693,1.019,0.869,1.633c0.175,0.615,0.263,1.247,0.263,1.896v6.743c0,0.229-0.101,0.417-0.303,0.566
		c-0.202,0.149-0.461,0.224-0.777,0.224c-0.299,0-0.54-0.075-0.725-0.224c-0.184-0.149-0.276-0.337-0.276-0.566v-1.054
		c-0.457,0.527-1.01,1.001-1.66,1.422s-1.422,0.632-2.317,0.632c-0.492,0-0.953-0.071-1.383-0.211
		c-0.431-0.14-0.808-0.355-1.133-0.646c-0.325-0.29-0.58-0.654-0.764-1.093c-0.185-0.439-0.277-0.957-0.277-1.554
		c0-0.737,0.149-1.339,0.448-1.804c0.298-0.465,0.72-0.838,1.265-1.119c0.544-0.281,1.194-0.474,1.949-0.58s1.589-0.158,2.502-0.158
		h1.264V18.56c0-0.386-0.053-0.772-0.158-1.159c-0.105-0.386-0.272-0.737-0.5-1.054c-0.228-0.316-0.526-0.57-0.896-0.764
		c-0.369-0.193-0.816-0.29-1.343-0.29c-0.457,0-0.843,0.04-1.159,0.118c-0.316,0.079-0.58,0.167-0.79,0.264
		c-0.211,0.097-0.387,0.184-0.527,0.263c-0.141,0.079-0.272,0.119-0.395,0.119c-0.264,0-0.466-0.123-0.606-0.369
		c-0.141-0.246-0.21-0.491-0.21-0.737c0-0.211,0.114-0.409,0.342-0.593c0.228-0.185,0.522-0.347,0.882-0.487
		c0.359-0.141,0.759-0.25,1.198-0.329C149.122,13.463,149.561,13.424,150,13.424z M152.844,20.456h-0.922
		c-0.562,0-1.102,0.022-1.62,0.066c-0.519,0.044-0.975,0.136-1.37,0.277c-0.396,0.141-0.711,0.347-0.948,0.619
		c-0.237,0.272-0.356,0.646-0.356,1.12c0,0.685,0.193,1.185,0.58,1.501c0.386,0.316,0.869,0.474,1.449,0.474
		c0.369,0,0.746-0.083,1.133-0.25c0.386-0.167,0.728-0.382,1.027-0.646c0.298-0.263,0.544-0.553,0.738-0.869
		c0.193-0.316,0.29-0.623,0.29-0.922V20.456z"/>
	<path fill="#6F7072" d="M160.166,22.089c0,0.755,0.158,1.286,0.474,1.593c0.316,0.308,0.886,0.461,1.712,0.461h0.816
		c0.299,0,0.531,0.097,0.698,0.29s0.25,0.413,0.25,0.658c0,0.246-0.083,0.47-0.25,0.672c-0.167,0.202-0.399,0.303-0.698,0.303
		h-0.816c-1.422,0-2.507-0.316-3.253-0.948c-0.747-0.632-1.119-1.642-1.119-3.029V8.525c0-0.228,0.118-0.413,0.355-0.553
		c0.237-0.141,0.478-0.211,0.724-0.211c0.281,0,0.536,0.07,0.764,0.211c0.228,0.141,0.342,0.325,0.342,0.553v5.057h3.319
		c0.193,0,0.352,0.088,0.475,0.263c0.122,0.176,0.184,0.378,0.184,0.606s-0.062,0.426-0.184,0.592
		c-0.123,0.167-0.281,0.25-0.475,0.25h-3.319V22.089z"/>
	<path fill="#6F7072" d="M170.754,13.424c0.667,0,1.309,0.119,1.923,0.355c0.614,0.237,1.154,0.571,1.62,1.001
		c0.465,0.43,0.834,0.944,1.105,1.541c0.272,0.597,0.408,1.247,0.408,1.949c0,0.527-0.065,0.935-0.197,1.225
		c-0.131,0.29-0.307,0.51-0.526,0.659c-0.22,0.149-0.47,0.237-0.751,0.263c-0.281,0.026-0.57,0.04-0.869,0.04H167.7v0.791
		c0,0.983,0.346,1.76,1.04,2.331c0.693,0.571,1.593,0.856,2.7,0.856c0.49,0,0.903-0.053,1.237-0.158
		c0.333-0.105,0.618-0.224,0.856-0.355c0.236-0.132,0.438-0.25,0.605-0.355c0.166-0.105,0.329-0.158,0.487-0.158
		c0.263,0,0.478,0.119,0.646,0.355c0.166,0.237,0.25,0.452,0.25,0.646c0,0.176-0.098,0.369-0.29,0.579
		c-0.193,0.211-0.47,0.413-0.829,0.606c-0.36,0.193-0.8,0.355-1.317,0.487c-0.519,0.132-1.093,0.198-1.726,0.198
		c-0.86,0-1.646-0.123-2.357-0.369c-0.711-0.246-1.326-0.592-1.844-1.04s-0.922-0.983-1.211-1.607
		c-0.29-0.623-0.435-1.321-0.435-2.094v-2.766c0-0.667,0.136-1.304,0.408-1.91s0.646-1.137,1.119-1.593s1.031-0.817,1.673-1.08
		C169.354,13.556,170.034,13.424,170.754,13.424z M172.572,18.981c0.456,0,0.764-0.053,0.922-0.158s0.237-0.333,0.237-0.685
		c0-0.386-0.075-0.759-0.225-1.119c-0.148-0.36-0.355-0.676-0.619-0.948c-0.263-0.272-0.578-0.491-0.947-0.659
		c-0.369-0.167-0.773-0.25-1.212-0.25c-0.421,0-0.813,0.075-1.172,0.224c-0.36,0.149-0.681,0.351-0.962,0.605
		c-0.281,0.255-0.5,0.558-0.658,0.909c-0.158,0.352-0.236,0.729-0.236,1.133v0.948H172.572z"/>
	<path fill="#6F7072" d="M187.032,6.049c0.316,0,0.575,0.07,0.777,0.211c0.201,0.141,0.303,0.325,0.303,0.553v18.464
		c0,0.193-0.102,0.373-0.303,0.54c-0.202,0.167-0.461,0.25-0.777,0.25c-0.281,0-0.518-0.083-0.711-0.25s-0.29-0.347-0.29-0.54
		v-1.054c-0.28,0.544-0.747,1.023-1.396,1.436c-0.65,0.412-1.396,0.619-2.239,0.619c-0.614,0-1.202-0.141-1.765-0.422
		c-0.563-0.28-1.053-0.658-1.475-1.132s-0.76-1.018-1.014-1.633c-0.256-0.615-0.383-1.255-0.383-1.923v-2.687
		c0-0.685,0.123-1.334,0.369-1.949c0.246-0.614,0.584-1.154,1.014-1.62s0.931-0.83,1.502-1.093c0.57-0.263,1.18-0.395,1.83-0.395
		c0.843,0,1.555,0.207,2.134,0.619s1.019,0.874,1.317,1.382V6.813c0-0.228,0.109-0.412,0.328-0.553
		C186.474,6.119,186.733,6.049,187.032,6.049z M179.947,21.167c0,0.404,0.079,0.79,0.237,1.159s0.373,0.703,0.645,1.001
		c0.272,0.299,0.588,0.536,0.949,0.711c0.359,0.176,0.741,0.264,1.145,0.264c0.422,0,0.816-0.092,1.186-0.277
		c0.369-0.184,0.689-0.408,0.962-0.671s0.482-0.531,0.632-0.803c0.148-0.272,0.225-0.496,0.225-0.672v-3.397
		c0-0.474-0.089-0.904-0.264-1.291c-0.176-0.386-0.4-0.711-0.672-0.975c-0.272-0.264-0.589-0.465-0.948-0.606
		c-0.36-0.14-0.725-0.21-1.093-0.21c-0.422,0-0.813,0.088-1.172,0.263c-0.361,0.176-0.677,0.408-0.949,0.698
		c-0.271,0.29-0.486,0.619-0.645,0.988s-0.237,0.747-0.237,1.133V21.167z"/>
	<path fill="#6F7072" d="M204.678,18.929c-0.123,0.229-0.259,0.386-0.408,0.474c-0.148,0.088-0.303,0.131-0.461,0.131
		c-0.141,0-0.281-0.043-0.422-0.131s-0.271-0.246-0.395-0.474l-3.951-7.586v13.934c0,0.263-0.113,0.461-0.342,0.592
		c-0.229,0.132-0.483,0.198-0.764,0.198c-0.281,0-0.536-0.066-0.764-0.198c-0.229-0.131-0.343-0.329-0.343-0.592V7.893
		c0-0.404,0.109-0.685,0.329-0.843c0.219-0.158,0.479-0.237,0.777-0.237c0.403,0,0.737,0.119,1,0.356
		c0.264,0.237,0.519,0.584,0.765,1.04l4.135,7.928l4.162-7.928c0.245-0.456,0.5-0.803,0.764-1.04
		c0.263-0.237,0.597-0.356,1.001-0.356c0.298,0,0.557,0.079,0.776,0.237s0.329,0.439,0.329,0.843v17.384
		c0,0.263-0.114,0.461-0.342,0.592c-0.229,0.132-0.483,0.198-0.764,0.198c-0.281,0-0.536-0.066-0.764-0.198
		c-0.229-0.131-0.343-0.329-0.343-0.592V11.448L204.678,18.929z"/>
	<path fill="#6F7072" d="M218.927,13.424c0.667,0,1.308,0.119,1.923,0.355c0.614,0.237,1.154,0.571,1.62,1.001
		c0.465,0.43,0.833,0.944,1.105,1.541c0.272,0.597,0.408,1.247,0.408,1.949c0,0.527-0.065,0.935-0.197,1.225
		c-0.132,0.29-0.308,0.51-0.526,0.659c-0.22,0.149-0.471,0.237-0.751,0.263c-0.281,0.026-0.57,0.04-0.869,0.04h-5.769v0.791
		c0,0.983,0.347,1.76,1.041,2.331c0.693,0.571,1.593,0.856,2.699,0.856c0.491,0,0.904-0.053,1.238-0.158
		c0.333-0.105,0.619-0.224,0.855-0.355c0.237-0.132,0.439-0.25,0.606-0.355c0.166-0.105,0.329-0.158,0.487-0.158
		c0.263,0,0.478,0.119,0.646,0.355c0.166,0.237,0.25,0.452,0.25,0.646c0,0.176-0.097,0.369-0.29,0.579
		c-0.193,0.211-0.47,0.413-0.829,0.606c-0.36,0.193-0.8,0.355-1.317,0.487c-0.519,0.132-1.093,0.198-1.726,0.198
		c-0.86,0-1.646-0.123-2.357-0.369c-0.711-0.246-1.325-0.592-1.844-1.04c-0.518-0.448-0.921-0.983-1.211-1.607
		c-0.29-0.623-0.435-1.321-0.435-2.094v-2.766c0-0.667,0.136-1.304,0.408-1.91c0.271-0.606,0.646-1.137,1.119-1.593
		c0.475-0.457,1.031-0.817,1.673-1.08C217.527,13.556,218.208,13.424,218.927,13.424z M220.745,18.981
		c0.456,0,0.764-0.053,0.922-0.158s0.237-0.333,0.237-0.685c0-0.386-0.075-0.759-0.224-1.119c-0.149-0.36-0.356-0.676-0.619-0.948
		c-0.264-0.272-0.58-0.491-0.948-0.659c-0.369-0.167-0.773-0.25-1.212-0.25c-0.421,0-0.813,0.075-1.172,0.224
		c-0.36,0.149-0.681,0.351-0.962,0.605c-0.28,0.255-0.5,0.558-0.658,0.909c-0.158,0.352-0.237,0.729-0.237,1.133v0.948H220.745z"/>
	<path fill="#6F7072" d="M235.206,6.049c0.315,0,0.574,0.07,0.776,0.211s0.303,0.325,0.303,0.553v18.464
		c0,0.193-0.101,0.373-0.303,0.54s-0.461,0.25-0.776,0.25c-0.281,0-0.519-0.083-0.712-0.25s-0.289-0.347-0.289-0.54v-1.054
		c-0.281,0.544-0.747,1.023-1.396,1.436c-0.649,0.412-1.396,0.619-2.238,0.619c-0.615,0-1.203-0.141-1.765-0.422
		c-0.563-0.28-1.054-0.658-1.476-1.132c-0.421-0.474-0.76-1.018-1.014-1.633c-0.255-0.615-0.382-1.255-0.382-1.923v-2.687
		c0-0.685,0.122-1.334,0.368-1.949c0.246-0.614,0.584-1.154,1.015-1.62c0.43-0.465,0.931-0.83,1.501-1.093s1.181-0.395,1.831-0.395
		c0.843,0,1.554,0.207,2.133,0.619c0.58,0.413,1.019,0.874,1.317,1.382V6.813c0-0.228,0.109-0.412,0.329-0.553
		S234.907,6.049,235.206,6.049z M228.12,21.167c0,0.404,0.079,0.79,0.237,1.159s0.373,0.703,0.646,1.001
		c0.271,0.299,0.588,0.536,0.948,0.711c0.359,0.176,0.741,0.264,1.146,0.264c0.422,0,0.816-0.092,1.186-0.277
		c0.368-0.184,0.688-0.408,0.961-0.671s0.483-0.531,0.633-0.803c0.148-0.272,0.224-0.496,0.224-0.672v-3.397
		c0-0.474-0.088-0.904-0.264-1.291s-0.399-0.711-0.672-0.975c-0.272-0.264-0.588-0.465-0.948-0.606
		c-0.359-0.14-0.724-0.21-1.093-0.21c-0.421,0-0.813,0.088-1.172,0.263c-0.36,0.176-0.677,0.408-0.948,0.698
		c-0.272,0.29-0.487,0.619-0.646,0.988s-0.237,0.747-0.237,1.133V21.167z"/>
	<path fill="#6F7072" d="M240.499,7.656c0.369,0,0.685,0.123,0.948,0.369c0.264,0.246,0.396,0.536,0.396,0.869
		s-0.132,0.628-0.396,0.882c-0.264,0.255-0.579,0.382-0.948,0.382c-0.387,0-0.711-0.127-0.975-0.382
		c-0.264-0.254-0.395-0.549-0.395-0.882s0.131-0.623,0.395-0.869C239.788,7.779,240.112,7.656,240.499,7.656z M240.499,13.582
		c0.299,0,0.558,0.07,0.777,0.21c0.219,0.141,0.329,0.325,0.329,0.553v10.931c0,0.193-0.11,0.373-0.329,0.54
		c-0.22,0.167-0.479,0.25-0.777,0.25s-0.553-0.083-0.764-0.25s-0.316-0.347-0.316-0.54V14.346c0-0.228,0.105-0.413,0.316-0.553
		C239.946,13.652,240.2,13.582,240.499,13.582z"/>
	<path fill="#6F7072" d="M249.533,26.277c-0.913,0-1.699-0.132-2.357-0.396c-0.658-0.263-1.203-0.623-1.633-1.08
		c-0.431-0.457-0.751-0.997-0.962-1.62c-0.21-0.623-0.315-1.294-0.315-2.015v-2.634c0-0.702,0.105-1.365,0.315-1.989
		c0.211-0.623,0.531-1.167,0.962-1.633c0.43-0.465,0.975-0.83,1.633-1.093s1.436-0.395,2.331-0.395c0.579,0,1.106,0.057,1.58,0.171
		c0.475,0.115,0.883,0.259,1.225,0.435c0.343,0.175,0.606,0.373,0.791,0.592c0.184,0.22,0.276,0.426,0.276,0.619
		c0,0.229-0.088,0.465-0.264,0.711c-0.176,0.246-0.396,0.369-0.658,0.369c-0.141,0-0.276-0.048-0.408-0.145
		c-0.132-0.096-0.299-0.202-0.501-0.316c-0.202-0.114-0.452-0.219-0.75-0.316c-0.299-0.096-0.677-0.145-1.133-0.145
		c-1.089,0-1.896,0.276-2.423,0.83c-0.527,0.553-0.791,1.321-0.791,2.305v2.634c0,0.983,0.264,1.751,0.791,2.305
		c0.526,0.553,1.343,0.83,2.449,0.83c0.474,0,0.864-0.048,1.172-0.145c0.307-0.096,0.562-0.206,0.764-0.329
		c0.202-0.123,0.373-0.232,0.514-0.329s0.281-0.145,0.422-0.145c0.298,0,0.535,0.119,0.711,0.355
		c0.175,0.237,0.264,0.47,0.264,0.698c0,0.21-0.097,0.426-0.29,0.645c-0.193,0.22-0.466,0.421-0.816,0.606
		c-0.352,0.184-0.773,0.333-1.265,0.448C250.674,26.22,250.129,26.277,249.533,26.277z"/>
	<path fill="#6F7072" d="M259.462,13.424c0.913,0,1.689,0.145,2.331,0.435c0.641,0.29,1.163,0.671,1.567,1.146
		c0.403,0.474,0.693,1.019,0.869,1.633c0.175,0.615,0.264,1.247,0.264,1.896v6.743c0,0.229-0.102,0.417-0.304,0.566
		c-0.201,0.149-0.461,0.224-0.776,0.224c-0.299,0-0.54-0.075-0.725-0.224c-0.185-0.149-0.276-0.337-0.276-0.566v-1.054
		c-0.457,0.527-1.01,1.001-1.659,1.422c-0.65,0.421-1.423,0.632-2.318,0.632c-0.491,0-0.952-0.071-1.383-0.211
		s-0.808-0.355-1.132-0.646c-0.325-0.29-0.58-0.654-0.765-1.093c-0.184-0.439-0.276-0.957-0.276-1.554
		c0-0.737,0.149-1.339,0.448-1.804c0.298-0.465,0.72-0.838,1.264-1.119s1.194-0.474,1.949-0.58s1.589-0.158,2.502-0.158h1.265V18.56
		c0-0.386-0.053-0.772-0.158-1.159c-0.105-0.386-0.272-0.737-0.5-1.054c-0.229-0.316-0.527-0.57-0.896-0.764
		c-0.369-0.193-0.816-0.29-1.344-0.29c-0.457,0-0.843,0.04-1.159,0.118c-0.315,0.079-0.579,0.167-0.79,0.264
		c-0.21,0.097-0.386,0.184-0.526,0.263s-0.272,0.119-0.396,0.119c-0.263,0-0.465-0.123-0.605-0.369
		c-0.141-0.246-0.211-0.491-0.211-0.737c0-0.211,0.114-0.409,0.343-0.593c0.228-0.185,0.522-0.347,0.882-0.487
		c0.36-0.141,0.76-0.25,1.199-0.329C258.584,13.463,259.023,13.424,259.462,13.424z M262.307,20.456h-0.922
		c-0.563,0-1.103,0.022-1.62,0.066c-0.518,0.044-0.975,0.136-1.369,0.277c-0.396,0.141-0.711,0.347-0.948,0.619
		c-0.237,0.272-0.355,0.646-0.355,1.12c0,0.685,0.192,1.185,0.579,1.501c0.386,0.316,0.869,0.474,1.449,0.474
		c0.368,0,0.746-0.083,1.132-0.25c0.387-0.167,0.729-0.382,1.027-0.646c0.299-0.263,0.544-0.553,0.737-0.869
		c0.193-0.316,0.29-0.623,0.29-0.922V20.456z"/>
	<path fill="#6F7072" d="M268.812,6.049c0.298,0,0.557,0.07,0.776,0.211s0.33,0.325,0.33,0.553v18.464c0,0.193-0.11,0.373-0.33,0.54
		s-0.479,0.25-0.776,0.25c-0.316,0-0.575-0.083-0.777-0.25s-0.303-0.347-0.303-0.54V6.813c0-0.228,0.101-0.412,0.303-0.553
		S268.496,6.049,268.812,6.049z"/>
	<path fill="#6F7072" d="M287.802,11.843c-0.018-0.263-0.065-0.57-0.145-0.922c-0.079-0.351-0.237-0.68-0.475-0.987
		c-0.236-0.307-0.579-0.571-1.027-0.791c-0.447-0.219-1.04-0.329-1.777-0.329c-1.142,0-2.011,0.303-2.607,0.909
		c-0.598,0.606-0.896,1.55-0.896,2.832v7.928c0,1.282,0.303,2.226,0.908,2.832c0.606,0.606,1.497,0.909,2.674,0.909
		c0.737,0,1.316-0.105,1.738-0.316c0.421-0.211,0.746-0.474,0.975-0.79c0.228-0.316,0.382-0.654,0.461-1.014
		s0.136-0.698,0.171-1.014c0.053-0.509,0.422-0.764,1.106-0.764c0.368,0,0.646,0.079,0.829,0.237
		c0.185,0.158,0.277,0.492,0.277,1.001c0,0.65-0.132,1.26-0.396,1.831c-0.264,0.571-0.642,1.067-1.133,1.488
		s-1.093,0.75-1.804,0.987c-0.711,0.237-1.506,0.356-2.384,0.356c-0.772,0-1.501-0.102-2.187-0.303
		c-0.685-0.202-1.281-0.531-1.791-0.988c-0.509-0.456-0.913-1.049-1.211-1.778c-0.299-0.728-0.448-1.62-0.448-2.673v-7.928
		c0-1.054,0.149-1.945,0.448-2.673c0.298-0.729,0.706-1.321,1.225-1.778c0.518-0.457,1.119-0.786,1.804-0.988
		c0.686-0.202,1.413-0.303,2.187-0.303c0.878,0,1.668,0.119,2.37,0.356c0.702,0.237,1.3,0.562,1.791,0.975s0.869,0.896,1.133,1.448
		c0.264,0.553,0.396,1.155,0.396,1.804c0,0.51-0.093,0.839-0.277,0.988c-0.184,0.149-0.461,0.224-0.829,0.224
		C288.206,12.607,287.837,12.353,287.802,11.843z"/>
	<path fill="#6F7072" d="M296.283,13.424c0.913,0,1.689,0.145,2.331,0.435c0.641,0.29,1.163,0.671,1.567,1.146
		c0.403,0.474,0.693,1.019,0.869,1.633c0.175,0.615,0.264,1.247,0.264,1.896v6.743c0,0.229-0.102,0.417-0.304,0.566
		c-0.201,0.149-0.461,0.224-0.776,0.224c-0.299,0-0.54-0.075-0.725-0.224c-0.185-0.149-0.276-0.337-0.276-0.566v-1.054
		c-0.457,0.527-1.01,1.001-1.659,1.422c-0.65,0.421-1.423,0.632-2.318,0.632c-0.491,0-0.952-0.071-1.383-0.211
		s-0.808-0.355-1.132-0.646c-0.325-0.29-0.58-0.654-0.765-1.093c-0.184-0.439-0.276-0.957-0.276-1.554
		c0-0.737,0.149-1.339,0.448-1.804c0.298-0.465,0.72-0.838,1.264-1.119s1.194-0.474,1.949-0.58s1.589-0.158,2.502-0.158h1.265V18.56
		c0-0.386-0.053-0.772-0.158-1.159c-0.105-0.386-0.272-0.737-0.5-1.054c-0.229-0.316-0.527-0.57-0.896-0.764
		c-0.369-0.193-0.816-0.29-1.344-0.29c-0.457,0-0.843,0.04-1.159,0.118c-0.315,0.079-0.579,0.167-0.79,0.264
		c-0.21,0.097-0.386,0.184-0.526,0.263s-0.272,0.119-0.396,0.119c-0.263,0-0.465-0.123-0.605-0.369
		c-0.141-0.246-0.211-0.491-0.211-0.737c0-0.211,0.114-0.409,0.343-0.593c0.228-0.185,0.522-0.347,0.882-0.487
		c0.36-0.141,0.76-0.25,1.199-0.329C295.405,13.463,295.843,13.424,296.283,13.424z M299.127,20.456h-0.922
		c-0.563,0-1.103,0.022-1.62,0.066c-0.518,0.044-0.975,0.136-1.369,0.277c-0.396,0.141-0.711,0.347-0.948,0.619
		c-0.237,0.272-0.355,0.646-0.355,1.12c0,0.685,0.192,1.185,0.579,1.501c0.386,0.316,0.869,0.474,1.449,0.474
		c0.368,0,0.746-0.083,1.132-0.25c0.387-0.167,0.729-0.382,1.027-0.646c0.299-0.263,0.544-0.553,0.737-0.869
		c0.193-0.316,0.29-0.623,0.29-0.922V20.456z"/>
	<path fill="#6F7072" d="M309.847,15.399c-0.421,0-0.834,0.088-1.237,0.263c-0.404,0.176-0.76,0.431-1.067,0.764
		c-0.308,0.334-0.558,0.742-0.75,1.225c-0.194,0.483-0.29,1.023-0.29,1.62v6.005c0,0.193-0.11,0.373-0.329,0.54
		c-0.22,0.167-0.479,0.25-0.777,0.25c-0.316,0-0.575-0.083-0.777-0.25c-0.201-0.167-0.303-0.347-0.303-0.54V14.346
		c0-0.228,0.102-0.413,0.303-0.553c0.202-0.14,0.461-0.21,0.777-0.21c0.281,0,0.518,0.07,0.711,0.21
		c0.193,0.141,0.29,0.325,0.29,0.553v1.238c0.299-0.544,0.741-1.041,1.33-1.488c0.588-0.448,1.295-0.671,2.12-0.671h0.896
		c0.229,0,0.426,0.101,0.593,0.303c0.167,0.202,0.25,0.435,0.25,0.698c0,0.263-0.083,0.492-0.25,0.685
		c-0.167,0.193-0.364,0.29-0.593,0.29H309.847z"/>
	<path fill="#6F7072" d="M317.75,13.424c0.667,0,1.308,0.119,1.923,0.355c0.614,0.237,1.154,0.571,1.62,1.001
		c0.465,0.43,0.833,0.944,1.105,1.541c0.272,0.597,0.408,1.247,0.408,1.949c0,0.527-0.065,0.935-0.197,1.225
		c-0.132,0.29-0.308,0.51-0.526,0.659c-0.22,0.149-0.471,0.237-0.751,0.263c-0.281,0.026-0.57,0.04-0.869,0.04h-5.769v0.791
		c0,0.983,0.347,1.76,1.041,2.331c0.693,0.571,1.593,0.856,2.699,0.856c0.491,0,0.904-0.053,1.238-0.158
		c0.333-0.105,0.619-0.224,0.855-0.355c0.237-0.132,0.439-0.25,0.606-0.355c0.166-0.105,0.329-0.158,0.487-0.158
		c0.263,0,0.478,0.119,0.646,0.355c0.166,0.237,0.25,0.452,0.25,0.646c0,0.176-0.097,0.369-0.29,0.579
		c-0.193,0.211-0.47,0.413-0.829,0.606c-0.36,0.193-0.8,0.355-1.317,0.487c-0.519,0.132-1.093,0.198-1.726,0.198
		c-0.86,0-1.646-0.123-2.357-0.369c-0.711-0.246-1.325-0.592-1.844-1.04c-0.518-0.448-0.921-0.983-1.211-1.607
		c-0.29-0.623-0.435-1.321-0.435-2.094v-2.766c0-0.667,0.136-1.304,0.408-1.91c0.271-0.606,0.646-1.137,1.119-1.593
		c0.475-0.457,1.031-0.817,1.673-1.08C316.349,13.556,317.03,13.424,317.75,13.424z M319.567,18.981
		c0.456,0,0.764-0.053,0.922-0.158s0.237-0.333,0.237-0.685c0-0.386-0.075-0.759-0.224-1.119c-0.149-0.36-0.356-0.676-0.619-0.948
		c-0.264-0.272-0.58-0.491-0.948-0.659c-0.369-0.167-0.773-0.25-1.212-0.25c-0.421,0-0.813,0.075-1.172,0.224
		c-0.36,0.149-0.681,0.351-0.962,0.605c-0.28,0.255-0.5,0.558-0.658,0.909c-0.158,0.352-0.237,0.729-0.237,1.133v0.948H319.567z"/>
</g>
<g>
	<g>
		<path fill="#6F7072" d="M115.751,43.324h-3.794v4.396c0,0.14-0.061,0.245-0.182,0.315c-0.121,0.069-0.257,0.104-0.406,0.104
			c-0.149,0-0.285-0.035-0.406-0.104c-0.121-0.07-0.182-0.176-0.182-0.315v-9.408c0-0.14,0.061-0.243,0.182-0.308
			c0.122-0.065,0.257-0.098,0.406-0.098c0.149,0,0.285,0.033,0.406,0.098c0.122,0.065,0.182,0.168,0.182,0.308v4.032h3.794v-4.032
			c0-0.14,0.061-0.243,0.182-0.308c0.121-0.065,0.257-0.098,0.406-0.098c0.149,0,0.285,0.033,0.406,0.098
			c0.121,0.065,0.182,0.168,0.182,0.308v9.408c0,0.14-0.061,0.245-0.182,0.315c-0.122,0.069-0.257,0.104-0.406,0.104
			c-0.149,0-0.285-0.035-0.406-0.104c-0.122-0.07-0.182-0.176-0.182-0.315V43.324z"/>
		<path fill="#6F7072" d="M138.627,48.224c-0.42,0-0.814-0.054-1.183-0.161c-0.369-0.107-0.688-0.282-0.959-0.525
			c-0.271-0.242-0.483-0.557-0.637-0.944s-0.231-0.861-0.231-1.421v-4.215c0-0.56,0.077-1.033,0.231-1.42
			c0.154-0.388,0.366-0.703,0.637-0.945c0.271-0.243,0.59-0.418,0.959-0.525c0.369-0.107,0.763-0.161,1.183-0.161
			c0.42,0,0.814,0.054,1.183,0.161c0.369,0.107,0.691,0.283,0.966,0.525c0.275,0.242,0.49,0.558,0.644,0.945
			c0.154,0.387,0.231,0.86,0.231,1.42v4.215c0,0.56-0.077,1.033-0.231,1.421c-0.154,0.388-0.369,0.702-0.644,0.944
			c-0.275,0.243-0.598,0.418-0.966,0.525S139.048,48.224,138.627,48.224z M140.476,40.957c0-0.681-0.163-1.183-0.49-1.504
			c-0.327-0.322-0.78-0.483-1.358-0.483s-1.029,0.161-1.351,0.483c-0.322,0.321-0.483,0.823-0.483,1.504v4.215
			c0,0.682,0.161,1.183,0.483,1.505c0.322,0.321,0.772,0.483,1.351,0.483s1.031-0.162,1.358-0.483
			c0.327-0.322,0.49-0.823,0.49-1.505V40.957z"/>
		<path fill="#6F7072" d="M162.721,47.16c0.588,0,1.059-0.143,1.414-0.428c0.354-0.284,0.531-0.721,0.531-1.309
			c0-0.467-0.113-0.836-0.342-1.105c-0.229-0.271-0.514-0.495-0.854-0.673c-0.341-0.177-0.709-0.336-1.106-0.476
			c-0.397-0.141-0.766-0.315-1.106-0.525c-0.341-0.21-0.625-0.48-0.854-0.813c-0.229-0.33-0.343-0.781-0.343-1.351
			c0-0.513,0.096-0.938,0.287-1.274s0.436-0.602,0.735-0.797s0.63-0.333,0.994-0.413c0.364-0.079,0.719-0.119,1.064-0.119
			c0.252,0,0.52,0.019,0.805,0.056c0.285,0.038,0.549,0.093,0.791,0.168c0.243,0.075,0.445,0.17,0.609,0.287
			c0.163,0.117,0.245,0.254,0.245,0.413c0,0.112-0.044,0.247-0.134,0.405c-0.088,0.16-0.212,0.238-0.37,0.238
			c-0.085,0-0.175-0.027-0.273-0.084c-0.098-0.056-0.22-0.116-0.364-0.182s-0.322-0.126-0.531-0.182
			c-0.211-0.057-0.469-0.084-0.777-0.084c-0.261,0-0.506,0.025-0.735,0.076c-0.229,0.052-0.43,0.133-0.602,0.246
			c-0.173,0.111-0.311,0.261-0.413,0.447c-0.103,0.188-0.154,0.416-0.154,0.686c0,0.393,0.114,0.701,0.343,0.924
			c0.229,0.225,0.513,0.414,0.854,0.568c0.341,0.153,0.709,0.301,1.105,0.44c0.396,0.14,0.766,0.327,1.106,0.56
			c0.341,0.234,0.626,0.541,0.854,0.924s0.343,0.893,0.343,1.526c0,0.504-0.077,0.94-0.231,1.31
			c-0.154,0.368-0.366,0.674-0.637,0.916c-0.271,0.243-0.593,0.423-0.966,0.539c-0.374,0.117-0.784,0.176-1.232,0.176
			c-0.448,0-0.856-0.055-1.225-0.161c-0.369-0.107-0.682-0.243-0.938-0.406c-0.257-0.163-0.455-0.336-0.595-0.519
			c-0.14-0.182-0.21-0.348-0.21-0.496c0-0.141,0.054-0.282,0.161-0.428c0.107-0.145,0.226-0.217,0.357-0.217
			c0.103,0,0.208,0.059,0.315,0.176c0.107,0.116,0.247,0.247,0.42,0.392s0.39,0.275,0.651,0.392
			C161.974,47.102,162.311,47.16,162.721,47.16z"/>
		<path fill="#6F7072" d="M184.169,38.312c0-0.103,0.042-0.196,0.126-0.28s0.201-0.126,0.35-0.126h2.646
			c0.41,0,0.798,0.054,1.162,0.161c0.363,0.107,0.679,0.28,0.945,0.518c0.266,0.238,0.476,0.55,0.629,0.938
			c0.154,0.388,0.231,0.856,0.231,1.407v0.126c0,0.551-0.077,1.018-0.231,1.399c-0.153,0.383-0.368,0.695-0.644,0.938
			s-0.597,0.42-0.966,0.532c-0.369,0.111-0.764,0.168-1.184,0.168h-1.89v3.626c0,0.14-0.061,0.245-0.183,0.315
			c-0.121,0.069-0.256,0.104-0.405,0.104s-0.284-0.035-0.406-0.104c-0.121-0.07-0.182-0.176-0.182-0.315V38.312z M185.345,38.97
			v4.144h1.89c0.579,0,1.031-0.162,1.358-0.49c0.327-0.326,0.49-0.825,0.49-1.498v-0.168c0-0.681-0.163-1.183-0.49-1.504
			c-0.327-0.322-0.779-0.483-1.358-0.483H185.345z"/>
		<path fill="#6F7072" d="M208.459,38.312c0-0.14,0.061-0.243,0.182-0.308c0.121-0.065,0.257-0.098,0.406-0.098
			c0.148,0,0.285,0.033,0.406,0.098c0.121,0.065,0.182,0.168,0.182,0.308v9.408c0,0.14-0.061,0.245-0.182,0.315
			c-0.121,0.069-0.258,0.104-0.406,0.104c-0.149,0-0.285-0.035-0.406-0.104c-0.121-0.07-0.182-0.176-0.182-0.315V38.312z"/>
		<path fill="#6F7072" d="M233.729,37.906c0.141,0,0.245,0.056,0.315,0.168c0.069,0.112,0.104,0.233,0.104,0.364
			c0,0.14-0.035,0.269-0.104,0.385c-0.07,0.117-0.175,0.176-0.315,0.176h-2.254v8.722c0,0.14-0.061,0.245-0.182,0.315
			c-0.121,0.069-0.257,0.104-0.406,0.104s-0.285-0.035-0.406-0.104c-0.121-0.07-0.182-0.176-0.182-0.315v-8.722h-2.268
			c-0.131,0-0.234-0.057-0.309-0.168c-0.074-0.112-0.111-0.243-0.111-0.393c0-0.13,0.034-0.252,0.104-0.364
			c0.069-0.112,0.175-0.168,0.315-0.168H233.729z"/>
		<path fill="#6F7072" d="M251.299,48.14c-0.159,0-0.317-0.044-0.477-0.133c-0.158-0.089-0.237-0.208-0.237-0.357
			c0-0.019,0.009-0.056,0.027-0.112l2.856-9.31c0.047-0.14,0.14-0.243,0.28-0.308c0.14-0.065,0.289-0.098,0.447-0.098
			c0.159,0,0.309,0.035,0.448,0.105c0.141,0.07,0.233,0.17,0.28,0.301l2.855,9.31c0,0.02,0.003,0.035,0.008,0.049
			c0.004,0.015,0.007,0.031,0.007,0.05c0,0.14-0.08,0.259-0.238,0.356c-0.159,0.099-0.322,0.147-0.49,0.147
			c-0.103,0-0.191-0.021-0.266-0.063c-0.075-0.041-0.126-0.109-0.154-0.203l-0.616-2.086h-3.682l-0.616,2.086
			C251.677,48.051,251.533,48.14,251.299,48.14z M255.751,44.822l-1.555-5.265l-1.582,5.265H255.751z"/>
		<path fill="#6F7072" d="M276.374,48.14c-0.131,0-0.252-0.035-0.364-0.104c-0.112-0.07-0.168-0.176-0.168-0.315v-9.408
			c0-0.14,0.061-0.243,0.182-0.308c0.121-0.065,0.257-0.098,0.406-0.098s0.284,0.033,0.406,0.098
			c0.121,0.065,0.182,0.168,0.182,0.308v8.765h3.822c0.131,0,0.226,0.056,0.287,0.168c0.061,0.111,0.091,0.232,0.091,0.363
			s-0.03,0.252-0.091,0.364c-0.062,0.112-0.156,0.168-0.287,0.168H276.374z"/>
	</g>
</g>
<g>
	
		<line fill="none" stroke="#6F7072" stroke-width="0.7455" stroke-miterlimit="10" x1="86.234" y1="33.792" x2="321.752" y2="33.792"/>
	
		<line fill="none" stroke="#6F7072" stroke-width="0.7455" stroke-miterlimit="10" x1="86.234" y1="51.996" x2="321.752" y2="51.996"/>
</g>
</svg>
