<?xml version="1.0" encoding="utf-8"?>
<!-- Generator: Adobe Illustrator 15.1.0, SVG Export Plug-In . SVG Version: 6.00 Build 0)  -->
<!DOCTYPE svg PUBLIC "-//W3C//DTD SVG 1.1//EN" "http://www.w3.org/Graphics/SVG/1.1/DTD/svg11.dtd">
<svg version="1.1" id="Layer_1" xmlns="http://www.w3.org/2000/svg" xmlns:xlink="http://www.w3.org/1999/xlink" x="0px" y="0px"
	 width="320px" height="56px" viewBox="0 0 320 56" enable-background="new 0 0 320 56" xml:space="preserve">
<g>
	<path fill="#0D6A8D" d="M9.333,0.5C4.17,0.5,0,4.819,0,10.117v35.767C0,51.181,4.17,55.5,9.333,55.5H64.66l25.625-55H9.333z"/>
	<path fill="#FFDD00" d="M310.666,0.5H90.285l-25.625,55h246.006c5.14,0,9.334-4.319,9.334-9.616V10.117
		C320,4.819,315.806,0.5,310.666,0.5z"/>
</g>
<g>
	<path fill="#FFFFFF" d="M53.226,35.066c0,1.852-1.502,3.357-3.362,3.357c-1.853,0-3.356-1.506-3.356-3.357
		c0-1.857,1.504-3.362,3.356-3.362C51.724,31.704,53.226,33.209,53.226,35.066z"/>
	<circle fill="#FFFFFF" cx="32.565" cy="13.611" r="3.359"/>
	<path fill="#FFFFFF" d="M32.686,34.2H43.5c0,0,2.751,0.639,2.495,3.455c0,0-0.191,2.751-2.623,2.751H31.789
		c0,0-1.128-0.18-1.128-1.436c0,0,0.115-1.027,1.084-1.14h6.165l4.506-1.087l-0.512-0.969l-4.453,0.798h-5.82
		c0,0-3.423,0.854-1.883,3.994H15.484c0,0-1.541-0.283-1.598-1.88c0,0,0-1.487,1.655-1.717l12.21-1.138l-2.282-3.54h-6.677
		c0,0-1.312-0.229-1.37-1.655c0,0-0.171-1.709,1.885-1.882h6.046c0,0-0.569,1.486,0,2.282c0,0,1.027,2.396,4.852,0.803L32.686,34.2z
		"/>
	<path fill="#FFFFFF" d="M19.308,27.616l7.873-8.445c0,0,0.97-1.086,2.911-1.086h4.62c0,0,3.369,0.291,2.854,3.482l-2.511,6.621
		c0,0-0.457,0.854-1.083,1.138l-6.163,2.172c0,0-0.871,0.27-1.383-0.799c0,0-0.514-1.032,0.643-1.888l5.348-2.135l1.626-3.638
		l-0.985-0.348l-1.498,3.212l-3.894,1.454v-4.065l-4.065,4.367L19.308,27.616z"/>
	<path fill="#FFFFFF" d="M37.565,25.101v7.539h-4.928l-0.986-1.223l2.493-0.98c0,0,1.312-0.194,2.109-1.967L37.565,25.101z"/>
	<path fill="#FFFFFF" d="M47.837,39.654l-2.17,1.597c0,0-1.025,0.457-1.883,0.514H14.512c0,0-0.684,0-0.626,0.743v1.715
		c0,0-0.114,0.568,0.8,0.568h37.488c0,0,0.967-0.117,0.967-1.143v-3.081c0,0-0.284-1.028-0.911-1.028L47.837,39.654z"/>
</g>
<text transform="matrix(1 0 0 1 581.4004 646.1992)" fill="#231F20" font-family="'Dosis-SemiBold'" font-size="9">Physical Therapy Services</text>
<g>
	<path fill="#231F20" d="M106.336,22.339c0-0.168,0.066-0.312,0.198-0.432c0.132-0.12,0.312-0.18,0.54-0.18h3.51
		c0.552,0,1.068,0.069,1.548,0.207c0.48,0.138,0.897,0.366,1.251,0.684c0.354,0.318,0.633,0.729,0.837,1.233
		c0.204,0.504,0.306,1.116,0.306,1.836v0.144c0,0.72-0.105,1.332-0.315,1.836c-0.21,0.504-0.498,0.915-0.864,1.233
		c-0.366,0.318-0.795,0.549-1.287,0.693c-0.492,0.144-1.02,0.216-1.584,0.216h-2.232v4.446c0,0.204-0.099,0.36-0.297,0.468
		c-0.198,0.107-0.417,0.162-0.657,0.162c-0.24,0-0.459-0.055-0.657-0.162c-0.198-0.107-0.297-0.264-0.297-0.468V22.339z
		 M108.244,23.419v4.878h2.232c0.672,0,1.197-0.192,1.575-0.576c0.378-0.384,0.567-0.972,0.567-1.764v-0.216
		c0-0.792-0.189-1.377-0.567-1.755s-0.903-0.567-1.575-0.567H108.244z"/>
	<path fill="#231F20" d="M117.856,34.255c0,0.155-0.096,0.3-0.288,0.432s-0.414,0.198-0.666,0.198c-0.276,0-0.501-0.066-0.675-0.198
		c-0.174-0.132-0.261-0.276-0.261-0.432V21.889c0-0.18,0.087-0.327,0.261-0.441c0.174-0.114,0.399-0.171,0.675-0.171
		c0.252,0,0.474,0.057,0.666,0.171c0.192,0.114,0.288,0.261,0.288,0.441v5.724c0.168-0.348,0.45-0.663,0.846-0.945
		c0.396-0.282,0.882-0.423,1.458-0.423c0.42,0,0.819,0.093,1.197,0.279s0.711,0.441,0.999,0.765
		c0.288,0.324,0.516,0.702,0.684,1.134c0.168,0.432,0.252,0.888,0.252,1.368v4.464c0,0.204-0.099,0.36-0.297,0.468
		c-0.198,0.107-0.417,0.162-0.657,0.162c-0.216,0-0.426-0.055-0.63-0.162s-0.306-0.264-0.306-0.468v-4.464
		c0-0.229-0.048-0.456-0.144-0.684c-0.096-0.229-0.228-0.43-0.396-0.604s-0.36-0.315-0.576-0.423
		c-0.216-0.108-0.45-0.162-0.702-0.162c-0.216,0-0.429,0.042-0.639,0.126s-0.396,0.207-0.558,0.369
		c-0.162,0.162-0.292,0.36-0.387,0.594c-0.096,0.234-0.144,0.495-0.144,0.783V34.255z"/>
	<path fill="#231F20" d="M124.3,27.379c-0.048-0.06-0.072-0.144-0.072-0.252c0-0.12,0.042-0.234,0.126-0.342
		c0.083-0.108,0.186-0.204,0.306-0.288c0.12-0.083,0.252-0.15,0.396-0.198s0.282-0.072,0.414-0.072s0.249,0.027,0.351,0.081
		c0.102,0.054,0.177,0.141,0.225,0.261l2.268,5.85l1.944-5.85c0.06-0.12,0.138-0.207,0.234-0.261
		c0.096-0.054,0.198-0.081,0.306-0.081s0.237,0.024,0.387,0.072c0.15,0.048,0.288,0.114,0.414,0.198
		c0.126,0.084,0.234,0.183,0.324,0.297c0.09,0.114,0.135,0.237,0.135,0.369c0,0.036,0,0.075,0,0.117s-0.012,0.075-0.036,0.099
		l-2.664,7.038c-0.204,0.528-0.42,1.062-0.648,1.602c-0.228,0.54-0.501,1.026-0.819,1.458s-0.702,0.783-1.152,1.053
		c-0.45,0.271-0.993,0.405-1.629,0.405c-0.24,0-0.447-0.048-0.621-0.144c-0.174-0.097-0.261-0.318-0.261-0.666
		c0-0.217,0.039-0.405,0.117-0.567c0.078-0.161,0.213-0.243,0.405-0.243c0.228,0,0.479-0.057,0.756-0.171
		c0.276-0.114,0.537-0.294,0.783-0.54c0.246-0.246,0.465-0.555,0.657-0.927s0.318-0.81,0.378-1.313L124.3,27.379z"/>
	<path fill="#231F20" d="M135.802,33.57c0.3,0,0.546-0.026,0.738-0.08c0.192-0.055,0.348-0.127,0.468-0.217s0.204-0.194,0.252-0.314
		s0.072-0.24,0.072-0.36c0-0.312-0.108-0.555-0.324-0.729c-0.216-0.174-0.483-0.314-0.801-0.422
		c-0.318-0.108-0.666-0.213-1.044-0.315s-0.727-0.239-1.044-0.414c-0.318-0.174-0.585-0.405-0.801-0.692
		c-0.216-0.289-0.324-0.685-0.324-1.188c0-0.312,0.054-0.621,0.162-0.927c0.108-0.306,0.282-0.582,0.522-0.828
		c0.24-0.246,0.558-0.447,0.954-0.603c0.396-0.156,0.876-0.234,1.44-0.234c0.336,0,0.666,0.027,0.99,0.081
		c0.324,0.054,0.612,0.132,0.864,0.234c0.252,0.102,0.456,0.216,0.612,0.342c0.156,0.126,0.234,0.261,0.234,0.405
		c0,0.072-0.015,0.159-0.045,0.261c-0.03,0.102-0.078,0.201-0.144,0.297c-0.066,0.096-0.144,0.18-0.234,0.252
		c-0.09,0.072-0.189,0.108-0.297,0.108c-0.096,0-0.204-0.027-0.324-0.081c-0.12-0.054-0.258-0.114-0.414-0.18
		c-0.156-0.066-0.333-0.126-0.531-0.18c-0.198-0.054-0.423-0.081-0.675-0.081c-0.528,0-0.903,0.117-1.125,0.351
		c-0.222,0.234-0.333,0.465-0.333,0.693c0,0.264,0.108,0.465,0.324,0.603c0.216,0.139,0.486,0.258,0.81,0.36
		c0.324,0.103,0.675,0.204,1.053,0.306s0.729,0.25,1.053,0.441c0.324,0.191,0.594,0.449,0.81,0.773
		c0.216,0.324,0.324,0.756,0.324,1.297c0,0.768-0.273,1.377-0.819,1.826c-0.546,0.45-1.329,0.676-2.349,0.676
		c-0.444,0-0.855-0.043-1.233-0.127s-0.705-0.194-0.981-0.332c-0.276-0.139-0.492-0.295-0.648-0.469
		c-0.156-0.174-0.234-0.345-0.234-0.513s0.06-0.351,0.18-0.55c0.12-0.197,0.276-0.297,0.468-0.297c0.12,0,0.24,0.043,0.36,0.127
		c0.12,0.084,0.264,0.18,0.432,0.287c0.168,0.108,0.381,0.205,0.639,0.289C135.097,33.529,135.418,33.57,135.802,33.57z"/>
	<path fill="#231F20" d="M141.472,22.231c0.312,0,0.573,0.096,0.783,0.288c0.21,0.192,0.315,0.426,0.315,0.702
		c0,0.264-0.105,0.495-0.315,0.693c-0.21,0.198-0.471,0.297-0.783,0.297s-0.573-0.099-0.783-0.297
		c-0.21-0.198-0.315-0.429-0.315-0.693c0-0.276,0.105-0.51,0.315-0.702C140.899,22.327,141.16,22.231,141.472,22.231z
		 M141.472,26.353c0.276,0,0.504,0.057,0.684,0.171c0.18,0.114,0.27,0.261,0.27,0.441v7.29c0,0.155-0.09,0.3-0.27,0.432
		c-0.18,0.132-0.408,0.198-0.684,0.198c-0.276,0-0.501-0.066-0.675-0.198s-0.261-0.276-0.261-0.432v-7.29
		c0-0.18,0.087-0.327,0.261-0.441S141.196,26.353,141.472,26.353z"/>
	<path fill="#231F20" d="M147.862,35.029c-0.648,0-1.209-0.09-1.683-0.271c-0.475-0.181-0.864-0.429-1.17-0.747
		c-0.306-0.318-0.531-0.695-0.675-1.134s-0.216-0.915-0.216-1.431v-1.621c0-0.504,0.072-0.974,0.216-1.413
		c0.144-0.438,0.369-0.816,0.675-1.134c0.306-0.318,0.693-0.57,1.161-0.756c0.468-0.186,1.026-0.279,1.674-0.279
		c0.408,0,0.78,0.039,1.116,0.117s0.627,0.18,0.873,0.306c0.246,0.126,0.435,0.267,0.567,0.423c0.132,0.156,0.198,0.312,0.198,0.468
		c0,0.18-0.069,0.378-0.207,0.594c-0.138,0.216-0.321,0.324-0.549,0.324c-0.096,0-0.192-0.03-0.288-0.09
		c-0.096-0.06-0.213-0.123-0.351-0.189c-0.138-0.066-0.303-0.129-0.495-0.189s-0.432-0.09-0.72-0.09
		c-0.684,0-1.185,0.168-1.503,0.504s-0.477,0.804-0.477,1.403v1.621c0,0.6,0.159,1.068,0.477,1.403
		c0.318,0.337,0.825,0.505,1.521,0.505c0.3,0,0.546-0.03,0.738-0.091c0.192-0.06,0.357-0.129,0.495-0.207
		c0.138-0.077,0.254-0.146,0.351-0.207c0.096-0.06,0.198-0.09,0.306-0.09c0.252,0,0.45,0.103,0.594,0.306
		c0.144,0.205,0.216,0.402,0.216,0.594c0,0.156-0.072,0.315-0.216,0.478c-0.144,0.162-0.342,0.31-0.594,0.44
		c-0.252,0.133-0.552,0.24-0.9,0.324C148.648,34.986,148.27,35.029,147.862,35.029z"/>
	<path fill="#231F20" d="M154.792,26.245c0.66,0,1.221,0.099,1.683,0.297c0.462,0.198,0.837,0.459,1.125,0.783
		c0.288,0.324,0.498,0.696,0.63,1.116c0.132,0.42,0.198,0.852,0.198,1.295v4.519c0,0.168-0.087,0.315-0.261,0.44
		c-0.174,0.127-0.393,0.189-0.657,0.189c-0.24,0-0.444-0.063-0.612-0.189c-0.168-0.125-0.252-0.272-0.252-0.44v-0.63
		c-0.312,0.372-0.69,0.699-1.134,0.98c-0.444,0.282-0.972,0.424-1.584,0.424c-0.324,0-0.633-0.049-0.927-0.145
		s-0.549-0.243-0.765-0.441c-0.216-0.197-0.387-0.443-0.513-0.738c-0.126-0.293-0.189-0.645-0.189-1.053
		c0-0.504,0.102-0.924,0.306-1.26s0.492-0.6,0.864-0.792c0.372-0.191,0.816-0.327,1.332-0.405c0.516-0.078,1.086-0.117,1.71-0.117
		h0.792v-0.323c0-0.228-0.03-0.459-0.09-0.693c-0.06-0.234-0.162-0.443-0.306-0.63c-0.144-0.186-0.33-0.335-0.558-0.45
		s-0.504-0.171-0.828-0.171c-0.324,0-0.594,0.027-0.81,0.081c-0.216,0.054-0.396,0.117-0.54,0.189
		c-0.144,0.072-0.267,0.135-0.369,0.189c-0.102,0.054-0.195,0.081-0.279,0.081c-0.228,0-0.399-0.104-0.513-0.315
		c-0.114-0.209-0.171-0.423-0.171-0.639c0-0.156,0.083-0.306,0.252-0.45c0.167-0.144,0.384-0.267,0.648-0.369
		c0.264-0.102,0.555-0.183,0.873-0.243C154.165,26.275,154.48,26.245,154.792,26.245z M156.538,31.123h-0.45
		c-0.348,0-0.681,0.016-0.999,0.045s-0.597,0.09-0.837,0.18c-0.24,0.09-0.435,0.219-0.585,0.387
		c-0.15,0.168-0.225,0.396-0.225,0.685c0,0.407,0.111,0.705,0.333,0.891c0.222,0.187,0.501,0.279,0.837,0.279
		c0.228,0,0.456-0.054,0.684-0.162s0.435-0.245,0.621-0.414c0.186-0.168,0.336-0.36,0.45-0.576c0.114-0.216,0.171-0.432,0.171-0.647
		V31.123z"/>
	<path fill="#231F20" d="M161.451,21.277c0.265,0,0.489,0.057,0.676,0.171c0.186,0.114,0.279,0.261,0.279,0.441v12.366
		c0,0.155-0.094,0.3-0.279,0.432c-0.187,0.132-0.411,0.198-0.676,0.198c-0.275,0-0.5-0.066-0.674-0.198
		c-0.174-0.132-0.261-0.276-0.261-0.432V21.889c0-0.18,0.087-0.327,0.261-0.441C160.951,21.334,161.176,21.277,161.451,21.277z"/>
	<path fill="#231F20" d="M175.51,21.727c0.216,0,0.375,0.09,0.477,0.27c0.102,0.18,0.153,0.372,0.153,0.576
		c0,0.24-0.054,0.45-0.162,0.63c-0.108,0.18-0.265,0.27-0.468,0.27h-2.771v10.782c0,0.204-0.1,0.36-0.297,0.468
		c-0.199,0.107-0.418,0.162-0.658,0.162s-0.459-0.055-0.656-0.162c-0.198-0.107-0.297-0.264-0.297-0.468V23.473h-2.791
		c-0.203,0-0.359-0.087-0.467-0.261c-0.108-0.174-0.162-0.381-0.162-0.621c0-0.204,0.051-0.399,0.152-0.585s0.262-0.279,0.477-0.279
		H175.51z"/>
	<path fill="#231F20" d="M179.289,34.255c0,0.155-0.096,0.3-0.287,0.432c-0.192,0.132-0.414,0.198-0.666,0.198
		c-0.276,0-0.502-0.066-0.676-0.198s-0.261-0.276-0.261-0.432V21.889c0-0.18,0.087-0.327,0.261-0.441
		c0.174-0.114,0.399-0.171,0.676-0.171c0.252,0,0.474,0.057,0.666,0.171c0.191,0.114,0.287,0.261,0.287,0.441v5.724
		c0.168-0.348,0.451-0.663,0.847-0.945c0.396-0.282,0.882-0.423,1.458-0.423c0.42,0,0.818,0.093,1.197,0.279
		c0.377,0.186,0.711,0.441,0.998,0.765c0.289,0.324,0.516,0.702,0.685,1.134c0.168,0.432,0.252,0.888,0.252,1.368v4.464
		c0,0.204-0.099,0.36-0.297,0.468s-0.417,0.162-0.657,0.162c-0.216,0-0.426-0.055-0.63-0.162s-0.306-0.264-0.306-0.468v-4.464
		c0-0.229-0.049-0.456-0.145-0.684c-0.096-0.229-0.229-0.43-0.396-0.604s-0.359-0.315-0.575-0.423
		c-0.216-0.108-0.45-0.162-0.702-0.162c-0.216,0-0.43,0.042-0.639,0.126c-0.211,0.084-0.396,0.207-0.559,0.369
		c-0.162,0.162-0.291,0.36-0.387,0.594c-0.096,0.234-0.145,0.495-0.145,0.783V34.255z"/>
	<path fill="#231F20" d="M190.054,26.245c0.479,0,0.937,0.081,1.368,0.243s0.813,0.39,1.143,0.684s0.591,0.645,0.783,1.053
		c0.191,0.408,0.288,0.858,0.288,1.35c0,0.373-0.048,0.664-0.144,0.873c-0.097,0.211-0.22,0.363-0.369,0.459
		c-0.15,0.097-0.324,0.156-0.522,0.181s-0.399,0.036-0.603,0.036h-3.799v0.414c0,0.611,0.217,1.092,0.648,1.439
		c0.432,0.349,0.996,0.521,1.691,0.521c0.324,0,0.598-0.035,0.819-0.107s0.414-0.15,0.576-0.234s0.306-0.162,0.433-0.233
		c0.125-0.072,0.248-0.108,0.368-0.108c0.228,0,0.408,0.1,0.54,0.297c0.132,0.198,0.198,0.381,0.198,0.549
		c0,0.133-0.069,0.279-0.207,0.441s-0.339,0.313-0.603,0.45c-0.265,0.138-0.58,0.252-0.945,0.342
		c-0.366,0.091-0.777,0.136-1.233,0.136c-0.612,0-1.173-0.088-1.683-0.262s-0.951-0.416-1.323-0.729s-0.66-0.688-0.864-1.125
		s-0.306-0.928-0.306-1.467v-1.711c0-0.468,0.099-0.915,0.297-1.34c0.198-0.426,0.465-0.798,0.802-1.116
		c0.335-0.318,0.73-0.57,1.188-0.756C189.051,26.338,189.537,26.245,190.054,26.245z M191.188,29.953
		c0.264,0,0.441-0.036,0.531-0.108c0.09-0.071,0.135-0.216,0.135-0.433c0-0.479-0.174-0.887-0.521-1.223
		c-0.349-0.336-0.781-0.504-1.297-0.504c-0.252,0-0.488,0.042-0.711,0.126c-0.222,0.084-0.417,0.201-0.584,0.351
		c-0.169,0.15-0.301,0.327-0.396,0.531s-0.145,0.432-0.145,0.684v0.576H191.188z"/>
	<path fill="#231F20" d="M199.234,27.919c-0.277,0-0.543,0.06-0.802,0.18c-0.258,0.12-0.489,0.294-0.692,0.522
		c-0.205,0.228-0.369,0.507-0.496,0.837c-0.125,0.33-0.188,0.698-0.188,1.106v3.69c0,0.155-0.093,0.3-0.278,0.432
		c-0.187,0.132-0.418,0.198-0.693,0.198c-0.276,0-0.498-0.066-0.666-0.198s-0.252-0.276-0.252-0.432v-7.29
		c0-0.18,0.084-0.327,0.252-0.441s0.39-0.171,0.666-0.171c0.24,0,0.443,0.057,0.611,0.171s0.252,0.261,0.252,0.441v0.792
		c0.096-0.192,0.219-0.378,0.369-0.558s0.324-0.342,0.522-0.486s0.414-0.258,0.647-0.342c0.234-0.083,0.483-0.126,0.748-0.126h0.575
		c0.192,0,0.36,0.081,0.505,0.243c0.144,0.162,0.215,0.357,0.215,0.585c0,0.24-0.071,0.441-0.215,0.603
		c-0.145,0.162-0.313,0.243-0.505,0.243H199.234z"/>
	<path fill="#231F20" d="M204.363,26.245c0.66,0,1.221,0.099,1.684,0.297c0.461,0.198,0.836,0.459,1.125,0.783
		c0.287,0.324,0.497,0.696,0.629,1.116c0.133,0.42,0.199,0.852,0.199,1.295v4.519c0,0.168-0.088,0.315-0.262,0.44
		c-0.174,0.127-0.393,0.189-0.657,0.189c-0.239,0-0.444-0.063-0.612-0.189c-0.168-0.125-0.252-0.272-0.252-0.44v-0.63
		c-0.312,0.372-0.689,0.699-1.133,0.98c-0.445,0.282-0.973,0.424-1.584,0.424c-0.324,0-0.634-0.049-0.928-0.145
		s-0.549-0.243-0.766-0.441c-0.215-0.197-0.387-0.443-0.512-0.738c-0.127-0.293-0.189-0.645-0.189-1.053
		c0-0.504,0.102-0.924,0.306-1.26s0.492-0.6,0.864-0.792c0.371-0.191,0.816-0.327,1.332-0.405s1.086-0.117,1.71-0.117h0.792v-0.323
		c0-0.228-0.03-0.459-0.09-0.693c-0.061-0.234-0.162-0.443-0.307-0.63c-0.144-0.186-0.33-0.335-0.558-0.45s-0.504-0.171-0.828-0.171
		c-0.323,0-0.594,0.027-0.81,0.081c-0.217,0.054-0.396,0.117-0.541,0.189c-0.143,0.072-0.267,0.135-0.368,0.189
		c-0.103,0.054-0.195,0.081-0.279,0.081c-0.228,0-0.399-0.104-0.513-0.315c-0.114-0.209-0.171-0.423-0.171-0.639
		c0-0.156,0.083-0.306,0.252-0.45c0.167-0.144,0.384-0.267,0.647-0.369c0.264-0.102,0.555-0.183,0.873-0.243
		S204.051,26.245,204.363,26.245z M206.109,31.123h-0.45c-0.349,0-0.681,0.016-0.999,0.045s-0.598,0.09-0.837,0.18
		c-0.24,0.09-0.435,0.219-0.585,0.387s-0.225,0.396-0.225,0.685c0,0.407,0.11,0.705,0.332,0.891
		c0.223,0.187,0.502,0.279,0.838,0.279c0.228,0,0.455-0.054,0.684-0.162s0.436-0.245,0.621-0.414c0.186-0.168,0.336-0.36,0.45-0.576
		s0.171-0.432,0.171-0.647V31.123z"/>
	<path fill="#231F20" d="M210.844,26.353c0.252,0,0.461,0.057,0.629,0.171s0.252,0.261,0.252,0.441v0.648
		c0.205-0.348,0.514-0.663,0.928-0.945c0.414-0.282,0.908-0.423,1.484-0.423c0.444,0,0.864,0.093,1.26,0.279
		c0.396,0.186,0.741,0.441,1.035,0.765c0.295,0.324,0.525,0.702,0.693,1.134s0.252,0.888,0.252,1.368v1.656
		c0,0.467-0.087,0.918-0.261,1.35c-0.175,0.432-0.405,0.813-0.693,1.143s-0.624,0.594-1.008,0.793
		c-0.384,0.197-0.786,0.297-1.206,0.297c-0.54,0-1.025-0.142-1.458-0.424c-0.433-0.281-0.737-0.608-0.918-0.98v4.68
		c0,0.168-0.093,0.314-0.278,0.441c-0.188,0.125-0.418,0.188-0.693,0.188c-0.276,0-0.498-0.063-0.666-0.188
		c-0.168-0.127-0.252-0.273-0.252-0.441v-11.34c0-0.18,0.086-0.327,0.261-0.441C210.378,26.41,210.591,26.353,210.844,26.353z
		 M215.486,29.791c0-0.229-0.047-0.456-0.143-0.684c-0.097-0.229-0.232-0.43-0.406-0.604s-0.375-0.315-0.603-0.423
		c-0.228-0.108-0.468-0.162-0.72-0.162c-0.217,0-0.432,0.042-0.648,0.126c-0.216,0.084-0.408,0.207-0.576,0.369
		c-0.168,0.162-0.303,0.36-0.404,0.594c-0.103,0.234-0.153,0.495-0.153,0.783v2.07c0,0.107,0.045,0.246,0.136,0.414
		c0.09,0.168,0.215,0.332,0.377,0.494s0.354,0.301,0.576,0.414c0.223,0.114,0.465,0.172,0.729,0.172c0.24,0,0.472-0.055,0.693-0.162
		c0.223-0.108,0.417-0.252,0.586-0.433c0.168-0.181,0.303-0.384,0.404-0.612c0.102-0.228,0.152-0.461,0.152-0.701V29.791z"/>
	<path fill="#231F20" d="M218.205,27.379c-0.048-0.06-0.072-0.144-0.072-0.252c0-0.12,0.042-0.234,0.127-0.342
		c0.083-0.108,0.186-0.204,0.305-0.288c0.121-0.083,0.252-0.15,0.396-0.198s0.282-0.072,0.414-0.072s0.249,0.027,0.352,0.081
		c0.102,0.054,0.176,0.141,0.225,0.261l2.268,5.85l1.944-5.85c0.06-0.12,0.138-0.207,0.233-0.261
		c0.097-0.054,0.199-0.081,0.307-0.081s0.236,0.024,0.387,0.072s0.288,0.114,0.414,0.198c0.126,0.084,0.234,0.183,0.324,0.297
		c0.09,0.114,0.135,0.237,0.135,0.369c0,0.036,0,0.075,0,0.117s-0.012,0.075-0.035,0.099l-2.664,7.038
		c-0.205,0.528-0.421,1.062-0.648,1.602c-0.229,0.54-0.502,1.026-0.819,1.458s-0.702,0.783-1.151,1.053
		c-0.45,0.271-0.994,0.405-1.629,0.405c-0.24,0-0.447-0.048-0.621-0.144c-0.174-0.097-0.262-0.318-0.262-0.666
		c0-0.217,0.039-0.405,0.117-0.567c0.078-0.161,0.213-0.243,0.405-0.243c0.228,0,0.479-0.057,0.756-0.171s0.537-0.294,0.783-0.54
		c0.245-0.246,0.465-0.555,0.657-0.927c0.191-0.372,0.317-0.81,0.377-1.313L218.205,27.379z"/>
	<path fill="#231F20" d="M234.207,33.301c0.648,0,1.188-0.156,1.619-0.468c0.433-0.312,0.648-0.792,0.648-1.44
		c0-0.527-0.145-0.951-0.432-1.27c-0.288-0.316-0.648-0.587-1.08-0.809c-0.432-0.223-0.903-0.433-1.413-0.631
		c-0.511-0.198-0.981-0.438-1.413-0.72c-0.432-0.282-0.792-0.645-1.08-1.089c-0.287-0.444-0.432-1.026-0.432-1.746
		c0-0.66,0.126-1.212,0.378-1.656c0.252-0.444,0.579-0.801,0.981-1.071c0.401-0.27,0.848-0.459,1.34-0.567
		c0.492-0.108,0.979-0.162,1.459-0.162c0.287,0,0.621,0.021,0.998,0.063c0.379,0.042,0.735,0.114,1.072,0.216
		c0.335,0.102,0.62,0.234,0.854,0.396c0.233,0.162,0.351,0.369,0.351,0.621c0,0.096-0.016,0.201-0.045,0.315
		c-0.029,0.114-0.078,0.225-0.145,0.333c-0.065,0.108-0.149,0.198-0.252,0.27c-0.102,0.072-0.219,0.108-0.351,0.108
		c-0.12,0-0.246-0.036-0.378-0.108c-0.132-0.072-0.291-0.15-0.477-0.234c-0.187-0.084-0.408-0.162-0.666-0.234
		c-0.258-0.072-0.58-0.108-0.963-0.108c-0.66,0-1.201,0.129-1.621,0.387c-0.42,0.258-0.629,0.675-0.629,1.251
		c0,0.444,0.144,0.795,0.432,1.053c0.288,0.258,0.648,0.486,1.08,0.684c0.432,0.198,0.902,0.394,1.413,0.585
		c0.51,0.192,0.981,0.447,1.413,0.765c0.432,0.318,0.791,0.726,1.08,1.224c0.287,0.498,0.432,1.143,0.432,1.936
		c0,0.647-0.102,1.211-0.307,1.691c-0.203,0.48-0.488,0.879-0.854,1.197s-0.801,0.555-1.305,0.711
		c-0.505,0.156-1.05,0.234-1.638,0.234s-1.125-0.07-1.611-0.207c-0.486-0.139-0.906-0.313-1.26-0.522
		c-0.354-0.21-0.627-0.438-0.819-0.685c-0.192-0.245-0.288-0.482-0.288-0.711c0-0.107,0.021-0.222,0.063-0.342
		c0.043-0.119,0.103-0.23,0.181-0.332c0.077-0.103,0.168-0.187,0.271-0.253c0.102-0.065,0.207-0.099,0.314-0.099
		c0.156,0,0.313,0.075,0.468,0.225c0.155,0.15,0.345,0.313,0.567,0.486c0.222,0.174,0.492,0.336,0.81,0.486
		S233.703,33.301,234.207,33.301z"/>
	<path fill="#231F20" d="M243.404,26.245c0.48,0,0.937,0.081,1.368,0.243c0.433,0.162,0.813,0.39,1.144,0.684
		s0.59,0.645,0.783,1.053c0.191,0.408,0.287,0.858,0.287,1.35c0,0.373-0.048,0.664-0.144,0.873c-0.097,0.211-0.22,0.363-0.369,0.459
		c-0.15,0.097-0.324,0.156-0.522,0.181c-0.197,0.024-0.398,0.036-0.603,0.036h-3.798v0.414c0,0.611,0.216,1.092,0.648,1.439
		c0.432,0.349,0.995,0.521,1.691,0.521c0.324,0,0.597-0.035,0.818-0.107c0.223-0.072,0.414-0.15,0.576-0.234
		s0.307-0.162,0.433-0.233c0.126-0.072,0.249-0.108,0.368-0.108c0.229,0,0.408,0.1,0.541,0.297c0.131,0.198,0.197,0.381,0.197,0.549
		c0,0.133-0.068,0.279-0.207,0.441c-0.138,0.162-0.339,0.313-0.603,0.45c-0.265,0.138-0.579,0.252-0.944,0.342
		c-0.367,0.091-0.777,0.136-1.234,0.136c-0.611,0-1.172-0.088-1.682-0.262c-0.511-0.174-0.951-0.416-1.324-0.729
		c-0.371-0.313-0.66-0.688-0.863-1.125c-0.205-0.438-0.307-0.928-0.307-1.467v-1.711c0-0.468,0.1-0.915,0.297-1.34
		c0.199-0.426,0.465-0.798,0.802-1.116c0.335-0.318,0.731-0.57,1.188-0.756C242.402,26.338,242.889,26.245,243.404,26.245z
		 M244.539,29.953c0.264,0,0.44-0.036,0.531-0.108c0.09-0.071,0.135-0.216,0.135-0.433c0-0.479-0.174-0.887-0.522-1.223
		s-0.78-0.504-1.296-0.504c-0.252,0-0.489,0.042-0.711,0.126c-0.223,0.084-0.418,0.201-0.585,0.351
		c-0.169,0.15-0.3,0.327-0.396,0.531c-0.097,0.204-0.145,0.432-0.145,0.684v0.576H244.539z"/>
	<path fill="#231F20" d="M252.584,27.919c-0.275,0-0.543,0.06-0.801,0.18c-0.258,0.12-0.488,0.294-0.693,0.522
		c-0.203,0.228-0.369,0.507-0.494,0.837c-0.127,0.33-0.189,0.698-0.189,1.106v3.69c0,0.155-0.093,0.3-0.279,0.432
		c-0.186,0.132-0.416,0.198-0.692,0.198s-0.499-0.066-0.666-0.198c-0.169-0.132-0.252-0.276-0.252-0.432v-7.29
		c0-0.18,0.083-0.327,0.252-0.441c0.167-0.114,0.39-0.171,0.666-0.171c0.239,0,0.444,0.057,0.612,0.171s0.252,0.261,0.252,0.441
		v0.792c0.096-0.192,0.219-0.378,0.369-0.558c0.149-0.18,0.323-0.342,0.521-0.486c0.197-0.144,0.414-0.258,0.648-0.342
		c0.233-0.083,0.482-0.126,0.746-0.126h0.576c0.191,0,0.36,0.081,0.504,0.243c0.145,0.162,0.217,0.357,0.217,0.585
		c0,0.24-0.072,0.441-0.217,0.603c-0.144,0.162-0.313,0.243-0.504,0.243H252.584z"/>
	<path fill="#231F20" d="M254.258,27.397c-0.023-0.036-0.045-0.084-0.063-0.144c-0.019-0.06-0.027-0.114-0.027-0.162
		c0-0.108,0.042-0.213,0.126-0.315c0.083-0.102,0.187-0.189,0.306-0.261c0.12-0.072,0.252-0.129,0.396-0.171
		c0.144-0.042,0.281-0.063,0.414-0.063c0.132,0,0.248,0.024,0.351,0.072c0.103,0.048,0.177,0.138,0.226,0.27l2.142,5.688
		l2.142-5.652c0.084-0.252,0.276-0.378,0.576-0.378c0.096,0,0.217,0.021,0.36,0.063s0.282,0.099,0.413,0.171
		c0.133,0.072,0.244,0.159,0.334,0.261s0.135,0.207,0.135,0.315c0,0.084-0.024,0.186-0.072,0.306l-3.023,7.29
		c-0.061,0.132-0.172,0.228-0.334,0.288c-0.161,0.061-0.338,0.09-0.53,0.09c-0.204,0-0.384-0.029-0.54-0.09
		s-0.264-0.156-0.324-0.288L254.258,27.397z"/>
	<path fill="#231F20" d="M264.193,22.231c0.313,0,0.574,0.096,0.783,0.288c0.211,0.192,0.315,0.426,0.315,0.702
		c0,0.264-0.104,0.495-0.315,0.693c-0.209,0.198-0.471,0.297-0.783,0.297c-0.312,0-0.572-0.099-0.782-0.297
		c-0.21-0.198-0.315-0.429-0.315-0.693c0-0.276,0.105-0.51,0.315-0.702C263.621,22.327,263.882,22.231,264.193,22.231z
		 M264.193,26.353c0.277,0,0.505,0.057,0.685,0.171c0.181,0.114,0.271,0.261,0.271,0.441v7.29c0,0.155-0.09,0.3-0.271,0.432
		c-0.18,0.132-0.407,0.198-0.685,0.198c-0.275,0-0.5-0.066-0.674-0.198s-0.262-0.276-0.262-0.432v-7.29
		c0-0.18,0.088-0.327,0.262-0.441S263.918,26.353,264.193,26.353z"/>
	<path fill="#231F20" d="M270.584,35.029c-0.648,0-1.209-0.09-1.683-0.271c-0.475-0.181-0.864-0.429-1.171-0.747
		c-0.305-0.318-0.53-0.695-0.674-1.134c-0.145-0.438-0.217-0.915-0.217-1.431v-1.621c0-0.504,0.072-0.974,0.217-1.413
		c0.144-0.438,0.369-0.816,0.674-1.134c0.307-0.318,0.693-0.57,1.162-0.756c0.468-0.186,1.025-0.279,1.674-0.279
		c0.408,0,0.779,0.039,1.115,0.117s0.627,0.18,0.873,0.306s0.436,0.267,0.567,0.423c0.132,0.156,0.198,0.312,0.198,0.468
		c0,0.18-0.069,0.378-0.207,0.594c-0.139,0.216-0.321,0.324-0.549,0.324c-0.097,0-0.192-0.03-0.288-0.09
		c-0.097-0.06-0.214-0.123-0.351-0.189c-0.139-0.066-0.304-0.129-0.496-0.189c-0.191-0.06-0.432-0.09-0.72-0.09
		c-0.684,0-1.185,0.168-1.503,0.504s-0.477,0.804-0.477,1.403v1.621c0,0.6,0.158,1.068,0.477,1.403
		c0.318,0.337,0.825,0.505,1.521,0.505c0.299,0,0.545-0.03,0.738-0.091c0.191-0.06,0.356-0.129,0.494-0.207
		c0.139-0.077,0.255-0.146,0.352-0.207c0.096-0.06,0.197-0.09,0.306-0.09c0.252,0,0.45,0.103,0.595,0.306
		c0.143,0.205,0.215,0.402,0.215,0.594c0,0.156-0.072,0.315-0.215,0.478c-0.145,0.162-0.343,0.31-0.595,0.44
		c-0.252,0.133-0.552,0.24-0.899,0.324C271.37,34.986,270.992,35.029,270.584,35.029z"/>
	<path fill="#231F20" d="M278.127,26.245c0.479,0,0.936,0.081,1.367,0.243s0.813,0.39,1.143,0.684s0.592,0.645,0.783,1.053
		c0.192,0.408,0.289,0.858,0.289,1.35c0,0.373-0.049,0.664-0.145,0.873c-0.096,0.211-0.219,0.363-0.369,0.459
		c-0.15,0.097-0.324,0.156-0.521,0.181c-0.199,0.024-0.399,0.036-0.604,0.036h-3.798v0.414c0,0.611,0.216,1.092,0.647,1.439
		c0.433,0.349,0.996,0.521,1.692,0.521c0.324,0,0.597-0.035,0.819-0.107c0.222-0.072,0.414-0.15,0.576-0.234
		s0.306-0.162,0.432-0.233c0.126-0.072,0.248-0.108,0.369-0.108c0.228,0,0.408,0.1,0.539,0.297c0.133,0.198,0.199,0.381,0.199,0.549
		c0,0.133-0.07,0.279-0.207,0.441c-0.139,0.162-0.34,0.313-0.604,0.45s-0.579,0.252-0.945,0.342
		c-0.365,0.091-0.777,0.136-1.232,0.136c-0.612,0-1.174-0.088-1.684-0.262s-0.951-0.416-1.322-0.729
		c-0.373-0.313-0.66-0.688-0.864-1.125s-0.306-0.928-0.306-1.467v-1.711c0-0.468,0.099-0.915,0.297-1.34
		c0.197-0.426,0.465-0.798,0.801-1.116s0.731-0.57,1.188-0.756S277.61,26.245,278.127,26.245z M279.26,29.953
		c0.264,0,0.441-0.036,0.531-0.108c0.09-0.071,0.135-0.216,0.135-0.433c0-0.479-0.174-0.887-0.521-1.223s-0.78-0.504-1.296-0.504
		c-0.252,0-0.489,0.042-0.711,0.126c-0.222,0.084-0.417,0.201-0.585,0.351c-0.168,0.15-0.301,0.327-0.396,0.531
		s-0.144,0.432-0.144,0.684v0.576H279.26z"/>
	<path fill="#231F20" d="M285.775,33.57c0.301,0,0.547-0.026,0.738-0.08c0.192-0.055,0.348-0.127,0.469-0.217
		c0.119-0.09,0.203-0.194,0.252-0.314c0.047-0.12,0.072-0.24,0.072-0.36c0-0.312-0.108-0.555-0.324-0.729
		c-0.217-0.174-0.483-0.314-0.801-0.422c-0.318-0.108-0.666-0.213-1.045-0.315c-0.377-0.103-0.727-0.239-1.043-0.414
		c-0.318-0.174-0.586-0.405-0.802-0.692c-0.216-0.289-0.323-0.685-0.323-1.188c0-0.312,0.053-0.621,0.161-0.927
		c0.108-0.306,0.282-0.582,0.522-0.828c0.24-0.246,0.558-0.447,0.953-0.603c0.396-0.156,0.877-0.234,1.44-0.234
		c0.336,0,0.666,0.027,0.99,0.081c0.323,0.054,0.612,0.132,0.864,0.234c0.252,0.102,0.455,0.216,0.611,0.342
		s0.234,0.261,0.234,0.405c0,0.072-0.016,0.159-0.045,0.261c-0.03,0.102-0.078,0.201-0.145,0.297
		c-0.066,0.096-0.144,0.18-0.233,0.252c-0.091,0.072-0.188,0.108-0.298,0.108c-0.096,0-0.203-0.027-0.323-0.081
		c-0.12-0.054-0.259-0.114-0.414-0.18c-0.156-0.066-0.333-0.126-0.531-0.18c-0.198-0.054-0.423-0.081-0.675-0.081
		c-0.528,0-0.903,0.117-1.125,0.351c-0.223,0.234-0.333,0.465-0.333,0.693c0,0.264,0.108,0.465,0.324,0.603
		c0.216,0.139,0.485,0.258,0.81,0.36s0.676,0.204,1.053,0.306c0.379,0.102,0.729,0.25,1.054,0.441
		c0.323,0.191,0.594,0.449,0.81,0.773c0.217,0.324,0.324,0.756,0.324,1.297c0,0.768-0.273,1.377-0.818,1.826
		c-0.547,0.45-1.33,0.676-2.35,0.676c-0.444,0-0.855-0.043-1.232-0.127c-0.379-0.084-0.705-0.194-0.981-0.332
		c-0.276-0.139-0.492-0.295-0.647-0.469c-0.156-0.174-0.234-0.345-0.234-0.513s0.06-0.351,0.18-0.55
		c0.119-0.197,0.275-0.297,0.468-0.297c0.12,0,0.24,0.043,0.36,0.127c0.119,0.084,0.264,0.18,0.432,0.287
		c0.168,0.108,0.381,0.205,0.639,0.289S285.393,33.57,285.775,33.57z"/>
</g>
</svg>
