<?xml version="1.0" encoding="utf-8"?>
<!-- Generator: Adobe Illustrator 15.1.0, SVG Export Plug-In . SVG Version: 6.00 Build 0)  -->
<!DOCTYPE svg PUBLIC "-//W3C//DTD SVG 1.1//EN" "http://www.w3.org/Graphics/SVG/1.1/DTD/svg11.dtd">
<svg version="1.1" id="Layer_1" xmlns="http://www.w3.org/2000/svg" xmlns:xlink="http://www.w3.org/1999/xlink" x="0px" y="0px"
	 width="320px" height="56px" viewBox="0 0 320 56" enable-background="new 0 0 320 56" xml:space="preserve">
<text transform="matrix(1 0 0 1 581.4004 646.1992)" fill="#231F20" font-family="'Dosis-SemiBold'" font-size="9">Physical Therapy Services</text>
<g>
	<g>
		<path fill="#0D6A8D" d="M9.333,0.5C4.17,0.5,0,4.819,0,10.117v35.767C0,51.181,4.17,55.5,9.333,55.5H64.66l25.625-55H9.333z"/>
		<path fill="#FFDD00" d="M310.666,0.5H90.285l-25.625,55h246.006c5.14,0,9.334-4.319,9.334-9.616V10.117
			C320,4.819,315.806,0.5,310.666,0.5z"/>
	</g>
	<path fill="#FFFFFF" d="M52.804,23.021L35.166,10.798c-0.367-0.341-1.021-0.3-1.317,0.087L16.333,23.021
		c-0.31,0.214-0.441,0.602-0.331,0.959c0.11,0.356,0.442,0.6,0.815,0.6h2.984v17.3c0,0.474,0.381,0.856,0.854,0.856H34.31
		c0.474,0,0.856-0.383,0.856-0.856v-4.446h3.257c0.475,0,0.856-0.382,0.856-0.856v-3.505c0.809-0.351,1.377-1.152,1.377-2.086
		c0-1.25-1.014-2.267-2.266-2.267c-1.25,0-2.267,1.017-2.267,2.267c0,0.96,0.604,1.769,1.445,2.099v2.64H34.37
		c-0.021-0.003-0.038-0.014-0.06-0.014h-2.762v-2.634c0.822-0.342,1.402-1.149,1.402-2.091c0-1.25-1.017-2.267-2.266-2.267
		c-1.252,0-2.267,1.017-2.267,2.267c0,0.952,0.589,1.76,1.421,2.096v3.483c0,0.475,0.381,0.855,0.854,0.855h2.762v3.604H21.514
		V23.725c0-0.473-0.386-0.855-0.857-0.855h-1.1l15.012-10.403l15.016,10.403h-1.103c-0.473,0-0.854,0.383-0.854,0.855v17.301h-3.524
		c-0.318-1.133-1.347-1.971-2.584-1.971c-1.482,0-2.69,1.205-2.69,2.685c0,1.482,1.208,2.692,2.69,2.692
		c1.13,0,2.097-0.703,2.495-1.694h4.467c0.472,0,0.854-0.383,0.854-0.856v-17.3h2.984c0.375,0,0.706-0.244,0.815-0.6
		C53.247,23.623,53.113,23.235,52.804,23.021z M41.52,42.722c-0.538,0-0.979-0.44-0.979-0.982c0-0.537,0.441-0.976,0.979-0.976
		c0.542,0,0.98,0.438,0.98,0.976C42.5,42.281,42.062,42.722,41.52,42.722z"/>
	<g>
		<path fill="#231F20" d="M165.618,28.819h-4.481v5.436c0,0.204-0.1,0.36-0.298,0.468c-0.198,0.107-0.417,0.162-0.657,0.162
			c-0.24,0-0.459-0.055-0.657-0.162c-0.198-0.107-0.297-0.264-0.297-0.468V22.339c0-0.216,0.099-0.372,0.297-0.468
			c0.198-0.096,0.417-0.144,0.657-0.144c0.24,0,0.459,0.048,0.657,0.144c0.198,0.096,0.298,0.252,0.298,0.468v4.968h4.481v-4.968
			c0-0.216,0.099-0.372,0.297-0.468c0.198-0.096,0.417-0.144,0.657-0.144s0.459,0.048,0.656,0.144
			c0.199,0.096,0.297,0.252,0.297,0.468v11.916c0,0.204-0.098,0.36-0.297,0.468c-0.197,0.107-0.416,0.162-0.656,0.162
			s-0.459-0.055-0.657-0.162s-0.297-0.264-0.297-0.468V28.819z"/>
		<path fill="#231F20" d="M172.998,26.245c0.492,0,0.963,0.093,1.413,0.279s0.846,0.441,1.188,0.765
			c0.342,0.324,0.614,0.702,0.818,1.134s0.307,0.888,0.307,1.368v1.656c0,0.467-0.103,0.918-0.307,1.35s-0.477,0.813-0.818,1.143
			c-0.343,0.33-0.738,0.594-1.188,0.793c-0.45,0.197-0.921,0.297-1.413,0.297c-0.504,0-0.98-0.1-1.432-0.297
			c-0.449-0.199-0.846-0.463-1.188-0.793s-0.611-0.711-0.811-1.143c-0.197-0.432-0.297-0.883-0.297-1.35v-1.656
			c0-0.469,0.1-0.918,0.297-1.35c0.199-0.432,0.465-0.81,0.802-1.134c0.336-0.324,0.729-0.582,1.179-0.774
			C171.999,26.341,172.482,26.245,172.998,26.245z M174.834,29.791c0-0.229-0.048-0.456-0.145-0.684
			c-0.096-0.229-0.228-0.43-0.396-0.604s-0.362-0.315-0.585-0.423c-0.223-0.108-0.459-0.162-0.711-0.162s-0.492,0.054-0.721,0.162
			c-0.228,0.108-0.422,0.25-0.584,0.423s-0.291,0.375-0.387,0.604c-0.097,0.228-0.145,0.455-0.145,0.684v1.656
			c0,0.24,0.048,0.474,0.145,0.701c0.096,0.229,0.225,0.432,0.387,0.612s0.356,0.324,0.584,0.433
			c0.229,0.107,0.469,0.162,0.721,0.162s0.488-0.055,0.711-0.162c0.223-0.108,0.417-0.252,0.585-0.433s0.3-0.384,0.396-0.612
			c0.097-0.228,0.145-0.461,0.145-0.701V29.791z"/>
		<path fill="#231F20" d="M183.618,29.773c0-0.564-0.169-1.015-0.504-1.351c-0.337-0.336-0.726-0.504-1.17-0.504
			c-0.216,0-0.423,0.039-0.621,0.117c-0.198,0.078-0.376,0.198-0.531,0.36c-0.155,0.162-0.282,0.36-0.378,0.594
			s-0.145,0.5-0.145,0.801v4.464c0,0.155-0.096,0.3-0.287,0.432c-0.192,0.132-0.414,0.198-0.666,0.198
			c-0.276,0-0.502-0.066-0.676-0.198s-0.26-0.276-0.26-0.432v-7.29c0-0.18,0.086-0.327,0.26-0.441s0.399-0.171,0.676-0.171
			c0.228,0,0.426,0.057,0.594,0.171s0.252,0.261,0.252,0.441v0.648c0.204-0.348,0.501-0.663,0.891-0.945
			c0.391-0.282,0.892-0.423,1.504-0.423c0.539,0,1.017,0.165,1.431,0.495s0.723,0.765,0.927,1.305
			c0.313-0.612,0.711-1.065,1.197-1.359c0.486-0.293,0.992-0.441,1.521-0.441c0.407,0,0.801,0.078,1.178,0.234
			c0.379,0.156,0.711,0.384,1,0.684c0.287,0.3,0.519,0.672,0.692,1.116s0.261,0.948,0.261,1.512v4.464
			c0,0.155-0.093,0.3-0.278,0.432c-0.187,0.132-0.411,0.198-0.675,0.198c-0.24,0-0.457-0.066-0.648-0.198s-0.288-0.276-0.288-0.432
			v-4.464c0-0.313-0.048-0.586-0.144-0.819c-0.097-0.234-0.223-0.432-0.379-0.594c-0.156-0.162-0.336-0.282-0.539-0.36
			c-0.205-0.078-0.408-0.117-0.612-0.117c-0.216,0-0.423,0.042-0.621,0.126s-0.378,0.204-0.54,0.36
			c-0.162,0.156-0.291,0.351-0.387,0.585c-0.096,0.233-0.145,0.495-0.145,0.783v4.519c0,0.215-0.099,0.371-0.297,0.467
			c-0.197,0.097-0.417,0.145-0.656,0.145c-0.217,0-0.427-0.048-0.631-0.145c-0.204-0.096-0.306-0.252-0.306-0.467V29.773z"/>
		<path fill="#231F20" d="M196.092,26.245c0.48,0,0.937,0.081,1.368,0.243c0.433,0.162,0.813,0.39,1.144,0.684
			s0.59,0.645,0.783,1.053c0.191,0.408,0.287,0.858,0.287,1.35c0,0.373-0.048,0.664-0.144,0.873
			c-0.097,0.211-0.22,0.363-0.369,0.459c-0.15,0.097-0.324,0.156-0.522,0.181c-0.197,0.024-0.398,0.036-0.603,0.036h-3.798v0.414
			c0,0.611,0.216,1.092,0.648,1.439c0.432,0.349,0.995,0.521,1.691,0.521c0.324,0,0.597-0.035,0.818-0.107
			c0.223-0.072,0.414-0.15,0.576-0.234s0.307-0.162,0.433-0.233c0.126-0.072,0.249-0.108,0.368-0.108c0.229,0,0.408,0.1,0.541,0.297
			c0.131,0.198,0.197,0.381,0.197,0.549c0,0.133-0.068,0.279-0.207,0.441c-0.138,0.162-0.339,0.313-0.603,0.45
			c-0.265,0.138-0.579,0.252-0.944,0.342c-0.367,0.091-0.777,0.136-1.234,0.136c-0.611,0-1.172-0.088-1.682-0.262
			c-0.511-0.174-0.951-0.416-1.324-0.729c-0.371-0.313-0.66-0.688-0.863-1.125c-0.205-0.438-0.307-0.928-0.307-1.467v-1.711
			c0-0.468,0.1-0.915,0.297-1.34c0.199-0.426,0.465-0.798,0.802-1.116c0.335-0.318,0.731-0.57,1.188-0.756
			C195.09,26.338,195.576,26.245,196.092,26.245z M197.227,29.953c0.264,0,0.44-0.036,0.531-0.108
			c0.09-0.071,0.135-0.216,0.135-0.433c0-0.479-0.174-0.887-0.522-1.223s-0.78-0.504-1.296-0.504c-0.252,0-0.489,0.042-0.711,0.126
			c-0.223,0.084-0.418,0.201-0.585,0.351c-0.169,0.15-0.3,0.327-0.396,0.531c-0.097,0.204-0.145,0.432-0.145,0.684v0.576H197.227z"
			/>
		<path fill="#231F20" d="M211.051,25.345c-0.012-0.156-0.043-0.345-0.09-0.567c-0.049-0.222-0.145-0.432-0.289-0.63
			c-0.144-0.198-0.351-0.369-0.621-0.513c-0.27-0.144-0.639-0.216-1.106-0.216c-0.696,0-1.229,0.189-1.603,0.567
			c-0.371,0.378-0.557,0.963-0.557,1.755v5.238c0,0.793,0.186,1.377,0.557,1.756c0.373,0.377,0.918,0.566,1.639,0.566
			c0.456,0,0.818-0.068,1.089-0.207c0.271-0.138,0.474-0.309,0.612-0.514c0.138-0.203,0.228-0.422,0.27-0.656s0.075-0.453,0.1-0.657
			c0.023-0.239,0.119-0.405,0.287-0.495s0.385-0.135,0.648-0.135c0.336,0,0.582,0.066,0.738,0.198s0.234,0.396,0.234,0.792
			c0,0.492-0.1,0.945-0.297,1.359c-0.199,0.414-0.478,0.771-0.838,1.07c-0.359,0.301-0.792,0.531-1.296,0.693
			s-1.062,0.242-1.674,0.242c-0.54,0-1.054-0.071-1.539-0.215c-0.485-0.145-0.909-0.375-1.269-0.693
			c-0.36-0.318-0.646-0.732-0.855-1.242s-0.314-1.131-0.314-1.863v-5.238c0-0.732,0.104-1.353,0.314-1.863s0.498-0.924,0.864-1.242
			c0.366-0.318,0.792-0.549,1.278-0.693c0.485-0.144,0.998-0.216,1.539-0.216c0.611,0,1.17,0.081,1.674,0.243
			s0.936,0.387,1.295,0.675c0.361,0.288,0.637,0.63,0.828,1.026c0.192,0.396,0.289,0.834,0.289,1.314
			c0,0.408-0.078,0.675-0.234,0.801s-0.396,0.189-0.721,0.189c-0.287,0-0.516-0.051-0.684-0.153S211.063,25.561,211.051,25.345z"/>
		<path fill="#231F20" d="M217.26,26.245c0.66,0,1.221,0.099,1.684,0.297c0.462,0.198,0.837,0.459,1.125,0.783
			c0.288,0.324,0.498,0.696,0.63,1.116s0.198,0.852,0.198,1.295v4.519c0,0.168-0.088,0.315-0.262,0.44
			c-0.174,0.127-0.393,0.189-0.656,0.189c-0.24,0-0.444-0.063-0.612-0.189c-0.168-0.125-0.252-0.272-0.252-0.44v-0.63
			c-0.312,0.372-0.69,0.699-1.134,0.98c-0.444,0.282-0.973,0.424-1.584,0.424c-0.324,0-0.633-0.049-0.928-0.145
			c-0.293-0.096-0.549-0.243-0.765-0.441c-0.216-0.197-0.387-0.443-0.513-0.738c-0.126-0.293-0.189-0.645-0.189-1.053
			c0-0.504,0.102-0.924,0.307-1.26c0.203-0.336,0.492-0.6,0.863-0.792c0.372-0.191,0.816-0.327,1.332-0.405s1.086-0.117,1.711-0.117
			h0.791v-0.323c0-0.228-0.029-0.459-0.09-0.693c-0.061-0.234-0.162-0.443-0.306-0.63c-0.144-0.186-0.33-0.335-0.558-0.45
			c-0.229-0.114-0.504-0.171-0.828-0.171s-0.594,0.027-0.811,0.081c-0.216,0.054-0.396,0.117-0.54,0.189
			c-0.144,0.072-0.267,0.135-0.368,0.189c-0.103,0.054-0.195,0.081-0.279,0.081c-0.229,0-0.399-0.104-0.514-0.315
			c-0.113-0.209-0.17-0.423-0.17-0.639c0-0.156,0.083-0.306,0.252-0.45c0.167-0.144,0.383-0.267,0.647-0.369
			c0.264-0.102,0.555-0.183,0.873-0.243C216.633,26.275,216.948,26.245,217.26,26.245z M219.006,31.123h-0.449
			c-0.349,0-0.682,0.016-1,0.045c-0.317,0.029-0.597,0.09-0.836,0.18c-0.24,0.09-0.436,0.219-0.586,0.387s-0.225,0.396-0.225,0.685
			c0,0.407,0.111,0.705,0.333,0.891c0.222,0.187,0.501,0.279,0.837,0.279c0.229,0,0.456-0.054,0.684-0.162
			c0.229-0.108,0.436-0.245,0.621-0.414c0.187-0.168,0.336-0.36,0.451-0.576c0.113-0.216,0.17-0.432,0.17-0.647V31.123z"/>
		<path fill="#231F20" d="M226.891,27.919c-0.277,0-0.543,0.06-0.802,0.18c-0.258,0.12-0.489,0.294-0.692,0.522
			c-0.205,0.228-0.369,0.507-0.496,0.837c-0.125,0.33-0.188,0.698-0.188,1.106v3.69c0,0.155-0.093,0.3-0.278,0.432
			c-0.187,0.132-0.418,0.198-0.693,0.198c-0.276,0-0.498-0.066-0.666-0.198s-0.252-0.276-0.252-0.432v-7.29
			c0-0.18,0.084-0.327,0.252-0.441s0.39-0.171,0.666-0.171c0.24,0,0.443,0.057,0.611,0.171s0.252,0.261,0.252,0.441v0.792
			c0.096-0.192,0.219-0.378,0.369-0.558s0.324-0.342,0.522-0.486s0.414-0.258,0.647-0.342c0.234-0.083,0.483-0.126,0.748-0.126
			h0.575c0.192,0,0.36,0.081,0.505,0.243c0.144,0.162,0.215,0.357,0.215,0.585c0,0.24-0.071,0.441-0.215,0.603
			c-0.145,0.162-0.313,0.243-0.505,0.243H226.891z"/>
		<path fill="#231F20" d="M232.506,26.245c0.48,0,0.937,0.081,1.368,0.243c0.433,0.162,0.813,0.39,1.144,0.684
			s0.59,0.645,0.783,1.053c0.191,0.408,0.287,0.858,0.287,1.35c0,0.373-0.048,0.664-0.144,0.873
			c-0.097,0.211-0.22,0.363-0.369,0.459c-0.15,0.097-0.324,0.156-0.522,0.181c-0.197,0.024-0.398,0.036-0.603,0.036h-3.798v0.414
			c0,0.611,0.216,1.092,0.648,1.439c0.432,0.349,0.995,0.521,1.691,0.521c0.324,0,0.597-0.035,0.818-0.107
			c0.223-0.072,0.414-0.15,0.576-0.234s0.307-0.162,0.433-0.233c0.126-0.072,0.249-0.108,0.368-0.108c0.229,0,0.408,0.1,0.541,0.297
			c0.131,0.198,0.197,0.381,0.197,0.549c0,0.133-0.068,0.279-0.207,0.441c-0.138,0.162-0.339,0.313-0.603,0.45
			c-0.265,0.138-0.579,0.252-0.944,0.342c-0.367,0.091-0.777,0.136-1.234,0.136c-0.611,0-1.172-0.088-1.682-0.262
			c-0.511-0.174-0.951-0.416-1.324-0.729c-0.371-0.313-0.66-0.688-0.863-1.125c-0.205-0.438-0.307-0.928-0.307-1.467v-1.711
			c0-0.468,0.1-0.915,0.297-1.34c0.199-0.426,0.465-0.798,0.802-1.116c0.335-0.318,0.731-0.57,1.188-0.756
			C231.504,26.338,231.99,26.245,232.506,26.245z M233.641,29.953c0.264,0,0.44-0.036,0.531-0.108
			c0.09-0.071,0.135-0.216,0.135-0.433c0-0.479-0.174-0.887-0.522-1.223s-0.78-0.504-1.296-0.504c-0.252,0-0.489,0.042-0.711,0.126
			c-0.223,0.084-0.418,0.201-0.585,0.351c-0.169,0.15-0.3,0.327-0.396,0.531c-0.097,0.204-0.145,0.432-0.145,0.684v0.576H233.641z"
			/>
	</g>
</g>
</svg>
