<?xml version="1.0" encoding="utf-8"?>
<!-- Generator: Adobe Illustrator 24.1.2, SVG Export Plug-In . SVG Version: 6.00 Build 0)  -->
<svg version="1.1" id="Layer_1" xmlns="http://www.w3.org/2000/svg" xmlns:xlink="http://www.w3.org/1999/xlink" x="0px" y="0px"
	 viewBox="0 0 231 72" style="enable-background:new 0 0 231 72;" xml:space="preserve">
<style type="text/css">
	.st0{fill:url(#XMLID_2_);}
	.st1{fill:url(#XMLID_3_);}
	.st2{fill:url(#XMLID_4_);}
	.st3{fill:url(#XMLID_5_);}
	.st4{display:none;}
	.st5{display:inline;fill:#58EFB0;}
	.st6{display:inline;fill:url(#XMLID_7_);}
	.st7{display:inline;fill:url(#XMLID_8_);}
	.st8{display:inline;fill:url(#XMLID_9_);}
	.st9{display:inline;fill:url(#XMLID_10_);}
	.st10{display:inline;fill:url(#XMLID_11_);}
	.st11{display:inline;fill:url(#XMLID_12_);}
	.st12{display:inline;fill:url(#XMLID_13_);}
	.st13{display:inline;fill:url(#XMLID_14_);}
	.st14{display:inline;fill:url(#XMLID_15_);}
	.st15{display:inline;fill:url(#XMLID_16_);}
	.st16{display:inline;fill:url(#XMLID_17_);}
	.st17{display:inline;fill:url(#XMLID_18_);}
	.st18{display:inline;fill:url(#XMLID_19_);}
	.st19{display:inline;fill:url(#XMLID_20_);}
	.st20{display:inline;fill:url(#XMLID_21_);}
	.st21{fill:#231F20;}
	.st22{fill:none;stroke:#231F20;stroke-miterlimit:10;}
</style>
<g>
	<g id="XMLID_188_">
		<g id="XMLID_121_">
			
				<linearGradient id="XMLID_2_" gradientUnits="userSpaceOnUse" x1="563.3383" y1="285.9502" x2="547.0284" y2="258.9457" gradientTransform="matrix(-4.489659e-11 1 1 4.489659e-11 -222.5489 -543.3424)">
				<stop  offset="0" style="stop-color:#03C9FC"/>
				<stop  offset="0.4664" style="stop-color:#007485"/>
			</linearGradient>
			<path id="XMLID_125_" class="st0" d="M74.79,37.38L26.05,9.23c-1.5-0.87-0.79-3.17,0.94-3.17h32.4c0.61,0,1.17,0.32,1.47,0.85
				l16.25,28.14C77.98,36.56,76.3,38.24,74.79,37.38z"/>
			
				<linearGradient id="XMLID_3_" gradientUnits="userSpaceOnUse" x1="606.3826" y1="266.6499" x2="579.8206" y2="290.3858" gradientTransform="matrix(-4.489659e-11 1 1 4.489659e-11 -222.5489 -543.3424)">
				<stop  offset="0" style="stop-color:#03C9FC"/>
				<stop  offset="0.1476" style="stop-color:#03C3F4"/>
				<stop  offset="0.3829" style="stop-color:#02B2DC"/>
				<stop  offset="0.6765" style="stop-color:#0197B7"/>
				<stop  offset="1" style="stop-color:#007485"/>
			</linearGradient>
			<path id="XMLID_124_" class="st1" d="M26.05,62.64l47.46-27.4c1.06-0.88,2.26-2.55,0.81-5.06l2.84,4.92c0,0-0.01,0.01-0.04,0.02
				c0.28,0.48,0.33,1.09-0.01,1.68L60.86,64.96c-0.3,0.53-0.86,0.85-1.47,0.85H27.09C25.35,65.81,24.54,63.51,26.05,62.64z"/>
			
				<linearGradient id="XMLID_4_" gradientUnits="userSpaceOnUse" x1="583.5575" y1="250.813" x2="608.9861" y2="269.485" gradientTransform="matrix(-4.489659e-11 1 1 4.489659e-11 -222.5489 -543.3424)">
				<stop  offset="0" style="stop-color:#03C9FC"/>
				<stop  offset="1" style="stop-color:#007485"/>
			</linearGradient>
			<path id="XMLID_123_" class="st2" d="M25.49,64.96L9.24,36.82c-0.87-1.5,0.81-3.19,2.32-2.32l46.17,26.66c0,0,0,0,0-0.01
				c0,0,0.02,0.02,0.07,0.05l0.62,0.36c1.18,0.59,3.64,1.32,5.33-1.56L61.1,64.5c-0.17,0.7-0.76,1.31-1.65,1.31h-32.5
				C26.35,65.81,25.79,65.48,25.49,64.96z"/>
			
				<linearGradient id="XMLID_5_" gradientUnits="userSpaceOnUse" x1="549.4073" y1="258.923" x2="585.0812" y2="258.923" gradientTransform="matrix(-4.489659e-11 1 1 4.489659e-11 -222.5489 -543.3424)">
				<stop  offset="0" style="stop-color:#03C9FC"/>
				<stop  offset="1" style="stop-color:#007485"/>
			</linearGradient>
			<path id="XMLID_122_" class="st3" d="M9.24,36.82c0,0,0.01-0.01,0.02-0.02c-0.31-0.49-0.38-1.13-0.02-1.74L25.49,6.91
				c0.3-0.53,0.86-0.85,1.47-0.85h32.5c0.88,0,1.47,0.58,1.64,1.28l2.65,4.52c-1.6-2.73-3.9-2.21-5.14-1.65L13.35,36.34
				c-1.1,0.74-2.93,2.52-1.27,5.4L9.24,36.82z"/>
		</g>
		<g id="XMLID_102_" class="st4">
			<path id="XMLID_119_" class="st5" d="M94.87,2.44V7.8h-0.62V3.16h-9.76V2.44H94.87z"/>
			<path id="XMLID_116_" class="st5" d="M84.32,12.71c0-2.6,2.06-4.65,5.47-4.65c3.23,0,5.25,1.97,5.25,4.53
				c0,2.4-1.8,4.64-5.47,4.64C86.35,17.22,84.32,15.33,84.32,12.71z M84.93,12.66c0,2.6,2.49,3.8,4.68,3.8c2.57,0,4.8-1.37,4.8-3.83
				c0-2.46-2.33-3.82-4.67-3.82C87.34,8.81,84.93,10.03,84.93,12.66z"/>
			<path id="XMLID_114_" class="st5" d="M89.72,26.51v-3.14h0.6v2.42h3.66c0.2-0.38,0.35-1.09,0.35-2.17c0-2.74-1.74-4.47-4.67-4.47
				c-2.82,0-4.67,1.76-4.67,4.62c0,0.99,0.18,1.68,0.45,2.22l-0.62,0.23c-0.18-0.4-0.46-1.29-0.46-2.42c0-3.53,2.45-5.41,5.33-5.41
				c1.68,0,3.06,0.57,3.9,1.42c1.02,1.05,1.37,2.31,1.37,3.68c0,1.42-0.35,2.49-0.57,3.02H89.72z"/>
			<path id="XMLID_111_" class="st5" d="M84.32,32.65c0-2.6,2.06-4.65,5.47-4.65c3.23,0,5.25,1.97,5.25,4.53
				c0,2.4-1.8,4.64-5.47,4.64C86.35,37.16,84.32,35.27,84.32,32.65z M84.93,32.6c0,2.6,2.49,3.8,4.68,3.8c2.57,0,4.8-1.37,4.8-3.83
				s-2.33-3.82-4.67-3.82C87.34,28.75,84.93,29.97,84.93,32.6z"/>
			<path id="XMLID_109_" class="st5" d="M94.87,43.69v0.74H85.1v3.39h-0.62v-7.5h0.62v3.37H94.87z"/>
			<path id="XMLID_107_" class="st5" d="M89.09,53.78v-4.16H85.1v4.4h-0.62v-5.13h10.38v5.37h-0.62v-4.65h-4.54v4.16H89.09z"/>
			<path id="XMLID_105_" class="st5" d="M94.87,62.74l-5.33-3.34l-5.05,3.33v-0.86l2.77-1.74c0.69-0.45,1.19-0.77,1.77-1.09V59
				c-0.55-0.32-1.08-0.65-1.77-1.08l-2.77-1.66v-0.85l5.11,3.16l5.27-3.3v0.86l-2.54,1.48c-1,0.65-1.57,0.99-2.17,1.31v0.05
				c0.6,0.34,1.19,0.71,2.16,1.36l2.56,1.57V62.74z"/>
			<path id="XMLID_103_" class="st5" d="M94.87,66.57v0.74H85.1v3.39h-0.62v-7.5h0.62v3.37H94.87z"/>
		</g>
		<g id="XMLID_6_" class="st4">
			
				<linearGradient id="XMLID_7_" gradientUnits="userSpaceOnUse" x1="547.5104" y1="326.4937" x2="547.5104" y2="319.3097" gradientTransform="matrix(-8.979319e-11 1 1 8.979319e-11 -222.5489 -543.3424)">
				<stop  offset="0" style="stop-color:#0DBDB6"/>
				<stop  offset="1" style="stop-color:#589391"/>
			</linearGradient>
			<path id="XMLID_99_" class="st6" d="M103.84,2.78l-0.73,0.06v0.02c0.6,0.35,0.84,0.91,0.84,1.53c0,1.1-0.87,2.2-2.61,2.2
				c-1.47,0.01-2.46-0.84-2.46-2.02c0-0.73,0.31-1.26,0.78-1.55V3h-2.89V1.78h5.71c0.5,0,1.04-0.02,1.37-0.04V2.78z M101.05,3
				c-0.12,0-0.23,0.02-0.32,0.04c-0.54,0.14-0.9,0.59-0.9,1.09c0,0.82,0.7,1.23,1.55,1.23c0.98,0,1.59-0.47,1.59-1.24
				c0-0.53-0.37-0.96-0.86-1.09C102.03,3.01,101.93,3,101.83,3H101.05z"/>
			
				<linearGradient id="XMLID_8_" gradientUnits="userSpaceOnUse" x1="553.1298" y1="326.4937" x2="553.1298" y2="321.5317" gradientTransform="matrix(-8.979319e-11 1 1 8.979319e-11 -222.5489 -543.3424)">
				<stop  offset="0" style="stop-color:#0DBDB6"/>
				<stop  offset="1" style="stop-color:#589391"/>
			</linearGradient>
			<path id="XMLID_97_" class="st7" d="M98.98,11.95v-1.23h2.93c0.14,0,0.27-0.03,0.38-0.07c0.31-0.13,0.66-0.45,0.66-0.94
				c0-0.65-0.52-0.91-1.33-0.91h-2.64V7.59h2.85c1.58,0,2.11,0.81,2.11,1.69c0,0.87-0.5,1.35-0.85,1.55v0.02l0.74,0.06v1.08
				c-0.4-0.02-0.88-0.04-1.45-0.04H98.98z"/>
			
				<linearGradient id="XMLID_9_" gradientUnits="userSpaceOnUse" x1="558.0416" y1="326.4837" x2="558.0416" y2="321.4221" gradientTransform="matrix(-8.979319e-11 1 1 8.979319e-11 -222.5489 -543.3424)">
				<stop  offset="0" style="stop-color:#0DBDB6"/>
				<stop  offset="1" style="stop-color:#589391"/>
			</linearGradient>
			<path id="XMLID_95_" class="st8" d="M103.6,12.98c0.2,0.36,0.34,0.89,0.34,1.47c0,1.29-0.64,1.97-1.51,1.97
				c-0.72-0.01-1.17-0.42-1.48-1.3c-0.22-0.62-0.37-0.85-0.68-0.85c-0.3,0-0.51,0.24-0.51,0.68c0,0.43,0.16,0.82,0.28,1.03
				l-0.87,0.24c-0.15-0.28-0.29-0.75-0.29-1.29c0-1.13,0.67-1.83,1.52-1.83c0.57-0.01,1.09,0.39,1.41,1.34
				c0.21,0.6,0.38,0.8,0.71,0.8c0.32,0,0.54-0.24,0.54-0.78c0-0.44-0.18-0.97-0.35-1.25L103.6,12.98z"/>
			
				<linearGradient id="XMLID_10_" gradientUnits="userSpaceOnUse" x1="561.3893" y1="326.3841" x2="561.3893" y2="319.509" gradientTransform="matrix(-8.979319e-11 1 1 8.979319e-11 -222.5489 -543.3424)">
				<stop  offset="0" style="stop-color:#0DBDB6"/>
				<stop  offset="1" style="stop-color:#589391"/>
			</linearGradient>
			<path id="XMLID_92_" class="st9" d="M96.96,18.05c0-0.41,0.29-0.69,0.67-0.69c0.37,0,0.66,0.27,0.66,0.68
				c0,0.43-0.29,0.7-0.66,0.7C97.25,18.72,96.96,18.47,96.96,18.05z M103.84,18.66h-4.85v-1.24h4.85V18.66z"/>
			
				<linearGradient id="XMLID_11_" gradientUnits="userSpaceOnUse" x1="565.4993" y1="326.3841" x2="565.4993" y2="321.4221" gradientTransform="matrix(-8.979319e-11 1 1 8.979319e-11 -222.5489 -543.3424)">
				<stop  offset="0" style="stop-color:#0DBDB6"/>
				<stop  offset="1" style="stop-color:#589391"/>
			</linearGradient>
			<path id="XMLID_90_" class="st10" d="M103.84,19.98v1.24h-2.85c-0.14,0-0.29,0.01-0.4,0.05c-0.37,0.13-0.72,0.47-0.72,0.96
				c0,0.67,0.53,0.93,1.23,0.93h2.74v1.23h-2.88c-1.53,0-2.08-0.88-2.08-1.72c0-0.81,0.46-1.34,0.84-1.54v-0.03l-0.73-0.06v-1.08
				c0.42,0.03,0.89,0.04,1.44,0.04H103.84z"/>
			
				<linearGradient id="XMLID_12_" gradientUnits="userSpaceOnUse" x1="570.9444" y1="326.4837" x2="570.9444" y2="321.4221" gradientTransform="matrix(-8.979319e-11 1 1 8.979319e-11 -222.5489 -543.3424)">
				<stop  offset="0" style="stop-color:#0DBDB6"/>
				<stop  offset="1" style="stop-color:#589391"/>
			</linearGradient>
			<path id="XMLID_87_" class="st11" d="M101.75,29.79c-0.11,0.02-0.29,0.04-0.52,0.04c-1.07,0-2.36-0.52-2.36-2.09
				c0-1.55,1.27-2.37,2.61-2.37c1.48,0,2.45,0.93,2.45,2.5c0,0.7-0.13,1.28-0.3,1.69l-0.85-0.18c0.14-0.37,0.22-0.78,0.22-1.35
				c0-0.78-0.38-1.46-1.26-1.49V29.79z M100.9,26.55c-0.5,0.05-1.19,0.37-1.19,1.13c0,0.82,0.74,1.02,1.19,1.01V26.55z"/>
			
				<linearGradient id="XMLID_13_" gradientUnits="userSpaceOnUse" x1="575.5873" y1="326.4837" x2="575.5873" y2="321.4221" gradientTransform="matrix(-8.979319e-11 1 1 8.979319e-11 -222.5489 -543.3424)">
				<stop  offset="0" style="stop-color:#0DBDB6"/>
				<stop  offset="1" style="stop-color:#589391"/>
			</linearGradient>
			<path id="XMLID_85_" class="st12" d="M103.6,30.52c0.2,0.36,0.34,0.89,0.34,1.47c0,1.29-0.64,1.97-1.51,1.97
				c-0.72-0.01-1.17-0.42-1.48-1.3c-0.22-0.62-0.37-0.85-0.68-0.85c-0.3,0-0.51,0.24-0.51,0.68c0,0.43,0.16,0.82,0.28,1.03
				l-0.87,0.24c-0.15-0.28-0.29-0.75-0.29-1.29c0-1.13,0.67-1.83,1.52-1.83c0.57-0.01,1.09,0.39,1.41,1.34
				c0.21,0.6,0.38,0.8,0.71,0.8c0.32,0,0.54-0.24,0.54-0.78c0-0.44-0.18-0.97-0.35-1.25L103.6,30.52z"/>
			
				<linearGradient id="XMLID_14_" gradientUnits="userSpaceOnUse" x1="579.7421" y1="326.4837" x2="579.7421" y2="321.4221" gradientTransform="matrix(-8.979319e-11 1 1 8.979319e-11 -222.5489 -543.3424)">
				<stop  offset="0" style="stop-color:#0DBDB6"/>
				<stop  offset="1" style="stop-color:#589391"/>
			</linearGradient>
			<path id="XMLID_83_" class="st13" d="M103.6,34.68c0.2,0.36,0.34,0.89,0.34,1.47c0,1.29-0.64,1.97-1.51,1.97
				c-0.72-0.01-1.17-0.42-1.48-1.3c-0.22-0.62-0.37-0.85-0.68-0.85c-0.3,0-0.51,0.24-0.51,0.68c0,0.43,0.16,0.82,0.28,1.03
				l-0.87,0.24c-0.15-0.28-0.29-0.75-0.29-1.29c0-1.13,0.67-1.83,1.52-1.83c0.57-0.01,1.09,0.39,1.41,1.34
				c0.21,0.6,0.38,0.8,0.71,0.8c0.32,0,0.54-0.24,0.54-0.78c0-0.44-0.18-0.97-0.35-1.25L103.6,34.68z"/>
			
				<linearGradient id="XMLID_15_" gradientUnits="userSpaceOnUse" x1="585.5756" y1="326.4837" x2="585.5756" y2="320.1467" gradientTransform="matrix(-8.979319e-11 1 1 8.979319e-11 -222.5489 -543.3424)">
				<stop  offset="0" style="stop-color:#0DBDB6"/>
				<stop  offset="1" style="stop-color:#589391"/>
			</linearGradient>
			<path id="XMLID_81_" class="st14" d="M97.89,41.4h1.1v-0.7h0.92v0.7h2.28c0.64,0,1.08,0.12,1.36,0.38
				c0.25,0.23,0.4,0.61,0.4,1.06c0,0.39-0.05,0.71-0.12,0.89l-0.94-0.02c0.03-0.11,0.06-0.27,0.06-0.48c0-0.47-0.31-0.63-0.9-0.63
				H99.9v1.17h-0.92V42.6H97.6L97.89,41.4z"/>
			
				<linearGradient id="XMLID_16_" gradientUnits="userSpaceOnUse" x1="589.7803" y1="326.4937" x2="589.7803" y2="321.4221" gradientTransform="matrix(-8.979319e-11 1 1 8.979319e-11 -222.5489 -543.3424)">
				<stop  offset="0" style="stop-color:#0DBDB6"/>
				<stop  offset="1" style="stop-color:#589391"/>
			</linearGradient>
			<path id="XMLID_78_" class="st15" d="M103.84,48.53c-0.3-0.05-0.73-0.07-1.17-0.07h-1.75c-1.06,0-2.04-0.45-2.04-2
				c0-0.77,0.21-1.39,0.43-1.75l0.8,0.24c-0.21,0.33-0.36,0.83-0.36,1.31c0,0.86,0.53,0.99,0.85,0.99h0.08
				c-0.01-1.79,0.61-2.88,1.83-2.88c0.74,0,1.44,0.55,1.44,1.52c0,0.63-0.27,1.14-0.65,1.43v0.03l0.54,0.08V48.53z M102.13,47.26
				c0.08,0,0.18-0.01,0.27-0.04c0.35-0.11,0.67-0.47,0.67-0.96c0-0.39-0.22-0.7-0.7-0.7c-0.74,0-0.93,0.83-0.91,1.69H102.13z"/>
			
				<linearGradient id="XMLID_17_" gradientUnits="userSpaceOnUse" x1="595.1556" y1="328.4666" x2="595.1556" y2="321.4221" gradientTransform="matrix(-8.979319e-11 1 1 8.979319e-11 -222.5489 -543.3424)">
				<stop  offset="0" style="stop-color:#0DBDB6"/>
				<stop  offset="1" style="stop-color:#589391"/>
			</linearGradient>
			<path id="XMLID_75_" class="st16" d="M98.98,53.12l0.65-0.05v-0.02c-0.4-0.23-0.76-0.67-0.76-1.4c0-1.17,0.97-2.2,2.56-2.2
				c1.37,0,2.37,0.86,2.37,2.06c0,0.64-0.29,1.14-0.72,1.41v0.02h0.42c1.05,0,1.46-0.6,1.46-1.39c0-0.59-0.19-1.11-0.37-1.41
				l0.93-0.27c0.26,0.42,0.39,1.08,0.39,1.69c0,0.67-0.14,1.37-0.59,1.87c-0.46,0.51-1.19,0.72-2.2,0.72h-2.75
				c-0.67,0-1.07,0.02-1.39,0.04V53.12z M101.71,52.92c0.14,0,0.31-0.02,0.44-0.05c0.44-0.14,0.74-0.54,0.74-1
				c0-0.77-0.67-1.19-1.49-1.19c-0.99,0-1.58,0.51-1.58,1.2c0,0.52,0.34,0.87,0.79,1c0.1,0.03,0.22,0.04,0.33,0.04H101.71z"/>
			
				<linearGradient id="XMLID_18_" gradientUnits="userSpaceOnUse" x1="599.42" y1="326.3841" x2="599.42" y2="319.3097" gradientTransform="matrix(-8.979319e-11 1 1 8.979319e-11 -222.5489 -543.3424)">
				<stop  offset="0" style="stop-color:#0DBDB6"/>
				<stop  offset="1" style="stop-color:#589391"/>
			</linearGradient>
			<path id="XMLID_73_" class="st17" d="M103.84,55.46v1.24h-7.07v-1.24H103.84z"/>
			
				<linearGradient id="XMLID_19_" gradientUnits="userSpaceOnUse" x1="601.9806" y1="326.3841" x2="601.9806" y2="319.509" gradientTransform="matrix(-8.979319e-11 1 1 8.979319e-11 -222.5489 -543.3424)">
				<stop  offset="0" style="stop-color:#0DBDB6"/>
				<stop  offset="1" style="stop-color:#589391"/>
			</linearGradient>
			<path id="XMLID_70_" class="st18" d="M96.96,58.64c0-0.41,0.29-0.69,0.67-0.69c0.37,0,0.66,0.27,0.66,0.68
				c0,0.43-0.29,0.7-0.66,0.7C97.25,59.32,96.96,59.06,96.96,58.64z M103.84,59.26h-4.85v-1.24h4.85V59.26z"/>
			
				<linearGradient id="XMLID_20_" gradientUnits="userSpaceOnUse" x1="606.0905" y1="326.3841" x2="606.0905" y2="321.4221" gradientTransform="matrix(-8.979319e-11 1 1 8.979319e-11 -222.5489 -543.3424)">
				<stop  offset="0" style="stop-color:#0DBDB6"/>
				<stop  offset="1" style="stop-color:#589391"/>
			</linearGradient>
			<path id="XMLID_68_" class="st19" d="M103.84,60.57v1.24h-2.85c-0.14,0-0.29,0.01-0.4,0.05c-0.37,0.13-0.72,0.47-0.72,0.96
				c0,0.67,0.53,0.93,1.23,0.93h2.74v1.23h-2.88c-1.53,0-2.08-0.88-2.08-1.72c0-0.81,0.46-1.34,0.84-1.54v-0.03l-0.73-0.06v-1.08
				c0.42,0.03,0.89,0.04,1.44,0.04H103.84z"/>
			
				<linearGradient id="XMLID_21_" gradientUnits="userSpaceOnUse" x1="611.5355" y1="326.4837" x2="611.5355" y2="321.4221" gradientTransform="matrix(-8.979319e-11 1 1 8.979319e-11 -222.5489 -543.3424)">
				<stop  offset="0" style="stop-color:#0DBDB6"/>
				<stop  offset="1" style="stop-color:#589391"/>
			</linearGradient>
			<path id="XMLID_65_" class="st20" d="M101.75,70.39c-0.11,0.02-0.29,0.04-0.52,0.04c-1.07,0-2.36-0.52-2.36-2.09
				c0-1.55,1.27-2.37,2.61-2.37c1.48,0,2.45,0.93,2.45,2.5c0,0.7-0.13,1.28-0.3,1.69l-0.85-0.18c0.14-0.37,0.22-0.78,0.22-1.35
				c0-0.78-0.38-1.46-1.26-1.49V70.39z M100.9,67.14c-0.5,0.05-1.19,0.37-1.19,1.13c0,0.82,0.74,1.02,1.19,1.01V67.14z"/>
		</g>
	</g>
	<g>
		<path class="st21" d="M36.56,31.34h1.88c0.04,0,0.08,0.02,0.11,0.05s0.05,0.07,0.05,0.11v9c0,0.04-0.02,0.08-0.05,0.11
			c-0.03,0.03-0.07,0.05-0.11,0.05h-1.89c-0.04,0-0.08-0.02-0.11-0.05c-0.03-0.03-0.05-0.07-0.05-0.11v-5.35
			c0-0.04-0.01-0.05-0.03-0.05s-0.04,0.01-0.05,0.04l-1.15,1.84c-0.04,0.07-0.1,0.11-0.19,0.11h-0.95c-0.09,0-0.15-0.04-0.19-0.11
			l-1.16-1.85c-0.02-0.03-0.04-0.04-0.05-0.04c-0.02,0-0.03,0.02-0.03,0.05v5.36c0,0.04-0.02,0.08-0.05,0.11
			c-0.03,0.03-0.07,0.05-0.11,0.05h-1.89c-0.04,0-0.08-0.02-0.11-0.05c-0.03-0.03-0.05-0.07-0.05-0.11v-9
			c0-0.04,0.02-0.08,0.05-0.11s0.07-0.05,0.11-0.05h1.88c0.08,0,0.14,0.04,0.19,0.11l1.85,2.9c0.03,0.05,0.05,0.05,0.08,0l1.82-2.9
			C36.41,31.37,36.47,31.34,36.56,31.34z"/>
		<path class="st21" d="M44.78,31.38c0.03-0.03,0.07-0.05,0.11-0.05h1.89c0.04,0,0.08,0.02,0.11,0.05s0.05,0.07,0.05,0.11v9
			c0,0.04-0.02,0.08-0.05,0.11c-0.03,0.03-0.07,0.05-0.11,0.05h-1.89c-0.04,0-0.08-0.02-0.11-0.05c-0.03-0.03-0.05-0.07-0.05-0.11
			v-3.54c0-0.04-0.02-0.07-0.07-0.07h-2.49c-0.04,0-0.07,0.02-0.07,0.07v3.54c0,0.04-0.02,0.08-0.05,0.11
			c-0.03,0.03-0.07,0.05-0.11,0.05h-1.89c-0.04,0-0.08-0.02-0.11-0.05c-0.03-0.03-0.05-0.07-0.05-0.11v-9
			c0-0.04,0.02-0.08,0.05-0.11s0.07-0.05,0.11-0.05h1.89c0.04,0,0.08,0.02,0.11,0.05s0.05,0.07,0.05,0.11v3.43
			c0,0.04,0.02,0.07,0.07,0.07h2.49c0.04,0,0.07-0.02,0.07-0.07V31.5C44.73,31.45,44.75,31.41,44.78,31.38z"/>
		<path class="st21" d="M49.69,40.35c-0.54-0.27-0.95-0.67-1.25-1.17S48,38.08,48,37.42v-2.88c0-0.66,0.15-1.24,0.45-1.74
			c0.3-0.5,0.71-0.89,1.25-1.17c0.54-0.27,1.16-0.41,1.87-0.41c0.71,0,1.33,0.13,1.87,0.39c0.54,0.26,0.95,0.63,1.25,1.1
			s0.45,1.02,0.45,1.64c0,0.04-0.02,0.08-0.05,0.11c-0.03,0.03-0.07,0.04-0.11,0.04l-1.89,0.12c-0.11,0-0.16-0.05-0.16-0.15
			c0-0.42-0.12-0.75-0.37-1c-0.25-0.25-0.58-0.37-0.98-0.37s-0.74,0.13-0.99,0.38s-0.37,0.58-0.37,0.99v3.02
			c0,0.41,0.12,0.74,0.37,0.99c0.25,0.25,0.58,0.37,0.99,0.37s0.74-0.12,0.98-0.37c0.25-0.25,0.37-0.58,0.37-0.99
			c0-0.1,0.05-0.15,0.16-0.15l1.89,0.09c0.04,0,0.08,0.01,0.11,0.04s0.05,0.06,0.05,0.09c0,0.63-0.15,1.18-0.45,1.66
			c-0.3,0.48-0.71,0.85-1.25,1.11s-1.16,0.39-1.87,0.39C50.85,40.76,50.23,40.62,49.69,40.35z"/>
	</g>
	<g>
		<g>
			<g>
				<path class="st21" d="M98.46,15.63h3.46c0.1,0,0.18,0.03,0.25,0.1s0.1,0.15,0.1,0.25v19.96c0,0.1-0.03,0.18-0.1,0.25
					c-0.07,0.07-0.15,0.1-0.25,0.1h-3.46c-0.1,0-0.18-0.03-0.25-0.1c-0.07-0.07-0.1-0.15-0.1-0.25V22.92c0-0.08-0.02-0.12-0.06-0.12
					s-0.08,0.03-0.12,0.09l-3.13,4.9c-0.1,0.16-0.24,0.24-0.41,0.24h-1.74c-0.18,0-0.31-0.08-0.41-0.24l-3.13-4.9
					c-0.04-0.06-0.08-0.08-0.12-0.07c-0.04,0.01-0.06,0.05-0.06,0.13v12.99c0,0.1-0.03,0.18-0.1,0.25c-0.07,0.07-0.15,0.1-0.25,0.1
					h-3.46c-0.1,0-0.18-0.03-0.25-0.1c-0.07-0.07-0.1-0.15-0.1-0.25V15.98c0-0.1,0.03-0.18,0.1-0.25c0.07-0.07,0.15-0.1,0.25-0.1
					h3.46c0.18,0,0.31,0.08,0.41,0.24l4.43,6.88c0.06,0.12,0.12,0.12,0.18,0l4.46-6.88C98.14,15.7,98.28,15.63,98.46,15.63z"/>
				<path class="st21" d="M109.37,35.65c-1.15-0.59-2.05-1.42-2.69-2.5c-0.64-1.07-0.96-2.31-0.96-3.71V15.98
					c0-0.1,0.03-0.18,0.1-0.25c0.07-0.07,0.15-0.1,0.25-0.1h3.46c0.1,0,0.18,0.03,0.25,0.1c0.07,0.07,0.1,0.15,0.1,0.25v13.5
					c0,1.04,0.32,1.89,0.96,2.52c0.64,0.64,1.48,0.96,2.52,0.96s1.89-0.32,2.52-0.96c0.64-0.64,0.96-1.48,0.96-2.52v-13.5
					c0-0.1,0.03-0.18,0.1-0.25c0.07-0.07,0.15-0.1,0.25-0.1h3.46c0.1,0,0.18,0.03,0.25,0.1c0.07,0.07,0.1,0.15,0.1,0.25v13.47
					c0,1.4-0.32,2.63-0.96,3.71c-0.64,1.07-1.54,1.9-2.69,2.5c-1.15,0.59-2.49,0.89-4,0.89S110.52,36.24,109.37,35.65z"/>
				<path class="st21" d="M136.7,25.7c1.87,0.96,2.81,2.57,2.81,4.81c0,1.91-0.65,3.35-1.95,4.33c-1.3,0.97-3,1.46-5.11,1.46h-7.65
					c-0.1,0-0.18-0.03-0.25-0.1c-0.07-0.07-0.1-0.15-0.1-0.25V15.98c0-0.1,0.03-0.18,0.1-0.25c0.07-0.07,0.15-0.1,0.25-0.1h7.41
					c4.67,0,7,1.89,7,5.67c0,1.97-0.84,3.38-2.51,4.22C136.58,25.58,136.58,25.64,136.7,25.7z M128.61,19.35v4.61
					c0,0.1,0.05,0.15,0.15,0.15h3.46c0.92,0,1.64-0.22,2.16-0.65c0.51-0.43,0.77-1.02,0.77-1.77c0-0.77-0.26-1.37-0.77-1.82
					c-0.51-0.44-1.23-0.66-2.16-0.66h-3.46C128.66,19.2,128.61,19.25,128.61,19.35z M134.57,32c0.51-0.46,0.77-1.1,0.77-1.9
					c0-0.81-0.26-1.44-0.77-1.9c-0.51-0.46-1.23-0.69-2.16-0.69h-3.66c-0.1,0-0.15,0.05-0.15,0.15v4.9c0,0.1,0.05,0.15,0.15,0.15
					h3.69C133.35,32.69,134.06,32.46,134.57,32z"/>
				<path class="st21" d="M154.39,36l-0.89-2.89c-0.04-0.08-0.09-0.12-0.15-0.12h-7.26c-0.06,0-0.11,0.04-0.15,0.12L145.08,36
					c-0.06,0.2-0.19,0.29-0.38,0.29h-3.75c-0.12,0-0.21-0.03-0.27-0.1c-0.06-0.07-0.07-0.17-0.03-0.31l6.38-19.96
					c0.06-0.2,0.19-0.3,0.38-0.3h4.64c0.2,0,0.32,0.1,0.38,0.3l6.38,19.96c0.02,0.04,0.03,0.09,0.03,0.15
					c0,0.18-0.11,0.27-0.33,0.27h-3.75C154.57,36.3,154.45,36.2,154.39,36z M147.12,29.77h5.2c0.12,0,0.16-0.06,0.12-0.18
					l-2.66-8.77c-0.02-0.08-0.05-0.11-0.09-0.1c-0.04,0.01-0.07,0.04-0.09,0.1l-2.6,8.77C146.98,29.71,147.02,29.77,147.12,29.77z"
					/>
				<path class="st21" d="M163.1,35.78c-1.18-0.5-2.09-1.22-2.73-2.16s-0.96-2.02-0.96-3.26v-0.65c0-0.1,0.03-0.18,0.1-0.25
					c0.07-0.07,0.15-0.1,0.25-0.1h3.37c0.1,0,0.18,0.03,0.25,0.1c0.07,0.07,0.1,0.15,0.1,0.25v0.44c0,0.79,0.36,1.45,1.09,1.99
					c0.73,0.54,1.71,0.81,2.95,0.81c1.04,0,1.82-0.22,2.33-0.66c0.51-0.44,0.77-0.99,0.77-1.64c0-0.47-0.16-0.87-0.47-1.2
					c-0.32-0.32-0.74-0.61-1.28-0.86c-0.54-0.25-1.4-0.59-2.58-1.02c-1.32-0.45-2.44-0.92-3.35-1.39c-0.92-0.47-1.68-1.12-2.3-1.93
					c-0.62-0.82-0.93-1.83-0.93-3.03c0-1.18,0.3-2.21,0.92-3.1c0.61-0.89,1.46-1.57,2.54-2.04c1.08-0.47,2.33-0.71,3.75-0.71
					c1.5,0,2.83,0.27,4,0.8c1.17,0.53,2.09,1.27,2.75,2.23c0.66,0.96,0.99,2.06,0.99,3.32v0.44c0,0.1-0.04,0.18-0.1,0.25
					c-0.07,0.07-0.15,0.1-0.25,0.1h-3.4c-0.1,0-0.18-0.03-0.25-0.1c-0.07-0.07-0.1-0.15-0.1-0.25v-0.24c0-0.83-0.34-1.53-1.02-2.11
					c-0.68-0.58-1.61-0.87-2.79-0.87c-0.93,0-1.65,0.2-2.17,0.59c-0.52,0.39-0.78,0.94-0.78,1.62c0,0.49,0.15,0.91,0.46,1.24
					c0.3,0.33,0.76,0.64,1.36,0.9s1.53,0.63,2.79,1.08c1.4,0.51,2.5,0.96,3.29,1.36c0.8,0.39,1.52,0.98,2.16,1.76
					c0.64,0.78,0.96,1.79,0.96,3.03c0,1.85-0.68,3.31-2.04,4.39c-1.36,1.07-3.2,1.61-5.52,1.61
					C165.66,36.53,164.28,36.28,163.1,35.78z"/>
				<path class="st21" d="M188.81,15.73c0.07-0.07,0.15-0.1,0.25-0.1h3.46c0.1,0,0.18,0.03,0.25,0.1c0.07,0.07,0.1,0.15,0.1,0.25
					v19.96c0,0.1-0.04,0.18-0.1,0.25c-0.07,0.07-0.15,0.1-0.25,0.1h-3.46c-0.1,0-0.18-0.03-0.25-0.1c-0.07-0.07-0.1-0.15-0.1-0.25
					v-8.15c0-0.1-0.05-0.15-0.15-0.15h-6.53c-0.1,0-0.15,0.05-0.15,0.15v8.15c0,0.1-0.03,0.18-0.1,0.25
					c-0.07,0.07-0.15,0.1-0.25,0.1h-3.46c-0.1,0-0.18-0.03-0.25-0.1c-0.07-0.07-0.1-0.15-0.1-0.25V15.98c0-0.1,0.03-0.18,0.1-0.25
					c0.07-0.07,0.15-0.1,0.25-0.1h3.46c0.1,0,0.18,0.03,0.25,0.1c0.07,0.07,0.1,0.15,0.1,0.25v7.94c0,0.1,0.05,0.15,0.15,0.15h6.53
					c0.1,0,0.15-0.05,0.15-0.15v-7.94C188.7,15.88,188.74,15.8,188.81,15.73z"/>
				<path class="st21" d="M196.37,36.19c-0.07-0.07-0.1-0.15-0.1-0.25V15.98c0-0.1,0.03-0.18,0.1-0.25c0.07-0.07,0.15-0.1,0.25-0.1
					h3.46c0.1,0,0.18,0.03,0.25,0.1c0.07,0.07,0.1,0.15,0.1,0.25v19.96c0,0.1-0.03,0.18-0.1,0.25c-0.07,0.07-0.15,0.1-0.25,0.1
					h-3.46C196.52,36.3,196.43,36.26,196.37,36.19z"/>
				<path class="st21" d="M214.95,36.03l-3.69-8.18c-0.04-0.08-0.1-0.12-0.18-0.12h-2.75c-0.1,0-0.15,0.05-0.15,0.15v8.06
					c0,0.1-0.03,0.18-0.1,0.25c-0.07,0.07-0.15,0.1-0.25,0.1h-3.46c-0.1,0-0.18-0.03-0.25-0.1c-0.07-0.07-0.1-0.15-0.1-0.25V15.98
					c0-0.1,0.03-0.18,0.1-0.25c0.07-0.07,0.15-0.1,0.25-0.1h8.45c1.26,0,2.37,0.26,3.32,0.77c0.96,0.51,1.69,1.24,2.21,2.19
					s0.78,2.04,0.78,3.28c0,1.34-0.33,2.49-1,3.44c-0.67,0.96-1.6,1.63-2.8,2.02c-0.1,0.04-0.13,0.11-0.09,0.21l4.02,8.36
					c0.04,0.08,0.06,0.14,0.06,0.18c0,0.16-0.11,0.24-0.33,0.24h-3.63C215.17,36.3,215.03,36.21,214.95,36.03z M208.19,19.35v5.05
					c0,0.1,0.05,0.15,0.15,0.15h3.87c0.83,0,1.5-0.25,2.02-0.74c0.52-0.49,0.78-1.13,0.78-1.92c0-0.79-0.26-1.43-0.78-1.93
					c-0.52-0.5-1.2-0.75-2.02-0.75h-3.87C208.24,19.2,208.19,19.25,208.19,19.35z"/>
			</g>
		</g>
		<g>
			<g>
				<path class="st21" d="M93.46,47.43c-0.03,0.03-0.07,0.05-0.13,0.05h-3.41c-0.04,0-0.06,0.02-0.06,0.06v1.08
					c0,0.04,0.02,0.06,0.06,0.06h2.12c0.05,0,0.1,0.02,0.13,0.05c0.03,0.03,0.05,0.07,0.05,0.13v1.49c0,0.05-0.02,0.1-0.05,0.13
					c-0.03,0.03-0.07,0.05-0.13,0.05h-2.12c-0.04,0-0.06,0.02-0.06,0.06v2.92c0,0.05-0.02,0.1-0.05,0.13
					c-0.03,0.03-0.07,0.05-0.13,0.05h-1.81c-0.05,0-0.1-0.02-0.13-0.05s-0.05-0.07-0.05-0.13v-7.67c0-0.05,0.02-0.1,0.05-0.13
					s0.07-0.05,0.13-0.05h5.45c0.05,0,0.1,0.02,0.13,0.05c0.03,0.03,0.05,0.07,0.05,0.13v1.5C93.5,47.36,93.49,47.4,93.46,47.43z"/>
				<path class="st21" d="M102.68,53.5l-0.25-0.89c-0.02-0.03-0.03-0.05-0.06-0.05h-2.43c-0.02,0-0.04,0.02-0.06,0.05l-0.25,0.89
					c-0.02,0.1-0.09,0.15-0.19,0.15h-1.96c-0.14,0-0.19-0.06-0.15-0.19l2.42-7.68c0.03-0.09,0.1-0.14,0.19-0.14h2.43
					c0.1,0,0.16,0.05,0.19,0.14l2.42,7.68c0.01,0.01,0.01,0.04,0.01,0.07c0,0.08-0.05,0.13-0.16,0.13h-1.96
					C102.77,53.65,102.71,53.6,102.68,53.5z M100.44,50.92h1.43c0.05,0,0.06-0.02,0.05-0.07l-0.73-2.56
					c-0.01-0.02-0.02-0.03-0.03-0.03c-0.02,0-0.03,0.01-0.03,0.03l-0.72,2.56C100.39,50.89,100.4,50.92,100.44,50.92z"/>
				<path class="st21" d="M115.6,45.64h1.79c0.05,0,0.1,0.02,0.13,0.05c0.03,0.03,0.05,0.07,0.05,0.13v7.67
					c0,0.05-0.02,0.1-0.05,0.13c-0.03,0.03-0.07,0.05-0.13,0.05h-1.81c-0.05,0-0.1-0.02-0.13-0.05c-0.03-0.03-0.05-0.07-0.05-0.13
					v-4.16c0-0.03-0.01-0.05-0.02-0.05c-0.02,0-0.03,0.01-0.05,0.03l-0.78,1.27c-0.05,0.08-0.11,0.12-0.21,0.12h-0.87
					c-0.09,0-0.16-0.04-0.21-0.12l-0.78-1.27c-0.02-0.02-0.03-0.03-0.05-0.03s-0.02,0.02-0.02,0.05v4.16c0,0.05-0.02,0.1-0.05,0.13
					c-0.03,0.03-0.07,0.05-0.13,0.05h-1.81c-0.05,0-0.1-0.02-0.13-0.05s-0.05-0.07-0.05-0.13v-7.67c0-0.05,0.02-0.1,0.05-0.13
					s0.07-0.05,0.13-0.05h1.79c0.09,0,0.16,0.04,0.21,0.11l1.44,2.32c0.02,0.05,0.05,0.05,0.07,0l1.44-2.32
					C115.44,45.68,115.51,45.64,115.6,45.64z"/>
				<path class="st21" d="M123.07,53.61c-0.03-0.03-0.05-0.07-0.05-0.13v-7.67c0-0.05,0.02-0.1,0.05-0.13s0.07-0.05,0.13-0.05h1.81
					c0.05,0,0.1,0.02,0.13,0.05c0.03,0.03,0.05,0.07,0.05,0.13v7.67c0,0.05-0.02,0.1-0.05,0.13c-0.03,0.03-0.07,0.05-0.13,0.05
					h-1.81C123.15,53.65,123.1,53.64,123.07,53.61z"/>
				<path class="st21" d="M130.7,53.61c-0.03-0.03-0.05-0.07-0.05-0.13v-7.67c0-0.05,0.02-0.1,0.05-0.13s0.07-0.05,0.13-0.05h1.81
					c0.05,0,0.1,0.02,0.13,0.05c0.03,0.03,0.05,0.07,0.05,0.13v5.94c0,0.04,0.02,0.06,0.06,0.06h3.54c0.05,0,0.1,0.01,0.13,0.04
					c0.03,0.03,0.05,0.07,0.05,0.13v1.5c0,0.05-0.02,0.1-0.05,0.13c-0.03,0.03-0.07,0.05-0.13,0.05h-5.58
					C130.77,53.65,130.73,53.64,130.7,53.61z"/>
				<path class="st21" d="M143.22,53.58c-0.03-0.03-0.05-0.07-0.05-0.13v-2.53l-0.01-0.07l-2.34-5.01l-0.02-0.09
					c0-0.08,0.05-0.11,0.15-0.11h1.97c0.1,0,0.17,0.05,0.21,0.14l1.09,2.74c0.02,0.05,0.05,0.05,0.07,0l1.09-2.74
					c0.04-0.09,0.11-0.14,0.21-0.14h1.98c0.1,0,0.15,0.04,0.15,0.11l-0.02,0.09l-2.36,5.01c-0.01,0.01-0.01,0.04-0.01,0.07v2.53
					c0,0.05-0.02,0.1-0.05,0.13c-0.03,0.03-0.07,0.05-0.13,0.05h-1.8C143.29,53.63,143.25,53.61,143.22,53.58z"/>
				<path class="st21" d="M161.28,53.38c-0.48-0.24-0.85-0.59-1.11-1.04c-0.26-0.45-0.39-0.96-0.39-1.55v-2.31
					c0-0.58,0.13-1.09,0.39-1.53c0.26-0.44,0.63-0.79,1.11-1.03c0.48-0.24,1.03-0.37,1.65-0.37s1.18,0.11,1.65,0.34
					c0.48,0.23,0.85,0.55,1.11,0.97c0.26,0.42,0.4,0.9,0.4,1.45c0,0.07-0.06,0.11-0.17,0.13l-1.81,0.12h-0.03
					c-0.09,0-0.14-0.04-0.14-0.13c0-0.31-0.09-0.56-0.27-0.75c-0.18-0.19-0.43-0.28-0.73-0.28c-0.3,0-0.55,0.09-0.73,0.28
					c-0.18,0.19-0.27,0.44-0.27,0.75v2.46c0,0.31,0.09,0.55,0.27,0.74c0.18,0.19,0.43,0.28,0.73,0.28c0.31,0,0.55-0.09,0.73-0.28
					c0.18-0.19,0.27-0.43,0.27-0.74c0-0.05,0.01-0.08,0.05-0.1c0.03-0.02,0.07-0.03,0.13-0.02l1.81,0.09
					c0.11,0.01,0.17,0.05,0.17,0.11c0,0.55-0.13,1.03-0.4,1.45c-0.26,0.42-0.63,0.75-1.11,0.98c-0.48,0.23-1.03,0.35-1.65,0.35
					S161.76,53.62,161.28,53.38z"/>
				<path class="st21" d="M171.48,53.61c-0.03-0.03-0.05-0.07-0.05-0.13v-7.67c0-0.05,0.02-0.1,0.05-0.13s0.07-0.05,0.13-0.05h1.81
					c0.05,0,0.1,0.02,0.13,0.05s0.05,0.07,0.05,0.13v5.94c0,0.04,0.02,0.06,0.06,0.06h3.54c0.05,0,0.1,0.01,0.13,0.04
					c0.03,0.03,0.05,0.07,0.05,0.13v1.5c0,0.05-0.02,0.1-0.05,0.13s-0.07,0.05-0.13,0.05h-5.58
					C171.55,53.65,171.51,53.64,171.48,53.61z"/>
				<path class="st21" d="M182.63,53.61c-0.03-0.03-0.05-0.07-0.05-0.13v-7.67c0-0.05,0.02-0.1,0.05-0.13s0.07-0.05,0.13-0.05h1.81
					c0.05,0,0.1,0.02,0.13,0.05s0.05,0.07,0.05,0.13v7.67c0,0.05-0.02,0.1-0.05,0.13s-0.07,0.05-0.13,0.05h-1.81
					C182.7,53.65,182.66,53.64,182.63,53.61z"/>
				<path class="st21" d="M194.74,45.68c0.03-0.03,0.07-0.05,0.13-0.05h1.81c0.05,0,0.09,0.02,0.13,0.05
					c0.03,0.03,0.05,0.07,0.05,0.13v7.67c0,0.05-0.02,0.1-0.05,0.13c-0.03,0.03-0.07,0.05-0.13,0.05h-1.73
					c-0.09,0-0.16-0.04-0.21-0.11l-2.34-3.89c-0.02-0.02-0.03-0.03-0.05-0.03s-0.02,0.02-0.02,0.05l0.02,3.81
					c0,0.05-0.02,0.1-0.05,0.13s-0.07,0.05-0.13,0.05h-1.81c-0.05,0-0.1-0.02-0.13-0.05s-0.05-0.07-0.05-0.13v-7.67
					c0-0.05,0.02-0.1,0.05-0.13s0.07-0.05,0.13-0.05h1.73c0.09,0,0.16,0.04,0.21,0.11l2.32,3.89c0.02,0.02,0.03,0.03,0.05,0.03
					c0.01,0,0.02-0.02,0.02-0.05l-0.01-3.81C194.69,45.76,194.71,45.71,194.74,45.68z"/>
				<path class="st21" d="M202.36,53.61c-0.03-0.03-0.05-0.07-0.05-0.13v-7.67c0-0.05,0.02-0.1,0.05-0.13s0.07-0.05,0.13-0.05h1.81
					c0.05,0,0.1,0.02,0.13,0.05s0.05,0.07,0.05,0.13v7.67c0,0.05-0.02,0.1-0.05,0.13s-0.07,0.05-0.13,0.05h-1.81
					C202.44,53.65,202.39,53.64,202.36,53.61z"/>
				<path class="st21" d="M211.34,53.38c-0.48-0.24-0.85-0.59-1.11-1.04c-0.26-0.45-0.39-0.96-0.39-1.55v-2.31
					c0-0.58,0.13-1.09,0.39-1.53c0.26-0.44,0.63-0.79,1.11-1.03c0.48-0.24,1.03-0.37,1.65-0.37s1.18,0.11,1.65,0.34
					c0.48,0.23,0.85,0.55,1.11,0.97c0.26,0.42,0.4,0.9,0.4,1.45c0,0.07-0.06,0.11-0.17,0.13l-1.81,0.12h-0.03
					c-0.09,0-0.14-0.04-0.14-0.13c0-0.31-0.09-0.56-0.27-0.75c-0.18-0.19-0.43-0.28-0.73-0.28c-0.3,0-0.55,0.09-0.73,0.28
					c-0.18,0.19-0.27,0.44-0.27,0.75v2.46c0,0.31,0.09,0.55,0.27,0.74c0.18,0.19,0.43,0.28,0.73,0.28c0.31,0,0.55-0.09,0.73-0.28
					c0.18-0.19,0.27-0.43,0.27-0.74c0-0.05,0.01-0.08,0.05-0.1c0.03-0.02,0.07-0.03,0.13-0.02l1.81,0.09
					c0.11,0.01,0.17,0.05,0.17,0.11c0,0.55-0.13,1.03-0.4,1.45c-0.26,0.42-0.63,0.75-1.11,0.98c-0.48,0.23-1.03,0.35-1.65,0.35
					S211.82,53.62,211.34,53.38z"/>
			</g>
		</g>
		<line class="st22" x1="84.03" y1="41.22" x2="219.98" y2="41.22"/>
		<line class="st22" x1="84.03" y1="57" x2="219.98" y2="57"/>
	</g>
</g>
</svg>
