<?xml version="1.0" encoding="utf-8"?>
<!-- Generator: Adobe Illustrator 24.3.0, SVG Export Plug-In . SVG Version: 6.00 Build 0)  -->
<svg version="1.1" id="Layer_1" xmlns="http://www.w3.org/2000/svg" xmlns:xlink="http://www.w3.org/1999/xlink" x="0px" y="0px"
	 viewBox="0 0 320 56" style="enable-background:new 0 0 320 56;" xml:space="preserve">
<style type="text/css">
	.st0{fill:#0D6A8D;}
	.st1{fill:#FFDD00;}
	.st2{fill:#FFFFFF;}
</style>
<g>
	<path class="st0" d="M9.33,0.5C4.17,0.5,0,4.82,0,10.12v35.77c0,5.3,4.17,9.62,9.33,9.62h55.33l25.62-55H9.33z"/>
	<path class="st1" d="M310.67,0.5H90.28l-25.62,55h246.01c5.14,0,9.33-4.32,9.33-9.62V10.12C320,4.82,315.81,0.5,310.67,0.5z"/>
</g>
<g>
	<path d="M98.67,36.21c-0.14,0-0.28-0.02-0.43-0.06s-0.28-0.09-0.41-0.17c-0.13-0.08-0.23-0.16-0.3-0.27
		c-0.08-0.1-0.11-0.22-0.11-0.34c0-0.08,0.01-0.13,0.02-0.17l3.78-12.31c0.08-0.23,0.23-0.4,0.48-0.51c0.24-0.11,0.51-0.17,0.8-0.17
		s0.56,0.06,0.81,0.17c0.25,0.11,0.41,0.29,0.48,0.51l3.76,12.31c0.03,0.08,0.04,0.13,0.04,0.17c0,0.11-0.04,0.22-0.12,0.32
		c-0.08,0.1-0.18,0.19-0.3,0.27c-0.12,0.08-0.26,0.14-0.41,0.18c-0.15,0.04-0.3,0.07-0.44,0.07c-0.17,0-0.31-0.03-0.43-0.1
		c-0.12-0.06-0.21-0.17-0.26-0.32l-0.78-2.7h-4.69l-0.78,2.7c-0.05,0.15-0.14,0.26-0.26,0.32C99,36.18,98.85,36.21,98.67,36.21z
		 M104.39,31.48l-1.9-6.52l-1.9,6.52H104.39z"/>
	<path d="M115.41,21.85c0.29,0,0.53,0.06,0.71,0.18c0.18,0.12,0.28,0.28,0.28,0.47v13.05c0,0.17-0.09,0.32-0.28,0.46
		s-0.42,0.21-0.71,0.21c-0.25,0-0.47-0.07-0.65-0.21c-0.18-0.14-0.27-0.29-0.27-0.46v-0.67c-0.19,0.39-0.52,0.74-1,1.04
		c-0.48,0.3-1.02,0.45-1.62,0.45c-0.44,0-0.87-0.1-1.27-0.31s-0.76-0.49-1.06-0.84c-0.3-0.35-0.55-0.75-0.73-1.21
		s-0.28-0.93-0.28-1.42v-1.75c0-0.51,0.09-0.99,0.27-1.44c0.18-0.46,0.42-0.85,0.73-1.2c0.31-0.34,0.67-0.61,1.08-0.81
		c0.41-0.2,0.85-0.29,1.32-0.29c0.61,0,1.12,0.15,1.53,0.45c0.41,0.3,0.73,0.63,0.94,1V22.5c0-0.19,0.09-0.35,0.28-0.47
		C114.88,21.91,115.12,21.85,115.41,21.85z M110.53,32.59c0,0.25,0.05,0.5,0.15,0.74c0.1,0.24,0.24,0.46,0.42,0.65
		c0.18,0.19,0.38,0.34,0.61,0.46s0.48,0.17,0.74,0.17c0.28,0,0.53-0.06,0.77-0.18c0.23-0.12,0.44-0.27,0.62-0.44
		s0.32-0.35,0.42-0.52c0.1-0.18,0.15-0.32,0.15-0.44v-2.18c0-0.3-0.06-0.58-0.17-0.83c-0.11-0.25-0.26-0.46-0.45-0.63
		s-0.39-0.3-0.62-0.39c-0.23-0.09-0.46-0.13-0.7-0.13c-0.27,0-0.52,0.06-0.75,0.17c-0.23,0.11-0.44,0.26-0.62,0.45
		c-0.18,0.18-0.32,0.4-0.42,0.64c-0.1,0.24-0.15,0.48-0.15,0.72V32.59z"/>
	<path d="M117.73,28.31c-0.03-0.04-0.05-0.09-0.07-0.15c-0.02-0.06-0.03-0.12-0.03-0.17c0-0.11,0.04-0.22,0.13-0.33
		c0.09-0.11,0.2-0.2,0.32-0.28c0.13-0.08,0.27-0.14,0.42-0.18c0.15-0.04,0.3-0.07,0.44-0.07c0.14,0,0.26,0.03,0.37,0.08
		c0.11,0.05,0.19,0.15,0.24,0.28l2.26,6l2.26-5.97c0.09-0.27,0.29-0.4,0.61-0.4c0.1,0,0.23,0.02,0.38,0.07
		c0.15,0.04,0.3,0.1,0.44,0.18c0.14,0.08,0.26,0.17,0.35,0.28c0.09,0.11,0.14,0.22,0.14,0.33c0,0.09-0.03,0.2-0.08,0.32l-3.19,7.7
		c-0.06,0.14-0.18,0.24-0.35,0.3s-0.36,0.09-0.56,0.09c-0.22,0-0.41-0.03-0.57-0.09s-0.28-0.16-0.34-0.3L117.73,28.31z"/>
	<path d="M130.1,27.09c0.7,0,1.29,0.1,1.78,0.31s0.88,0.48,1.19,0.83c0.3,0.34,0.53,0.73,0.67,1.18c0.14,0.44,0.21,0.9,0.21,1.37
		v4.77c0,0.18-0.09,0.33-0.28,0.46c-0.18,0.13-0.42,0.2-0.69,0.2c-0.25,0-0.47-0.07-0.65-0.2c-0.18-0.13-0.27-0.29-0.27-0.46v-0.67
		c-0.33,0.39-0.73,0.74-1.2,1.04c-0.47,0.3-1.03,0.45-1.67,0.45c-0.34,0-0.67-0.05-0.98-0.15c-0.31-0.1-0.58-0.26-0.81-0.47
		s-0.41-0.47-0.54-0.78c-0.13-0.31-0.2-0.68-0.2-1.11c0-0.53,0.11-0.97,0.32-1.33c0.22-0.35,0.52-0.63,0.91-0.84
		c0.39-0.2,0.86-0.34,1.41-0.43c0.54-0.08,1.15-0.12,1.8-0.12h0.84V30.8c0-0.24-0.03-0.48-0.09-0.73c-0.06-0.25-0.17-0.47-0.32-0.67
		c-0.15-0.2-0.35-0.35-0.59-0.48c-0.24-0.12-0.53-0.18-0.87-0.18s-0.63,0.03-0.85,0.09c-0.23,0.06-0.42,0.12-0.57,0.2
		c-0.15,0.08-0.28,0.14-0.39,0.2c-0.11,0.06-0.21,0.08-0.29,0.08c-0.24,0-0.42-0.11-0.54-0.33c-0.12-0.22-0.18-0.45-0.18-0.67
		c0-0.16,0.09-0.32,0.27-0.48c0.18-0.15,0.41-0.28,0.68-0.39c0.28-0.11,0.59-0.19,0.92-0.26C129.43,27.13,129.77,27.09,130.1,27.09z
		 M131.94,32.24h-0.47c-0.37,0-0.72,0.02-1.05,0.05c-0.34,0.03-0.63,0.09-0.88,0.19c-0.25,0.09-0.46,0.23-0.62,0.41
		c-0.16,0.18-0.24,0.42-0.24,0.72c0,0.43,0.12,0.74,0.35,0.94c0.23,0.2,0.53,0.29,0.88,0.29c0.24,0,0.48-0.06,0.72-0.17
		s0.46-0.26,0.66-0.44c0.2-0.18,0.35-0.38,0.48-0.61c0.12-0.23,0.18-0.46,0.18-0.68V32.24z"/>
	<path d="M137.96,35.55c0,0.17-0.1,0.32-0.3,0.46c-0.2,0.14-0.44,0.21-0.7,0.21c-0.29,0-0.53-0.07-0.71-0.21s-0.28-0.29-0.28-0.46
		v-7.7c0-0.19,0.09-0.35,0.28-0.47c0.18-0.12,0.42-0.18,0.71-0.18c0.25,0,0.46,0.06,0.64,0.18c0.17,0.12,0.26,0.28,0.26,0.47v0.68
		c0.19-0.37,0.5-0.7,0.93-1c0.43-0.3,0.97-0.45,1.61-0.45c0.44,0,0.87,0.1,1.26,0.29c0.4,0.2,0.75,0.47,1.05,0.81
		c0.3,0.34,0.54,0.74,0.72,1.2s0.27,0.94,0.27,1.44v4.71c0,0.21-0.1,0.38-0.31,0.49c-0.21,0.11-0.44,0.17-0.69,0.17
		c-0.23,0-0.45-0.06-0.67-0.17c-0.22-0.11-0.32-0.28-0.32-0.49v-4.71c0-0.24-0.05-0.48-0.15-0.72c-0.1-0.24-0.24-0.45-0.41-0.64
		s-0.37-0.33-0.61-0.45c-0.23-0.11-0.48-0.17-0.75-0.17c-0.23,0-0.45,0.04-0.67,0.13c-0.22,0.09-0.42,0.22-0.59,0.39
		s-0.31,0.38-0.41,0.63c-0.1,0.25-0.15,0.52-0.15,0.83V35.55z"/>
	<path d="M149.36,36.37c-0.68,0-1.28-0.09-1.78-0.28c-0.5-0.19-0.91-0.45-1.23-0.79c-0.32-0.33-0.56-0.73-0.71-1.2
		c-0.15-0.46-0.23-0.97-0.23-1.51v-1.71c0-0.53,0.08-1.03,0.23-1.49c0.15-0.46,0.39-0.86,0.71-1.2s0.73-0.6,1.23-0.8
		c0.49-0.2,1.08-0.29,1.77-0.29c0.43,0,0.82,0.04,1.18,0.12c0.35,0.08,0.66,0.19,0.92,0.32c0.26,0.13,0.46,0.28,0.6,0.45
		c0.14,0.17,0.21,0.33,0.21,0.49c0,0.19-0.07,0.4-0.22,0.63c-0.15,0.23-0.34,0.34-0.58,0.34c-0.1,0-0.2-0.03-0.3-0.09
		c-0.1-0.06-0.22-0.13-0.37-0.2s-0.32-0.14-0.52-0.2c-0.2-0.06-0.46-0.1-0.76-0.1c-0.72,0-1.25,0.18-1.59,0.53s-0.5,0.85-0.5,1.48
		v1.71c0,0.63,0.17,1.13,0.5,1.48c0.34,0.36,0.87,0.53,1.61,0.53c0.32,0,0.58-0.03,0.78-0.09c0.2-0.06,0.38-0.14,0.52-0.22
		s0.27-0.16,0.37-0.22s0.21-0.09,0.32-0.09c0.27,0,0.48,0.11,0.63,0.32c0.15,0.21,0.23,0.42,0.23,0.63c0,0.16-0.08,0.33-0.23,0.5
		c-0.15,0.17-0.36,0.33-0.63,0.47c-0.27,0.14-0.58,0.25-0.95,0.34C150.19,36.32,149.79,36.37,149.36,36.37z"/>
	<path d="M157.32,27.09c0.51,0,0.99,0.09,1.44,0.26c0.46,0.17,0.86,0.41,1.21,0.72c0.35,0.31,0.62,0.68,0.83,1.11s0.3,0.91,0.3,1.42
		c0,0.39-0.05,0.7-0.15,0.92c-0.1,0.22-0.23,0.38-0.39,0.48s-0.34,0.17-0.55,0.19s-0.42,0.04-0.64,0.04h-4.01v0.44
		c0,0.65,0.23,1.15,0.68,1.52c0.46,0.37,1.05,0.55,1.79,0.55c0.34,0,0.63-0.04,0.86-0.11s0.44-0.16,0.61-0.25s0.32-0.17,0.46-0.25
		s0.26-0.11,0.39-0.11c0.24,0,0.43,0.1,0.57,0.31s0.21,0.4,0.21,0.58c0,0.14-0.07,0.29-0.22,0.46c-0.15,0.17-0.36,0.33-0.64,0.48
		c-0.28,0.15-0.61,0.27-1,0.36c-0.39,0.1-0.82,0.14-1.3,0.14c-0.65,0-1.24-0.09-1.78-0.28c-0.54-0.18-1-0.44-1.4-0.77
		c-0.39-0.33-0.7-0.72-0.91-1.19c-0.22-0.46-0.32-0.98-0.32-1.55v-1.81c0-0.49,0.1-0.97,0.31-1.42c0.21-0.45,0.49-0.84,0.85-1.18
		c0.35-0.34,0.77-0.6,1.25-0.8C156.26,27.19,156.78,27.09,157.32,27.09z M158.52,31.01c0.28,0,0.47-0.04,0.56-0.11
		c0.1-0.08,0.14-0.23,0.14-0.46c0-0.51-0.18-0.94-0.55-1.29s-0.82-0.53-1.37-0.53c-0.27,0-0.52,0.04-0.75,0.13
		c-0.23,0.09-0.44,0.21-0.62,0.37c-0.18,0.16-0.32,0.34-0.42,0.56s-0.15,0.46-0.15,0.72v0.61H158.52z"/>
	<path d="M169.25,21.85c0.29,0,0.53,0.06,0.71,0.18c0.18,0.12,0.28,0.28,0.28,0.47v13.05c0,0.17-0.09,0.32-0.28,0.46
		c-0.18,0.14-0.42,0.21-0.71,0.21c-0.25,0-0.47-0.07-0.65-0.21c-0.18-0.14-0.27-0.29-0.27-0.46v-0.67c-0.19,0.39-0.52,0.74-1,1.04
		c-0.48,0.3-1.02,0.45-1.62,0.45c-0.44,0-0.87-0.1-1.27-0.31c-0.41-0.21-0.76-0.49-1.06-0.84c-0.3-0.35-0.55-0.75-0.73-1.21
		s-0.28-0.93-0.28-1.42v-1.75c0-0.51,0.09-0.99,0.27-1.44s0.42-0.85,0.73-1.2c0.31-0.34,0.67-0.61,1.08-0.81
		c0.41-0.2,0.85-0.29,1.32-0.29c0.61,0,1.12,0.15,1.53,0.45c0.41,0.3,0.72,0.63,0.94,1V22.5c0-0.19,0.09-0.35,0.29-0.47
		C168.72,21.91,168.96,21.85,169.25,21.85z M164.37,32.59c0,0.25,0.05,0.5,0.15,0.74c0.1,0.24,0.24,0.46,0.42,0.65
		c0.18,0.19,0.38,0.34,0.61,0.46s0.47,0.17,0.74,0.17c0.28,0,0.54-0.06,0.77-0.18c0.23-0.12,0.44-0.27,0.62-0.44
		s0.32-0.35,0.42-0.52c0.1-0.18,0.15-0.32,0.15-0.44v-2.18c0-0.3-0.06-0.58-0.17-0.83c-0.11-0.25-0.26-0.46-0.45-0.63
		s-0.39-0.3-0.62-0.39c-0.23-0.09-0.46-0.13-0.7-0.13c-0.27,0-0.52,0.06-0.75,0.17c-0.23,0.11-0.44,0.26-0.62,0.45
		c-0.18,0.18-0.32,0.4-0.42,0.64c-0.1,0.24-0.15,0.48-0.15,0.72V32.59z"/>
	<path d="M180.48,36.33c-0.61,0-1.17-0.08-1.69-0.23s-0.97-0.4-1.35-0.73s-0.68-0.77-0.89-1.31c-0.22-0.54-0.32-1.19-0.32-1.97
		v-5.53c0-0.77,0.11-1.43,0.32-1.97c0.21-0.54,0.51-0.98,0.89-1.31c0.38-0.34,0.83-0.58,1.35-0.73c0.52-0.15,1.08-0.23,1.69-0.23
		c0.6,0,1.15,0.08,1.67,0.23c0.52,0.15,0.97,0.4,1.36,0.73c0.39,0.34,0.69,0.77,0.91,1.31c0.22,0.54,0.33,1.19,0.33,1.97v5.53
		c0,0.77-0.11,1.43-0.33,1.97c-0.22,0.54-0.53,0.98-0.91,1.31s-0.84,0.58-1.36,0.73S181.08,36.33,180.48,36.33z M182.74,26.56
		c0-0.84-0.2-1.45-0.6-1.85c-0.4-0.4-0.95-0.6-1.66-0.6c-0.72,0-1.28,0.2-1.66,0.6c-0.39,0.4-0.58,1.02-0.58,1.85v5.53
		c0,0.84,0.19,1.45,0.58,1.85c0.39,0.4,0.94,0.6,1.66,0.6c0.71,0,1.26-0.2,1.66-0.6c0.4-0.4,0.6-1.02,0.6-1.85V26.56z"/>
	<path d="M190.67,36.37c-0.53,0-1.04-0.1-1.52-0.3s-0.9-0.48-1.25-0.83s-0.64-0.75-0.85-1.2c-0.21-0.45-0.31-0.92-0.31-1.42v-4.75
		c0-0.18,0.1-0.33,0.29-0.47c0.2-0.13,0.43-0.2,0.71-0.2c0.27,0,0.5,0.07,0.69,0.2c0.2,0.13,0.29,0.29,0.29,0.47v4.75
		c0,0.25,0.05,0.5,0.15,0.73c0.1,0.23,0.24,0.44,0.42,0.63c0.18,0.18,0.38,0.33,0.62,0.45s0.48,0.17,0.75,0.17
		c0.27,0,0.52-0.06,0.76-0.17c0.24-0.11,0.45-0.26,0.62-0.45s0.31-0.39,0.41-0.63c0.1-0.23,0.15-0.48,0.15-0.73v-4.77
		c0-0.18,0.1-0.33,0.29-0.46c0.2-0.13,0.43-0.19,0.71-0.19c0.29,0,0.53,0.06,0.7,0.19s0.27,0.28,0.27,0.46v4.77
		c0,0.49-0.1,0.97-0.31,1.42s-0.49,0.85-0.85,1.2c-0.36,0.34-0.77,0.62-1.25,0.82C191.7,36.26,191.2,36.37,190.67,36.37z"/>
	<path d="M198.57,33.25c0,0.46,0.1,0.78,0.29,0.97c0.2,0.19,0.54,0.29,1.04,0.29h0.67c0.29,0,0.51,0.09,0.65,0.27
		c0.14,0.18,0.21,0.37,0.21,0.59c0,0.22-0.07,0.41-0.21,0.59c-0.14,0.18-0.35,0.27-0.65,0.27h-0.67c-1.09,0-1.92-0.23-2.48-0.7
		s-0.84-1.22-0.84-2.26v-9.52c0-0.19,0.1-0.35,0.31-0.47c0.21-0.12,0.43-0.18,0.67-0.18c0.25,0,0.48,0.06,0.69,0.18
		c0.21,0.12,0.31,0.28,0.31,0.47v3.48h2.32c0.18,0,0.31,0.08,0.41,0.23c0.1,0.15,0.14,0.32,0.14,0.51s-0.05,0.36-0.14,0.51
		c-0.09,0.15-0.23,0.23-0.41,0.23h-2.32V33.25z"/>
	<path d="M207.14,28.86c-0.29,0-0.57,0.06-0.85,0.19s-0.52,0.31-0.73,0.55c-0.21,0.24-0.39,0.54-0.52,0.88s-0.2,0.74-0.2,1.17v3.9
		c0,0.17-0.1,0.32-0.29,0.46s-0.44,0.21-0.73,0.21c-0.29,0-0.53-0.07-0.7-0.21c-0.18-0.14-0.27-0.29-0.27-0.46v-7.7
		c0-0.19,0.09-0.35,0.27-0.47c0.18-0.12,0.41-0.18,0.7-0.18c0.25,0,0.47,0.06,0.65,0.18c0.18,0.12,0.27,0.28,0.27,0.47v0.84
		c0.1-0.2,0.23-0.4,0.39-0.59c0.16-0.19,0.34-0.36,0.55-0.51s0.44-0.27,0.68-0.36c0.25-0.09,0.51-0.13,0.79-0.13h0.61
		c0.2,0,0.38,0.09,0.53,0.26c0.15,0.17,0.23,0.38,0.23,0.62c0,0.25-0.08,0.47-0.23,0.64c-0.15,0.17-0.33,0.26-0.53,0.26H207.14z"/>
	<path d="M213.07,27.09c0.51,0,0.99,0.09,1.44,0.26c0.46,0.17,0.86,0.41,1.21,0.72c0.35,0.31,0.62,0.68,0.83,1.11s0.3,0.91,0.3,1.42
		c0,0.39-0.05,0.7-0.15,0.92c-0.1,0.22-0.23,0.38-0.39,0.48s-0.34,0.17-0.55,0.19s-0.42,0.04-0.64,0.04h-4.01v0.44
		c0,0.65,0.23,1.15,0.68,1.52c0.46,0.37,1.05,0.55,1.79,0.55c0.34,0,0.63-0.04,0.86-0.11s0.44-0.16,0.61-0.25s0.32-0.17,0.46-0.25
		s0.26-0.11,0.39-0.11c0.24,0,0.43,0.1,0.57,0.31s0.21,0.4,0.21,0.58c0,0.14-0.07,0.29-0.22,0.46c-0.15,0.17-0.36,0.33-0.64,0.48
		c-0.28,0.15-0.61,0.27-1,0.36c-0.39,0.1-0.82,0.14-1.3,0.14c-0.65,0-1.24-0.09-1.78-0.28c-0.54-0.18-1-0.44-1.4-0.77
		c-0.39-0.33-0.7-0.72-0.91-1.19c-0.22-0.46-0.32-0.98-0.32-1.55v-1.81c0-0.49,0.1-0.97,0.31-1.42c0.21-0.45,0.49-0.84,0.85-1.18
		c0.35-0.34,0.77-0.6,1.25-0.8C212.01,27.19,212.52,27.09,213.07,27.09z M214.26,31.01c0.28,0,0.47-0.04,0.56-0.11
		c0.1-0.08,0.14-0.23,0.14-0.46c0-0.51-0.18-0.94-0.55-1.29s-0.82-0.53-1.37-0.53c-0.27,0-0.52,0.04-0.75,0.13
		c-0.23,0.09-0.44,0.21-0.62,0.37c-0.18,0.16-0.32,0.34-0.42,0.56s-0.15,0.46-0.15,0.72v0.61H214.26z"/>
	<path d="M221.33,27.09c0.7,0,1.29,0.1,1.78,0.31s0.88,0.48,1.19,0.83s0.53,0.73,0.67,1.18c0.14,0.44,0.21,0.9,0.21,1.37v4.77
		c0,0.18-0.09,0.33-0.28,0.46c-0.18,0.13-0.42,0.2-0.69,0.2c-0.25,0-0.47-0.07-0.65-0.2c-0.18-0.13-0.27-0.29-0.27-0.46v-0.67
		c-0.33,0.39-0.73,0.74-1.2,1.04c-0.47,0.3-1.03,0.45-1.67,0.45c-0.34,0-0.67-0.05-0.98-0.15c-0.31-0.1-0.58-0.26-0.81-0.47
		c-0.23-0.21-0.41-0.47-0.54-0.78c-0.13-0.31-0.2-0.68-0.2-1.11c0-0.53,0.11-0.97,0.32-1.33c0.22-0.35,0.52-0.63,0.91-0.84
		c0.39-0.2,0.86-0.34,1.41-0.43c0.54-0.08,1.15-0.12,1.8-0.12h0.84V30.8c0-0.24-0.03-0.48-0.09-0.73s-0.17-0.47-0.32-0.67
		s-0.35-0.35-0.59-0.48c-0.24-0.12-0.53-0.18-0.87-0.18s-0.63,0.03-0.85,0.09c-0.23,0.06-0.42,0.12-0.57,0.2
		c-0.15,0.08-0.28,0.14-0.39,0.2c-0.11,0.06-0.21,0.08-0.29,0.08c-0.24,0-0.42-0.11-0.54-0.33c-0.12-0.22-0.18-0.45-0.18-0.67
		c0-0.16,0.09-0.32,0.27-0.48c0.18-0.15,0.41-0.28,0.68-0.39c0.28-0.11,0.59-0.19,0.92-0.26C220.67,27.13,221,27.09,221.33,27.09z
		 M223.17,32.24h-0.47c-0.37,0-0.72,0.02-1.05,0.05c-0.34,0.03-0.63,0.09-0.88,0.19c-0.25,0.09-0.46,0.23-0.62,0.41
		s-0.24,0.42-0.24,0.72c0,0.43,0.12,0.74,0.35,0.94c0.23,0.2,0.53,0.29,0.88,0.29c0.24,0,0.48-0.06,0.72-0.17
		c0.24-0.11,0.46-0.26,0.66-0.44c0.2-0.18,0.35-0.38,0.47-0.61c0.12-0.23,0.18-0.46,0.18-0.68V32.24z"/>
	<path d="M230.85,36.37c-0.68,0-1.28-0.09-1.78-0.28c-0.5-0.19-0.91-0.45-1.23-0.79c-0.32-0.33-0.56-0.73-0.71-1.2
		c-0.15-0.46-0.23-0.97-0.23-1.51v-1.71c0-0.53,0.08-1.03,0.23-1.49c0.15-0.46,0.39-0.86,0.71-1.2s0.73-0.6,1.23-0.8
		c0.49-0.2,1.08-0.29,1.77-0.29c0.43,0,0.82,0.04,1.18,0.12c0.35,0.08,0.66,0.19,0.92,0.32c0.26,0.13,0.46,0.28,0.6,0.45
		c0.14,0.17,0.21,0.33,0.21,0.49c0,0.19-0.07,0.4-0.22,0.63c-0.15,0.23-0.34,0.34-0.58,0.34c-0.1,0-0.2-0.03-0.3-0.09
		c-0.1-0.06-0.22-0.13-0.37-0.2s-0.32-0.14-0.52-0.2c-0.2-0.06-0.46-0.1-0.76-0.1c-0.72,0-1.25,0.18-1.59,0.53s-0.5,0.85-0.5,1.48
		v1.71c0,0.63,0.17,1.13,0.5,1.48c0.34,0.36,0.87,0.53,1.61,0.53c0.32,0,0.58-0.03,0.78-0.09c0.2-0.06,0.38-0.14,0.52-0.22
		s0.27-0.16,0.37-0.22s0.21-0.09,0.32-0.09c0.27,0,0.48,0.11,0.63,0.32c0.15,0.21,0.23,0.42,0.23,0.63c0,0.16-0.08,0.33-0.23,0.5
		c-0.15,0.17-0.36,0.33-0.63,0.47c-0.27,0.14-0.58,0.25-0.95,0.34C231.68,36.32,231.28,36.37,230.85,36.37z"/>
	<path d="M237.31,35.55c0,0.17-0.1,0.32-0.3,0.46c-0.2,0.14-0.44,0.21-0.7,0.21c-0.29,0-0.53-0.07-0.71-0.21
		c-0.18-0.14-0.28-0.29-0.28-0.46V22.5c0-0.19,0.09-0.35,0.28-0.47c0.18-0.12,0.42-0.18,0.71-0.18c0.27,0,0.5,0.06,0.7,0.18
		c0.2,0.12,0.3,0.28,0.3,0.47v6.04c0.18-0.37,0.48-0.7,0.89-1c0.42-0.3,0.93-0.45,1.54-0.45c0.44,0,0.86,0.1,1.26,0.29
		c0.4,0.2,0.75,0.47,1.05,0.81c0.3,0.34,0.54,0.74,0.72,1.2c0.18,0.46,0.27,0.94,0.27,1.44v4.71c0,0.21-0.1,0.38-0.31,0.49
		c-0.21,0.11-0.44,0.17-0.69,0.17c-0.23,0-0.45-0.06-0.67-0.17c-0.22-0.11-0.32-0.28-0.32-0.49v-4.71c0-0.24-0.05-0.48-0.15-0.72
		c-0.1-0.24-0.24-0.45-0.42-0.64c-0.18-0.18-0.38-0.33-0.61-0.45c-0.23-0.11-0.47-0.17-0.74-0.17c-0.23,0-0.45,0.04-0.67,0.13
		c-0.22,0.09-0.42,0.22-0.59,0.39s-0.31,0.38-0.41,0.63s-0.15,0.52-0.15,0.83V35.55z"/>
</g>
<g>
	<path class="st2" d="M38.1,18.58c1.89,0,3.33-1.43,3.33-3.32c0-1.91-1.44-3.37-3.33-3.38c-1.89,0-3.36,1.47-3.37,3.36
		C34.72,17.14,36.19,18.58,38.1,18.58z"/>
	<path class="st2" d="M30.26,37.88c-0.25-0.2-0.43-0.21-0.72-0.06c-1.67,0.89-3.36,0.89-5.03-0.03c-0.27-0.15-0.43-0.1-0.64,0.07
		c-0.98,0.82-1.67,1.84-1.78,3.11c-0.11,1.24-0.03,2.51-0.06,3.76c-0.01,0.43,0.16,0.53,0.56,0.53c1.5-0.02,2.99-0.01,4.49-0.01
		c1.53,0,3.06,0,4.58,0c0.3,0,0.45-0.07,0.44-0.4c-0.02-1.1,0.03-2.21-0.02-3.31C32.03,40.06,31.41,38.83,30.26,37.88z"/>
	<path class="st2" d="M54.15,41.54c-0.07-1.48-0.69-2.7-1.84-3.66c-0.25-0.2-0.43-0.21-0.72-0.06c-1.67,0.89-3.36,0.89-5.02-0.03
		c-0.27-0.15-0.43-0.1-0.64,0.07c-0.98,0.82-1.67,1.84-1.78,3.11c-0.11,1.24-0.03,2.51-0.06,3.76c-0.01,0.43,0.16,0.53,0.56,0.53
		c1.5-0.02,2.99-0.01,4.49-0.01c1.53,0,3.06,0,4.58,0c0.3,0,0.45-0.07,0.44-0.4C54.16,43.74,54.2,42.64,54.15,41.54z"/>
	<path class="st2" d="M45.92,35.17c0.42,1.37,1.66,2.32,3.2,2.32c1.89,0,3.33-1.43,3.33-3.32c0-1.91-1.44-3.37-3.33-3.38
		c-1.86,0-3.31,1.43-3.36,3.28l-5.46-2.03c-0.1-0.96-0.8-1.74-1.72-1.95v-3.75c1.38,0,2.75,0,4.13,0c0.3,0,0.45-0.07,0.44-0.4
		c-0.02-1.1,0.03-2.21-0.02-3.31c-0.07-1.48-0.69-2.7-1.84-3.66c-0.25-0.2-0.43-0.21-0.72-0.06c-1.67,0.89-3.36,0.89-5.02-0.03
		c-0.27-0.15-0.43-0.1-0.64,0.07c-0.98,0.82-1.67,1.84-1.78,3.11c-0.11,1.24-0.03,2.51-0.06,3.76c-0.01,0.43,0.16,0.53,0.56,0.53
		c1.32-0.02,2.65-0.01,3.97-0.01v3.76c-0.96,0.21-1.68,1.04-1.73,2.06l-5.47,2.04c0,0,0-0.01,0-0.01c0-1.91-1.44-3.37-3.33-3.38
		c-1.89,0-3.36,1.47-3.37,3.36c0,1.89,1.46,3.34,3.37,3.34c1.49,0,2.69-0.9,3.13-2.2l5.82-2.17c0.34,0.81,1.13,1.38,2.06,1.38
		c0.96,0,1.78-0.61,2.09-1.47L45.92,35.17z"/>
</g>
</svg>
