<?xml version="1.0" encoding="utf-8"?>
<!-- Generator: Adobe Illustrator 24.3.0, SVG Export Plug-In . SVG Version: 6.00 Build 0)  -->
<svg version="1.1" id="Layer_1" xmlns="http://www.w3.org/2000/svg" xmlns:xlink="http://www.w3.org/1999/xlink" x="0px" y="0px"
	 viewBox="0 0 320 56" style="enable-background:new 0 0 320 56;" xml:space="preserve">
<style type="text/css">
	.st0{fill:#0D6A8D;}
	.st1{fill:#FFDD00;}
	.st2{fill:#FFFFFF;}
</style>
<g>
	<path class="st0" d="M9.33,0.5C4.17,0.5,0,4.82,0,10.12v35.77c0,5.3,4.17,9.62,9.33,9.62h55.33l25.62-55H9.33z"/>
	<path class="st1" d="M310.67,0.5H90.28l-25.62,55h246.01c5.14,0,9.33-4.32,9.33-9.62V10.12C320,4.82,315.81,0.5,310.67,0.5z"/>
</g>
<g>
	<path d="M94.41,28.46h2.93c0.22,0,0.38,0.08,0.49,0.25S98,29.06,98,29.28c0,0.18-0.05,0.35-0.16,0.52
		c-0.11,0.17-0.28,0.26-0.5,0.26h-2.93v4.37h5.64c0.22,0,0.38,0.09,0.49,0.27c0.11,0.18,0.17,0.39,0.17,0.65
		c0,0.21-0.05,0.42-0.16,0.6c-0.11,0.18-0.28,0.28-0.5,0.28h-6.76c-0.22,0-0.42-0.06-0.61-0.17c-0.19-0.11-0.29-0.28-0.29-0.49
		V22.99c0-0.22,0.1-0.38,0.29-0.49c0.19-0.11,0.39-0.17,0.61-0.17h6.76c0.23,0,0.4,0.09,0.5,0.28c0.11,0.18,0.16,0.38,0.16,0.6
		c0,0.25-0.06,0.47-0.17,0.65c-0.11,0.18-0.28,0.27-0.49,0.27h-5.64V28.46z"/>
	<path d="M101.46,35.38c0-0.13,0.04-0.25,0.13-0.36l2.36-3.38l-2.24-3.19c-0.03-0.04-0.05-0.09-0.09-0.15
		c-0.03-0.06-0.05-0.13-0.05-0.19c0-0.11,0.04-0.23,0.13-0.35c0.09-0.12,0.2-0.23,0.32-0.32c0.13-0.09,0.27-0.17,0.42-0.24
		c0.15-0.06,0.3-0.1,0.44-0.1c0.06,0,0.14,0.01,0.24,0.04s0.17,0.09,0.24,0.19l1.94,3.04l1.94-3.02c0.06-0.1,0.14-0.17,0.24-0.2
		c0.09-0.03,0.18-0.05,0.26-0.05c0.11,0,0.25,0.03,0.4,0.1c0.15,0.06,0.29,0.14,0.43,0.24c0.13,0.1,0.24,0.2,0.33,0.32
		c0.09,0.12,0.13,0.24,0.13,0.35c0,0.1-0.04,0.22-0.13,0.34l-2.26,3.21l2.38,3.36c0.03,0.04,0.05,0.09,0.09,0.16
		c0.03,0.07,0.05,0.14,0.05,0.2c0,0.11-0.04,0.23-0.12,0.34c-0.08,0.11-0.19,0.22-0.31,0.31c-0.13,0.09-0.27,0.17-0.42,0.24
		c-0.15,0.06-0.29,0.09-0.42,0.09c-0.09,0-0.18-0.02-0.28-0.05c-0.09-0.03-0.17-0.09-0.24-0.18L105.3,33l-2.05,3.13
		c-0.06,0.08-0.15,0.13-0.25,0.17c-0.1,0.04-0.2,0.06-0.29,0.06c-0.11,0-0.24-0.03-0.38-0.08c-0.14-0.06-0.28-0.13-0.41-0.23
		c-0.13-0.09-0.24-0.2-0.33-0.32C101.51,35.61,101.46,35.49,101.46,35.38z"/>
	<path d="M114.04,27.09c0.51,0,0.99,0.09,1.44,0.26c0.46,0.17,0.86,0.41,1.21,0.72c0.35,0.31,0.62,0.68,0.83,1.11s0.3,0.91,0.3,1.42
		c0,0.39-0.05,0.7-0.15,0.92c-0.1,0.22-0.23,0.38-0.39,0.48c-0.16,0.1-0.34,0.17-0.55,0.19c-0.21,0.03-0.42,0.04-0.64,0.04h-4.01
		v0.44c0,0.65,0.23,1.15,0.68,1.52c0.46,0.37,1.05,0.55,1.79,0.55c0.34,0,0.63-0.04,0.86-0.11c0.23-0.08,0.44-0.16,0.61-0.25
		s0.32-0.17,0.46-0.25c0.13-0.08,0.26-0.11,0.39-0.11c0.24,0,0.43,0.1,0.57,0.31c0.14,0.21,0.21,0.4,0.21,0.58
		c0,0.14-0.07,0.29-0.22,0.46c-0.15,0.17-0.36,0.33-0.64,0.48c-0.28,0.15-0.61,0.27-1,0.36c-0.39,0.1-0.82,0.14-1.3,0.14
		c-0.65,0-1.24-0.09-1.78-0.28c-0.54-0.18-1-0.44-1.4-0.77c-0.39-0.33-0.7-0.72-0.91-1.19c-0.22-0.46-0.32-0.98-0.32-1.55v-1.81
		c0-0.49,0.1-0.97,0.31-1.42c0.21-0.45,0.49-0.84,0.85-1.18s0.77-0.6,1.25-0.8C112.98,27.19,113.49,27.09,114.04,27.09z
		 M115.24,31.01c0.28,0,0.47-0.04,0.56-0.11c0.09-0.08,0.14-0.23,0.14-0.46c0-0.51-0.18-0.94-0.55-1.29
		c-0.37-0.35-0.82-0.53-1.37-0.53c-0.27,0-0.52,0.04-0.75,0.13c-0.23,0.09-0.44,0.21-0.62,0.37c-0.18,0.16-0.32,0.34-0.42,0.56
		c-0.1,0.22-0.15,0.46-0.15,0.72v0.61H115.24z"/>
	<path d="M123.08,36.37c-0.68,0-1.28-0.09-1.78-0.28c-0.5-0.19-0.91-0.45-1.23-0.79c-0.32-0.33-0.56-0.73-0.71-1.2
		c-0.15-0.46-0.23-0.97-0.23-1.51v-1.71c0-0.53,0.08-1.03,0.23-1.49c0.15-0.46,0.39-0.86,0.71-1.2c0.32-0.34,0.73-0.6,1.23-0.8
		c0.49-0.2,1.08-0.29,1.77-0.29c0.43,0,0.82,0.04,1.18,0.12c0.35,0.08,0.66,0.19,0.92,0.32c0.26,0.13,0.46,0.28,0.6,0.45
		c0.14,0.17,0.21,0.33,0.21,0.49c0,0.19-0.07,0.4-0.22,0.63c-0.15,0.23-0.34,0.34-0.58,0.34c-0.1,0-0.2-0.03-0.3-0.09
		c-0.1-0.06-0.23-0.13-0.37-0.2s-0.32-0.14-0.52-0.2c-0.2-0.06-0.46-0.1-0.76-0.1c-0.72,0-1.25,0.18-1.59,0.53
		c-0.34,0.35-0.5,0.85-0.5,1.48v1.71c0,0.63,0.17,1.13,0.5,1.48c0.34,0.36,0.87,0.53,1.61,0.53c0.32,0,0.58-0.03,0.78-0.09
		s0.38-0.14,0.52-0.22s0.27-0.16,0.37-0.22c0.1-0.06,0.21-0.09,0.32-0.09c0.27,0,0.48,0.11,0.63,0.32c0.15,0.21,0.23,0.42,0.23,0.63
		c0,0.16-0.08,0.33-0.23,0.5s-0.36,0.33-0.63,0.47c-0.27,0.14-0.58,0.25-0.95,0.34C123.91,36.32,123.51,36.37,123.08,36.37z"/>
	<path d="M131.39,36.37c-0.53,0-1.04-0.1-1.52-0.3s-0.9-0.48-1.25-0.83s-0.64-0.75-0.85-1.2c-0.21-0.45-0.31-0.92-0.31-1.42v-4.75
		c0-0.18,0.1-0.33,0.29-0.47c0.2-0.13,0.43-0.2,0.71-0.2c0.27,0,0.5,0.07,0.69,0.2c0.2,0.13,0.29,0.29,0.29,0.47v4.75
		c0,0.25,0.05,0.5,0.15,0.73c0.1,0.23,0.24,0.44,0.42,0.63c0.18,0.18,0.38,0.33,0.62,0.45s0.48,0.17,0.75,0.17
		c0.27,0,0.52-0.06,0.76-0.17c0.24-0.11,0.45-0.26,0.62-0.45s0.31-0.39,0.41-0.63c0.1-0.23,0.15-0.48,0.15-0.73v-4.77
		c0-0.18,0.1-0.33,0.29-0.46c0.2-0.13,0.43-0.19,0.71-0.19c0.29,0,0.53,0.06,0.7,0.19s0.27,0.28,0.27,0.46v4.77
		c0,0.49-0.1,0.97-0.31,1.42s-0.49,0.85-0.85,1.2c-0.36,0.34-0.77,0.62-1.25,0.82C132.42,36.26,131.92,36.37,131.39,36.37z"/>
	<path d="M139.29,33.25c0,0.46,0.1,0.78,0.29,0.97c0.2,0.19,0.54,0.29,1.04,0.29h0.67c0.29,0,0.51,0.09,0.65,0.27
		c0.14,0.18,0.21,0.37,0.21,0.59c0,0.22-0.07,0.41-0.21,0.59c-0.14,0.18-0.35,0.27-0.65,0.27h-0.67c-1.09,0-1.92-0.23-2.48-0.7
		s-0.84-1.22-0.84-2.26v-9.52c0-0.19,0.1-0.35,0.31-0.47c0.21-0.12,0.43-0.18,0.67-0.18c0.25,0,0.48,0.06,0.69,0.18
		c0.21,0.12,0.31,0.28,0.31,0.47v3.48h2.32c0.18,0,0.31,0.08,0.41,0.23c0.1,0.15,0.14,0.32,0.14,0.51s-0.05,0.36-0.14,0.51
		c-0.09,0.15-0.23,0.23-0.41,0.23h-2.32V33.25z"/>
	<path d="M144.55,22.86c0.33,0,0.6,0.1,0.83,0.3c0.22,0.2,0.33,0.45,0.33,0.74c0,0.28-0.11,0.52-0.33,0.73s-0.5,0.31-0.83,0.31
		c-0.33,0-0.61-0.1-0.83-0.31s-0.33-0.45-0.33-0.73c0-0.29,0.11-0.54,0.33-0.74C143.95,22.96,144.22,22.86,144.55,22.86z
		 M144.55,27.21c0.29,0,0.53,0.06,0.72,0.18c0.19,0.12,0.29,0.28,0.29,0.47v7.7c0,0.17-0.09,0.32-0.29,0.46
		c-0.19,0.14-0.43,0.21-0.72,0.21c-0.29,0-0.53-0.07-0.71-0.21s-0.28-0.29-0.28-0.46v-7.7c0-0.19,0.09-0.35,0.28-0.47
		C144.02,27.27,144.26,27.21,144.55,27.21z"/>
	<path d="M146.87,28.31c-0.03-0.04-0.05-0.09-0.07-0.15c-0.02-0.06-0.03-0.12-0.03-0.17c0-0.11,0.04-0.22,0.13-0.33
		c0.09-0.11,0.2-0.2,0.32-0.28s0.27-0.14,0.42-0.18c0.15-0.04,0.3-0.07,0.44-0.07c0.14,0,0.26,0.03,0.37,0.08s0.19,0.15,0.24,0.28
		l2.26,6l2.26-5.97c0.09-0.27,0.29-0.4,0.61-0.4c0.1,0,0.23,0.02,0.38,0.07c0.15,0.04,0.3,0.1,0.44,0.18
		c0.14,0.08,0.26,0.17,0.35,0.28c0.09,0.11,0.14,0.22,0.14,0.33c0,0.09-0.03,0.2-0.08,0.32l-3.19,7.7c-0.06,0.14-0.18,0.24-0.35,0.3
		s-0.36,0.09-0.56,0.09c-0.21,0-0.41-0.03-0.57-0.09c-0.17-0.06-0.28-0.16-0.34-0.3L146.87,28.31z"/>
	<path d="M159.91,27.09c0.51,0,0.99,0.09,1.44,0.26c0.46,0.17,0.86,0.41,1.21,0.72c0.35,0.31,0.62,0.68,0.83,1.11s0.3,0.91,0.3,1.42
		c0,0.39-0.05,0.7-0.15,0.92c-0.1,0.22-0.23,0.38-0.39,0.48s-0.34,0.17-0.55,0.19s-0.42,0.04-0.64,0.04h-4.01v0.44
		c0,0.65,0.23,1.15,0.68,1.52c0.46,0.37,1.05,0.55,1.79,0.55c0.34,0,0.63-0.04,0.86-0.11s0.44-0.16,0.61-0.25s0.32-0.17,0.46-0.25
		s0.26-0.11,0.39-0.11c0.24,0,0.43,0.1,0.57,0.31s0.21,0.4,0.21,0.58c0,0.14-0.07,0.29-0.22,0.46c-0.15,0.17-0.36,0.33-0.64,0.48
		c-0.28,0.15-0.61,0.27-1,0.36c-0.39,0.1-0.82,0.14-1.3,0.14c-0.65,0-1.24-0.09-1.78-0.28c-0.54-0.18-1-0.44-1.4-0.77
		c-0.39-0.33-0.7-0.72-0.91-1.19c-0.22-0.46-0.32-0.98-0.32-1.55v-1.81c0-0.49,0.1-0.97,0.31-1.42c0.21-0.45,0.49-0.84,0.85-1.18
		c0.35-0.34,0.77-0.6,1.25-0.8C158.85,27.19,159.36,27.09,159.91,27.09z M161.1,31.01c0.28,0,0.47-0.04,0.56-0.11
		c0.1-0.08,0.14-0.23,0.14-0.46c0-0.51-0.18-0.94-0.55-1.29s-0.82-0.53-1.37-0.53c-0.27,0-0.52,0.04-0.75,0.13
		c-0.23,0.09-0.44,0.21-0.62,0.37c-0.18,0.16-0.32,0.34-0.42,0.56s-0.15,0.46-0.15,0.72v0.61H161.1z"/>
	<path d="M180.1,35.64c-0.08,0.23-0.24,0.4-0.49,0.51c-0.25,0.11-0.52,0.17-0.8,0.17s-0.54-0.06-0.79-0.17
		c-0.25-0.11-0.4-0.28-0.47-0.51l-1.44-5.74l-1.44,5.74c-0.06,0.23-0.22,0.4-0.47,0.51c-0.25,0.11-0.52,0.17-0.81,0.17
		s-0.56-0.06-0.81-0.17c-0.25-0.11-0.4-0.28-0.46-0.51l-3.78-12.31c-0.01-0.04-0.02-0.1-0.02-0.19c0-0.11,0.04-0.22,0.11-0.32
		c0.08-0.1,0.17-0.19,0.29-0.27c0.12-0.08,0.26-0.13,0.41-0.17s0.3-0.06,0.44-0.06c0.17,0,0.31,0.04,0.45,0.1
		c0.13,0.07,0.22,0.17,0.26,0.31l3.12,10.83l1.71-6.8c0.05-0.22,0.17-0.37,0.35-0.46c0.18-0.09,0.4-0.13,0.66-0.13
		c0.23,0,0.43,0.04,0.62,0.13c0.18,0.09,0.31,0.24,0.37,0.46l1.73,6.8l3.1-10.83c0.04-0.14,0.12-0.24,0.26-0.31
		c0.13-0.07,0.28-0.1,0.45-0.1c0.14,0,0.29,0.02,0.44,0.06c0.15,0.04,0.29,0.1,0.41,0.17c0.12,0.08,0.22,0.17,0.29,0.27
		c0.08,0.1,0.11,0.21,0.11,0.32c0,0.09-0.01,0.15-0.02,0.19L180.1,35.64z"/>
	<path d="M187.85,27.09c0.51,0,0.99,0.09,1.44,0.26c0.46,0.17,0.86,0.41,1.21,0.72c0.35,0.31,0.62,0.68,0.83,1.11s0.3,0.91,0.3,1.42
		c0,0.39-0.05,0.7-0.15,0.92c-0.1,0.22-0.23,0.38-0.39,0.48s-0.34,0.17-0.55,0.19s-0.42,0.04-0.64,0.04h-4.01v0.44
		c0,0.65,0.23,1.15,0.68,1.52c0.46,0.37,1.05,0.55,1.79,0.55c0.34,0,0.63-0.04,0.86-0.11s0.44-0.16,0.61-0.25s0.32-0.17,0.46-0.25
		s0.26-0.11,0.39-0.11c0.24,0,0.43,0.1,0.57,0.31s0.21,0.4,0.21,0.58c0,0.14-0.07,0.29-0.22,0.46c-0.15,0.17-0.36,0.33-0.64,0.48
		c-0.28,0.15-0.61,0.27-1,0.36c-0.39,0.1-0.82,0.14-1.3,0.14c-0.65,0-1.24-0.09-1.78-0.28c-0.54-0.18-1-0.44-1.4-0.77
		c-0.39-0.33-0.7-0.72-0.91-1.19c-0.22-0.46-0.32-0.98-0.32-1.55v-1.81c0-0.49,0.1-0.97,0.31-1.42c0.21-0.45,0.49-0.84,0.85-1.18
		c0.35-0.34,0.77-0.6,1.25-0.8C186.8,27.19,187.31,27.09,187.85,27.09z M189.05,31.01c0.28,0,0.47-0.04,0.56-0.11
		c0.1-0.08,0.14-0.23,0.14-0.46c0-0.51-0.18-0.94-0.55-1.29s-0.82-0.53-1.37-0.53c-0.27,0-0.52,0.04-0.75,0.13
		c-0.23,0.09-0.44,0.21-0.62,0.37c-0.18,0.16-0.32,0.34-0.42,0.56s-0.15,0.46-0.15,0.72v0.61H189.05z"/>
	<path d="M194.41,21.85c0.28,0,0.52,0.06,0.71,0.18c0.2,0.12,0.29,0.28,0.29,0.47v13.05c0,0.17-0.1,0.32-0.29,0.46
		s-0.43,0.21-0.71,0.21c-0.29,0-0.53-0.07-0.71-0.21s-0.28-0.29-0.28-0.46V22.5c0-0.19,0.09-0.35,0.28-0.47
		C193.88,21.91,194.12,21.85,194.41,21.85z"/>
	<path d="M198.84,21.85c0.28,0,0.52,0.06,0.71,0.18c0.2,0.12,0.29,0.28,0.29,0.47v13.05c0,0.17-0.1,0.32-0.29,0.46
		s-0.43,0.21-0.71,0.21c-0.29,0-0.53-0.07-0.71-0.21s-0.28-0.29-0.28-0.46V22.5c0-0.19,0.09-0.35,0.28-0.47
		C198.31,21.91,198.54,21.85,198.84,21.85z"/>
	<path d="M204.1,35.55c0,0.17-0.1,0.32-0.3,0.46c-0.2,0.14-0.44,0.21-0.7,0.21c-0.29,0-0.53-0.07-0.71-0.21s-0.28-0.29-0.28-0.46
		v-7.7c0-0.19,0.09-0.35,0.28-0.47c0.18-0.12,0.42-0.18,0.71-0.18c0.25,0,0.46,0.06,0.64,0.18c0.17,0.12,0.26,0.28,0.26,0.47v0.68
		c0.19-0.37,0.5-0.7,0.93-1c0.43-0.3,0.97-0.45,1.61-0.45c0.44,0,0.87,0.1,1.26,0.29c0.4,0.2,0.75,0.47,1.05,0.81
		c0.3,0.34,0.54,0.74,0.72,1.2s0.27,0.94,0.27,1.44v4.71c0,0.21-0.1,0.38-0.31,0.49c-0.21,0.11-0.44,0.17-0.69,0.17
		c-0.23,0-0.45-0.06-0.67-0.17c-0.22-0.11-0.32-0.28-0.32-0.49v-4.71c0-0.24-0.05-0.48-0.15-0.72c-0.1-0.24-0.24-0.45-0.41-0.64
		s-0.37-0.33-0.61-0.45c-0.23-0.11-0.48-0.17-0.75-0.17c-0.23,0-0.45,0.04-0.67,0.13c-0.22,0.09-0.42,0.22-0.59,0.39
		s-0.31,0.38-0.41,0.63c-0.1,0.25-0.15,0.52-0.15,0.83V35.55z"/>
	<path d="M215.46,27.09c0.51,0,0.99,0.09,1.44,0.26c0.46,0.17,0.86,0.41,1.21,0.72c0.35,0.31,0.62,0.68,0.83,1.11s0.3,0.91,0.3,1.42
		c0,0.39-0.05,0.7-0.15,0.92c-0.1,0.22-0.23,0.38-0.39,0.48s-0.34,0.17-0.55,0.19s-0.42,0.04-0.64,0.04h-4.01v0.44
		c0,0.65,0.23,1.15,0.68,1.52c0.46,0.37,1.05,0.55,1.79,0.55c0.34,0,0.63-0.04,0.86-0.11s0.44-0.16,0.61-0.25s0.32-0.17,0.46-0.25
		s0.26-0.11,0.39-0.11c0.24,0,0.43,0.1,0.57,0.31s0.21,0.4,0.21,0.58c0,0.14-0.07,0.29-0.22,0.46c-0.15,0.17-0.36,0.33-0.64,0.48
		c-0.28,0.15-0.61,0.27-1,0.36c-0.39,0.1-0.82,0.14-1.3,0.14c-0.65,0-1.24-0.09-1.78-0.28c-0.54-0.18-1-0.44-1.4-0.77
		c-0.39-0.33-0.7-0.72-0.91-1.19c-0.22-0.46-0.32-0.98-0.32-1.55v-1.81c0-0.49,0.1-0.97,0.31-1.42c0.21-0.45,0.49-0.84,0.85-1.18
		c0.35-0.34,0.77-0.6,1.25-0.8C214.4,27.19,214.92,27.09,215.46,27.09z M216.66,31.01c0.28,0,0.47-0.04,0.56-0.11
		c0.1-0.08,0.14-0.23,0.14-0.46c0-0.51-0.18-0.94-0.55-1.29s-0.82-0.53-1.37-0.53c-0.27,0-0.52,0.04-0.75,0.13
		c-0.23,0.09-0.44,0.21-0.62,0.37c-0.18,0.16-0.32,0.34-0.42,0.56s-0.15,0.46-0.15,0.72v0.61H216.66z"/>
	<path d="M223.54,34.83c0.32,0,0.58-0.03,0.78-0.08c0.2-0.06,0.37-0.13,0.49-0.23c0.13-0.09,0.21-0.21,0.27-0.33
		s0.08-0.25,0.08-0.38c0-0.33-0.11-0.59-0.34-0.77c-0.23-0.18-0.51-0.33-0.85-0.45c-0.34-0.11-0.7-0.22-1.1-0.33
		c-0.4-0.11-0.77-0.25-1.1-0.44s-0.62-0.43-0.85-0.73c-0.23-0.3-0.34-0.72-0.34-1.25c0-0.33,0.06-0.66,0.17-0.98
		c0.11-0.32,0.3-0.61,0.55-0.87c0.25-0.26,0.59-0.47,1.01-0.64c0.42-0.16,0.92-0.25,1.52-0.25c0.35,0,0.7,0.03,1.04,0.09
		c0.34,0.06,0.65,0.14,0.91,0.25c0.27,0.11,0.48,0.23,0.65,0.36c0.16,0.13,0.25,0.28,0.25,0.43c0,0.08-0.02,0.17-0.05,0.28
		c-0.03,0.11-0.08,0.21-0.15,0.31c-0.07,0.1-0.15,0.19-0.25,0.27c-0.09,0.08-0.2,0.11-0.31,0.11c-0.1,0-0.21-0.03-0.34-0.09
		c-0.13-0.06-0.27-0.12-0.44-0.19c-0.17-0.07-0.35-0.13-0.56-0.19s-0.45-0.09-0.71-0.09c-0.56,0-0.95,0.12-1.19,0.37
		s-0.35,0.49-0.35,0.73c0,0.28,0.11,0.49,0.34,0.64c0.23,0.15,0.51,0.27,0.86,0.38c0.34,0.11,0.71,0.22,1.11,0.32
		c0.4,0.11,0.77,0.26,1.11,0.47c0.34,0.2,0.63,0.47,0.86,0.82c0.23,0.34,0.34,0.8,0.34,1.37c0,0.81-0.29,1.45-0.86,1.93
		c-0.58,0.47-1.4,0.71-2.48,0.71c-0.47,0-0.9-0.04-1.3-0.13c-0.4-0.09-0.74-0.21-1.04-0.35c-0.29-0.15-0.52-0.31-0.68-0.49
		c-0.16-0.18-0.25-0.36-0.25-0.54s0.06-0.37,0.19-0.58c0.13-0.21,0.29-0.31,0.49-0.31c0.13,0,0.25,0.04,0.38,0.13
		c0.13,0.09,0.28,0.19,0.46,0.3c0.18,0.11,0.4,0.22,0.67,0.3C222.79,34.78,223.13,34.83,223.54,34.83z"/>
	<path d="M231.21,34.83c0.32,0,0.58-0.03,0.78-0.08c0.2-0.06,0.37-0.13,0.49-0.23c0.13-0.09,0.21-0.21,0.27-0.33
		s0.08-0.25,0.08-0.38c0-0.33-0.11-0.59-0.34-0.77c-0.23-0.18-0.51-0.33-0.85-0.45c-0.34-0.11-0.7-0.22-1.1-0.33
		c-0.4-0.11-0.77-0.25-1.1-0.44s-0.62-0.43-0.85-0.73c-0.23-0.3-0.34-0.72-0.34-1.25c0-0.33,0.06-0.66,0.17-0.98
		c0.11-0.32,0.3-0.61,0.55-0.87c0.25-0.26,0.59-0.47,1.01-0.64c0.42-0.16,0.92-0.25,1.52-0.25c0.35,0,0.7,0.03,1.04,0.09
		c0.34,0.06,0.65,0.14,0.91,0.25c0.27,0.11,0.48,0.23,0.65,0.36c0.16,0.13,0.25,0.28,0.25,0.43c0,0.08-0.02,0.17-0.05,0.28
		c-0.03,0.11-0.08,0.21-0.15,0.31c-0.07,0.1-0.15,0.19-0.25,0.27c-0.09,0.08-0.2,0.11-0.31,0.11c-0.1,0-0.21-0.03-0.34-0.09
		c-0.13-0.06-0.27-0.12-0.44-0.19c-0.17-0.07-0.35-0.13-0.56-0.19s-0.45-0.09-0.71-0.09c-0.56,0-0.95,0.12-1.19,0.37
		S230,29.5,230,29.74c0,0.28,0.11,0.49,0.34,0.64c0.23,0.15,0.51,0.27,0.86,0.38c0.34,0.11,0.71,0.22,1.11,0.32
		c0.4,0.11,0.77,0.26,1.11,0.47c0.34,0.2,0.63,0.47,0.86,0.82c0.23,0.34,0.34,0.8,0.34,1.37c0,0.81-0.29,1.45-0.86,1.93
		c-0.58,0.47-1.4,0.71-2.48,0.71c-0.47,0-0.9-0.04-1.3-0.13c-0.4-0.09-0.74-0.21-1.04-0.35c-0.29-0.15-0.52-0.31-0.68-0.49
		c-0.16-0.18-0.25-0.36-0.25-0.54s0.06-0.37,0.19-0.58c0.13-0.21,0.29-0.31,0.49-0.31c0.13,0,0.25,0.04,0.38,0.13
		c0.13,0.09,0.28,0.19,0.46,0.3c0.18,0.11,0.4,0.22,0.67,0.3C230.47,34.78,230.81,34.83,231.21,34.83z"/>
	<path d="M240.22,22.97c0-0.18,0.07-0.33,0.21-0.46c0.14-0.13,0.33-0.19,0.57-0.19h3.71c0.58,0,1.13,0.07,1.63,0.22
		s0.95,0.39,1.32,0.72c0.37,0.34,0.67,0.77,0.88,1.3c0.21,0.53,0.32,1.18,0.32,1.94v0.15c0,0.76-0.11,1.41-0.33,1.94
		c-0.22,0.53-0.53,0.97-0.91,1.3c-0.39,0.33-0.84,0.58-1.36,0.73c-0.52,0.15-1.08,0.23-1.67,0.23h-2.36v4.69
		c0,0.21-0.1,0.38-0.31,0.49c-0.21,0.11-0.44,0.17-0.69,0.17c-0.25,0-0.48-0.06-0.69-0.17c-0.21-0.11-0.31-0.28-0.31-0.49V22.97z
		 M242.23,24.11v5.15h2.36c0.71,0,1.26-0.2,1.66-0.61c0.4-0.41,0.6-1.03,0.6-1.86v-0.23c0-0.84-0.2-1.45-0.6-1.85
		c-0.4-0.4-0.95-0.6-1.66-0.6H242.23z"/>
	<path d="M254.52,28.86c-0.29,0-0.57,0.06-0.85,0.19s-0.52,0.31-0.73,0.55c-0.21,0.24-0.39,0.54-0.52,0.88s-0.2,0.74-0.2,1.17v3.9
		c0,0.17-0.1,0.32-0.29,0.46s-0.44,0.21-0.73,0.21c-0.29,0-0.53-0.07-0.7-0.21c-0.18-0.14-0.27-0.29-0.27-0.46v-7.7
		c0-0.19,0.09-0.35,0.27-0.47c0.18-0.12,0.41-0.18,0.7-0.18c0.25,0,0.47,0.06,0.65,0.18c0.18,0.12,0.27,0.28,0.27,0.47v0.84
		c0.1-0.2,0.23-0.4,0.39-0.59c0.16-0.19,0.34-0.36,0.55-0.51s0.44-0.27,0.68-0.36c0.25-0.09,0.51-0.13,0.79-0.13h0.61
		c0.2,0,0.38,0.09,0.53,0.26c0.15,0.17,0.23,0.38,0.23,0.62c0,0.25-0.08,0.47-0.23,0.64c-0.15,0.17-0.33,0.26-0.53,0.26H254.52z"/>
	<path d="M260.41,27.09c0.52,0,1.02,0.1,1.49,0.29c0.48,0.2,0.89,0.47,1.25,0.81c0.36,0.34,0.65,0.74,0.86,1.2
		c0.22,0.46,0.32,0.94,0.32,1.44v1.75c0,0.49-0.11,0.97-0.32,1.42c-0.21,0.46-0.5,0.86-0.86,1.21c-0.36,0.35-0.78,0.63-1.25,0.84
		c-0.47,0.21-0.97,0.31-1.49,0.31c-0.53,0-1.04-0.1-1.51-0.31s-0.89-0.49-1.25-0.84c-0.36-0.35-0.65-0.75-0.86-1.21
		s-0.31-0.93-0.31-1.42v-1.75c0-0.49,0.1-0.97,0.31-1.42c0.21-0.46,0.49-0.86,0.85-1.2s0.77-0.61,1.25-0.82
		C259.36,27.2,259.87,27.09,260.41,27.09z M262.35,30.84c0-0.24-0.05-0.48-0.15-0.72c-0.1-0.24-0.24-0.45-0.42-0.64
		c-0.18-0.18-0.38-0.33-0.62-0.45c-0.23-0.11-0.48-0.17-0.75-0.17c-0.27,0-0.52,0.06-0.76,0.17c-0.24,0.11-0.45,0.26-0.62,0.45
		s-0.31,0.4-0.41,0.64c-0.1,0.24-0.15,0.48-0.15,0.72v1.75c0,0.25,0.05,0.5,0.15,0.74c0.1,0.24,0.24,0.46,0.41,0.65
		s0.38,0.34,0.62,0.46c0.24,0.11,0.49,0.17,0.76,0.17c0.27,0,0.52-0.06,0.75-0.17s0.44-0.27,0.62-0.46
		c0.18-0.19,0.32-0.41,0.42-0.65c0.1-0.24,0.15-0.49,0.15-0.74V30.84z"/>
	<path d="M269.34,33.9c-0.49,0-0.93-0.08-1.31-0.23c-0.1,0.06-0.19,0.14-0.26,0.22c-0.07,0.08-0.1,0.19-0.1,0.31
		c0,0.23,0.14,0.39,0.43,0.49c0.29,0.1,0.64,0.18,1.07,0.24c0.43,0.06,0.89,0.12,1.39,0.19s0.96,0.19,1.39,0.36
		c0.43,0.17,0.79,0.42,1.07,0.76c0.29,0.33,0.43,0.79,0.43,1.38c0,0.49-0.11,0.92-0.32,1.28c-0.22,0.36-0.5,0.66-0.86,0.89
		c-0.36,0.23-0.79,0.41-1.27,0.52c-0.49,0.11-1,0.17-1.53,0.17c-0.56,0-1.08-0.06-1.57-0.18c-0.49-0.12-0.92-0.29-1.28-0.51
		s-0.66-0.49-0.87-0.82c-0.21-0.32-0.32-0.69-0.32-1.11c0-0.51,0.14-0.92,0.43-1.25c0.29-0.33,0.63-0.59,1.04-0.78
		c-0.27-0.11-0.48-0.27-0.65-0.46c-0.16-0.19-0.25-0.46-0.25-0.8c0-0.35,0.09-0.64,0.26-0.86c0.17-0.21,0.4-0.41,0.69-0.59
		c-0.35-0.28-0.63-0.62-0.83-1.04c-0.2-0.41-0.29-0.87-0.29-1.36v-0.53c0-0.46,0.09-0.87,0.26-1.25s0.41-0.71,0.71-0.99
		c0.3-0.28,0.67-0.49,1.11-0.65c0.44-0.15,0.92-0.23,1.45-0.23c0.89,0,1.62,0.22,2.2,0.65c0.2-0.46,0.41-0.78,0.62-0.98
		c0.21-0.2,0.42-0.29,0.62-0.29c0.25,0,0.45,0.08,0.6,0.24c0.15,0.16,0.22,0.31,0.22,0.45c0,0.1-0.03,0.19-0.09,0.28
		c-0.06,0.08-0.14,0.15-0.23,0.2c-0.14,0.06-0.29,0.15-0.46,0.27c-0.17,0.11-0.33,0.28-0.48,0.49c0.41,0.51,0.61,1.11,0.61,1.82
		v0.53c0,0.46-0.09,0.87-0.27,1.25c-0.18,0.38-0.42,0.71-0.74,1s-0.69,0.51-1.13,0.67C270.36,33.82,269.88,33.9,269.34,33.9z
		 M271.51,37.68c0-0.32-0.1-0.57-0.29-0.75s-0.44-0.32-0.73-0.42c-0.29-0.09-0.61-0.16-0.95-0.19c-0.34-0.03-0.67-0.06-0.97-0.09
		c-0.35,0.14-0.66,0.32-0.9,0.55c-0.25,0.23-0.37,0.52-0.37,0.87c0,0.47,0.2,0.84,0.6,1.1c0.4,0.27,0.92,0.4,1.55,0.4
		c0.61,0,1.11-0.13,1.49-0.4C271.32,38.49,271.51,38.13,271.51,37.68z M271,30.21c0-0.52-0.14-0.96-0.42-1.31
		c-0.28-0.35-0.68-0.53-1.22-0.53c-0.52,0-0.92,0.18-1.2,0.53c-0.28,0.35-0.42,0.79-0.42,1.31v0.51c0,0.54,0.14,1,0.42,1.36
		c0.28,0.36,0.68,0.54,1.22,0.54c0.51,0,0.9-0.18,1.19-0.53s0.43-0.8,0.43-1.35V30.21z"/>
	<path d="M279.19,28.86c-0.29,0-0.57,0.06-0.85,0.19s-0.52,0.31-0.73,0.55c-0.21,0.24-0.39,0.54-0.52,0.88s-0.2,0.74-0.2,1.17v3.9
		c0,0.17-0.1,0.32-0.29,0.46s-0.44,0.21-0.73,0.21c-0.29,0-0.53-0.07-0.7-0.21c-0.18-0.14-0.27-0.29-0.27-0.46v-7.7
		c0-0.19,0.09-0.35,0.27-0.47c0.18-0.12,0.41-0.18,0.7-0.18c0.25,0,0.47,0.06,0.65,0.18c0.18,0.12,0.27,0.28,0.27,0.47v0.84
		c0.1-0.2,0.23-0.4,0.39-0.59c0.16-0.19,0.34-0.36,0.55-0.51s0.44-0.27,0.68-0.36c0.25-0.09,0.51-0.13,0.79-0.13h0.61
		c0.2,0,0.38,0.09,0.53,0.26c0.15,0.17,0.23,0.38,0.23,0.62c0,0.25-0.08,0.47-0.23,0.64c-0.15,0.17-0.33,0.26-0.53,0.26H279.19z"/>
	<path d="M284.6,27.09c0.7,0,1.29,0.1,1.78,0.31s0.88,0.48,1.19,0.83s0.53,0.73,0.67,1.18c0.14,0.44,0.21,0.9,0.21,1.37v4.77
		c0,0.18-0.09,0.33-0.28,0.46c-0.18,0.13-0.42,0.2-0.69,0.2c-0.25,0-0.47-0.07-0.65-0.2c-0.18-0.13-0.27-0.29-0.27-0.46v-0.67
		c-0.33,0.39-0.73,0.74-1.2,1.04c-0.47,0.3-1.03,0.45-1.67,0.45c-0.34,0-0.67-0.05-0.98-0.15c-0.31-0.1-0.58-0.26-0.81-0.47
		c-0.23-0.21-0.41-0.47-0.54-0.78c-0.13-0.31-0.2-0.68-0.2-1.11c0-0.53,0.11-0.97,0.32-1.33c0.22-0.35,0.52-0.63,0.91-0.84
		c0.39-0.2,0.86-0.34,1.41-0.43c0.54-0.08,1.15-0.12,1.8-0.12h0.84V30.8c0-0.24-0.03-0.48-0.09-0.73s-0.17-0.47-0.32-0.67
		s-0.35-0.35-0.59-0.48c-0.24-0.12-0.53-0.18-0.87-0.18s-0.63,0.03-0.85,0.09c-0.23,0.06-0.42,0.12-0.57,0.2
		c-0.15,0.08-0.28,0.14-0.39,0.2c-0.11,0.06-0.21,0.08-0.29,0.08c-0.24,0-0.42-0.11-0.54-0.33c-0.12-0.22-0.18-0.45-0.18-0.67
		c0-0.16,0.09-0.32,0.27-0.48c0.18-0.15,0.41-0.28,0.68-0.39c0.28-0.11,0.59-0.19,0.92-0.26C283.94,27.13,284.27,27.09,284.6,27.09z
		 M286.44,32.24h-0.47c-0.37,0-0.72,0.02-1.05,0.05c-0.34,0.03-0.63,0.09-0.88,0.19c-0.25,0.09-0.46,0.23-0.62,0.41
		s-0.24,0.42-0.24,0.72c0,0.43,0.12,0.74,0.35,0.94c0.23,0.2,0.53,0.29,0.88,0.29c0.24,0,0.48-0.06,0.72-0.17
		c0.24-0.11,0.46-0.26,0.66-0.44c0.2-0.18,0.35-0.38,0.47-0.61c0.12-0.23,0.18-0.46,0.18-0.68V32.24z"/>
	<path d="M296,30.82c0-0.59-0.18-1.07-0.53-1.42s-0.77-0.53-1.24-0.53c-0.23,0-0.45,0.04-0.66,0.12c-0.21,0.08-0.4,0.21-0.56,0.38
		s-0.3,0.38-0.4,0.63c-0.1,0.25-0.15,0.53-0.15,0.85v4.71c0,0.17-0.1,0.32-0.3,0.46c-0.2,0.14-0.44,0.21-0.7,0.21
		c-0.29,0-0.53-0.07-0.71-0.21s-0.28-0.29-0.28-0.46v-7.7c0-0.19,0.09-0.35,0.28-0.47c0.18-0.12,0.42-0.18,0.71-0.18
		c0.24,0,0.45,0.06,0.63,0.18c0.18,0.12,0.27,0.28,0.27,0.47v0.68c0.22-0.37,0.53-0.7,0.94-1c0.41-0.3,0.94-0.45,1.59-0.45
		c0.57,0,1.07,0.17,1.51,0.52c0.44,0.35,0.76,0.81,0.98,1.38c0.33-0.65,0.75-1.12,1.26-1.43c0.51-0.31,1.05-0.47,1.61-0.47
		c0.43,0,0.85,0.08,1.25,0.25c0.4,0.17,0.75,0.41,1.05,0.72c0.3,0.32,0.55,0.71,0.73,1.18c0.18,0.47,0.28,1,0.28,1.6v4.71
		c0,0.17-0.1,0.32-0.29,0.46s-0.43,0.21-0.71,0.21c-0.25,0-0.48-0.07-0.68-0.21c-0.2-0.14-0.3-0.29-0.3-0.46v-4.71
		c0-0.33-0.05-0.62-0.15-0.87c-0.1-0.25-0.23-0.46-0.4-0.63c-0.17-0.17-0.36-0.3-0.57-0.38c-0.22-0.08-0.43-0.12-0.65-0.12
		c-0.23,0-0.45,0.04-0.66,0.13s-0.4,0.22-0.57,0.38c-0.17,0.17-0.31,0.37-0.41,0.62c-0.1,0.25-0.15,0.52-0.15,0.83v4.77
		c0,0.23-0.1,0.39-0.31,0.49s-0.44,0.15-0.69,0.15c-0.23,0-0.45-0.05-0.66-0.15c-0.22-0.1-0.32-0.27-0.32-0.49V30.82z"/>
</g>
<g>
	<path class="st2" d="M23.61,31.28c-0.54-0.62-0.88-1.45-1.1-2.35c2.61,1.01,5.23,0.97,7.85-0.1c-0.33,1.22-0.83,2-1.32,2.49
		c-0.72,0.73-1.51,0.97-2.05,1.04h0c-0.38,0.05-0.65,0.02-0.67,0.02l-0.04,0h-0.04c-0.09,0-0.18,0-0.27,0
		C24.98,32.33,24.21,31.97,23.61,31.28z"/>
	<path class="st2" d="M34.76,37.48c-0.18,1.98-0.04,3.99-0.09,5.99c-0.01,0.24,0.03,0.42,0.09,0.54C31.97,43.99,29.19,44,26.4,44
		c-3.18,0.01-6.35-0.02-9.52,0.03c-0.86,0.01-1.21-0.21-1.2-1.13c0.07-2.65-0.11-5.32,0.12-7.96c0.24-2.7,1.7-4.87,3.78-6.6
		c0.43-0.36,0.78-0.47,1.35-0.15c0.14,0.08,0.29,0.15,0.43,0.23c0.23,1.31,0.67,2.6,1.48,3.54c0.8,0.92,1.84,1.41,3.13,1.44v4.89
		c0,1.17,0.68,2.29,1.76,2.93c0.53,0.31,1.11,0.47,1.68,0.47c0.48,0,0.97-0.12,1.4-0.36c1.31-0.72,1.92-2.22,1.84-4.45
		c0.93-0.25,1.62-1.09,1.62-2.1c0-1.2-0.98-2.18-2.18-2.18c-1.2,0-2.18,0.98-2.18,2.18c0,1.04,0.74,1.92,1.71,2.13
		c0.08,1.82-0.36,3.01-1.31,3.53c-0.63,0.35-1.37,0.31-2.06-0.09c-0.77-0.46-1.26-1.25-1.26-2.05v-4.89
		c0.72-0.08,1.8-0.36,2.76-1.33c0.89-0.89,1.48-2.16,1.79-3.79c0.02,0,0.03-0.01,0.04-0.02c0.6-0.32,1-0.31,1.52,0.13
		c1.72,1.42,2.87,3.14,3.46,5.12C35.56,34.61,34.89,35.93,34.76,37.48z"/>
	<path class="st2" d="M26.34,26.18c-4.05,0-7.15-3.07-7.14-7.07c0.01-4.01,3.14-7.13,7.14-7.12c4.02,0.01,7.07,3.11,7.07,7.16
		C33.39,23.14,30.35,26.18,26.34,26.18z"/>
	<path class="st2" d="M43.84,30.88c-3.05,0-5.38-2.31-5.38-5.33c0.01-3.02,2.36-5.37,5.37-5.36c3.02,0.01,5.33,2.34,5.32,5.39
		C49.16,28.6,46.87,30.88,43.84,30.88z"/>
	<path class="st2" d="M44.32,44.31c-2.39,0-4.78-0.02-7.17,0.01c-0.64,0.01-0.91-0.16-0.89-0.85c0.05-2-0.08-4.01,0.09-6
		c0.18-2.03,1.27-3.66,2.84-4.96c0.33-0.27,0.59-0.35,1.02-0.12c2.66,1.46,5.35,1.47,8.02,0.05c0.46-0.24,0.75-0.23,1.15,0.1
		c1.84,1.52,2.82,3.49,2.93,5.84c0.09,1.76,0.01,3.52,0.03,5.29c0.01,0.53-0.23,0.65-0.71,0.64C49.2,44.3,46.76,44.31,44.32,44.31z"
		/>
</g>
</svg>
