<?xml version="1.0" encoding="utf-8"?>
<!-- Generator: Adobe Illustrator 15.1.0, SVG Export Plug-In . SVG Version: 6.00 Build 0)  -->
<!DOCTYPE svg PUBLIC "-//W3C//DTD SVG 1.1//EN" "http://www.w3.org/Graphics/SVG/1.1/DTD/svg11.dtd">
<svg version="1.1" id="Layer_1" xmlns="http://www.w3.org/2000/svg" xmlns:xlink="http://www.w3.org/1999/xlink" x="0px" y="0px"
	 width="416px" height="90px" viewBox="0 0 416 90" enable-background="new 0 0 416 90" xml:space="preserve">
<g>
	<g>
		<g>
			<path fill="#FFFFFF" d="M182.489,76.658c0-0.129,0.055-0.222,0.166-0.281c0.11-0.059,0.233-0.089,0.37-0.089
				c0.135,0,0.258,0.03,0.369,0.089c0.111,0.06,0.166,0.152,0.166,0.281v8.563c0,0.128-0.054,0.224-0.166,0.287
				c-0.111,0.063-0.234,0.097-0.369,0.097c-0.136,0-0.259-0.033-0.37-0.097c-0.111-0.063-0.166-0.159-0.166-0.287V76.658z"/>
			<path fill="#FFFFFF" d="M186.21,85.222c0,0.095-0.053,0.181-0.16,0.262c-0.106,0.081-0.231,0.122-0.375,0.122
				c-0.153,0-0.279-0.041-0.376-0.122c-0.097-0.081-0.147-0.167-0.147-0.262v-5.289c0-0.109,0.05-0.199,0.147-0.268
				c0.097-0.066,0.223-0.102,0.376-0.102c0.127,0,0.24,0.035,0.338,0.102c0.097,0.068,0.146,0.158,0.146,0.268v0.523
				c0.128-0.247,0.334-0.47,0.625-0.67c0.289-0.199,0.649-0.299,1.084-0.299c0.305,0,0.594,0.063,0.866,0.19
				c0.271,0.129,0.509,0.305,0.713,0.529s0.365,0.486,0.484,0.784c0.12,0.297,0.18,0.611,0.18,0.942v3.288
				c0,0.128-0.056,0.224-0.167,0.287c-0.11,0.063-0.234,0.097-0.369,0.097c-0.128,0-0.246-0.033-0.358-0.097
				c-0.11-0.063-0.165-0.159-0.165-0.287v-3.288c0-0.187-0.039-0.369-0.115-0.547c-0.077-0.18-0.182-0.339-0.314-0.479
				c-0.132-0.14-0.286-0.252-0.464-0.338c-0.178-0.085-0.366-0.127-0.561-0.127c-0.169,0-0.338,0.034-0.503,0.103
				c-0.167,0.066-0.315,0.164-0.446,0.292c-0.132,0.128-0.239,0.285-0.318,0.472c-0.083,0.187-0.122,0.396-0.122,0.624V85.222z"/>
			<path fill="#FFFFFF" d="M196.444,85.706c-0.44,0-0.821-0.063-1.14-0.19c-0.319-0.128-0.583-0.302-0.791-0.523
				c-0.208-0.221-0.362-0.481-0.464-0.783c-0.102-0.303-0.154-0.627-0.154-0.976v-1.274c0-0.34,0.052-0.66,0.154-0.962
				c0.103-0.302,0.256-0.565,0.464-0.79s0.472-0.4,0.791-0.529c0.319-0.127,0.694-0.19,1.127-0.19c0.281,0,0.535,0.027,0.764,0.082
				c0.23,0.057,0.428,0.126,0.594,0.211s0.292,0.18,0.382,0.286c0.09,0.107,0.135,0.206,0.135,0.3c0,0.111-0.042,0.225-0.128,0.344
				c-0.084,0.12-0.19,0.179-0.318,0.179c-0.069,0-0.133-0.023-0.198-0.069c-0.063-0.048-0.145-0.099-0.242-0.153
				s-0.219-0.105-0.363-0.153c-0.145-0.046-0.328-0.069-0.548-0.069c-0.528,0-0.918,0.133-1.172,0.401
				c-0.255,0.267-0.383,0.639-0.383,1.114v1.274c0,0.477,0.128,0.848,0.383,1.115c0.254,0.268,0.65,0.402,1.185,0.402
				c0.229,0,0.418-0.023,0.568-0.07c0.148-0.047,0.271-0.1,0.369-0.159c0.098-0.059,0.181-0.112,0.249-0.159
				c0.069-0.048,0.137-0.07,0.205-0.07c0.145,0,0.259,0.057,0.343,0.173c0.086,0.113,0.128,0.227,0.128,0.338
				c0,0.101-0.046,0.204-0.14,0.312c-0.093,0.105-0.224,0.204-0.395,0.292c-0.171,0.09-0.375,0.162-0.611,0.217
				C196.997,85.679,196.732,85.706,196.444,85.706z"/>
			<path fill="#FFFFFF" d="M201.644,79.487c0.341,0,0.664,0.063,0.97,0.19c0.305,0.129,0.574,0.305,0.803,0.529
				s0.412,0.486,0.547,0.784c0.137,0.297,0.204,0.611,0.204,0.942v1.3c0,0.324-0.067,0.634-0.204,0.932
				c-0.135,0.298-0.318,0.56-0.547,0.79c-0.229,0.229-0.498,0.411-0.803,0.548c-0.306,0.135-0.628,0.203-0.97,0.203
				c-0.338,0-0.66-0.068-0.961-0.203c-0.302-0.137-0.567-0.318-0.796-0.548c-0.23-0.23-0.413-0.492-0.549-0.79
				s-0.203-0.607-0.203-0.932v-1.3c0-0.321,0.064-0.633,0.197-0.93c0.132-0.298,0.312-0.559,0.542-0.783
				c0.229-0.226,0.494-0.405,0.797-0.536C200.972,79.553,201.295,79.487,201.644,79.487z M203.11,81.934
				c0-0.187-0.037-0.369-0.114-0.547c-0.078-0.18-0.181-0.339-0.313-0.479c-0.13-0.14-0.286-0.252-0.464-0.338
				c-0.18-0.085-0.371-0.127-0.575-0.127c-0.203,0-0.395,0.042-0.572,0.127c-0.179,0.086-0.331,0.198-0.459,0.338
				c-0.127,0.14-0.229,0.299-0.305,0.479c-0.078,0.178-0.114,0.36-0.114,0.547v1.3c0,0.195,0.037,0.386,0.114,0.567
				c0.076,0.183,0.179,0.346,0.311,0.484c0.132,0.141,0.285,0.252,0.459,0.339c0.175,0.084,0.363,0.127,0.566,0.127
				c0.204,0,0.394-0.043,0.568-0.127c0.174-0.087,0.33-0.198,0.465-0.339c0.136-0.139,0.241-0.302,0.319-0.484
				c0.077-0.182,0.114-0.372,0.114-0.567V81.934z"/>
			<path fill="#FFFFFF" d="M206.08,75.919c0.145,0,0.27,0.034,0.376,0.103c0.107,0.066,0.159,0.156,0.159,0.267v8.934
				c0,0.095-0.052,0.181-0.159,0.262c-0.106,0.081-0.231,0.122-0.376,0.122c-0.152,0-0.279-0.041-0.376-0.122
				s-0.147-0.167-0.147-0.262v-8.934c0-0.11,0.05-0.2,0.147-0.267C205.801,75.953,205.928,75.919,206.08,75.919z"/>
			<path fill="#FFFFFF" d="M208.87,75.919c0.145,0,0.272,0.034,0.376,0.103c0.106,0.066,0.159,0.156,0.159,0.267v8.934
				c0,0.095-0.053,0.181-0.159,0.262c-0.104,0.081-0.231,0.122-0.376,0.122c-0.151,0-0.277-0.041-0.375-0.122
				c-0.097-0.081-0.146-0.167-0.146-0.262v-8.934c0-0.11,0.048-0.2,0.146-0.267C208.592,75.953,208.718,75.919,208.87,75.919z"/>
			<path fill="#FFFFFF" d="M212.849,79.487c0.439,0,0.816,0.07,1.126,0.21c0.311,0.14,0.563,0.325,0.759,0.554
				c0.195,0.23,0.334,0.493,0.421,0.791c0.084,0.297,0.129,0.603,0.129,0.917v3.263c0,0.111-0.051,0.203-0.147,0.274
				c-0.099,0.072-0.224,0.109-0.376,0.109c-0.145,0-0.262-0.037-0.352-0.109c-0.09-0.071-0.134-0.163-0.134-0.274v-0.509
				c-0.221,0.255-0.488,0.484-0.804,0.688c-0.314,0.205-0.688,0.306-1.12,0.306c-0.238,0-0.461-0.032-0.67-0.101
				c-0.208-0.069-0.392-0.173-0.548-0.313c-0.157-0.141-0.28-0.315-0.369-0.528s-0.134-0.464-0.134-0.753
				c0-0.356,0.073-0.646,0.216-0.872c0.145-0.225,0.349-0.405,0.613-0.542c0.263-0.137,0.577-0.229,0.942-0.281
				c0.364-0.05,0.769-0.075,1.211-0.075h0.611v-0.268c0-0.187-0.025-0.374-0.076-0.561c-0.051-0.188-0.133-0.357-0.242-0.511
				c-0.111-0.152-0.255-0.275-0.435-0.369c-0.177-0.094-0.395-0.141-0.648-0.141c-0.221,0-0.407,0.02-0.563,0.059
				c-0.152,0.037-0.279,0.08-0.382,0.126c-0.101,0.048-0.186,0.09-0.256,0.129c-0.066,0.037-0.13,0.057-0.189,0.057
				c-0.129,0-0.226-0.06-0.292-0.179c-0.071-0.118-0.103-0.237-0.103-0.356c0-0.102,0.055-0.197,0.165-0.287
				c0.11-0.089,0.253-0.167,0.428-0.235c0.174-0.068,0.367-0.121,0.58-0.159C212.422,79.506,212.635,79.487,212.849,79.487z
				 M214.224,82.89h-0.446c-0.272,0-0.534,0.012-0.783,0.031c-0.251,0.022-0.473,0.065-0.663,0.135
				c-0.191,0.068-0.345,0.169-0.46,0.301c-0.113,0.132-0.171,0.312-0.171,0.541c0,0.331,0.093,0.573,0.28,0.727
				c0.187,0.151,0.421,0.229,0.701,0.229c0.18,0,0.36-0.04,0.547-0.12c0.188-0.081,0.354-0.186,0.497-0.313
				c0.146-0.127,0.264-0.267,0.358-0.42c0.094-0.153,0.14-0.301,0.14-0.447V82.89z"/>
			<path fill="#FFFFFF" d="M217.269,75.919c0.145,0,0.271,0.034,0.377,0.103c0.106,0.066,0.16,0.156,0.16,0.267v4.168
				c0.145-0.247,0.357-0.47,0.637-0.67c0.279-0.199,0.623-0.299,1.031-0.299c0.313,0,0.61,0.063,0.887,0.19
				c0.276,0.129,0.518,0.305,0.727,0.529c0.208,0.225,0.371,0.486,0.49,0.784c0.119,0.297,0.179,0.611,0.179,0.942v1.3
				c0,0.324-0.062,0.634-0.186,0.932c-0.122,0.298-0.287,0.56-0.49,0.79c-0.204,0.229-0.44,0.411-0.714,0.548
				c-0.272,0.135-0.556,0.203-0.854,0.203c-0.407,0-0.77-0.099-1.084-0.3c-0.314-0.199-0.539-0.43-0.675-0.693v0.509
				c0,0.095-0.047,0.181-0.141,0.262s-0.208,0.122-0.345,0.122c-0.152,0-0.276-0.041-0.376-0.122
				c-0.097-0.081-0.146-0.167-0.146-0.262v-8.934c0-0.11,0.049-0.2,0.146-0.267C216.992,75.953,217.116,75.919,217.269,75.919z
				 M220.699,81.934c0-0.187-0.04-0.369-0.116-0.547c-0.076-0.18-0.18-0.339-0.313-0.479c-0.132-0.14-0.284-0.252-0.458-0.338
				c-0.174-0.085-0.362-0.127-0.567-0.127c-0.18,0-0.354,0.034-0.529,0.103c-0.173,0.066-0.327,0.164-0.459,0.292
				s-0.239,0.285-0.325,0.472c-0.084,0.187-0.126,0.396-0.126,0.624v1.645c0,0.085,0.035,0.193,0.108,0.325
				c0.071,0.132,0.173,0.262,0.306,0.389c0.132,0.127,0.286,0.236,0.465,0.324c0.177,0.09,0.368,0.135,0.573,0.135
				c0.195,0,0.381-0.043,0.555-0.127c0.174-0.087,0.326-0.2,0.458-0.345c0.133-0.145,0.236-0.307,0.313-0.484
				c0.076-0.179,0.116-0.366,0.116-0.562V81.934z"/>
			<path fill="#FFFFFF" d="M225.311,79.487c0.34,0,0.663,0.063,0.969,0.19c0.307,0.129,0.574,0.305,0.804,0.529
				c0.23,0.225,0.411,0.486,0.549,0.784c0.135,0.297,0.204,0.611,0.204,0.942v1.3c0,0.324-0.069,0.634-0.204,0.932
				c-0.138,0.298-0.318,0.56-0.549,0.79c-0.229,0.229-0.497,0.411-0.804,0.548c-0.306,0.135-0.629,0.203-0.969,0.203
				s-0.66-0.068-0.962-0.203c-0.302-0.137-0.565-0.318-0.795-0.548c-0.231-0.23-0.413-0.492-0.55-0.79
				c-0.134-0.298-0.203-0.607-0.203-0.932v-1.3c0-0.321,0.067-0.633,0.197-0.93c0.134-0.298,0.313-0.559,0.543-0.783
				c0.229-0.226,0.493-0.405,0.796-0.536C224.638,79.553,224.963,79.487,225.311,79.487z M226.777,81.934
				c0-0.187-0.038-0.369-0.114-0.547c-0.077-0.18-0.182-0.339-0.314-0.479c-0.131-0.14-0.286-0.252-0.464-0.338
				c-0.178-0.085-0.369-0.127-0.574-0.127c-0.203,0-0.395,0.042-0.571,0.127c-0.18,0.086-0.332,0.198-0.46,0.338
				s-0.23,0.299-0.306,0.479c-0.076,0.178-0.114,0.36-0.114,0.547v1.3c0,0.195,0.038,0.386,0.114,0.567
				c0.075,0.183,0.181,0.346,0.312,0.484c0.133,0.141,0.285,0.252,0.458,0.339c0.175,0.084,0.364,0.127,0.567,0.127
				c0.205,0,0.395-0.043,0.567-0.127c0.176-0.087,0.329-0.198,0.467-0.339c0.135-0.139,0.241-0.302,0.318-0.484
				c0.076-0.182,0.114-0.372,0.114-0.567V81.934z"/>
			<path fill="#FFFFFF" d="M231.786,80.443c-0.205,0-0.403,0.042-0.6,0.127c-0.194,0.086-0.367,0.209-0.516,0.37
				s-0.27,0.358-0.364,0.592c-0.093,0.234-0.139,0.496-0.139,0.783v2.906c0,0.095-0.053,0.181-0.158,0.262
				c-0.108,0.081-0.232,0.122-0.377,0.122c-0.154,0-0.278-0.041-0.376-0.122s-0.146-0.167-0.146-0.262v-5.289
				c0-0.109,0.049-0.199,0.146-0.268c0.098-0.066,0.222-0.102,0.376-0.102c0.134,0,0.25,0.035,0.343,0.102
				c0.094,0.068,0.141,0.158,0.141,0.268v0.6c0.145-0.263,0.359-0.503,0.645-0.72c0.283-0.217,0.626-0.325,1.025-0.325h0.434
				c0.11,0,0.205,0.049,0.285,0.147c0.083,0.097,0.123,0.209,0.123,0.337c0,0.127-0.04,0.237-0.123,0.33
				c-0.08,0.094-0.175,0.142-0.285,0.142H231.786z"/>
			<path fill="#FFFFFF" d="M235.315,79.487c0.443,0,0.818,0.07,1.128,0.21c0.311,0.14,0.564,0.325,0.76,0.554
				c0.194,0.23,0.336,0.493,0.421,0.791c0.084,0.297,0.126,0.603,0.126,0.917v3.263c0,0.111-0.049,0.203-0.146,0.274
				c-0.097,0.072-0.222,0.109-0.377,0.109c-0.144,0-0.26-0.037-0.349-0.109c-0.09-0.071-0.133-0.163-0.133-0.274v-0.509
				c-0.222,0.255-0.491,0.484-0.805,0.688c-0.313,0.205-0.687,0.306-1.121,0.306c-0.238,0-0.462-0.032-0.669-0.101
				c-0.208-0.069-0.39-0.173-0.548-0.313c-0.157-0.141-0.281-0.315-0.37-0.528c-0.09-0.213-0.135-0.464-0.135-0.753
				c0-0.356,0.072-0.646,0.218-0.872c0.145-0.225,0.348-0.405,0.611-0.542c0.265-0.137,0.577-0.229,0.943-0.281
				c0.366-0.05,0.77-0.075,1.211-0.075h0.611v-0.268c0-0.187-0.024-0.374-0.076-0.561c-0.051-0.188-0.132-0.357-0.243-0.511
				c-0.108-0.152-0.254-0.275-0.433-0.369c-0.178-0.094-0.395-0.141-0.65-0.141c-0.222,0-0.407,0.02-0.559,0.059
				c-0.154,0.037-0.282,0.08-0.385,0.126c-0.101,0.048-0.186,0.09-0.253,0.129c-0.069,0.037-0.133,0.057-0.191,0.057
				c-0.127,0-0.227-0.06-0.294-0.179c-0.067-0.118-0.103-0.237-0.103-0.356c0-0.102,0.055-0.197,0.167-0.287
				c0.108-0.089,0.251-0.167,0.425-0.235c0.176-0.068,0.37-0.121,0.581-0.159C234.892,79.506,235.104,79.487,235.315,79.487z
				 M236.692,82.89h-0.445c-0.271,0-0.533,0.012-0.784,0.031c-0.251,0.022-0.471,0.065-0.662,0.135
				c-0.192,0.068-0.344,0.169-0.46,0.301c-0.114,0.132-0.171,0.312-0.171,0.541c0,0.331,0.093,0.573,0.279,0.727
				c0.187,0.151,0.421,0.229,0.702,0.229c0.177,0,0.36-0.04,0.548-0.12c0.186-0.081,0.353-0.186,0.496-0.313
				c0.146-0.127,0.264-0.267,0.357-0.42s0.14-0.301,0.14-0.447V82.89z"/>
			<path fill="#FFFFFF" d="M240.235,83.681c0,0.364,0.076,0.621,0.23,0.771c0.151,0.148,0.428,0.223,0.828,0.223h0.395
				c0.145,0,0.257,0.047,0.338,0.14c0.08,0.095,0.122,0.201,0.122,0.319c0,0.12-0.042,0.228-0.122,0.324
				c-0.081,0.1-0.193,0.148-0.338,0.148h-0.395c-0.689,0-1.214-0.154-1.575-0.46s-0.54-0.794-0.54-1.465v-6.564
				c0-0.109,0.058-0.199,0.173-0.268c0.114-0.066,0.23-0.102,0.349-0.102c0.137,0,0.259,0.035,0.371,0.102
				c0.108,0.068,0.164,0.158,0.164,0.268v2.447h1.606c0.093,0,0.17,0.042,0.23,0.128c0.059,0.084,0.09,0.184,0.09,0.292
				c0,0.111-0.031,0.207-0.09,0.288c-0.061,0.081-0.138,0.12-0.23,0.12h-1.606V83.681z"/>
			<path fill="#FFFFFF" d="M243.678,76.695c0.177,0,0.33,0.061,0.458,0.18c0.126,0.118,0.19,0.259,0.19,0.421
				c0,0.16-0.064,0.304-0.19,0.427c-0.128,0.123-0.281,0.184-0.458,0.184c-0.187,0-0.345-0.061-0.474-0.184
				c-0.127-0.123-0.19-0.267-0.19-0.427c0-0.162,0.063-0.303,0.19-0.421C243.333,76.756,243.491,76.695,243.678,76.695z
				 M243.678,79.563c0.144,0,0.268,0.035,0.375,0.102c0.105,0.068,0.16,0.158,0.16,0.268v5.289c0,0.095-0.055,0.181-0.16,0.262
				c-0.107,0.081-0.231,0.122-0.375,0.122c-0.145,0-0.27-0.041-0.371-0.122c-0.103-0.081-0.152-0.167-0.152-0.262v-5.289
				c0-0.109,0.05-0.199,0.152-0.268C243.408,79.599,243.533,79.563,243.678,79.563z"/>
			<path fill="#FFFFFF" d="M247.997,79.487c0.34,0,0.664,0.063,0.97,0.19c0.305,0.129,0.573,0.305,0.802,0.529
				c0.23,0.225,0.413,0.486,0.549,0.784c0.136,0.297,0.202,0.611,0.202,0.942v1.3c0,0.324-0.066,0.634-0.202,0.932
				s-0.318,0.56-0.549,0.79c-0.229,0.229-0.497,0.411-0.802,0.548c-0.306,0.135-0.63,0.203-0.97,0.203
				c-0.339,0-0.661-0.068-0.962-0.203c-0.302-0.137-0.567-0.318-0.796-0.548c-0.229-0.23-0.413-0.492-0.548-0.79
				c-0.137-0.298-0.205-0.607-0.205-0.932v-1.3c0-0.321,0.064-0.633,0.197-0.93c0.132-0.298,0.313-0.559,0.543-0.783
				c0.229-0.226,0.495-0.405,0.796-0.536C247.324,79.553,247.648,79.487,247.997,79.487z M249.463,81.934
				c0-0.187-0.038-0.369-0.115-0.547c-0.076-0.18-0.18-0.339-0.312-0.479s-0.285-0.252-0.465-0.338
				c-0.18-0.085-0.37-0.127-0.574-0.127c-0.202,0-0.395,0.042-0.573,0.127c-0.179,0.086-0.331,0.198-0.458,0.338
				c-0.128,0.14-0.229,0.299-0.306,0.479c-0.078,0.178-0.115,0.36-0.115,0.547v1.3c0,0.195,0.037,0.386,0.115,0.567
				c0.077,0.183,0.18,0.346,0.312,0.484c0.131,0.141,0.285,0.252,0.459,0.339c0.175,0.084,0.364,0.127,0.566,0.127
				c0.204,0,0.394-0.043,0.568-0.127c0.173-0.087,0.33-0.198,0.464-0.339c0.137-0.139,0.242-0.302,0.318-0.484
				c0.077-0.182,0.115-0.372,0.115-0.567V81.934z"/>
			<path fill="#FFFFFF" d="M252.852,85.222c0,0.095-0.051,0.181-0.159,0.262c-0.106,0.081-0.23,0.122-0.375,0.122
				c-0.153,0-0.278-0.041-0.376-0.122c-0.097-0.081-0.146-0.167-0.146-0.262v-5.289c0-0.109,0.05-0.199,0.146-0.268
				c0.098-0.066,0.223-0.102,0.376-0.102c0.126,0,0.24,0.035,0.339,0.102c0.097,0.068,0.146,0.158,0.146,0.268v0.523
				c0.128-0.247,0.334-0.47,0.624-0.67c0.289-0.199,0.65-0.299,1.085-0.299c0.305,0,0.594,0.063,0.865,0.19
				c0.271,0.129,0.51,0.305,0.714,0.529s0.364,0.486,0.484,0.784c0.119,0.297,0.179,0.611,0.179,0.942v3.288
				c0,0.128-0.056,0.224-0.167,0.287c-0.109,0.063-0.233,0.097-0.368,0.097c-0.128,0-0.246-0.033-0.358-0.097
				c-0.109-0.063-0.164-0.159-0.164-0.287v-3.288c0-0.187-0.038-0.369-0.114-0.547c-0.077-0.18-0.183-0.339-0.314-0.479
				s-0.286-0.252-0.464-0.338c-0.178-0.085-0.366-0.127-0.562-0.127c-0.169,0-0.338,0.034-0.502,0.103
				c-0.168,0.066-0.315,0.164-0.446,0.292c-0.132,0.128-0.238,0.285-0.318,0.472c-0.082,0.187-0.123,0.396-0.123,0.624V85.222z"/>
			<path fill="#FFFFFF" d="M266.401,85.49c-0.035,0.084-0.09,0.145-0.167,0.178c-0.076,0.034-0.161,0.051-0.253,0.051
				c-0.231,0-0.376-0.076-0.434-0.229l-1.237-3.747l-1.21,3.708c-0.07,0.178-0.222,0.268-0.46,0.268
				c-0.102,0-0.189-0.019-0.261-0.057c-0.073-0.039-0.131-0.108-0.173-0.211l-1.974-5.25c-0.018-0.043-0.03-0.082-0.04-0.115
				c-0.008-0.034-0.013-0.063-0.013-0.09c0-0.135,0.072-0.246,0.217-0.331s0.288-0.127,0.433-0.127c0.078,0,0.147,0.019,0.212,0.051
				c0.063,0.034,0.106,0.086,0.133,0.153l1.543,4.281l1.197-3.86c0.034-0.094,0.085-0.159,0.153-0.197
				c0.068-0.039,0.149-0.059,0.242-0.059c0.212,0,0.349,0.086,0.408,0.256l1.173,3.899l1.554-4.32
				c0.019-0.067,0.059-0.119,0.121-0.153c0.064-0.032,0.135-0.051,0.211-0.051c0.136,0,0.28,0.04,0.434,0.12
				c0.152,0.082,0.229,0.193,0.229,0.338c0,0.068-0.019,0.137-0.051,0.205L266.401,85.49z"/>
			<path fill="#FFFFFF" d="M269.879,76.695c0.18,0,0.331,0.061,0.459,0.18c0.129,0.118,0.191,0.259,0.191,0.421
				c0,0.16-0.063,0.304-0.191,0.427c-0.128,0.123-0.279,0.184-0.459,0.184c-0.187,0-0.344-0.061-0.471-0.184
				c-0.128-0.123-0.191-0.267-0.191-0.427c0-0.162,0.063-0.303,0.191-0.421C269.535,76.756,269.692,76.695,269.879,76.695z
				 M269.879,79.563c0.145,0,0.271,0.035,0.376,0.102c0.107,0.068,0.159,0.158,0.159,0.268v5.289c0,0.095-0.052,0.181-0.159,0.262
				c-0.105,0.081-0.231,0.122-0.376,0.122s-0.267-0.041-0.368-0.122c-0.103-0.081-0.155-0.167-0.155-0.262v-5.289
				c0-0.109,0.053-0.199,0.155-0.268C269.612,79.599,269.734,79.563,269.879,79.563z"/>
			<path fill="#FFFFFF" d="M272.951,83.681c0,0.364,0.077,0.621,0.229,0.771c0.153,0.148,0.43,0.223,0.828,0.223h0.396
				c0.145,0,0.257,0.047,0.339,0.14c0.079,0.095,0.119,0.201,0.119,0.319c0,0.12-0.04,0.228-0.119,0.324
				c-0.082,0.1-0.194,0.148-0.339,0.148h-0.396c-0.688,0-1.213-0.154-1.573-0.46c-0.361-0.306-0.543-0.794-0.543-1.465v-6.564
				c0-0.109,0.059-0.199,0.174-0.268c0.113-0.066,0.23-0.102,0.349-0.102c0.138,0,0.26,0.035,0.371,0.102
				c0.11,0.068,0.165,0.158,0.165,0.268v2.447h1.606c0.093,0,0.171,0.042,0.229,0.128c0.061,0.084,0.09,0.184,0.09,0.292
				c0,0.111-0.029,0.207-0.09,0.288c-0.058,0.081-0.136,0.12-0.229,0.12h-1.606V83.681z"/>
			<path fill="#FFFFFF" d="M276.94,85.222c0,0.095-0.055,0.181-0.159,0.262c-0.106,0.081-0.232,0.122-0.377,0.122
				c-0.152,0-0.277-0.041-0.375-0.122c-0.1-0.081-0.146-0.167-0.146-0.262v-8.934c0-0.11,0.046-0.2,0.146-0.267
				c0.098-0.068,0.223-0.103,0.375-0.103c0.145,0,0.271,0.034,0.377,0.103c0.104,0.066,0.159,0.156,0.159,0.267v4.168
				c0.128-0.247,0.331-0.47,0.612-0.67c0.279-0.199,0.629-0.299,1.044-0.299c0.306,0,0.595,0.063,0.867,0.19
				c0.271,0.129,0.51,0.305,0.713,0.529c0.205,0.225,0.366,0.486,0.485,0.784c0.118,0.297,0.179,0.611,0.179,0.942v3.288
				c0,0.128-0.057,0.224-0.166,0.287c-0.11,0.063-0.234,0.097-0.371,0.097c-0.118,0-0.235-0.033-0.35-0.097
				s-0.172-0.159-0.172-0.287v-3.288c0-0.187-0.039-0.369-0.116-0.547c-0.075-0.18-0.179-0.339-0.311-0.479
				s-0.286-0.252-0.466-0.338c-0.179-0.085-0.365-0.127-0.56-0.127c-0.171,0-0.339,0.034-0.505,0.103
				c-0.165,0.066-0.313,0.164-0.445,0.292s-0.236,0.285-0.319,0.472c-0.08,0.187-0.12,0.396-0.12,0.624V85.222z"/>
			<path fill="#FFFFFF" d="M287.735,76.288c0.383,0,0.74,0.049,1.077,0.146c0.335,0.1,0.629,0.259,0.879,0.479
				c0.251,0.221,0.446,0.507,0.587,0.86c0.14,0.353,0.209,0.783,0.209,1.293v3.76c0,0.51-0.069,0.941-0.209,1.294
				c-0.141,0.352-0.336,0.639-0.587,0.859c-0.25,0.222-0.544,0.381-0.879,0.478c-0.337,0.1-0.694,0.148-1.077,0.148h-2.257
				c-0.145,0-0.261-0.039-0.35-0.115c-0.089-0.077-0.134-0.161-0.134-0.256v-8.576c0-0.095,0.045-0.179,0.134-0.255
				c0.089-0.077,0.205-0.115,0.35-0.115H287.735z M286.065,77.257v7.38h1.67c0.526,0,0.938-0.147,1.236-0.441
				c0.298-0.292,0.445-0.749,0.445-1.369v-3.76c0-0.62-0.147-1.077-0.445-1.37c-0.298-0.292-0.71-0.439-1.236-0.439H286.065z"/>
			<path fill="#FFFFFF" d="M296.732,81.22h-3.453v4.002c0,0.128-0.056,0.224-0.166,0.287c-0.111,0.063-0.233,0.097-0.369,0.097
				c-0.137,0-0.259-0.033-0.369-0.097c-0.111-0.063-0.166-0.159-0.166-0.287v-8.563c0-0.129,0.055-0.222,0.166-0.281
				c0.11-0.059,0.232-0.089,0.369-0.089c0.136,0,0.258,0.03,0.369,0.089c0.11,0.06,0.166,0.152,0.166,0.281v3.67h3.453v-3.67
				c0-0.129,0.057-0.222,0.166-0.281c0.11-0.059,0.234-0.089,0.37-0.089c0.135,0,0.259,0.03,0.369,0.089
				c0.11,0.06,0.166,0.152,0.166,0.281v8.563c0,0.128-0.056,0.224-0.166,0.287s-0.234,0.097-0.369,0.097
				c-0.136,0-0.26-0.033-0.37-0.097c-0.109-0.063-0.166-0.159-0.166-0.287V81.22z"/>
			<path fill="#FFFFFF" d="M299.574,85.605c-0.145,0-0.289-0.041-0.433-0.122c-0.145-0.081-0.217-0.188-0.217-0.324
				c0-0.018,0.008-0.051,0.026-0.103l2.601-8.476c0.042-0.127,0.126-0.22,0.253-0.28c0.129-0.059,0.264-0.09,0.408-0.09
				s0.28,0.033,0.408,0.097c0.128,0.063,0.212,0.155,0.254,0.273l2.601,8.476c0,0.017,0.002,0.031,0.007,0.045
				c0.004,0.013,0.007,0.027,0.007,0.044c0,0.128-0.073,0.236-0.218,0.324c-0.146,0.09-0.293,0.136-0.445,0.136
				c-0.095,0-0.175-0.02-0.242-0.059c-0.068-0.038-0.116-0.099-0.141-0.185l-0.561-1.898h-3.353l-0.561,1.898
				C299.919,85.523,299.787,85.605,299.574,85.605z M303.629,82.584l-1.416-4.792l-1.44,4.792H303.629z"/>
			<path fill="#FFFFFF" d="M309.656,85.605c-0.119,0-0.229-0.033-0.331-0.097c-0.103-0.063-0.153-0.159-0.153-0.287v-8.563
				c0-0.129,0.055-0.222,0.166-0.281c0.11-0.059,0.233-0.089,0.369-0.089s0.259,0.03,0.37,0.089c0.11,0.06,0.165,0.152,0.165,0.281
				v7.979h3.48c0.118,0,0.205,0.051,0.261,0.153c0.055,0.102,0.082,0.211,0.082,0.331c0,0.119-0.027,0.229-0.082,0.33
				c-0.056,0.103-0.143,0.154-0.261,0.154H309.656z"/>
			<path fill="#FFFFFF" d="M316.805,79.487c0.442,0,0.818,0.07,1.129,0.21s0.563,0.325,0.759,0.554
				c0.195,0.23,0.335,0.493,0.42,0.791c0.085,0.297,0.128,0.603,0.128,0.917v3.263c0,0.111-0.049,0.203-0.146,0.274
				c-0.098,0.072-0.225,0.109-0.377,0.109c-0.145,0-0.26-0.037-0.35-0.109c-0.09-0.071-0.135-0.163-0.135-0.274v-0.509
				c-0.221,0.255-0.487,0.484-0.803,0.688c-0.313,0.205-0.688,0.306-1.121,0.306c-0.237,0-0.46-0.032-0.668-0.101
				c-0.21-0.069-0.393-0.173-0.55-0.313c-0.156-0.141-0.279-0.315-0.369-0.528c-0.089-0.213-0.133-0.464-0.133-0.753
				c0-0.356,0.071-0.646,0.216-0.872c0.145-0.225,0.349-0.405,0.611-0.542c0.264-0.137,0.578-0.229,0.944-0.281
				c0.364-0.05,0.769-0.075,1.211-0.075h0.61v-0.268c0-0.187-0.025-0.374-0.076-0.561c-0.051-0.188-0.132-0.357-0.242-0.511
				c-0.109-0.152-0.254-0.275-0.434-0.369c-0.178-0.094-0.395-0.141-0.65-0.141c-0.221,0-0.408,0.02-0.561,0.059
				c-0.152,0.037-0.279,0.08-0.382,0.126c-0.103,0.048-0.187,0.09-0.256,0.129c-0.067,0.037-0.131,0.057-0.189,0.057
				c-0.129,0-0.226-0.06-0.294-0.179c-0.066-0.118-0.103-0.237-0.103-0.356c0-0.102,0.057-0.197,0.168-0.287
				c0.108-0.089,0.252-0.167,0.426-0.235c0.173-0.068,0.367-0.121,0.579-0.159C316.381,79.506,316.593,79.487,316.805,79.487z
				 M318.182,82.89h-0.445c-0.273,0-0.532,0.012-0.784,0.031c-0.25,0.022-0.472,0.065-0.662,0.135
				c-0.191,0.068-0.345,0.169-0.46,0.301c-0.113,0.132-0.172,0.312-0.172,0.541c0,0.331,0.094,0.573,0.281,0.727
				c0.187,0.151,0.421,0.229,0.7,0.229c0.179,0,0.36-0.04,0.549-0.12c0.187-0.081,0.352-0.186,0.496-0.313
				c0.145-0.127,0.264-0.267,0.358-0.42c0.093-0.153,0.139-0.301,0.139-0.447V82.89z"/>
			<path fill="#FFFFFF" d="M321.764,85.222c0,0.095-0.053,0.181-0.159,0.262s-0.231,0.122-0.376,0.122
				c-0.153,0-0.277-0.041-0.376-0.122c-0.097-0.081-0.146-0.167-0.146-0.262v-8.934c0-0.11,0.05-0.2,0.146-0.267
				c0.099-0.068,0.223-0.103,0.376-0.103c0.145,0,0.27,0.034,0.376,0.103c0.106,0.066,0.159,0.156,0.159,0.267v4.168
				c0.128-0.247,0.333-0.47,0.612-0.67c0.279-0.199,0.629-0.299,1.046-0.299c0.305,0,0.594,0.063,0.865,0.19
				c0.271,0.129,0.51,0.305,0.714,0.529s0.365,0.486,0.483,0.784c0.121,0.297,0.18,0.611,0.18,0.942v3.288
				c0,0.128-0.056,0.224-0.166,0.287s-0.233,0.097-0.369,0.097c-0.119,0-0.236-0.033-0.351-0.097s-0.172-0.159-0.172-0.287v-3.288
				c0-0.187-0.038-0.369-0.114-0.547c-0.077-0.18-0.181-0.339-0.313-0.479s-0.288-0.252-0.466-0.338
				c-0.178-0.085-0.366-0.127-0.562-0.127c-0.169,0-0.336,0.034-0.502,0.103c-0.166,0.066-0.315,0.164-0.446,0.292
				c-0.132,0.128-0.238,0.285-0.318,0.472c-0.081,0.187-0.122,0.396-0.122,0.624V85.222z"/>
			<path fill="#FFFFFF" d="M329.398,79.487c0.34,0,0.663,0.063,0.969,0.19c0.306,0.129,0.573,0.305,0.803,0.529
				s0.412,0.486,0.548,0.784c0.137,0.297,0.205,0.611,0.205,0.942v1.3c0,0.324-0.068,0.634-0.205,0.932
				c-0.136,0.298-0.318,0.56-0.548,0.79c-0.229,0.229-0.497,0.411-0.803,0.548c-0.306,0.135-0.629,0.203-0.969,0.203
				s-0.661-0.068-0.962-0.203c-0.302-0.137-0.567-0.318-0.797-0.548c-0.229-0.23-0.412-0.492-0.547-0.79
				c-0.138-0.298-0.205-0.607-0.205-0.932v-1.3c0-0.321,0.066-0.633,0.198-0.93c0.131-0.298,0.312-0.559,0.541-0.783
				c0.229-0.226,0.494-0.405,0.797-0.536C328.725,79.553,329.049,79.487,329.398,79.487z M330.865,81.934
				c0-0.187-0.039-0.369-0.115-0.547c-0.077-0.18-0.182-0.339-0.313-0.479c-0.132-0.14-0.288-0.252-0.465-0.338
				c-0.179-0.085-0.371-0.127-0.574-0.127c-0.205,0-0.395,0.042-0.574,0.127c-0.178,0.086-0.331,0.198-0.457,0.338
				c-0.129,0.14-0.231,0.299-0.308,0.479c-0.077,0.178-0.113,0.36-0.113,0.547v1.3c0,0.195,0.036,0.386,0.113,0.567
				c0.076,0.183,0.182,0.346,0.313,0.484c0.132,0.141,0.284,0.252,0.458,0.339c0.174,0.084,0.362,0.127,0.567,0.127
				c0.203,0,0.394-0.043,0.567-0.127c0.174-0.087,0.328-0.198,0.466-0.339c0.136-0.139,0.241-0.302,0.318-0.484
				c0.076-0.182,0.115-0.372,0.115-0.567V81.934z"/>
			<path fill="#FFFFFF" d="M335.872,80.443c-0.203,0-0.403,0.042-0.599,0.127c-0.196,0.086-0.367,0.209-0.516,0.37
				c-0.149,0.161-0.271,0.358-0.363,0.592c-0.094,0.234-0.142,0.496-0.142,0.783v2.906c0,0.095-0.053,0.181-0.159,0.262
				c-0.105,0.081-0.231,0.122-0.375,0.122c-0.153,0-0.279-0.041-0.376-0.122c-0.099-0.081-0.146-0.167-0.146-0.262v-5.289
				c0-0.109,0.048-0.199,0.146-0.268c0.097-0.066,0.223-0.102,0.376-0.102c0.136,0,0.25,0.035,0.344,0.102
				c0.094,0.068,0.14,0.158,0.14,0.268v0.6c0.145-0.263,0.359-0.503,0.644-0.72c0.285-0.217,0.628-0.325,1.026-0.325h0.434
				c0.11,0,0.206,0.049,0.286,0.147c0.081,0.097,0.121,0.209,0.121,0.337c0,0.127-0.04,0.237-0.121,0.33
				c-0.08,0.094-0.176,0.142-0.286,0.142H335.872z"/>
			<path fill="#FFFFFF" d="M339.696,79.487c0.323,0,0.632,0.058,0.93,0.171c0.297,0.115,0.559,0.276,0.784,0.484
				c0.225,0.21,0.403,0.457,0.535,0.746s0.198,0.604,0.198,0.943c0,0.255-0.032,0.452-0.096,0.593
				c-0.064,0.14-0.15,0.246-0.256,0.318c-0.106,0.072-0.228,0.115-0.363,0.129c-0.136,0.012-0.276,0.018-0.421,0.018h-2.79v0.383
				c0,0.475,0.166,0.853,0.503,1.128c0.335,0.275,0.771,0.413,1.307,0.413c0.237,0,0.437-0.023,0.599-0.075
				c0.162-0.051,0.301-0.108,0.414-0.174c0.115-0.063,0.212-0.12,0.292-0.171c0.082-0.051,0.16-0.075,0.238-0.075
				c0.126,0,0.23,0.057,0.312,0.171c0.08,0.114,0.12,0.219,0.12,0.313c0,0.084-0.047,0.177-0.14,0.279
				c-0.094,0.103-0.228,0.2-0.401,0.294c-0.174,0.093-0.387,0.171-0.637,0.235c-0.251,0.063-0.529,0.095-0.836,0.095
				c-0.415,0-0.796-0.059-1.14-0.177c-0.345-0.12-0.642-0.288-0.893-0.505c-0.251-0.216-0.446-0.476-0.586-0.778
				c-0.142-0.301-0.211-0.638-0.211-1.013v-1.337c0-0.323,0.066-0.633,0.198-0.925c0.131-0.293,0.312-0.55,0.541-0.771
				s0.499-0.395,0.81-0.523C339.018,79.551,339.349,79.487,339.696,79.487z M340.575,82.176c0.222,0,0.369-0.024,0.446-0.076
				c0.076-0.051,0.115-0.161,0.115-0.331c0-0.187-0.036-0.367-0.109-0.541c-0.071-0.175-0.173-0.327-0.299-0.459
				c-0.127-0.132-0.28-0.238-0.459-0.318c-0.179-0.082-0.374-0.122-0.587-0.122c-0.202,0-0.393,0.036-0.566,0.109
				c-0.174,0.071-0.33,0.168-0.465,0.292c-0.137,0.123-0.243,0.27-0.319,0.439s-0.114,0.354-0.114,0.549v0.458H340.575z"/>
		</g>
	</g>
	<g>
		<path fill="#FFFFFF" d="M111.922,6.862c0-0.336,0.145-0.581,0.437-0.738c0.29-0.156,0.615-0.235,0.973-0.235
			c0.357,0,0.683,0.079,0.974,0.235c0.291,0.157,0.437,0.402,0.437,0.738v22.559c0,0.335-0.146,0.587-0.437,0.756
			c-0.291,0.166-0.616,0.251-0.974,0.251c-0.358,0-0.683-0.085-0.973-0.251c-0.292-0.169-0.437-0.421-0.437-0.756V6.862z"/>
		<path fill="#FFFFFF" d="M121.726,29.421c0,0.246-0.141,0.476-0.42,0.688c-0.28,0.214-0.61,0.319-0.99,0.319
			c-0.402,0-0.733-0.105-0.99-0.319c-0.258-0.212-0.386-0.441-0.386-0.688V15.489c0-0.291,0.128-0.525,0.386-0.704
			c0.257-0.179,0.588-0.269,0.99-0.269c0.336,0,0.632,0.09,0.89,0.269c0.257,0.179,0.386,0.413,0.386,0.704v1.377
			c0.335-0.649,0.883-1.237,1.645-1.763c0.761-0.524,1.712-0.789,2.854-0.789c0.806,0,1.566,0.168,2.282,0.503
			c0.716,0.336,1.344,0.802,1.88,1.395c0.537,0.592,0.962,1.281,1.275,2.063c0.313,0.784,0.47,1.611,0.47,2.484v8.661
			c0,0.335-0.146,0.587-0.437,0.756c-0.291,0.166-0.616,0.251-0.974,0.251c-0.335,0-0.649-0.085-0.94-0.251
			c-0.291-0.169-0.436-0.421-0.436-0.756V20.76c0-0.492-0.101-0.974-0.302-1.444c-0.201-0.469-0.476-0.889-0.822-1.258
			c-0.347-0.37-0.755-0.666-1.225-0.891c-0.47-0.223-0.963-0.335-1.478-0.335c-0.447,0-0.889,0.09-1.326,0.269
			s-0.829,0.437-1.175,0.772c-0.347,0.335-0.627,0.751-0.839,1.242c-0.213,0.491-0.318,1.041-0.318,1.645V29.421z"/>
		<path fill="#FFFFFF" d="M138.542,25.359c0,0.961,0.202,1.638,0.604,2.03c0.402,0.392,1.129,0.587,2.182,0.587h1.041
			c0.38,0,0.677,0.124,0.89,0.37s0.319,0.525,0.319,0.839s-0.106,0.6-0.319,0.856s-0.509,0.386-0.89,0.386h-1.041
			c-1.813,0-3.195-0.403-4.146-1.209c-0.951-0.805-1.426-2.092-1.426-3.859V8.071c0-0.291,0.15-0.526,0.453-0.705
			c0.302-0.18,0.609-0.269,0.923-0.269c0.358,0,0.683,0.089,0.974,0.269c0.291,0.179,0.436,0.414,0.436,0.705v6.445h4.229
			c0.246,0,0.448,0.111,0.604,0.336c0.156,0.224,0.235,0.48,0.235,0.771s-0.079,0.543-0.235,0.754
			c-0.157,0.215-0.358,0.32-0.604,0.32h-4.229V25.359z"/>
		<path fill="#FFFFFF" d="M152.037,14.314c0.851,0,1.667,0.152,2.451,0.453c0.783,0.303,1.471,0.728,2.064,1.275
			c0.593,0.55,1.063,1.204,1.411,1.964c0.346,0.762,0.52,1.59,0.52,2.484c0,0.672-0.084,1.191-0.252,1.561
			c-0.168,0.37-0.392,0.649-0.671,0.84c-0.281,0.19-0.6,0.303-0.958,0.335c-0.357,0.034-0.728,0.051-1.107,0.051h-7.352v1.007
			c0,1.255,0.442,2.244,1.327,2.971c0.883,0.729,2.031,1.092,3.44,1.092c0.627,0,1.152-0.067,1.578-0.201
			c0.426-0.135,0.789-0.287,1.09-0.453c0.303-0.169,0.56-0.319,0.773-0.453c0.213-0.135,0.419-0.202,0.621-0.202
			c0.336,0,0.609,0.152,0.822,0.453c0.212,0.303,0.319,0.576,0.319,0.822c0,0.225-0.124,0.47-0.37,0.739
			c-0.246,0.268-0.599,0.526-1.058,0.771c-0.458,0.246-1.018,0.453-1.677,0.622c-0.66,0.167-1.394,0.251-2.198,0.251
			c-1.098,0-2.098-0.156-3.004-0.471c-0.907-0.313-1.69-0.754-2.35-1.325c-0.661-0.571-1.175-1.253-1.544-2.048
			c-0.37-0.793-0.554-1.684-0.554-2.668v-3.525c0-0.851,0.173-1.662,0.521-2.434c0.346-0.771,0.821-1.449,1.426-2.031
			c0.605-0.581,1.314-1.041,2.132-1.377C150.252,14.482,151.12,14.314,152.037,14.314z M154.353,21.398
			c0.583,0,0.974-0.068,1.175-0.202s0.302-0.425,0.302-0.873c0-0.492-0.095-0.968-0.285-1.426c-0.191-0.459-0.453-0.861-0.789-1.21
			c-0.336-0.346-0.74-0.625-1.21-0.839c-0.469-0.211-0.983-0.318-1.543-0.318c-0.538,0-1.035,0.095-1.493,0.286
			c-0.459,0.189-0.868,0.447-1.225,0.771c-0.359,0.323-0.639,0.71-0.84,1.157c-0.201,0.448-0.303,0.93-0.303,1.444v1.209H154.353z"
			/>
		<path fill="#FFFFFF" d="M167.075,26.534c-0.918,0-1.745-0.169-2.484-0.504c-0.224,0.133-0.419,0.285-0.587,0.453
			c-0.167,0.168-0.251,0.396-0.251,0.688c0,0.47,0.256,0.8,0.771,0.99c0.516,0.189,1.153,0.335,1.914,0.437
			c0.76,0.101,1.588,0.206,2.484,0.318c0.894,0.111,1.723,0.313,2.484,0.604c0.759,0.291,1.398,0.722,1.912,1.292
			c0.515,0.57,0.772,1.371,0.772,2.4c0,0.828-0.173,1.55-0.52,2.165c-0.348,0.614-0.828,1.125-1.444,1.528
			c-0.616,0.401-1.338,0.704-2.165,0.906c-0.829,0.201-1.725,0.301-2.686,0.301c-0.986,0-1.902-0.105-2.753-0.318
			c-0.851-0.213-1.583-0.509-2.198-0.889c-0.616-0.381-1.103-0.852-1.461-1.411c-0.358-0.559-0.537-1.197-0.537-1.912
			c0-0.94,0.274-1.708,0.823-2.3c0.548-0.594,1.18-1.046,1.897-1.359c-0.516-0.18-0.93-0.437-1.242-0.772
			c-0.313-0.335-0.471-0.828-0.471-1.478c0-0.626,0.152-1.124,0.453-1.494c0.303-0.368,0.709-0.699,1.225-0.99
			c-0.603-0.491-1.073-1.102-1.409-1.83c-0.336-0.727-0.504-1.525-0.504-2.399v-1.107c0-0.806,0.146-1.549,0.437-2.233
			c0.291-0.682,0.693-1.27,1.208-1.762c0.514-0.49,1.141-0.871,1.879-1.141c0.738-0.269,1.554-0.403,2.45-0.403
			c0.783,0,1.505,0.117,2.166,0.353c0.66,0.235,1.247,0.554,1.763,0.957c0.336-0.739,0.704-1.287,1.107-1.646
			c0.403-0.357,0.794-0.537,1.175-0.537c0.38,0,0.677,0.113,0.889,0.336c0.213,0.224,0.318,0.459,0.318,0.705
			c0,0.18-0.055,0.335-0.167,0.47s-0.246,0.235-0.403,0.302c-0.247,0.068-0.538,0.202-0.873,0.404
			c-0.336,0.2-0.649,0.536-0.939,1.007c0.357,0.426,0.62,0.912,0.789,1.46c0.167,0.548,0.251,1.124,0.251,1.729v1.107
			c0,0.807-0.151,1.545-0.452,2.216c-0.303,0.672-0.722,1.26-1.26,1.762c-0.538,0.505-1.175,0.896-1.913,1.176
			C168.788,26.396,167.97,26.534,167.075,26.534z M171.372,33.28c0-0.626-0.202-1.113-0.604-1.459
			c-0.403-0.348-0.895-0.604-1.478-0.772s-1.203-0.28-1.863-0.335c-0.661-0.057-1.259-0.118-1.796-0.186
			c-0.717,0.245-1.337,0.588-1.862,1.024c-0.528,0.436-0.789,1.012-0.789,1.728c0,0.874,0.385,1.573,1.157,2.099
			c0.771,0.525,1.807,0.789,3.105,0.789c1.276,0,2.283-0.264,3.021-0.789C171.004,34.854,171.372,34.154,171.372,33.28z
			 M170.432,19.854c0-1.007-0.292-1.862-0.873-2.568c-0.582-0.705-1.399-1.056-2.451-1.056c-1.074,0-1.89,0.351-2.45,1.056
			c-0.56,0.706-0.839,1.562-0.839,2.568v1.074c0,1.052,0.285,1.931,0.856,2.635c0.57,0.705,1.393,1.058,2.467,1.058
			c1.007,0,1.807-0.341,2.399-1.023c0.593-0.683,0.89-1.561,0.89-2.636V19.854z"/>
		<path fill="#FFFFFF" d="M183.96,16.832c-0.538,0-1.063,0.112-1.578,0.335c-0.515,0.225-0.968,0.551-1.359,0.974
			c-0.391,0.426-0.71,0.946-0.956,1.563c-0.246,0.616-0.37,1.303-0.37,2.064v7.653c0,0.246-0.141,0.476-0.419,0.688
			c-0.281,0.214-0.61,0.319-0.991,0.319c-0.403,0-0.733-0.105-0.991-0.319c-0.256-0.212-0.386-0.441-0.386-0.688V15.489
			c0-0.291,0.129-0.525,0.386-0.704c0.258-0.179,0.587-0.269,0.991-0.269c0.358,0,0.66,0.09,0.906,0.269
			c0.247,0.179,0.37,0.413,0.37,0.704v1.578c0.38-0.693,0.945-1.326,1.695-1.896c0.75-0.571,1.65-0.856,2.702-0.856h1.142
			c0.29,0,0.542,0.13,0.755,0.386c0.212,0.258,0.319,0.554,0.319,0.89c0,0.335-0.106,0.627-0.319,0.873
			c-0.212,0.247-0.465,0.369-0.755,0.369H183.96z"/>
		<path fill="#FFFFFF" d="M193.259,14.314c1.164,0,2.154,0.185,2.971,0.555c0.816,0.369,1.482,0.854,1.998,1.46
			c0.514,0.604,0.883,1.298,1.107,2.08c0.223,0.784,0.334,1.591,0.334,2.418v8.594c0,0.291-0.128,0.531-0.386,0.721
			c-0.256,0.191-0.587,0.286-0.989,0.286c-0.381,0-0.688-0.095-0.923-0.286c-0.235-0.189-0.353-0.43-0.353-0.721v-1.344
			c-0.583,0.673-1.287,1.276-2.116,1.813c-0.826,0.538-1.812,0.807-2.952,0.807c-0.627,0-1.215-0.09-1.763-0.269
			c-0.55-0.179-1.031-0.453-1.443-0.822c-0.416-0.37-0.74-0.833-0.973-1.394c-0.237-0.56-0.354-1.22-0.354-1.98
			c0-0.939,0.189-1.706,0.57-2.3c0.38-0.592,0.918-1.069,1.613-1.426c0.692-0.357,1.521-0.604,2.483-0.738
			c0.962-0.135,2.024-0.202,3.19-0.202h1.61v-0.704c0-0.493-0.067-0.985-0.201-1.479c-0.135-0.49-0.347-0.938-0.637-1.342
			c-0.291-0.403-0.672-0.727-1.143-0.974c-0.469-0.246-1.041-0.369-1.711-0.369c-0.581,0-1.074,0.051-1.478,0.15
			c-0.402,0.101-0.738,0.214-1.005,0.336c-0.269,0.124-0.493,0.234-0.672,0.336c-0.179,0.1-0.347,0.151-0.502,0.151
			c-0.336,0-0.595-0.156-0.773-0.47c-0.179-0.313-0.268-0.627-0.268-0.941c0-0.268,0.145-0.52,0.436-0.754
			c0.291-0.236,0.665-0.443,1.125-0.622c0.458-0.179,0.967-0.318,1.526-0.418C192.14,14.364,192.7,14.314,193.259,14.314z
			 M196.884,23.277h-1.174c-0.717,0-1.404,0.028-2.064,0.083c-0.662,0.058-1.242,0.175-1.746,0.354
			c-0.504,0.18-0.907,0.442-1.208,0.789c-0.303,0.346-0.453,0.822-0.453,1.427c0,0.873,0.246,1.511,0.738,1.913
			c0.492,0.403,1.108,0.604,1.846,0.604c0.47,0,0.951-0.104,1.444-0.318c0.493-0.212,0.929-0.486,1.309-0.822
			c0.381-0.336,0.695-0.704,0.941-1.107c0.245-0.403,0.368-0.794,0.368-1.175V23.277z"/>
		<path fill="#FFFFFF" d="M206.217,25.359c0,0.961,0.201,1.638,0.604,2.03c0.402,0.392,1.128,0.587,2.182,0.587h1.04
			c0.381,0,0.678,0.124,0.891,0.37s0.318,0.525,0.318,0.839s-0.105,0.6-0.318,0.856s-0.51,0.386-0.891,0.386h-1.04
			c-1.812,0-3.195-0.403-4.146-1.209c-0.952-0.805-1.426-2.092-1.426-3.859V8.071c0-0.291,0.151-0.526,0.453-0.705
			c0.303-0.18,0.608-0.269,0.922-0.269c0.358,0,0.683,0.089,0.974,0.269c0.29,0.179,0.438,0.414,0.438,0.705v6.445h4.229
			c0.247,0,0.448,0.111,0.605,0.336c0.156,0.224,0.234,0.48,0.234,0.771s-0.078,0.543-0.234,0.754
			c-0.157,0.215-0.358,0.32-0.605,0.32h-4.229V25.359z"/>
		<path fill="#FFFFFF" d="M219.712,14.314c0.849,0,1.666,0.152,2.449,0.453c0.782,0.303,1.472,0.728,2.065,1.275
			c0.593,0.55,1.063,1.204,1.409,1.964c0.346,0.762,0.519,1.59,0.519,2.484c0,0.672-0.082,1.191-0.251,1.561
			c-0.166,0.37-0.39,0.649-0.671,0.84c-0.279,0.19-0.598,0.303-0.956,0.335c-0.359,0.034-0.728,0.051-1.108,0.051h-7.352v1.007
			c0,1.255,0.441,2.244,1.326,2.971c0.884,0.729,2.031,1.092,3.442,1.092c0.624,0,1.15-0.067,1.576-0.201
			c0.424-0.135,0.788-0.287,1.092-0.453c0.301-0.169,0.558-0.319,0.771-0.453c0.213-0.135,0.42-0.202,0.623-0.202
			c0.334,0,0.607,0.152,0.822,0.453c0.211,0.303,0.319,0.576,0.319,0.822c0,0.225-0.125,0.47-0.371,0.739
			c-0.245,0.268-0.598,0.526-1.057,0.771c-0.459,0.246-1.019,0.453-1.679,0.622c-0.661,0.167-1.392,0.251-2.199,0.251
			c-1.096,0-2.098-0.156-3.005-0.471c-0.905-0.313-1.69-0.754-2.35-1.325s-1.175-1.253-1.543-2.048
			c-0.369-0.793-0.554-1.684-0.554-2.668v-3.525c0-0.851,0.173-1.662,0.52-2.434c0.349-0.771,0.823-1.449,1.427-2.031
			c0.603-0.581,1.313-1.041,2.133-1.377C217.927,14.482,218.792,14.314,219.712,14.314z M222.027,21.398
			c0.581,0,0.974-0.068,1.175-0.202s0.303-0.425,0.303-0.873c0-0.492-0.097-0.968-0.287-1.426c-0.188-0.459-0.453-0.861-0.789-1.21
			c-0.335-0.346-0.736-0.625-1.207-0.839c-0.47-0.211-0.986-0.318-1.544-0.318c-0.537,0-1.036,0.095-1.494,0.286
			c-0.46,0.189-0.868,0.447-1.226,0.771c-0.358,0.323-0.637,0.71-0.84,1.157c-0.201,0.448-0.302,0.93-0.302,1.444v1.209H222.027z"/>
		<path fill="#FFFFFF" d="M240.456,4.915c0.404,0,0.733,0.09,0.99,0.27c0.257,0.179,0.387,0.414,0.387,0.704v23.532
			c0,0.246-0.13,0.476-0.387,0.688c-0.257,0.214-0.586,0.319-0.99,0.319c-0.357,0-0.659-0.105-0.906-0.319
			c-0.247-0.212-0.369-0.441-0.369-0.688v-1.344c-0.357,0.695-0.952,1.305-1.778,1.83c-0.829,0.525-1.781,0.789-2.854,0.789
			c-0.783,0-1.532-0.18-2.249-0.537c-0.718-0.357-1.342-0.84-1.879-1.444c-0.538-0.604-0.969-1.297-1.292-2.081
			c-0.326-0.782-0.488-1.599-0.488-2.449V20.76c0-0.873,0.156-1.7,0.471-2.484c0.313-0.782,0.744-1.472,1.291-2.063
			c0.549-0.593,1.187-1.059,1.915-1.395c0.727-0.335,1.503-0.503,2.332-0.503c1.074,0,1.981,0.265,2.72,0.789
			c0.738,0.525,1.298,1.113,1.68,1.763V5.889c0-0.29,0.139-0.525,0.418-0.704C239.746,5.005,240.075,4.915,240.456,4.915z
			 M231.426,24.185c0,0.515,0.102,1.006,0.303,1.477c0.202,0.47,0.475,0.896,0.821,1.275c0.348,0.381,0.75,0.684,1.211,0.906
			c0.458,0.224,0.944,0.336,1.458,0.336c0.538,0,1.04-0.118,1.511-0.353c0.47-0.234,0.879-0.521,1.227-0.856
			c0.347-0.336,0.615-0.677,0.805-1.022c0.189-0.348,0.287-0.633,0.287-0.856V20.76c0-0.604-0.114-1.153-0.337-1.645
			c-0.225-0.491-0.511-0.907-0.856-1.242c-0.347-0.336-0.75-0.594-1.208-0.772c-0.46-0.179-0.924-0.269-1.393-0.269
			c-0.538,0-1.035,0.112-1.493,0.335c-0.461,0.225-0.863,0.521-1.211,0.891c-0.347,0.369-0.619,0.789-0.821,1.258
			c-0.201,0.471-0.303,0.952-0.303,1.444V24.185z"/>
		<path fill="#FFFFFF" d="M262.946,21.33c-0.157,0.292-0.33,0.492-0.52,0.604c-0.189,0.111-0.387,0.168-0.588,0.168
			c-0.18,0-0.358-0.057-0.538-0.168c-0.18-0.112-0.346-0.313-0.502-0.604l-5.036-9.668v17.759c0,0.335-0.145,0.587-0.436,0.756
			c-0.291,0.166-0.616,0.251-0.974,0.251c-0.358,0-0.683-0.085-0.973-0.251c-0.291-0.169-0.438-0.421-0.438-0.756V7.265
			c0-0.515,0.14-0.872,0.419-1.073c0.28-0.202,0.61-0.303,0.991-0.303c0.515,0,0.939,0.151,1.275,0.453
			c0.335,0.303,0.66,0.744,0.974,1.327l5.27,10.104l5.305-10.104c0.313-0.583,0.638-1.024,0.974-1.327
			c0.334-0.302,0.761-0.453,1.275-0.453c0.38,0,0.71,0.101,0.989,0.303c0.28,0.201,0.42,0.559,0.42,1.073v22.156
			c0,0.335-0.146,0.587-0.436,0.756c-0.291,0.166-0.616,0.251-0.974,0.251s-0.683-0.085-0.973-0.251
			c-0.291-0.169-0.437-0.421-0.437-0.756V11.797L262.946,21.33z"/>
		<path fill="#FFFFFF" d="M281.106,14.314c0.851,0,1.667,0.152,2.451,0.453c0.783,0.303,1.471,0.728,2.064,1.275
			c0.593,0.55,1.062,1.204,1.408,1.964c0.349,0.762,0.521,1.59,0.521,2.484c0,0.672-0.083,1.191-0.252,1.561
			c-0.168,0.37-0.392,0.649-0.671,0.84s-0.6,0.303-0.957,0.335c-0.358,0.034-0.727,0.051-1.107,0.051h-7.352v1.007
			c0,1.255,0.44,2.244,1.326,2.971c0.884,0.729,2.03,1.092,3.439,1.092c0.627,0,1.153-0.067,1.579-0.201
			c0.425-0.135,0.789-0.287,1.09-0.453c0.303-0.169,0.561-0.319,0.773-0.453c0.211-0.135,0.419-0.202,0.621-0.202
			c0.335,0,0.607,0.152,0.822,0.453c0.212,0.303,0.318,0.576,0.318,0.822c0,0.225-0.122,0.47-0.369,0.739
			c-0.247,0.268-0.599,0.526-1.057,0.771c-0.459,0.246-1.02,0.453-1.679,0.622c-0.661,0.167-1.394,0.251-2.199,0.251
			c-1.098,0-2.098-0.156-3.005-0.471c-0.906-0.313-1.688-0.754-2.351-1.325c-0.659-0.571-1.173-1.253-1.543-2.048
			c-0.369-0.793-0.554-1.684-0.554-2.668v-3.525c0-0.851,0.173-1.662,0.521-2.434c0.346-0.771,0.822-1.449,1.426-2.031
			c0.605-0.581,1.314-1.041,2.132-1.377C279.321,14.482,280.189,14.314,281.106,14.314z M283.423,21.398
			c0.581,0,0.974-0.068,1.175-0.202c0.202-0.134,0.303-0.425,0.303-0.873c0-0.492-0.096-0.968-0.285-1.426
			c-0.19-0.459-0.454-0.861-0.789-1.21c-0.336-0.346-0.738-0.625-1.208-0.839c-0.471-0.211-0.986-0.318-1.545-0.318
			c-0.536,0-1.035,0.095-1.493,0.286c-0.46,0.189-0.868,0.447-1.226,0.771c-0.358,0.323-0.639,0.71-0.84,1.157
			c-0.202,0.448-0.302,0.93-0.302,1.444v1.209H283.423z"/>
		<path fill="#FFFFFF" d="M301.854,4.915c0.402,0,0.731,0.09,0.989,0.27c0.258,0.179,0.386,0.414,0.386,0.704v23.532
			c0,0.246-0.128,0.476-0.386,0.688c-0.258,0.214-0.587,0.319-0.989,0.319c-0.358,0-0.661-0.105-0.908-0.319
			c-0.245-0.212-0.367-0.441-0.367-0.688v-1.344c-0.359,0.695-0.953,1.305-1.78,1.83c-0.828,0.525-1.778,0.789-2.853,0.789
			c-0.784,0-1.533-0.18-2.249-0.537c-0.717-0.357-1.343-0.84-1.881-1.444c-0.537-0.604-0.968-1.297-1.292-2.081
			c-0.325-0.782-0.486-1.599-0.486-2.449V20.76c0-0.873,0.155-1.7,0.47-2.484c0.313-0.782,0.743-1.472,1.293-2.063
			c0.548-0.593,1.186-1.059,1.912-1.395c0.728-0.335,1.505-0.503,2.334-0.503c1.074,0,1.979,0.265,2.719,0.789
			c0.739,0.525,1.298,1.113,1.679,1.763V5.889c0-0.29,0.14-0.525,0.419-0.704C301.143,5.005,301.473,4.915,301.854,4.915z
			 M292.822,24.185c0,0.515,0.102,1.006,0.303,1.477c0.201,0.47,0.476,0.896,0.822,1.275c0.347,0.381,0.749,0.684,1.209,0.906
			c0.458,0.224,0.944,0.336,1.46,0.336c0.537,0,1.04-0.118,1.511-0.353c0.47-0.234,0.878-0.521,1.225-0.856
			c0.348-0.336,0.616-0.677,0.807-1.022c0.189-0.348,0.285-0.633,0.285-0.856V20.76c0-0.604-0.112-1.153-0.336-1.645
			s-0.51-0.907-0.856-1.242c-0.348-0.336-0.749-0.594-1.208-0.772c-0.458-0.179-0.923-0.269-1.394-0.269
			c-0.536,0-1.035,0.112-1.493,0.335c-0.46,0.225-0.862,0.521-1.209,0.891c-0.347,0.369-0.621,0.789-0.822,1.258
			c-0.201,0.471-0.303,0.952-0.303,1.444V24.185z"/>
		<path fill="#FFFFFF" d="M308.599,6.964c0.471,0,0.873,0.157,1.209,0.47c0.336,0.313,0.505,0.683,0.505,1.107
			s-0.169,0.8-0.505,1.124c-0.336,0.326-0.738,0.488-1.209,0.488c-0.492,0-0.905-0.162-1.241-0.488
			c-0.337-0.324-0.503-0.699-0.503-1.124s0.166-0.794,0.503-1.107C307.693,7.121,308.106,6.964,308.599,6.964z M308.599,14.517
			c0.381,0,0.712,0.09,0.991,0.269s0.42,0.413,0.42,0.704v13.932c0,0.246-0.141,0.476-0.42,0.688
			c-0.279,0.214-0.61,0.319-0.991,0.319c-0.38,0-0.704-0.105-0.972-0.319c-0.27-0.212-0.404-0.441-0.404-0.688V15.489
			c0-0.291,0.135-0.525,0.404-0.704C307.895,14.606,308.219,14.517,308.599,14.517z"/>
		<path fill="#FFFFFF" d="M320.113,30.696c-1.164,0-2.166-0.168-3.004-0.504c-0.839-0.335-1.534-0.794-2.082-1.375
			c-0.548-0.583-0.956-1.271-1.226-2.066c-0.268-0.794-0.401-1.649-0.401-2.566v-3.357c0-0.895,0.134-1.74,0.401-2.535
			c0.27-0.793,0.678-1.488,1.226-2.08c0.548-0.593,1.243-1.059,2.082-1.395c0.838-0.335,1.829-0.503,2.97-0.503
			c0.739,0,1.411,0.072,2.015,0.219c0.605,0.146,1.125,0.329,1.561,0.554c0.437,0.224,0.772,0.475,1.008,0.755
			c0.234,0.28,0.353,0.544,0.353,0.789c0,0.291-0.112,0.594-0.336,0.906c-0.225,0.313-0.504,0.47-0.839,0.47
			c-0.179,0-0.352-0.061-0.521-0.185c-0.168-0.122-0.381-0.257-0.639-0.403c-0.257-0.145-0.576-0.279-0.955-0.402
			c-0.381-0.123-0.863-0.185-1.444-0.185c-1.388,0-2.417,0.353-3.088,1.058c-0.672,0.704-1.009,1.685-1.009,2.938v3.357
			c0,1.252,0.337,2.231,1.009,2.938c0.671,0.704,1.711,1.057,3.121,1.057c0.604,0,1.102-0.061,1.494-0.186
			c0.392-0.122,0.715-0.262,0.974-0.418c0.257-0.157,0.475-0.297,0.654-0.421c0.179-0.122,0.358-0.185,0.538-0.185
			c0.379,0,0.682,0.152,0.905,0.453c0.223,0.303,0.336,0.601,0.336,0.89c0,0.269-0.122,0.543-0.369,0.823
			c-0.247,0.279-0.594,0.536-1.04,0.771c-0.448,0.234-0.986,0.426-1.612,0.57C321.568,30.623,320.874,30.696,320.113,30.696z"/>
		<path fill="#FFFFFF" d="M332.769,14.314c1.164,0,2.153,0.185,2.971,0.555c0.816,0.369,1.482,0.854,1.998,1.46
			c0.514,0.604,0.884,1.298,1.107,2.08c0.223,0.784,0.336,1.591,0.336,2.418v8.594c0,0.291-0.129,0.531-0.387,0.721
			c-0.257,0.191-0.587,0.286-0.989,0.286c-0.381,0-0.688-0.095-0.924-0.286c-0.235-0.189-0.353-0.43-0.353-0.721v-1.344
			c-0.582,0.673-1.287,1.276-2.114,1.813c-0.829,0.538-1.813,0.807-2.954,0.807c-0.627,0-1.215-0.09-1.763-0.269
			c-0.549-0.179-1.03-0.453-1.442-0.822c-0.414-0.37-0.739-0.833-0.975-1.394c-0.234-0.56-0.353-1.22-0.353-1.98
			c0-0.939,0.19-1.706,0.571-2.3c0.379-0.592,0.917-1.069,1.61-1.426c0.693-0.357,1.522-0.604,2.484-0.738
			c0.962-0.135,2.025-0.202,3.188-0.202h1.612v-0.704c0-0.493-0.067-0.985-0.201-1.479c-0.136-0.49-0.349-0.938-0.638-1.342
			c-0.292-0.403-0.673-0.727-1.142-0.974c-0.47-0.246-1.041-0.369-1.713-0.369c-0.582,0-1.074,0.051-1.477,0.15
			c-0.402,0.101-0.738,0.214-1.008,0.336c-0.268,0.124-0.491,0.234-0.671,0.336c-0.179,0.1-0.347,0.151-0.504,0.151
			c-0.335,0-0.592-0.156-0.771-0.47c-0.179-0.313-0.269-0.627-0.269-0.941c0-0.268,0.146-0.52,0.437-0.754
			c0.29-0.236,0.666-0.443,1.125-0.622c0.458-0.179,0.967-0.318,1.527-0.418C331.649,14.364,332.209,14.314,332.769,14.314z
			 M336.395,23.277h-1.175c-0.718,0-1.405,0.028-2.064,0.083c-0.661,0.058-1.243,0.175-1.746,0.354
			c-0.503,0.18-0.905,0.442-1.208,0.789c-0.303,0.346-0.453,0.822-0.453,1.427c0,0.873,0.245,1.511,0.738,1.913
			c0.491,0.403,1.107,0.604,1.847,0.604c0.47,0,0.95-0.104,1.442-0.318c0.493-0.212,0.93-0.486,1.31-0.822
			c0.381-0.336,0.693-0.704,0.939-1.107c0.247-0.403,0.37-0.794,0.37-1.175V23.277z"/>
		<path fill="#FFFFFF" d="M344.685,4.915c0.38,0,0.709,0.09,0.99,0.27c0.279,0.179,0.421,0.414,0.421,0.704v23.532
			c0,0.246-0.142,0.476-0.421,0.688c-0.281,0.214-0.61,0.319-0.99,0.319c-0.403,0-0.732-0.105-0.99-0.319
			c-0.259-0.212-0.386-0.441-0.386-0.688V5.889c0-0.29,0.127-0.525,0.386-0.704C343.952,5.005,344.281,4.915,344.685,4.915z"/>
		<path fill="#FFFFFF" d="M368.888,12.301c-0.022-0.336-0.084-0.727-0.184-1.175c-0.102-0.448-0.303-0.867-0.605-1.26
			c-0.301-0.391-0.737-0.727-1.31-1.007c-0.569-0.28-1.326-0.419-2.265-0.419c-1.456,0-2.563,0.386-3.324,1.157
			c-0.762,0.773-1.14,1.977-1.14,3.609v10.104c0,1.634,0.385,2.836,1.156,3.608c0.773,0.772,1.909,1.157,3.408,1.157
			c0.939,0,1.678-0.134,2.215-0.402c0.537-0.27,0.951-0.604,1.242-1.006c0.291-0.403,0.486-0.834,0.588-1.293
			c0.101-0.459,0.173-0.891,0.218-1.293c0.067-0.649,0.538-0.974,1.41-0.974c0.47,0,0.823,0.101,1.057,0.303
			c0.235,0.201,0.354,0.626,0.354,1.275c0,0.829-0.168,1.605-0.504,2.333c-0.337,0.728-0.817,1.36-1.444,1.896
			c-0.625,0.537-1.393,0.957-2.299,1.26c-0.906,0.301-1.919,0.453-3.038,0.453c-0.984,0-1.912-0.13-2.787-0.387
			c-0.872-0.257-1.633-0.677-2.281-1.26c-0.649-0.581-1.165-1.336-1.544-2.265c-0.382-0.929-0.571-2.064-0.571-3.407V13.207
			c0-1.343,0.189-2.479,0.571-3.407c0.379-0.929,0.9-1.684,1.561-2.266c0.659-0.582,1.427-1.001,2.299-1.26
			c0.874-0.256,1.802-0.386,2.787-0.386c1.119,0,2.125,0.151,3.02,0.453c0.896,0.303,1.658,0.717,2.283,1.242
			c0.627,0.526,1.107,1.143,1.444,1.847c0.336,0.705,0.504,1.471,0.504,2.299c0,0.649-0.118,1.069-0.354,1.259
			c-0.233,0.191-0.587,0.286-1.057,0.286C369.402,13.274,368.933,12.95,368.888,12.301z"/>
		<path fill="#FFFFFF" d="M379.696,14.314c1.163,0,2.152,0.185,2.97,0.555c0.817,0.369,1.483,0.854,1.998,1.46
			c0.514,0.604,0.885,1.298,1.108,2.08c0.223,0.784,0.336,1.591,0.336,2.418v8.594c0,0.291-0.13,0.531-0.387,0.721
			c-0.257,0.191-0.588,0.286-0.989,0.286c-0.381,0-0.689-0.095-0.925-0.286c-0.235-0.189-0.353-0.43-0.353-0.721v-1.344
			c-0.582,0.673-1.286,1.276-2.113,1.813c-0.829,0.538-1.813,0.807-2.955,0.807c-0.627,0-1.213-0.09-1.763-0.269
			c-0.549-0.179-1.029-0.453-1.442-0.822c-0.414-0.37-0.739-0.833-0.975-1.394c-0.234-0.56-0.353-1.22-0.353-1.98
			c0-0.939,0.191-1.706,0.572-2.3c0.379-0.592,0.917-1.069,1.609-1.426c0.694-0.357,1.522-0.604,2.484-0.738
			c0.962-0.135,2.025-0.202,3.189-0.202h1.611v-0.704c0-0.493-0.067-0.985-0.201-1.479c-0.135-0.49-0.347-0.938-0.638-1.342
			s-0.672-0.727-1.141-0.974c-0.471-0.246-1.04-0.369-1.714-0.369c-0.582,0-1.073,0.051-1.477,0.15
			c-0.401,0.101-0.738,0.214-1.007,0.336c-0.268,0.124-0.492,0.234-0.671,0.336c-0.179,0.1-0.348,0.151-0.504,0.151
			c-0.335,0-0.593-0.156-0.771-0.47c-0.18-0.313-0.27-0.627-0.27-0.941c0-0.268,0.146-0.52,0.437-0.754
			c0.29-0.236,0.667-0.443,1.125-0.622c0.459-0.179,0.968-0.318,1.528-0.418C378.576,14.364,379.136,14.314,379.696,14.314z
			 M383.321,23.277h-1.175c-0.717,0-1.405,0.028-2.064,0.083c-0.659,0.058-1.243,0.175-1.745,0.354
			c-0.504,0.18-0.906,0.442-1.209,0.789c-0.303,0.346-0.452,0.822-0.452,1.427c0,0.873,0.245,1.511,0.737,1.913
			c0.491,0.403,1.107,0.604,1.847,0.604c0.47,0,0.952-0.104,1.443-0.318c0.493-0.212,0.929-0.486,1.31-0.822
			s0.692-0.704,0.939-1.107c0.246-0.403,0.369-0.794,0.369-1.175V23.277z"/>
		<path fill="#FFFFFF" d="M396.983,16.832c-0.536,0-1.063,0.112-1.577,0.335c-0.515,0.225-0.967,0.551-1.359,0.974
			c-0.393,0.426-0.711,0.946-0.956,1.563c-0.248,0.616-0.37,1.303-0.37,2.064v7.653c0,0.246-0.141,0.476-0.419,0.688
			c-0.28,0.214-0.609,0.319-0.99,0.319c-0.404,0-0.733-0.105-0.992-0.319c-0.256-0.212-0.385-0.441-0.385-0.688V15.489
			c0-0.291,0.129-0.525,0.385-0.704c0.259-0.179,0.588-0.269,0.992-0.269c0.357,0,0.659,0.09,0.905,0.269s0.37,0.413,0.37,0.704
			v1.578c0.381-0.693,0.944-1.326,1.695-1.896c0.749-0.571,1.649-0.856,2.701-0.856h1.142c0.291,0,0.543,0.13,0.755,0.386
			c0.214,0.258,0.319,0.554,0.319,0.89c0,0.335-0.105,0.627-0.319,0.873c-0.212,0.247-0.464,0.369-0.755,0.369H396.983z"/>
		<path fill="#FFFFFF" d="M407.056,14.314c0.851,0,1.667,0.152,2.45,0.453c0.783,0.303,1.471,0.728,2.064,1.275
			c0.593,0.55,1.063,1.204,1.409,1.964c0.348,0.762,0.521,1.59,0.521,2.484c0,0.672-0.083,1.191-0.251,1.561
			c-0.169,0.37-0.393,0.649-0.671,0.84c-0.28,0.19-0.601,0.303-0.958,0.335c-0.357,0.034-0.727,0.051-1.107,0.051h-7.352v1.007
			c0,1.255,0.441,2.244,1.327,2.971c0.883,0.729,2.029,1.092,3.439,1.092c0.626,0,1.152-0.067,1.578-0.201
			c0.425-0.135,0.789-0.287,1.09-0.453c0.303-0.169,0.561-0.319,0.773-0.453c0.212-0.135,0.42-0.202,0.621-0.202
			c0.335,0,0.609,0.152,0.823,0.453c0.211,0.303,0.318,0.576,0.318,0.822c0,0.225-0.123,0.47-0.37,0.739
			c-0.246,0.268-0.599,0.526-1.056,0.771c-0.46,0.246-1.021,0.453-1.68,0.622c-0.66,0.167-1.393,0.251-2.199,0.251
			c-1.097,0-2.098-0.156-3.005-0.471c-0.906-0.313-1.688-0.754-2.351-1.325c-0.659-0.571-1.173-1.253-1.543-2.048
			c-0.369-0.793-0.554-1.684-0.554-2.668v-3.525c0-0.851,0.173-1.662,0.521-2.434c0.346-0.771,0.821-1.449,1.426-2.031
			c0.604-0.581,1.314-1.041,2.132-1.377C405.271,14.482,406.138,14.314,407.056,14.314z M409.371,21.398
			c0.581,0,0.974-0.068,1.175-0.202c0.202-0.134,0.303-0.425,0.303-0.873c0-0.492-0.096-0.968-0.284-1.426
			c-0.191-0.459-0.455-0.861-0.789-1.21c-0.337-0.346-0.739-0.625-1.209-0.839c-0.471-0.211-0.985-0.318-1.545-0.318
			c-0.536,0-1.035,0.095-1.493,0.286c-0.459,0.189-0.867,0.447-1.226,0.771c-0.358,0.323-0.638,0.71-0.839,1.157
			c-0.201,0.448-0.303,0.93-0.303,1.444v1.209H409.371z"/>
	</g>
	<g>
		<g>
			<path fill="#FFFFFF" d="M149.609,52.423h-4.835v5.602c0,0.179-0.077,0.313-0.232,0.402c-0.154,0.089-0.327,0.134-0.517,0.134
				c-0.19,0-0.362-0.045-0.518-0.134c-0.154-0.09-0.231-0.224-0.231-0.402v-11.99c0-0.178,0.077-0.31,0.231-0.392
				c0.155-0.084,0.327-0.125,0.518-0.125c0.19,0,0.363,0.041,0.517,0.125c0.155,0.082,0.232,0.214,0.232,0.392v5.139h4.835v-5.139
				c0-0.178,0.078-0.31,0.233-0.392c0.154-0.084,0.326-0.125,0.516-0.125s0.362,0.041,0.518,0.125
				c0.154,0.082,0.232,0.214,0.232,0.392v11.99c0,0.179-0.079,0.313-0.232,0.402c-0.156,0.089-0.328,0.134-0.518,0.134
				s-0.362-0.045-0.516-0.134c-0.156-0.09-0.233-0.224-0.233-0.402V52.423z"/>
			<path fill="#FFFFFF" d="M178.765,58.667c-0.535,0-1.038-0.068-1.507-0.205c-0.471-0.137-0.877-0.36-1.222-0.669
				c-0.345-0.31-0.616-0.71-0.813-1.204c-0.195-0.494-0.293-1.098-0.293-1.812v-5.371c0-0.713,0.099-1.317,0.293-1.811
				c0.197-0.493,0.468-0.896,0.813-1.204c0.345-0.31,0.751-0.533,1.222-0.67c0.469-0.136,0.972-0.204,1.507-0.204
				c0.535,0,1.038,0.068,1.508,0.204c0.469,0.137,0.88,0.36,1.231,0.67c0.35,0.309,0.624,0.711,0.82,1.204
				c0.196,0.493,0.295,1.098,0.295,1.811v5.371c0,0.714-0.099,1.317-0.295,1.812c-0.197,0.494-0.47,0.895-0.82,1.204
				c-0.351,0.309-0.762,0.532-1.231,0.669C179.803,58.599,179.3,58.667,178.765,58.667z M181.12,49.406
				c0-0.868-0.206-1.508-0.624-1.917c-0.417-0.411-0.994-0.616-1.731-0.616s-1.312,0.205-1.722,0.616
				c-0.41,0.409-0.616,1.049-0.616,1.917v5.371c0,0.868,0.206,1.508,0.616,1.918c0.41,0.409,0.985,0.616,1.722,0.616
				s1.314-0.207,1.731-0.616c0.417-0.41,0.624-1.05,0.624-1.918V49.406z"/>
			<path fill="#FFFFFF" d="M209.473,57.312c0.749,0,1.348-0.182,1.802-0.545c0.451-0.362,0.677-0.918,0.677-1.668
				c0-0.595-0.145-1.065-0.436-1.408c-0.292-0.347-0.654-0.631-1.09-0.857c-0.433-0.227-0.903-0.429-1.409-0.607
				c-0.505-0.179-0.976-0.401-1.409-0.669c-0.435-0.268-0.797-0.612-1.088-1.035c-0.292-0.421-0.438-0.996-0.438-1.722
				c0-0.653,0.122-1.196,0.366-1.625c0.244-0.427,0.555-0.766,0.936-1.015c0.381-0.251,0.804-0.426,1.267-0.528
				c0.465-0.1,0.917-0.152,1.357-0.152c0.321,0,0.662,0.025,1.026,0.073c0.362,0.048,0.698,0.119,1.007,0.214
				c0.311,0.094,0.567,0.217,0.776,0.366c0.208,0.148,0.313,0.323,0.313,0.526c0,0.143-0.057,0.314-0.171,0.516
				c-0.111,0.205-0.27,0.304-0.473,0.304c-0.107,0-0.222-0.034-0.348-0.106c-0.125-0.07-0.281-0.148-0.465-0.231
				c-0.183-0.084-0.41-0.16-0.677-0.231c-0.268-0.072-0.597-0.107-0.99-0.107c-0.334,0-0.645,0.032-0.936,0.097
				c-0.293,0.066-0.548,0.17-0.769,0.314c-0.22,0.142-0.396,0.333-0.526,0.57c-0.131,0.239-0.197,0.53-0.197,0.873
				c0,0.501,0.147,0.895,0.438,1.179c0.292,0.285,0.653,0.527,1.088,0.724c0.434,0.194,0.904,0.384,1.408,0.561
				c0.507,0.179,0.978,0.418,1.412,0.714c0.434,0.299,0.797,0.689,1.088,1.178c0.291,0.487,0.438,1.138,0.438,1.945
				c0,0.642-0.1,1.198-0.296,1.669c-0.196,0.47-0.466,0.858-0.812,1.168c-0.345,0.309-0.756,0.538-1.23,0.687
				c-0.477,0.148-1,0.224-1.57,0.224c-0.572,0-1.092-0.069-1.562-0.205c-0.469-0.137-0.869-0.31-1.196-0.518
				c-0.326-0.208-0.58-0.429-0.758-0.661c-0.178-0.231-0.268-0.443-0.268-0.632c0-0.18,0.069-0.36,0.206-0.546
				c0.135-0.185,0.287-0.276,0.455-0.276c0.132,0,0.265,0.075,0.402,0.225c0.137,0.147,0.315,0.314,0.535,0.499
				c0.221,0.184,0.497,0.351,0.831,0.499C208.52,57.236,208.949,57.312,209.473,57.312z"/>
			<path fill="#FFFFFF" d="M236.809,46.034c0-0.13,0.054-0.25,0.16-0.357s0.256-0.159,0.446-0.159h3.372
				c0.522,0,1.017,0.068,1.481,0.204c0.463,0.137,0.864,0.357,1.204,0.66c0.339,0.304,0.606,0.701,0.802,1.195
				c0.196,0.495,0.296,1.092,0.296,1.794v0.161c0,0.701-0.1,1.296-0.296,1.783c-0.195,0.487-0.469,0.887-0.82,1.195
				c-0.351,0.311-0.761,0.536-1.23,0.679s-0.974,0.214-1.509,0.214h-2.407v4.621c0,0.179-0.078,0.313-0.233,0.402
				c-0.155,0.089-0.326,0.134-0.518,0.134c-0.19,0-0.361-0.045-0.518-0.134c-0.154-0.09-0.23-0.224-0.23-0.402V46.034z
				 M238.308,46.873v5.281h2.407c0.738,0,1.314-0.207,1.731-0.625c0.417-0.416,0.625-1.051,0.625-1.909v-0.214
				c0-0.868-0.208-1.508-0.625-1.917c-0.417-0.411-0.993-0.616-1.731-0.616H238.308z"/>
			<path fill="#FFFFFF" d="M267.765,46.034c0-0.178,0.078-0.31,0.232-0.392c0.154-0.084,0.327-0.125,0.519-0.125
				c0.188,0,0.362,0.041,0.518,0.125c0.154,0.082,0.23,0.214,0.23,0.392v11.99c0,0.179-0.076,0.313-0.23,0.402
				c-0.155,0.089-0.329,0.134-0.518,0.134c-0.191,0-0.364-0.045-0.519-0.134c-0.154-0.09-0.232-0.224-0.232-0.402V46.034z"/>
			<path fill="#FFFFFF" d="M299.971,45.518c0.18,0,0.313,0.07,0.403,0.215c0.088,0.141,0.133,0.296,0.133,0.463
				c0,0.179-0.045,0.342-0.133,0.49c-0.09,0.148-0.224,0.224-0.403,0.224h-2.872v11.115c0,0.179-0.077,0.313-0.231,0.402
				c-0.153,0.089-0.326,0.134-0.518,0.134c-0.189,0-0.363-0.045-0.518-0.134c-0.154-0.09-0.231-0.224-0.231-0.402V46.909h-2.891
				c-0.166,0-0.298-0.072-0.394-0.214c-0.094-0.144-0.141-0.311-0.141-0.5c0-0.167,0.043-0.322,0.133-0.463
				c0.088-0.145,0.223-0.215,0.401-0.215H299.971z"/>
			<path fill="#FFFFFF" d="M322.364,58.561c-0.202,0-0.404-0.057-0.606-0.17c-0.201-0.112-0.303-0.265-0.303-0.455
				c0-0.023,0.012-0.071,0.035-0.143l3.64-11.866c0.061-0.178,0.179-0.31,0.358-0.392c0.177-0.084,0.368-0.125,0.569-0.125
				c0.202,0,0.394,0.045,0.571,0.134c0.179,0.088,0.298,0.218,0.357,0.383l3.639,11.866c0,0.024,0.005,0.044,0.011,0.062
				c0.004,0.019,0.009,0.039,0.009,0.063c0,0.178-0.103,0.329-0.304,0.454c-0.203,0.126-0.411,0.188-0.625,0.188
				c-0.131,0-0.244-0.026-0.339-0.081c-0.096-0.053-0.16-0.14-0.197-0.26l-0.784-2.658h-4.692l-0.786,2.658
				C322.847,58.446,322.662,58.561,322.364,58.561z M328.039,54.333l-1.981-6.711l-2.016,6.711H328.039z"/>
			<path fill="#FFFFFF" d="M354.321,58.561c-0.167,0-0.32-0.045-0.464-0.134c-0.143-0.09-0.214-0.224-0.214-0.402v-11.99
				c0-0.178,0.077-0.31,0.231-0.392c0.154-0.084,0.327-0.125,0.519-0.125c0.189,0,0.361,0.041,0.517,0.125
				c0.155,0.082,0.232,0.214,0.232,0.392v11.171h4.871c0.167,0,0.287,0.07,0.366,0.214c0.077,0.142,0.115,0.296,0.115,0.464
				c0,0.166-0.038,0.32-0.115,0.464c-0.079,0.143-0.199,0.214-0.366,0.214H354.321z"/>
		</g>
	</g>
	<g>
		
			<line fill="none" stroke="#FFFFFF" stroke-width="0.7455" stroke-miterlimit="10" x1="111.99" y1="40.273" x2="412.157" y2="40.273"/>
		
			<line fill="none" stroke="#FFFFFF" stroke-width="0.7455" stroke-miterlimit="10" x1="111.99" y1="63.476" x2="412.157" y2="63.476"/>
	</g>
	<g>
		<path fill="#FFFFFF" d="M33.861,36.058c-0.172-0.086-0.357-0.126-0.556-0.126c-0.215,0-0.402,0.041-0.573,0.126
			c-0.156,0.103-0.242,0.244-0.242,0.457V53.24c0,0.213,0.086,0.371,0.242,0.484c0.171,0.102,0.358,0.158,0.573,0.158
			c0.199,0,0.384-0.057,0.556-0.158c0.172-0.113,0.255-0.271,0.255-0.484V36.515C34.116,36.302,34.034,36.161,33.861,36.058z
			 M52.398,36.1c-0.159-0.113-0.345-0.169-0.573-0.169c-0.298,0-0.541,0.113-0.756,0.329c-0.198,0.212-0.383,0.483-0.542,0.798
			l-4.236,8.146l-4.226-8.146c-0.156-0.315-0.341-0.586-0.54-0.798c-0.215-0.216-0.456-0.329-0.758-0.329
			c-0.212,0-0.398,0.056-0.557,0.169c-0.172,0.117-0.255,0.314-0.255,0.617V53.24c0,0.213,0.083,0.371,0.255,0.484
			c0.159,0.102,0.345,0.158,0.557,0.158c0.202,0,0.384-0.057,0.556-0.158c0.172-0.113,0.258-0.271,0.258-0.484V39.37l4.051,7.777
			c0.185,0.342,0.4,0.512,0.643,0.512c0.257,0,0.485-0.17,0.658-0.512l4.081-7.708V53.24c0,0.213,0.086,0.371,0.254,0.484
			c0.172,0.102,0.358,0.158,0.557,0.158c0.215,0,0.401-0.057,0.557-0.158c0.171-0.113,0.257-0.271,0.257-0.484V36.717
			C52.639,36.415,52.553,36.217,52.398,36.1z M67.695,48.871c-0.5,0-0.771,0.215-0.815,0.643c-0.026,0.287-0.086,0.617-0.172,0.957
			c-0.084,0.357-0.229,0.684-0.457,0.984c-0.214,0.314-0.541,0.555-0.969,0.771c-0.43,0.201-1.013,0.301-1.741,0.301
			c-1.199,0-2.096-0.301-2.713-0.902c-0.611-0.611-0.926-1.553-0.926-2.852v-7.619c0-1.272,0.3-2.213,0.914-2.828
			c0.599-0.6,1.484-0.897,2.626-0.897c0.741,0,1.328,0.1,1.769,0.315c0.44,0.211,0.784,0.47,1.026,0.768
			c0.242,0.314,0.415,0.629,0.5,0.973c0.073,0.342,0.129,0.656,0.143,0.911c0.013,0.186,0.086,0.329,0.215,0.445
			c0.113,0.112,0.315,0.172,0.6,0.172c0.271,0,0.482-0.06,0.612-0.189c0.129-0.113,0.198-0.384,0.198-0.798
			c0-0.557-0.125-1.083-0.354-1.57c-0.229-0.484-0.557-0.926-0.975-1.298c-0.426-0.384-0.953-0.685-1.583-0.897
			c-0.642-0.216-1.354-0.329-2.152-0.329c-0.699,0-1.371,0.083-1.983,0.286c-0.63,0.185-1.173,0.483-1.643,0.896
			c-0.471,0.431-0.841,0.958-1.113,1.626c-0.285,0.66-0.414,1.47-0.414,2.415v7.619c0,0.967,0.129,1.783,0.4,2.439
			c0.272,0.672,0.63,1.199,1.099,1.625c0.458,0.418,0.998,0.717,1.61,0.9c0.629,0.199,1.285,0.287,1.97,0.287
			c0.799,0,1.527-0.113,2.157-0.33c0.642-0.229,1.183-0.529,1.626-0.914c0.443-0.383,0.771-0.826,1-1.326
			c0.229-0.498,0.354-1.027,0.354-1.584c0-0.4-0.069-0.67-0.198-0.799C68.177,48.93,67.966,48.871,67.695,48.871z"/>
		<g>
			<polygon fill-rule="evenodd" clip-rule="evenodd" fill="#FFFFFF" points="26.706,33.892 26.47,56.732 6.525,45.484 
				26.706,33.892 			"/>
			<polygon fill-rule="evenodd" clip-rule="evenodd" fill="#FFFFFF" points="53.455,18.161 97.023,43.626 98.416,42.816 
				77.018,4.627 53.455,18.161 			"/>
			<polygon fill-rule="evenodd" clip-rule="evenodd" fill="#FFFFFF" points="75.62,34.147 75.847,55.881 94.323,45.079 			"/>
			<polygon fill-rule="evenodd" clip-rule="evenodd" fill="#FFFFFF" points="75.209,2.344 1.217,45.311 25.645,2.344 			"/>
			<polygon fill-rule="evenodd" clip-rule="evenodd" fill="#FFFFFF" points="3.739,46.738 48.511,71.992 24.969,85.754 
				2.479,47.469 3.739,46.738 			"/>
			<polygon fill-rule="evenodd" clip-rule="evenodd" fill="#FFFFFF" points="99.78,45.231 76.607,87.664 27.211,87.664 			"/>
		</g>
	</g>
</g>
</svg>
