<?xml version="1.0" encoding="utf-8"?>
<!-- Generator: Adobe Illustrator 15.1.0, SVG Export Plug-In . SVG Version: 6.00 Build 0)  -->
<!DOCTYPE svg PUBLIC "-//W3C//DTD SVG 1.1//EN" "http://www.w3.org/Graphics/SVG/1.1/DTD/svg11.dtd">
<svg version="1.1" id="Layer_1" xmlns="http://www.w3.org/2000/svg" xmlns:xlink="http://www.w3.org/1999/xlink" x="0px" y="0px"
	 width="320px" height="56px" viewBox="0 0 320 56" enable-background="new 0 0 320 56" xml:space="preserve">
<g>
	<g>
		<path fill="#0D6A8D" d="M9.333,0.5C4.17,0.5,0,4.819,0,10.117v35.767C0,51.181,4.17,55.5,9.333,55.5H64.66l25.625-55H9.333z"/>
		<path fill="#FFDD00" d="M310.666,0.5H90.285l-25.625,55h246.006c5.14,0,9.334-4.319,9.334-9.616V10.117
			C320,4.819,315.806,0.5,310.666,0.5z"/>
	</g>
	<g>
		<path fill-rule="evenodd" clip-rule="evenodd" fill="#FFFFFF" d="M40.914,19.085c-0.031-0.259-0.166-0.475-0.196-0.733
			c-0.103-0.711-0.021-1.412-0.062-2.051c-0.156-2.137-0.869-3.975-2.858-4.417c-0.197-0.217-0.248-0.453-0.402-0.659
			c-0.444-0.599-1.146-0.89-2.053-1.001h-0.94c-2.98,0.546-5.104,2.206-5.837,4.98c-0.123,0.487-0.206,0.992-0.227,1.563
			c-0.019,0.522,0.083,1.111-0.031,1.721c-0.061,0.319-0.246,0.618-0.207,1.164c0.062,0.805,0.412,1.593,0.733,2.052
			c0.196,0.289,0.525,0.516,0.701,0.796c0.34,0.57,0.466,1.124,0.721,1.601c0.733,1.288,1.981,2.866,3.89,3.05
			c2.238,0.217,3.753-1.535,4.548-2.887c0.309-0.535,0.443-1.144,0.764-1.692c0.247-0.444,0.701-0.731,0.958-1.195
			C40.717,20.816,41.017,19.932,40.914,19.085z M38.954,20.714c-0.269,1.639-0.92,3.157-1.785,4.147
			c-0.608,0.691-1.704,1.414-2.63,1.42c-1.094,0.022-2.186-0.801-2.847-1.616c-1.301-1.619-2.043-4.056-1.794-7.036
			c0.112-1.31,0.554-2.465,1.453-2.99c0.249-0.146,0.577-0.208,0.866-0.227c0.517-0.054,1.032,0.131,1.601,0.194
			c1.33,0.157,2.538-0.475,3.515-0.135c0.539,0.185,0.972,0.692,1.229,1.125C39.305,16.844,39.23,19.043,38.954,20.714z"/>
		<path fill-rule="evenodd" clip-rule="evenodd" fill="#FFFFFF" d="M48.925,40.531c0,0.499,0,0.999,0,1.503
			c-0.08,0.555-0.479,1.257-0.944,1.464c-0.762,0.338-1.861,0.044-2.863,0.211c-7.173,0-14.342,0-21.511,0
			c-0.867-0.15-2.079,0.112-2.828-0.211c-0.359-0.153-0.712-0.603-0.841-0.945c-0.228-0.595-0.139-1.81-0.103-2.614
			c0.103-2.579,0.321-5.624,1.116-7.334c0.184-0.398,0.499-0.826,0.77-1.045c1.275-1.051,3.274-1.566,4.746-2.343
			c0.08,2.392,0.019,4.921,0.04,7.369c-1.148,0.316-1.923,1.399-1.575,2.619c0.28,0.968,1.395,1.894,2.763,1.429
			c1.362-0.463,1.795-2.473,0.73-3.491c-0.27-0.258-0.606-0.36-0.976-0.591c0-2.625,0-5.238,0-7.859
			c0.873-0.346,1.487-0.955,2.372-1.292c0.667,0.995,1.114,2.164,1.641,3.282c0.532,1.118,1.043,2.247,1.642,3.283
			c0.069-0.363,0.115-0.706,0.178-1.086c0.055-0.335,0.24-0.752,0.207-1.046c-0.02-0.213-0.224-0.319-0.35-0.49
			c-0.353-0.486-0.553-1.382-0.14-1.953c0.41-0.563,1.909-0.609,2.483-0.242c0.523,0.332,0.576,1.219,0.348,1.778
			c-0.166,0.412-0.542,0.633-0.558,0.907c-0.047,0.671,0.332,1.327,0.349,2.132c0.949-1.669,1.902-3.928,2.828-5.798
			c0.123-0.252,0.309-0.735,0.487-0.768c0.281-0.048,0.909,0.481,1.153,0.629c0.419,0.254,0.792,0.448,1.117,0.696
			c0,0.646,0,1.282,0,1.925c-1.794,0.54-2.207,2.142-2.654,4.153c-0.234,1.064-0.454,2.049-0.662,3.105
			c-0.235,1.229-0.184,1.752,0.838,2.238c0.476,0.228,0.857,0.701,1.467,0.592c0.926-0.168,0.643-1.521-0.106-1.604
			c-0.3-0.033-0.568,0.275-0.873,0.242c-0.215-0.021-0.514-0.256-0.559-0.488c-0.059-0.31,0.208-1.049,0.278-1.396
			c0.291-1.405,0.507-2.946,0.909-4.158c0.294-0.87,1.165-2.116,2.376-1.677c1.167,0.429,1.402,1.855,1.709,3.216
			c0.137,0.595,0.292,1.227,0.457,2.027c0.142,0.697,0.719,2.381-0.175,2.476c-0.301,0.033-0.575-0.251-0.908-0.208
			c-0.805,0.104-0.916,1.483,0.034,1.57c0.364,0.033,0.535-0.195,0.98-0.419c0.352-0.177,0.775-0.314,0.976-0.521
			c0.664-0.7,0.272-1.826,0.035-2.935c-0.545-2.585-0.826-5.605-3.146-6.252c-0.042-0.419-0.072-1.023,0.039-1.396
			c0.922,0.373,1.85,0.752,2.758,1.186c0.838,0.4,1.845,0.849,2.41,1.537c0.656,0.81,1,2.461,1.185,3.947
			C48.764,37.394,48.843,39.201,48.925,40.531z"/>
	</g>
</g>
<g>
	<path fill="#231F20" d="M103.339,25.345c-0.012-0.156-0.042-0.345-0.09-0.567s-0.144-0.432-0.288-0.63
		c-0.144-0.198-0.351-0.369-0.621-0.513s-0.639-0.216-1.107-0.216c-0.696,0-1.23,0.189-1.602,0.567s-0.558,0.963-0.558,1.755v5.238
		c0,0.793,0.186,1.377,0.558,1.756c0.372,0.377,0.918,0.566,1.638,0.566c0.456,0,0.819-0.068,1.089-0.207
		c0.27-0.138,0.474-0.309,0.612-0.514c0.138-0.203,0.228-0.422,0.27-0.656c0.042-0.234,0.075-0.453,0.099-0.657
		c0.024-0.239,0.12-0.405,0.288-0.495s0.384-0.135,0.648-0.135c0.336,0,0.582,0.066,0.738,0.198
		c0.156,0.132,0.234,0.396,0.234,0.792c0,0.492-0.099,0.945-0.297,1.359c-0.198,0.414-0.477,0.771-0.837,1.07
		c-0.36,0.301-0.792,0.531-1.296,0.693s-1.062,0.242-1.674,0.242c-0.54,0-1.053-0.071-1.539-0.215
		c-0.486-0.145-0.909-0.375-1.269-0.693s-0.645-0.732-0.855-1.242s-0.315-1.131-0.315-1.863v-5.238c0-0.732,0.105-1.353,0.315-1.863
		s0.498-0.924,0.864-1.242c0.366-0.318,0.792-0.549,1.278-0.693s0.999-0.216,1.539-0.216c0.612,0,1.17,0.081,1.674,0.243
		s0.936,0.387,1.296,0.675c0.36,0.288,0.636,0.63,0.828,1.026s0.288,0.834,0.288,1.314c0,0.408-0.078,0.675-0.234,0.801
		c-0.156,0.126-0.396,0.189-0.72,0.189c-0.288,0-0.516-0.051-0.684-0.153S103.352,25.561,103.339,25.345z"/>
	<path fill="#231F20" d="M110.215,26.245c0.492,0,0.963,0.093,1.413,0.279c0.45,0.186,0.846,0.441,1.188,0.765
		c0.342,0.324,0.615,0.702,0.819,1.134s0.306,0.888,0.306,1.368v1.656c0,0.467-0.102,0.918-0.306,1.35s-0.477,0.813-0.819,1.143
		c-0.342,0.33-0.738,0.594-1.188,0.793c-0.45,0.197-0.921,0.297-1.413,0.297c-0.504,0-0.981-0.1-1.431-0.297
		c-0.45-0.199-0.846-0.463-1.188-0.793c-0.342-0.33-0.612-0.711-0.81-1.143c-0.198-0.432-0.297-0.883-0.297-1.35v-1.656
		c0-0.469,0.099-0.918,0.297-1.35c0.198-0.432,0.465-0.81,0.801-1.134c0.336-0.324,0.729-0.582,1.179-0.774
		C109.216,26.341,109.699,26.245,110.215,26.245z M112.051,29.791c0-0.229-0.048-0.456-0.144-0.684
		c-0.096-0.229-0.228-0.43-0.396-0.604s-0.363-0.315-0.585-0.423c-0.222-0.108-0.459-0.162-0.711-0.162s-0.492,0.054-0.72,0.162
		c-0.228,0.108-0.423,0.25-0.585,0.423c-0.162,0.174-0.291,0.375-0.387,0.604c-0.096,0.228-0.144,0.455-0.144,0.684v1.656
		c0,0.24,0.048,0.474,0.144,0.701c0.096,0.229,0.225,0.432,0.387,0.612c0.162,0.181,0.357,0.324,0.585,0.433
		c0.228,0.107,0.468,0.162,0.72,0.162s0.489-0.055,0.711-0.162c0.222-0.108,0.417-0.252,0.585-0.433s0.3-0.384,0.396-0.612
		c0.096-0.228,0.144-0.461,0.144-0.701V29.791z"/>
	<path fill="#231F20" d="M117.487,34.255c0,0.155-0.096,0.3-0.288,0.432s-0.414,0.198-0.666,0.198c-0.276,0-0.501-0.066-0.675-0.198
		s-0.261-0.276-0.261-0.432v-7.29c0-0.18,0.087-0.327,0.261-0.441s0.399-0.171,0.675-0.171c0.24,0,0.441,0.057,0.603,0.171
		c0.162,0.114,0.243,0.261,0.243,0.441v0.648c0.18-0.348,0.474-0.663,0.882-0.945c0.408-0.282,0.918-0.423,1.53-0.423
		c0.42,0,0.819,0.093,1.197,0.279s0.711,0.441,0.999,0.765c0.288,0.324,0.516,0.702,0.684,1.134s0.252,0.888,0.252,1.368v4.464
		c0,0.204-0.099,0.36-0.297,0.468c-0.198,0.107-0.417,0.162-0.657,0.162c-0.216,0-0.426-0.055-0.63-0.162s-0.306-0.264-0.306-0.468
		v-4.464c0-0.229-0.048-0.456-0.144-0.684c-0.096-0.229-0.225-0.43-0.387-0.604s-0.354-0.315-0.576-0.423
		c-0.222-0.108-0.459-0.162-0.711-0.162c-0.216,0-0.429,0.042-0.639,0.126c-0.21,0.084-0.396,0.207-0.558,0.369
		c-0.162,0.162-0.291,0.36-0.387,0.594c-0.096,0.234-0.144,0.495-0.144,0.783V34.255z"/>
	<path fill="#231F20" d="M127.369,33.57c0.3,0,0.546-0.026,0.738-0.08c0.192-0.055,0.348-0.127,0.468-0.217s0.204-0.194,0.252-0.314
		s0.072-0.24,0.072-0.36c0-0.312-0.108-0.555-0.324-0.729c-0.216-0.174-0.483-0.314-0.801-0.422
		c-0.318-0.108-0.666-0.213-1.044-0.315s-0.727-0.239-1.044-0.414c-0.318-0.174-0.585-0.405-0.801-0.692
		c-0.216-0.289-0.324-0.685-0.324-1.188c0-0.312,0.054-0.621,0.162-0.927c0.108-0.306,0.282-0.582,0.522-0.828
		c0.24-0.246,0.558-0.447,0.954-0.603c0.396-0.156,0.876-0.234,1.44-0.234c0.336,0,0.666,0.027,0.99,0.081
		c0.324,0.054,0.612,0.132,0.864,0.234c0.252,0.102,0.456,0.216,0.612,0.342c0.156,0.126,0.234,0.261,0.234,0.405
		c0,0.072-0.015,0.159-0.045,0.261c-0.03,0.102-0.078,0.201-0.144,0.297c-0.066,0.096-0.144,0.18-0.234,0.252
		c-0.09,0.072-0.189,0.108-0.297,0.108c-0.096,0-0.204-0.027-0.324-0.081c-0.12-0.054-0.258-0.114-0.414-0.18
		c-0.156-0.066-0.333-0.126-0.531-0.18c-0.198-0.054-0.423-0.081-0.675-0.081c-0.528,0-0.903,0.117-1.125,0.351
		c-0.222,0.234-0.333,0.465-0.333,0.693c0,0.264,0.108,0.465,0.324,0.603c0.216,0.139,0.486,0.258,0.81,0.36
		c0.324,0.103,0.675,0.204,1.053,0.306s0.729,0.25,1.053,0.441c0.324,0.191,0.594,0.449,0.81,0.773
		c0.216,0.324,0.324,0.756,0.324,1.297c0,0.768-0.273,1.377-0.819,1.826c-0.546,0.45-1.329,0.676-2.349,0.676
		c-0.444,0-0.855-0.043-1.233-0.127s-0.705-0.194-0.981-0.332c-0.276-0.139-0.492-0.295-0.648-0.469
		c-0.156-0.174-0.234-0.345-0.234-0.513s0.06-0.351,0.18-0.55c0.12-0.197,0.276-0.297,0.468-0.297c0.12,0,0.24,0.043,0.36,0.127
		c0.12,0.084,0.264,0.18,0.432,0.287c0.168,0.108,0.381,0.205,0.639,0.289C126.664,33.529,126.985,33.57,127.369,33.57z"/>
	<path fill="#231F20" d="M135.757,35.029c-0.504,0-0.984-0.097-1.44-0.289c-0.456-0.191-0.852-0.452-1.188-0.782
		c-0.336-0.33-0.603-0.708-0.801-1.134c-0.198-0.426-0.297-0.873-0.297-1.342v-4.5c0-0.168,0.093-0.315,0.279-0.441
		c0.186-0.126,0.411-0.189,0.675-0.189c0.252,0,0.471,0.063,0.657,0.189c0.186,0.126,0.279,0.273,0.279,0.441v4.5
		c0,0.24,0.048,0.472,0.144,0.693c0.096,0.223,0.228,0.42,0.396,0.594c0.168,0.174,0.363,0.315,0.585,0.424
		c0.222,0.107,0.459,0.162,0.711,0.162s0.492-0.055,0.72-0.162c0.228-0.108,0.423-0.25,0.585-0.424
		c0.162-0.174,0.291-0.371,0.387-0.594c0.096-0.222,0.144-0.453,0.144-0.693v-4.518c0-0.168,0.093-0.312,0.279-0.432
		c0.186-0.12,0.411-0.18,0.675-0.18c0.276,0,0.498,0.061,0.666,0.18c0.168,0.12,0.252,0.264,0.252,0.432v4.518
		c0,0.469-0.099,0.918-0.297,1.351c-0.198,0.432-0.465,0.81-0.801,1.134s-0.729,0.582-1.179,0.773
		C136.738,34.933,136.261,35.029,135.757,35.029z"/>
	<path fill="#231F20" d="M142.471,21.277c0.264,0,0.489,0.057,0.675,0.171c0.186,0.114,0.279,0.261,0.279,0.441v12.366
		c0,0.155-0.093,0.3-0.279,0.432c-0.187,0.132-0.411,0.198-0.675,0.198c-0.276,0-0.501-0.066-0.675-0.198
		c-0.174-0.132-0.261-0.276-0.261-0.432V21.889c0-0.18,0.087-0.327,0.261-0.441C141.97,21.334,142.195,21.277,142.471,21.277z"/>
	<path fill="#231F20" d="M147.439,32.076c0,0.433,0.093,0.738,0.279,0.918c0.186,0.181,0.513,0.271,0.981,0.271h0.63
		c0.276,0,0.48,0.084,0.612,0.252c0.132,0.169,0.198,0.354,0.198,0.558c0,0.205-0.066,0.391-0.198,0.559
		c-0.132,0.168-0.336,0.252-0.612,0.252h-0.63c-1.032,0-1.815-0.222-2.349-0.666c-0.534-0.443-0.801-1.158-0.801-2.143v-9.018
		c0-0.18,0.099-0.327,0.297-0.441c0.198-0.114,0.411-0.171,0.639-0.171c0.24,0,0.459,0.057,0.657,0.171
		c0.198,0.114,0.297,0.261,0.297,0.441v3.294h2.196c0.168,0,0.297,0.072,0.387,0.216c0.09,0.144,0.135,0.306,0.135,0.486
		c0,0.18-0.045,0.342-0.135,0.486c-0.09,0.144-0.219,0.216-0.387,0.216h-2.196V32.076z"/>
	<path fill="#231F20" d="M154.207,26.245c0.66,0,1.221,0.099,1.683,0.297c0.462,0.198,0.837,0.459,1.125,0.783
		c0.288,0.324,0.498,0.696,0.63,1.116c0.132,0.42,0.198,0.852,0.198,1.295v4.519c0,0.168-0.087,0.315-0.261,0.44
		c-0.174,0.127-0.393,0.189-0.657,0.189c-0.24,0-0.444-0.063-0.612-0.189c-0.168-0.125-0.252-0.272-0.252-0.44v-0.63
		c-0.312,0.372-0.69,0.699-1.134,0.98c-0.444,0.282-0.972,0.424-1.584,0.424c-0.324,0-0.633-0.049-0.927-0.145
		s-0.549-0.243-0.765-0.441c-0.216-0.197-0.387-0.443-0.513-0.738c-0.126-0.293-0.189-0.645-0.189-1.053
		c0-0.504,0.102-0.924,0.306-1.26s0.492-0.6,0.864-0.792c0.372-0.191,0.816-0.327,1.332-0.405c0.516-0.078,1.086-0.117,1.71-0.117
		h0.792v-0.323c0-0.228-0.03-0.459-0.09-0.693c-0.06-0.234-0.162-0.443-0.306-0.63c-0.144-0.186-0.33-0.335-0.558-0.45
		s-0.504-0.171-0.828-0.171c-0.324,0-0.594,0.027-0.81,0.081c-0.216,0.054-0.396,0.117-0.54,0.189
		c-0.144,0.072-0.267,0.135-0.369,0.189c-0.102,0.054-0.195,0.081-0.279,0.081c-0.228,0-0.399-0.104-0.513-0.315
		c-0.114-0.209-0.171-0.423-0.171-0.639c0-0.156,0.083-0.306,0.252-0.45c0.167-0.144,0.384-0.267,0.648-0.369
		c0.264-0.102,0.555-0.183,0.873-0.243C153.58,26.275,153.895,26.245,154.207,26.245z M155.953,31.123h-0.45
		c-0.348,0-0.681,0.016-0.999,0.045s-0.597,0.09-0.837,0.18c-0.24,0.09-0.435,0.219-0.585,0.387
		c-0.15,0.168-0.225,0.396-0.225,0.685c0,0.407,0.111,0.705,0.333,0.891c0.222,0.187,0.501,0.279,0.837,0.279
		c0.228,0,0.456-0.054,0.684-0.162s0.435-0.245,0.621-0.414c0.186-0.168,0.336-0.36,0.45-0.576c0.114-0.216,0.171-0.432,0.171-0.647
		V31.123z"/>
	<path fill="#231F20" d="M161.658,34.255c0,0.155-0.096,0.3-0.287,0.432c-0.192,0.132-0.414,0.198-0.667,0.198
		c-0.276,0-0.501-0.066-0.675-0.198s-0.261-0.276-0.261-0.432v-7.29c0-0.18,0.087-0.327,0.261-0.441s0.399-0.171,0.675-0.171
		c0.24,0,0.442,0.057,0.603,0.171c0.162,0.114,0.243,0.261,0.243,0.441v0.648c0.18-0.348,0.475-0.663,0.882-0.945
		c0.408-0.282,0.918-0.423,1.53-0.423c0.42,0,0.818,0.093,1.197,0.279c0.377,0.186,0.711,0.441,0.998,0.765
		c0.289,0.324,0.517,0.702,0.685,1.134s0.252,0.888,0.252,1.368v4.464c0,0.204-0.099,0.36-0.297,0.468s-0.417,0.162-0.657,0.162
		c-0.216,0-0.426-0.055-0.63-0.162s-0.306-0.264-0.306-0.468v-4.464c0-0.229-0.049-0.456-0.145-0.684
		c-0.096-0.229-0.225-0.43-0.387-0.604s-0.354-0.315-0.576-0.423c-0.223-0.108-0.459-0.162-0.711-0.162
		c-0.216,0-0.43,0.042-0.639,0.126c-0.211,0.084-0.396,0.207-0.559,0.369c-0.162,0.162-0.291,0.36-0.387,0.594
		c-0.096,0.234-0.145,0.495-0.145,0.783V34.255z"/>
	<path fill="#231F20" d="M170.875,32.076c0,0.433,0.092,0.738,0.279,0.918c0.186,0.181,0.512,0.271,0.98,0.271h0.63
		c0.276,0,0.479,0.084,0.612,0.252c0.132,0.169,0.197,0.354,0.197,0.558c0,0.205-0.065,0.391-0.197,0.559
		c-0.133,0.168-0.336,0.252-0.612,0.252h-0.63c-1.032,0-1.815-0.222-2.35-0.666c-0.533-0.443-0.801-1.158-0.801-2.143v-9.018
		c0-0.18,0.1-0.327,0.297-0.441c0.198-0.114,0.411-0.171,0.64-0.171c0.239,0,0.459,0.057,0.657,0.171
		c0.197,0.114,0.297,0.261,0.297,0.441v3.294h2.195c0.168,0,0.297,0.072,0.387,0.216c0.091,0.144,0.136,0.306,0.136,0.486
		c0,0.18-0.045,0.342-0.136,0.486c-0.09,0.144-0.219,0.216-0.387,0.216h-2.195V32.076z"/>
	<path fill="#231F20" d="M178.723,22.339c0-0.168,0.066-0.312,0.198-0.432c0.132-0.12,0.312-0.18,0.54-0.18h3.51
		c0.552,0,1.068,0.069,1.548,0.207c0.479,0.138,0.897,0.366,1.251,0.684c0.354,0.318,0.633,0.729,0.837,1.233
		c0.204,0.504,0.306,1.116,0.306,1.836v0.144c0,0.72-0.104,1.332-0.314,1.836c-0.21,0.504-0.498,0.915-0.863,1.233
		c-0.367,0.318-0.796,0.549-1.287,0.693c-0.492,0.144-1.021,0.216-1.584,0.216h-2.232v4.446c0,0.204-0.1,0.36-0.297,0.468
		c-0.198,0.107-0.418,0.162-0.657,0.162c-0.24,0-0.459-0.055-0.657-0.162c-0.197-0.107-0.297-0.264-0.297-0.468V22.339z
		 M180.631,23.419v4.878h2.232c0.672,0,1.196-0.192,1.574-0.576c0.378-0.384,0.567-0.972,0.567-1.764v-0.216
		c0-0.792-0.189-1.377-0.567-1.755s-0.902-0.567-1.574-0.567H180.631z"/>
	<path fill="#231F20" d="M190.242,34.255c0,0.155-0.096,0.3-0.287,0.432c-0.192,0.132-0.414,0.198-0.666,0.198
		c-0.276,0-0.502-0.066-0.676-0.198s-0.261-0.276-0.261-0.432V21.889c0-0.18,0.087-0.327,0.261-0.441
		c0.174-0.114,0.399-0.171,0.676-0.171c0.252,0,0.474,0.057,0.666,0.171c0.191,0.114,0.287,0.261,0.287,0.441v5.724
		c0.168-0.348,0.451-0.663,0.847-0.945c0.396-0.282,0.882-0.423,1.458-0.423c0.42,0,0.818,0.093,1.197,0.279
		c0.377,0.186,0.711,0.441,0.998,0.765c0.289,0.324,0.516,0.702,0.685,1.134c0.168,0.432,0.252,0.888,0.252,1.368v4.464
		c0,0.204-0.099,0.36-0.297,0.468s-0.417,0.162-0.657,0.162c-0.216,0-0.426-0.055-0.63-0.162s-0.306-0.264-0.306-0.468v-4.464
		c0-0.229-0.049-0.456-0.145-0.684c-0.096-0.229-0.229-0.43-0.396-0.604s-0.359-0.315-0.575-0.423
		c-0.216-0.108-0.45-0.162-0.702-0.162c-0.216,0-0.43,0.042-0.639,0.126c-0.211,0.084-0.396,0.207-0.559,0.369
		c-0.162,0.162-0.291,0.36-0.387,0.594c-0.096,0.234-0.145,0.495-0.145,0.783V34.255z"/>
	<path fill="#231F20" d="M196.688,27.379c-0.049-0.06-0.072-0.144-0.072-0.252c0-0.12,0.041-0.234,0.126-0.342
		c0.083-0.108,0.186-0.204,0.306-0.288c0.12-0.083,0.252-0.15,0.396-0.198c0.144-0.048,0.281-0.072,0.414-0.072
		c0.131,0,0.248,0.027,0.351,0.081c0.103,0.054,0.177,0.141,0.226,0.261l2.268,5.85l1.943-5.85c0.061-0.12,0.139-0.207,0.234-0.261
		c0.096-0.054,0.198-0.081,0.307-0.081c0.107,0,0.236,0.024,0.387,0.072s0.287,0.114,0.414,0.198
		c0.125,0.084,0.234,0.183,0.324,0.297c0.09,0.114,0.135,0.237,0.135,0.369c0,0.036,0,0.075,0,0.117s-0.012,0.075-0.036,0.099
		l-2.664,7.038c-0.204,0.528-0.421,1.062-0.647,1.602c-0.229,0.54-0.502,1.026-0.82,1.458c-0.317,0.432-0.701,0.783-1.151,1.053
		c-0.45,0.271-0.993,0.405-1.629,0.405c-0.24,0-0.447-0.048-0.621-0.144c-0.174-0.097-0.261-0.318-0.261-0.666
		c0-0.217,0.039-0.405,0.117-0.567c0.078-0.161,0.213-0.243,0.404-0.243c0.229,0,0.48-0.057,0.756-0.171
		c0.276-0.114,0.537-0.294,0.783-0.54s0.465-0.555,0.657-0.927s0.317-0.81,0.378-1.313L196.688,27.379z"/>
	<path fill="#231F20" d="M208.188,33.57c0.3,0,0.546-0.026,0.738-0.08c0.192-0.055,0.348-0.127,0.468-0.217s0.204-0.194,0.252-0.314
		s0.072-0.24,0.072-0.36c0-0.312-0.107-0.555-0.324-0.729c-0.216-0.174-0.482-0.314-0.801-0.422
		c-0.318-0.108-0.666-0.213-1.044-0.315s-0.727-0.239-1.044-0.414c-0.318-0.174-0.586-0.405-0.801-0.692
		c-0.217-0.289-0.324-0.685-0.324-1.188c0-0.312,0.054-0.621,0.162-0.927c0.107-0.306,0.281-0.582,0.521-0.828
		c0.24-0.246,0.559-0.447,0.954-0.603c0.396-0.156,0.876-0.234,1.44-0.234c0.336,0,0.666,0.027,0.99,0.081
		c0.323,0.054,0.611,0.132,0.863,0.234c0.252,0.102,0.456,0.216,0.612,0.342c0.155,0.126,0.233,0.261,0.233,0.405
		c0,0.072-0.015,0.159-0.045,0.261c-0.029,0.102-0.078,0.201-0.144,0.297c-0.066,0.096-0.144,0.18-0.233,0.252
		c-0.091,0.072-0.189,0.108-0.298,0.108c-0.097,0-0.204-0.027-0.323-0.081c-0.121-0.054-0.259-0.114-0.414-0.18
		c-0.156-0.066-0.334-0.126-0.531-0.18c-0.198-0.054-0.424-0.081-0.676-0.081c-0.527,0-0.902,0.117-1.125,0.351
		c-0.222,0.234-0.332,0.465-0.332,0.693c0,0.264,0.107,0.465,0.324,0.603c0.215,0.139,0.485,0.258,0.809,0.36
		c0.324,0.103,0.676,0.204,1.054,0.306s0.729,0.25,1.054,0.441c0.323,0.191,0.594,0.449,0.809,0.773
		c0.217,0.324,0.324,0.756,0.324,1.297c0,0.768-0.272,1.377-0.818,1.826c-0.547,0.45-1.329,0.676-2.35,0.676
		c-0.443,0-0.854-0.043-1.232-0.127s-0.705-0.194-0.98-0.332c-0.277-0.139-0.492-0.295-0.648-0.469s-0.234-0.345-0.234-0.513
		s0.061-0.351,0.18-0.55c0.12-0.197,0.276-0.297,0.469-0.297c0.119,0,0.24,0.043,0.359,0.127c0.12,0.084,0.264,0.18,0.432,0.287
		c0.168,0.108,0.381,0.205,0.64,0.289C207.483,33.529,207.805,33.57,208.188,33.57z"/>
	<path fill="#231F20" d="M213.858,22.231c0.312,0,0.573,0.096,0.783,0.288c0.21,0.192,0.315,0.426,0.315,0.702
		c0,0.264-0.105,0.495-0.315,0.693c-0.21,0.198-0.472,0.297-0.783,0.297s-0.573-0.099-0.782-0.297
		c-0.211-0.198-0.315-0.429-0.315-0.693c0-0.276,0.104-0.51,0.315-0.702C213.285,22.327,213.547,22.231,213.858,22.231z
		 M213.858,26.353c0.276,0,0.505,0.057,0.685,0.171s0.27,0.261,0.27,0.441v7.29c0,0.155-0.09,0.3-0.27,0.432
		s-0.408,0.198-0.685,0.198s-0.501-0.066-0.675-0.198s-0.261-0.276-0.261-0.432v-7.29c0-0.18,0.087-0.327,0.261-0.441
		S213.582,26.353,213.858,26.353z"/>
	<path fill="#231F20" d="M220.248,35.029c-0.647,0-1.209-0.09-1.682-0.271c-0.475-0.181-0.865-0.429-1.171-0.747
		s-0.53-0.695-0.675-1.134s-0.216-0.915-0.216-1.431v-1.621c0-0.504,0.071-0.974,0.216-1.413c0.145-0.438,0.369-0.816,0.675-1.134
		s0.693-0.57,1.161-0.756c0.469-0.186,1.025-0.279,1.674-0.279c0.408,0,0.78,0.039,1.116,0.117s0.627,0.18,0.873,0.306
		c0.245,0.126,0.435,0.267,0.567,0.423c0.131,0.156,0.197,0.312,0.197,0.468c0,0.18-0.068,0.378-0.207,0.594
		c-0.138,0.216-0.32,0.324-0.549,0.324c-0.096,0-0.191-0.03-0.287-0.09c-0.097-0.06-0.214-0.123-0.352-0.189
		c-0.139-0.066-0.303-0.129-0.495-0.189s-0.433-0.09-0.72-0.09c-0.684,0-1.186,0.168-1.504,0.504
		c-0.317,0.336-0.477,0.804-0.477,1.403v1.621c0,0.6,0.159,1.068,0.477,1.403c0.318,0.337,0.826,0.505,1.521,0.505
		c0.3,0,0.546-0.03,0.738-0.091c0.191-0.06,0.357-0.129,0.495-0.207c0.138-0.077,0.255-0.146,0.351-0.207
		c0.096-0.06,0.198-0.09,0.307-0.09c0.252,0,0.449,0.103,0.594,0.306c0.144,0.205,0.216,0.402,0.216,0.594
		c0,0.156-0.072,0.315-0.216,0.478c-0.145,0.162-0.342,0.31-0.594,0.44c-0.252,0.133-0.553,0.24-0.9,0.324
		S220.656,35.029,220.248,35.029z"/>
	<path fill="#231F20" d="M227.179,26.245c0.659,0,1.221,0.099,1.683,0.297c0.463,0.198,0.838,0.459,1.125,0.783
		c0.289,0.324,0.498,0.696,0.631,1.116c0.131,0.42,0.197,0.852,0.197,1.295v4.519c0,0.168-0.087,0.315-0.261,0.44
		c-0.175,0.127-0.394,0.189-0.657,0.189c-0.24,0-0.443-0.063-0.611-0.189c-0.168-0.125-0.252-0.272-0.252-0.44v-0.63
		c-0.313,0.372-0.691,0.699-1.135,0.98c-0.443,0.282-0.972,0.424-1.584,0.424c-0.324,0-0.633-0.049-0.927-0.145
		s-0.549-0.243-0.765-0.441c-0.217-0.197-0.387-0.443-0.514-0.738c-0.125-0.293-0.188-0.645-0.188-1.053
		c0-0.504,0.102-0.924,0.306-1.26s0.492-0.6,0.864-0.792c0.372-0.191,0.815-0.327,1.332-0.405c0.516-0.078,1.086-0.117,1.71-0.117
		h0.792v-0.323c0-0.228-0.03-0.459-0.091-0.693c-0.06-0.234-0.161-0.443-0.305-0.63c-0.145-0.186-0.33-0.335-0.559-0.45
		s-0.504-0.171-0.828-0.171s-0.594,0.027-0.811,0.081c-0.215,0.054-0.396,0.117-0.539,0.189c-0.145,0.072-0.268,0.135-0.369,0.189
		c-0.102,0.054-0.195,0.081-0.279,0.081c-0.229,0-0.398-0.104-0.513-0.315c-0.114-0.209-0.171-0.423-0.171-0.639
		c0-0.156,0.084-0.306,0.252-0.45s0.384-0.267,0.648-0.369c0.264-0.102,0.555-0.183,0.873-0.243
		C226.552,26.275,226.867,26.245,227.179,26.245z M228.925,31.123h-0.45c-0.348,0-0.682,0.016-0.999,0.045s-0.597,0.09-0.837,0.18
		s-0.436,0.219-0.585,0.387c-0.15,0.168-0.226,0.396-0.226,0.685c0,0.407,0.111,0.705,0.334,0.891
		c0.222,0.187,0.5,0.279,0.836,0.279c0.229,0,0.457-0.054,0.685-0.162s0.435-0.245,0.621-0.414c0.187-0.168,0.336-0.36,0.45-0.576
		c0.113-0.216,0.171-0.432,0.171-0.647V31.123z"/>
	<path fill="#231F20" d="M233.838,21.277c0.265,0,0.489,0.057,0.676,0.171c0.186,0.114,0.279,0.261,0.279,0.441v12.366
		c0,0.155-0.094,0.3-0.279,0.432c-0.187,0.132-0.411,0.198-0.676,0.198c-0.275,0-0.5-0.066-0.674-0.198
		c-0.175-0.132-0.262-0.276-0.262-0.432V21.889c0-0.18,0.087-0.327,0.262-0.441C233.338,21.334,233.563,21.277,233.838,21.277z"/>
	<path fill="#231F20" d="M247.896,21.727c0.216,0,0.375,0.09,0.477,0.27c0.102,0.18,0.153,0.372,0.153,0.576
		c0,0.24-0.054,0.45-0.162,0.63c-0.108,0.18-0.265,0.27-0.468,0.27h-2.771v10.782c0,0.204-0.1,0.36-0.297,0.468
		c-0.199,0.107-0.418,0.162-0.658,0.162s-0.459-0.055-0.656-0.162c-0.198-0.107-0.297-0.264-0.297-0.468V23.473h-2.791
		c-0.203,0-0.359-0.087-0.467-0.261c-0.108-0.174-0.162-0.381-0.162-0.621c0-0.204,0.051-0.399,0.152-0.585s0.262-0.279,0.477-0.279
		H247.896z"/>
	<path fill="#231F20" d="M251.676,34.255c0,0.155-0.096,0.3-0.287,0.432c-0.192,0.132-0.414,0.198-0.666,0.198
		c-0.276,0-0.502-0.066-0.676-0.198s-0.261-0.276-0.261-0.432V21.889c0-0.18,0.087-0.327,0.261-0.441
		c0.174-0.114,0.399-0.171,0.676-0.171c0.252,0,0.474,0.057,0.666,0.171c0.191,0.114,0.287,0.261,0.287,0.441v5.724
		c0.168-0.348,0.451-0.663,0.847-0.945c0.396-0.282,0.882-0.423,1.458-0.423c0.42,0,0.818,0.093,1.197,0.279
		c0.377,0.186,0.711,0.441,0.998,0.765c0.289,0.324,0.516,0.702,0.685,1.134c0.168,0.432,0.252,0.888,0.252,1.368v4.464
		c0,0.204-0.099,0.36-0.297,0.468s-0.417,0.162-0.657,0.162c-0.216,0-0.426-0.055-0.63-0.162s-0.306-0.264-0.306-0.468v-4.464
		c0-0.229-0.049-0.456-0.145-0.684c-0.096-0.229-0.229-0.43-0.396-0.604s-0.359-0.315-0.575-0.423
		c-0.216-0.108-0.45-0.162-0.702-0.162c-0.216,0-0.43,0.042-0.639,0.126c-0.211,0.084-0.396,0.207-0.559,0.369
		c-0.162,0.162-0.291,0.36-0.387,0.594c-0.096,0.234-0.145,0.495-0.145,0.783V34.255z"/>
	<path fill="#231F20" d="M262.44,26.245c0.479,0,0.937,0.081,1.368,0.243s0.813,0.39,1.143,0.684s0.591,0.645,0.783,1.053
		c0.191,0.408,0.288,0.858,0.288,1.35c0,0.373-0.048,0.664-0.144,0.873c-0.097,0.211-0.22,0.363-0.369,0.459
		c-0.15,0.097-0.324,0.156-0.522,0.181s-0.399,0.036-0.603,0.036h-3.799v0.414c0,0.611,0.217,1.092,0.648,1.439
		c0.432,0.349,0.996,0.521,1.691,0.521c0.324,0,0.598-0.035,0.819-0.107s0.414-0.15,0.576-0.234s0.306-0.162,0.433-0.233
		c0.125-0.072,0.248-0.108,0.368-0.108c0.228,0,0.408,0.1,0.54,0.297c0.132,0.198,0.198,0.381,0.198,0.549
		c0,0.133-0.069,0.279-0.207,0.441s-0.339,0.313-0.603,0.45c-0.265,0.138-0.58,0.252-0.945,0.342
		c-0.366,0.091-0.777,0.136-1.233,0.136c-0.612,0-1.173-0.088-1.683-0.262s-0.951-0.416-1.323-0.729s-0.66-0.688-0.864-1.125
		s-0.306-0.928-0.306-1.467v-1.711c0-0.468,0.099-0.915,0.297-1.34c0.198-0.426,0.465-0.798,0.802-1.116
		c0.335-0.318,0.73-0.57,1.188-0.756C261.438,26.338,261.924,26.245,262.44,26.245z M263.574,29.953
		c0.264,0,0.441-0.036,0.531-0.108c0.09-0.071,0.135-0.216,0.135-0.433c0-0.479-0.174-0.887-0.521-1.223
		c-0.349-0.336-0.781-0.504-1.297-0.504c-0.252,0-0.488,0.042-0.711,0.126c-0.222,0.084-0.417,0.201-0.584,0.351
		c-0.169,0.15-0.301,0.327-0.396,0.531s-0.145,0.432-0.145,0.684v0.576H263.574z"/>
	<path fill="#231F20" d="M271.621,27.919c-0.277,0-0.543,0.06-0.802,0.18c-0.258,0.12-0.489,0.294-0.692,0.522
		c-0.205,0.228-0.369,0.507-0.496,0.837c-0.125,0.33-0.188,0.698-0.188,1.106v3.69c0,0.155-0.093,0.3-0.278,0.432
		c-0.187,0.132-0.418,0.198-0.693,0.198c-0.276,0-0.498-0.066-0.666-0.198s-0.252-0.276-0.252-0.432v-7.29
		c0-0.18,0.084-0.327,0.252-0.441s0.39-0.171,0.666-0.171c0.24,0,0.443,0.057,0.611,0.171s0.252,0.261,0.252,0.441v0.792
		c0.096-0.192,0.219-0.378,0.369-0.558s0.324-0.342,0.522-0.486s0.414-0.258,0.647-0.342c0.234-0.083,0.483-0.126,0.748-0.126h0.575
		c0.192,0,0.36,0.081,0.505,0.243c0.144,0.162,0.215,0.357,0.215,0.585c0,0.24-0.071,0.441-0.215,0.603
		c-0.145,0.162-0.313,0.243-0.505,0.243H271.621z"/>
	<path fill="#231F20" d="M276.75,26.245c0.66,0,1.221,0.099,1.684,0.297c0.461,0.198,0.836,0.459,1.125,0.783
		c0.287,0.324,0.497,0.696,0.629,1.116c0.133,0.42,0.199,0.852,0.199,1.295v4.519c0,0.168-0.088,0.315-0.262,0.44
		c-0.174,0.127-0.393,0.189-0.657,0.189c-0.239,0-0.444-0.063-0.612-0.189c-0.168-0.125-0.252-0.272-0.252-0.44v-0.63
		c-0.312,0.372-0.689,0.699-1.133,0.98c-0.445,0.282-0.973,0.424-1.584,0.424c-0.324,0-0.634-0.049-0.928-0.145
		s-0.549-0.243-0.766-0.441c-0.215-0.197-0.387-0.443-0.512-0.738c-0.127-0.293-0.189-0.645-0.189-1.053
		c0-0.504,0.102-0.924,0.306-1.26s0.492-0.6,0.864-0.792c0.371-0.191,0.816-0.327,1.332-0.405s1.086-0.117,1.71-0.117h0.792v-0.323
		c0-0.228-0.03-0.459-0.09-0.693c-0.061-0.234-0.162-0.443-0.307-0.63c-0.144-0.186-0.33-0.335-0.558-0.45s-0.504-0.171-0.828-0.171
		c-0.323,0-0.594,0.027-0.81,0.081c-0.217,0.054-0.396,0.117-0.541,0.189c-0.143,0.072-0.267,0.135-0.368,0.189
		c-0.103,0.054-0.195,0.081-0.279,0.081c-0.228,0-0.399-0.104-0.513-0.315c-0.114-0.209-0.171-0.423-0.171-0.639
		c0-0.156,0.083-0.306,0.252-0.45c0.167-0.144,0.384-0.267,0.647-0.369c0.264-0.102,0.555-0.183,0.873-0.243
		S276.438,26.245,276.75,26.245z M278.496,31.123h-0.45c-0.349,0-0.681,0.016-0.999,0.045s-0.598,0.09-0.837,0.18
		c-0.24,0.09-0.435,0.219-0.585,0.387s-0.225,0.396-0.225,0.685c0,0.407,0.11,0.705,0.332,0.891
		c0.223,0.187,0.502,0.279,0.838,0.279c0.228,0,0.455-0.054,0.684-0.162s0.436-0.245,0.621-0.414c0.186-0.168,0.336-0.36,0.45-0.576
		s0.171-0.432,0.171-0.647V31.123z"/>
	<path fill="#231F20" d="M283.23,26.353c0.252,0,0.461,0.057,0.629,0.171s0.252,0.261,0.252,0.441v0.648
		c0.205-0.348,0.514-0.663,0.928-0.945c0.414-0.282,0.908-0.423,1.484-0.423c0.444,0,0.864,0.093,1.26,0.279
		c0.396,0.186,0.741,0.441,1.035,0.765c0.295,0.324,0.525,0.702,0.693,1.134s0.252,0.888,0.252,1.368v1.656
		c0,0.467-0.087,0.918-0.261,1.35c-0.175,0.432-0.405,0.813-0.693,1.143s-0.624,0.594-1.008,0.793
		c-0.384,0.197-0.786,0.297-1.206,0.297c-0.54,0-1.025-0.142-1.458-0.424c-0.433-0.281-0.737-0.608-0.918-0.98v4.68
		c0,0.168-0.093,0.314-0.278,0.441c-0.188,0.125-0.418,0.188-0.693,0.188c-0.276,0-0.498-0.063-0.666-0.188
		c-0.168-0.127-0.252-0.273-0.252-0.441v-11.34c0-0.18,0.086-0.327,0.261-0.441C282.765,26.41,282.978,26.353,283.23,26.353z
		 M287.873,29.791c0-0.229-0.047-0.456-0.143-0.684c-0.097-0.229-0.232-0.43-0.406-0.604s-0.375-0.315-0.603-0.423
		c-0.228-0.108-0.468-0.162-0.72-0.162c-0.217,0-0.432,0.042-0.648,0.126c-0.216,0.084-0.408,0.207-0.576,0.369
		c-0.168,0.162-0.303,0.36-0.404,0.594c-0.103,0.234-0.153,0.495-0.153,0.783v2.07c0,0.107,0.045,0.246,0.136,0.414
		c0.09,0.168,0.215,0.332,0.377,0.494s0.354,0.301,0.576,0.414c0.223,0.114,0.465,0.172,0.729,0.172c0.24,0,0.472-0.055,0.693-0.162
		c0.223-0.108,0.417-0.252,0.586-0.433c0.168-0.181,0.303-0.384,0.404-0.612c0.102-0.228,0.152-0.461,0.152-0.701V29.791z"/>
	<path fill="#231F20" d="M290.592,27.379c-0.048-0.06-0.072-0.144-0.072-0.252c0-0.12,0.042-0.234,0.127-0.342
		c0.083-0.108,0.186-0.204,0.305-0.288c0.121-0.083,0.252-0.15,0.396-0.198s0.282-0.072,0.414-0.072s0.249,0.027,0.352,0.081
		c0.102,0.054,0.176,0.141,0.225,0.261l2.268,5.85l1.944-5.85c0.06-0.12,0.138-0.207,0.233-0.261
		c0.097-0.054,0.199-0.081,0.307-0.081s0.236,0.024,0.387,0.072s0.288,0.114,0.414,0.198c0.126,0.084,0.234,0.183,0.324,0.297
		c0.09,0.114,0.135,0.237,0.135,0.369c0,0.036,0,0.075,0,0.117s-0.012,0.075-0.035,0.099l-2.664,7.038
		c-0.205,0.528-0.421,1.062-0.648,1.602c-0.229,0.54-0.502,1.026-0.819,1.458s-0.702,0.783-1.151,1.053
		c-0.45,0.271-0.994,0.405-1.629,0.405c-0.24,0-0.447-0.048-0.621-0.144c-0.174-0.097-0.262-0.318-0.262-0.666
		c0-0.217,0.039-0.405,0.117-0.567c0.078-0.161,0.213-0.243,0.405-0.243c0.228,0,0.479-0.057,0.756-0.171s0.537-0.294,0.783-0.54
		c0.245-0.246,0.465-0.555,0.657-0.927c0.191-0.372,0.317-0.81,0.377-1.313L290.592,27.379z"/>
</g>
</svg>
